<?xml version="1.0" encoding="utf-8"?>
<!-- Generator: Adobe Illustrator 19.0.0, SVG Export Plug-In . SVG Version: 6.00 Build 0)  -->
<svg version="1.1" id="Layer_1" xmlns="http://www.w3.org/2000/svg" xmlns:xlink="http://www.w3.org/1999/xlink" x="0px" y="0px"
	 viewBox="0 0 200 200" style="enable-background:new 0 0 200 200;" xml:space="preserve">
<style type="text/css">
	.st0{fill:#F78D38;stroke:#FFFFFF;stroke-width:3;stroke-miterlimit:10;}
	.st1{fill:#343433;stroke:#FFFFFF;stroke-width:3;stroke-miterlimit:10;}
	.st2{fill:#F17523;stroke:#FFFFFF;stroke-width:3;stroke-miterlimit:10;}
	.st3{fill:#FFFFFF;stroke:#FFFFFF;stroke-width:3;stroke-miterlimit:10;}
	.st4{opacity:0.14;fill:#010101;stroke:#FFFFFF;stroke-width:3;stroke-miterlimit:10;enable-background:new    ;}
	.st5{fill:#F78D38;}
	.st6{fill:#343433;}
	.st7{fill:#F17523;}
	.st8{fill:#FFFFFF;}
	.st9{opacity:0.14;fill:#010101;enable-background:new    ;}
	.st10{opacity:0.48;fill:url(#XMLID_2_);enable-background:new    ;}
</style>
<path id="XMLID_83_" class="st0" d="M154.9,137.3c-7.6,2.8-15.3,6.9-22.9,11.6c4.8-9.4,9.6-18.5,14.4-27.2
	C149.2,126.7,152,131.9,154.9,137.3z"/>
<path id="XMLID_82_" class="st1" d="M27,95.4c5.3,20.8,9.7,37.7,9.7,37.7s9.2,14.5,49.3,20.2c-2.9-5.4,63.2-26.6,60.3-31.7
	C103.8,108.3,69.5,138,27,95.4z"/>
<polygon id="XMLID_81_" class="st1" points="180.4,167.5 64,130.7 64.3,95.4 "/>
<path id="XMLID_80_" class="st1" d="M185.8,96.5C150.3,64.6,75.2,50.9,7.6,60.5c10.5,3,20.1,10.3,20.1,10.3s-2,4.3-6.3,12.7
	c47.4-9.6,126,10.4,156.7,36.7C180.7,110.8,183.2,105.7,185.8,96.5z"/>
<path id="XMLID_79_" class="st2" d="M122.8,164c26.5-9.2,45.5-34.4,45.5-64.1c0-37.5-30.4-67.9-67.9-67.9C63,32,32.6,62.4,32.6,99.9
	s30.4,67.9,67.9,67.9c0.7,0,1.3,0,2,0"/>
<g id="XMLID_177_">
	<path id="XMLID_78_" class="st3" d="M52,85.5l5.9-27.9h-4.2l0.5-2.1c0.6,0,1.3,0,2.1-0.1s1.6-0.2,2.5-0.4s2-0.6,3.1-1
		c1.1-0.5,2.4-1.1,3.7-1.9l-7.1,33.5L52,85.5L52,85.5z"/>
	<path id="XMLID_187_" class="st3" d="M75.4,86c-1.7,0-3.2-0.3-4.4-0.9c-1.2-0.6-2.1-1.4-2.8-2.4c-0.7-1-1.2-2.2-1.5-3.6
		s-0.4-2.8-0.4-4.4c0-2.1,0.2-4.1,0.5-6s0.8-3.8,1.4-5.5s1.4-3.3,2.3-4.7s1.9-2.6,3-3.7c1.1-1,2.4-1.8,3.7-2.4
		c1.3-0.6,2.8-0.9,4.3-0.9s2.8,0.3,3.8,0.8c1.1,0.5,2,1.2,2.7,2.2c0.7,0.9,1.2,2.1,1.6,3.4c0.3,1.3,0.5,2.8,0.5,4.4
		c0,1.1-0.1,2.3-0.2,3.5s-0.3,2.5-0.6,3.8c-0.3,1.3-0.6,2.6-1,3.9s-0.9,2.6-1.5,3.8c-0.6,1.2-1.3,2.3-2,3.3c-0.8,1-1.6,1.9-2.6,2.7
		c-1,0.8-2,1.4-3.2,1.8C78.1,85.7,76.8,86,75.4,86z M81.6,54.4c-0.7,0-1.4,0.3-2.1,0.9c-0.7,0.6-1.4,1.4-2,2.5
		c-0.6,1-1.2,2.3-1.7,3.7c-0.5,1.4-1,2.9-1.4,4.5s-0.7,3.2-0.9,5c-0.2,1.7-0.3,3.4-0.3,5c0,0.8,0,1.7,0.1,2.5s0.2,1.5,0.4,2.1
		c0.2,0.6,0.5,1.1,0.9,1.5s0.9,0.6,1.5,0.6c0.7,0,1.4-0.3,2.1-0.9s1.3-1.4,1.9-2.4s1.2-2.2,1.7-3.6s0.9-2.9,1.3-4.5s0.6-3.3,0.8-5
		c0.2-1.7,0.3-3.5,0.3-5.2c0-0.9-0.1-1.7-0.2-2.5s-0.3-1.5-0.5-2.1s-0.5-1.1-0.8-1.4C82.4,54.5,82,54.4,81.6,54.4z"/>
	<path id="XMLID_184_" class="st3" d="M100.3,86c-1.7,0-3.2-0.3-4.4-0.9c-1.2-0.6-2.1-1.4-2.8-2.4s-1.2-2.2-1.5-3.6
		s-0.4-2.8-0.4-4.4c0-2.1,0.2-4.1,0.5-6s0.8-3.8,1.4-5.5s1.4-3.3,2.3-4.7s1.9-2.6,3-3.7c1.1-1,2.4-1.8,3.7-2.4
		c1.3-0.6,2.8-0.9,4.3-0.9s2.8,0.3,3.8,0.8c1.1,0.5,2,1.2,2.7,2.2c0.7,0.9,1.2,2.1,1.6,3.4c0.3,1.3,0.5,2.8,0.5,4.4
		c0,1.1-0.1,2.3-0.2,3.5s-0.3,2.5-0.6,3.8c-0.3,1.3-0.6,2.6-1,3.9s-0.9,2.6-1.5,3.8c-0.6,1.2-1.3,2.3-2,3.3c-0.8,1-1.6,1.9-2.6,2.7
		c-1,0.8-2,1.4-3.2,1.8C103,85.7,101.7,86,100.3,86z M106.5,54.4c-0.7,0-1.4,0.3-2.1,0.9c-0.7,0.6-1.4,1.4-2,2.5
		c-0.6,1-1.2,2.3-1.7,3.7c-0.5,1.4-1,2.9-1.4,4.5s-0.7,3.2-0.9,5c-0.2,1.7-0.3,3.4-0.3,5c0,0.8,0,1.7,0.1,2.5s0.2,1.5,0.4,2.1
		c0.2,0.6,0.5,1.1,0.9,1.5s0.9,0.6,1.5,0.6c0.7,0,1.4-0.3,2.1-0.9s1.3-1.4,1.9-2.4s1.2-2.2,1.7-3.6s0.9-2.9,1.3-4.5s0.6-3.3,0.8-5
		c0.2-1.7,0.3-3.5,0.3-5.2c0-0.9-0.1-1.7-0.2-2.5s-0.3-1.5-0.5-2.1s-0.5-1.1-0.8-1.4C107.3,54.5,106.9,54.4,106.5,54.4z"/>
	<path id="XMLID_178_" class="st3" d="M124.8,51.3c1.7,0,3,0.6,3.9,1.7c0.9,1.1,1.3,2.8,1.3,5c0,1.7-0.2,3.3-0.7,4.8s-1.1,2.8-2,3.9
		c-0.8,1.1-1.8,2-2.9,2.6s-2.3,1-3.6,1c-3.4,0-5.1-2.2-5.1-6.7c0-1.7,0.2-3.3,0.7-4.8s1.1-2.8,1.9-3.9c0.8-1.1,1.8-2,2.9-2.6
		C122.3,51.7,123.5,51.3,124.8,51.3z M119.8,64.7c0,1.3,0.1,2.2,0.4,2.8c0.3,0.6,0.7,0.9,1.2,0.9c0.6,0,1.1-0.3,1.7-1
		c0.5-0.6,1-1.5,1.4-2.6s0.7-2.4,1-3.8c0.2-1.4,0.4-3,0.4-4.5c0-1.2-0.1-2-0.3-2.6c-0.2-0.5-0.6-0.8-1.1-0.8c-0.6,0-1.2,0.3-1.7,1
		c-0.6,0.7-1.1,1.5-1.5,2.6s-0.8,2.3-1.1,3.7C119.9,61.9,119.8,63.3,119.8,64.7z M123.4,85.5h-3.2l18.6-33.7h3.2L123.4,85.5z
		 M141.5,66.8c1.7,0,3,0.6,3.9,1.7s1.3,2.8,1.3,5c0,1.7-0.2,3.3-0.7,4.8s-1.1,2.8-2,3.9c-0.8,1.1-1.8,2-2.9,2.6
		c-1.1,0.6-2.3,1-3.6,1c-3.4,0-5.1-2.2-5.1-6.7c0-1.7,0.2-3.3,0.7-4.8s1.1-2.8,1.9-3.9c0.8-1.1,1.8-2,2.9-2.6
		C139,67.2,140.2,66.8,141.5,66.8z M136.5,80.2c0,1.3,0.1,2.2,0.4,2.8c0.3,0.6,0.7,0.9,1.2,0.9c0.6,0,1.1-0.3,1.7-1
		c0.5-0.6,1-1.5,1.4-2.6s0.7-2.4,1-3.8c0.2-1.4,0.4-2.9,0.4-4.5c0-1.2-0.1-2-0.3-2.6c-0.2-0.5-0.6-0.8-1.1-0.8
		c-0.4,0-0.8,0.2-1.2,0.5s-0.7,0.7-1.1,1.3c-0.4,0.5-0.7,1.2-1,1.9c-0.3,0.7-0.6,1.5-0.8,2.4s-0.4,1.7-0.5,2.7
		C136.6,78.3,136.5,79.3,136.5,80.2z"/>
</g>
<path id="XMLID_68_" class="st4" d="M168.3,89.6c0-0.8,0-1.6-0.1-2.4c-34.5-5-74.1,6.3-95.9,6.9c-23,0.7-38.9-8.7-38.9-8.7l-0.6,0.8
	c-0.1,1.1-0.2,2.2-0.2,3.3c0,4.9,1.1,9.7,3.2,14.1l62.4,20.8c10-2.9,22.8-5.9,37.9-7.5c8.6-0.9,13.8-5.4,18.7-4.6
	C163.4,104.8,168.3,100,168.3,89.6z"/>
<g id="XMLID_159_">
	<path id="XMLID_67_" class="st3" d="M72.6,144.1c-0.9,2.6-2.2,3.9-3.9,3.9c-0.9,0-1.5-0.2-1.9-0.6c-0.4-0.4-0.6-1-0.6-1.7
		c0-0.2,0-0.4,0-0.5c0-0.2,0.1-0.4,0.1-0.6c0-0.2,0.1-0.3,0.1-0.5s0-0.3,0-0.4c0-0.7-0.3-1-0.8-1c-0.1,0-0.2,0-0.3,0
		c-0.1,0-0.2,0.1-0.3,0.1c-0.1,0.1-0.2,0.1-0.3,0.2c-0.1,0.1-0.3,0.2-0.4,0.3l-0.9,4.5h-3.1l2.3-10.6h3.1l-0.9,4.2
		c0.5-0.5,0.9-1,1.3-1.4s0.7-0.8,1-1.1s0.6-0.6,0.8-0.9c0.2-0.2,0.5-0.4,0.7-0.6s0.5-0.3,0.7-0.4c0.2-0.1,0.5-0.1,0.8-0.1
		c0.5,0,0.9,0.1,1.1,0.4c0.2,0.3,0.4,0.6,0.4,1s-0.1,0.8-0.3,1c-0.2,0.2-0.6,0.4-1,0.4c-0.2,0-0.4,0-0.5-0.1
		c-0.2-0.1-0.3-0.2-0.4-0.3s-0.2-0.2-0.2-0.4c0-0.1-0.1-0.3-0.1-0.4c-0.2,0.1-0.5,0.3-0.7,0.5s-0.4,0.4-0.6,0.6
		c-0.2,0.2-0.4,0.4-0.6,0.7c-0.2,0.2-0.4,0.5-0.6,0.7c0.2,0,0.3-0.1,0.5-0.1s0.3,0,0.4,0c0.4,0,0.7,0,1,0.1s0.5,0.2,0.6,0.4
		c0.2,0.2,0.3,0.4,0.3,0.6c0.1,0.2,0.1,0.5,0.1,0.8c0,0.2,0,0.3,0,0.5s-0.1,0.3-0.1,0.5s-0.1,0.3-0.1,0.5s0,0.4,0,0.5
		c0,0.5,0.3,0.8,0.9,0.8c0.2,0,0.4,0,0.6-0.1s0.3-0.2,0.4-0.3c0.1-0.2,0.3-0.4,0.4-0.6c0.1-0.2,0.3-0.5,0.4-0.8L72.6,144.1
		L72.6,144.1z"/>
	<path id="XMLID_171_" class="st3" d="M80.4,144.5c0,0.1-0.1,0.2-0.1,0.3s0,0.2,0,0.3c0,0.3,0.1,0.5,0.2,0.6s0.4,0.2,0.7,0.2
		c0.1,0,0.2,0,0.3,0c0.1,0,0.1,0,0.2-0.1c-0.1,0.4-0.3,0.7-0.4,1s-0.3,0.5-0.4,0.7c-0.2,0.2-0.3,0.3-0.5,0.4S80,148,79.7,148
		c-0.6,0-1.1-0.2-1.4-0.5c-0.4-0.3-0.6-0.8-0.7-1.5c-0.2,0.2-0.3,0.5-0.6,0.7c-0.2,0.2-0.4,0.4-0.7,0.6c-0.3,0.2-0.5,0.3-0.9,0.5
		c-0.3,0.1-0.7,0.2-1,0.2c-0.4,0-0.7-0.1-1.1-0.2s-0.6-0.3-0.9-0.6s-0.5-0.6-0.6-1.1c-0.2-0.4-0.2-1-0.2-1.6c0-0.5,0-1,0.1-1.6
		s0.2-1.1,0.4-1.7c0.2-0.6,0.5-1.1,0.8-1.6s0.7-1,1.1-1.3c0.4-0.4,0.9-0.7,1.4-0.9s1.1-0.3,1.7-0.3s1,0.1,1.3,0.3s0.4,0.5,0.4,0.8
		v0.2l0.2-1.1h3.1L80.4,144.5z M78.4,139.3c0-0.1,0-0.1,0-0.2c0-0.1-0.1-0.2-0.1-0.3c-0.1-0.1-0.2-0.2-0.3-0.2
		c-0.1-0.1-0.3-0.1-0.4-0.1c-0.3,0-0.6,0.1-0.8,0.3c-0.3,0.2-0.5,0.5-0.7,0.8s-0.4,0.7-0.6,1.1c-0.2,0.4-0.3,0.8-0.4,1.3
		c-0.1,0.4-0.2,0.9-0.3,1.3c-0.1,0.4-0.1,0.8-0.1,1.1c0,0.4,0,0.7,0.1,0.9s0.2,0.4,0.3,0.5c0.1,0.1,0.2,0.2,0.3,0.2s0.2,0,0.3,0
		c0.2,0,0.3,0,0.5-0.1s0.3-0.2,0.5-0.4s0.3-0.4,0.4-0.6c0.1-0.2,0.2-0.5,0.3-0.8L78.4,139.3z M93.7,144.1c-0.3,0.9-0.6,1.6-1,2.1
		s-0.8,0.9-1.2,1.2c-0.4,0.3-0.8,0.5-1.1,0.5c-0.4,0.1-0.7,0.1-1,0.1s-0.6,0-0.9-0.1s-0.5-0.2-0.7-0.5s-0.4-0.5-0.5-0.8
		s-0.2-0.7-0.2-1.2c0-0.2,0-0.4,0-0.6c0-0.2,0.1-0.5,0.1-0.8l0.1-0.5c-0.2,0.2-0.5,0.5-0.7,0.6c-0.2,0.2-0.5,0.3-0.7,0.4
		c-0.2,0.1-0.4,0.1-0.6,0.2s-0.4,0-0.6,0c-0.3,0-0.6,0-0.9-0.1s-0.5-0.2-0.7-0.5c-0.2-0.2-0.4-0.5-0.5-0.8s-0.2-0.7-0.2-1.2
		c0-0.2,0-0.4,0-0.6c0-0.2,0.1-0.5,0.1-0.7l0.7-3.6h3.1l-0.8,4c0,0.2-0.1,0.4-0.1,0.6c0,0.2,0,0.4,0.1,0.6c0.1,0.2,0.3,0.3,0.5,0.3
		s0.4,0,0.6-0.1s0.3-0.2,0.5-0.4s0.3-0.4,0.4-0.6c0.1-0.2,0.2-0.5,0.3-0.8l0.7-3.6h3.1l-1.5,7.2c0,0.1-0.1,0.2-0.1,0.3s0,0.2,0,0.3
		c0,0.3,0.1,0.5,0.2,0.6s0.4,0.2,0.7,0.2c0.2,0,0.4,0,0.6-0.1s0.3-0.2,0.5-0.4c0.1-0.2,0.3-0.4,0.4-0.6c0.1-0.2,0.2-0.5,0.3-0.8
		L93.7,144.1L93.7,144.1z"/>
	<path id="XMLID_168_" class="st3" d="M101.7,144.1c-0.3,0.5-0.6,1-1,1.5s-0.8,0.9-1.3,1.3c-0.5,0.4-1,0.7-1.6,0.9s-1.2,0.3-1.9,0.3
		c-0.5,0-1-0.1-1.4-0.2c-0.4-0.1-0.8-0.3-1-0.6c-0.3-0.3-0.5-0.6-0.7-1s-0.2-0.9-0.2-1.5c0-0.4,0-0.9,0.1-1.4s0.2-1.1,0.4-1.6
		c0.2-0.6,0.4-1.1,0.7-1.7c0.3-0.5,0.7-1,1.1-1.4s0.9-0.8,1.5-1c0.6-0.3,1.2-0.4,1.9-0.4c0.5,0,0.9,0.1,1.2,0.2
		c0.3,0.1,0.5,0.3,0.7,0.5s0.3,0.4,0.4,0.6c0.1,0.2,0.1,0.5,0.1,0.8c0,0.6-0.1,1.2-0.4,1.7s-0.6,1-1.1,1.4s-1,0.7-1.6,1
		c-0.6,0.2-1.2,0.4-1.8,0.4c0,0.2,0,0.3,0,0.5c0,0.1,0,0.3,0,0.4c0,0.4,0,0.7,0.1,0.9s0.2,0.4,0.3,0.5c0.1,0.1,0.3,0.2,0.5,0.3
		s0.4,0.1,0.7,0.1c0.4,0,0.8-0.1,1.1-0.2c0.3-0.1,0.7-0.3,1-0.5s0.6-0.4,0.8-0.7c0.3-0.3,0.5-0.5,0.8-0.8L101.7,144.1L101.7,144.1z
		 M95.9,142.6c0.4,0,0.8-0.1,1.2-0.3c0.4-0.2,0.7-0.5,1-0.8s0.5-0.7,0.7-1.1c0.2-0.4,0.3-0.8,0.3-1.3c0-0.3,0-0.5-0.1-0.6
		c-0.1-0.2-0.2-0.2-0.4-0.2c-0.3,0-0.5,0.1-0.8,0.4c-0.3,0.3-0.5,0.6-0.7,1s-0.4,0.9-0.6,1.4C96.2,141.6,96,142.1,95.9,142.6z"/>
	<path id="XMLID_61_" class="st3" d="M109.9,144.1c-0.3,0.5-0.6,1-1,1.5s-0.8,0.9-1.3,1.3c-0.5,0.4-1,0.7-1.6,0.9s-1.2,0.3-1.9,0.3
		c-0.5,0-1-0.1-1.4-0.2c-0.4-0.1-0.8-0.3-1-0.6c-0.3-0.3-0.5-0.6-0.7-1s-0.2-0.9-0.2-1.5c0-0.4,0-0.9,0.1-1.4s0.2-1.1,0.4-1.6
		c0.2-0.6,0.4-1.1,0.7-1.7c0.3-0.5,0.7-1,1.1-1.4s0.9-0.8,1.5-1c0.6-0.3,1.2-0.4,1.9-0.4c0.5,0,0.9,0.1,1.2,0.2
		c0.3,0.1,0.5,0.3,0.7,0.4c0.2,0.2,0.3,0.4,0.4,0.6c0.1,0.2,0.1,0.5,0.1,0.7c0,0.3,0,0.5-0.1,0.7s-0.1,0.4-0.2,0.5s-0.2,0.2-0.4,0.3
		c-0.1,0.1-0.3,0.1-0.4,0.1c-0.2,0-0.5-0.1-0.7-0.2c0.2-0.5,0.3-0.9,0.3-1.3c0-0.3,0-0.5-0.1-0.6c-0.1-0.2-0.2-0.2-0.4-0.2
		c-0.2,0-0.4,0.1-0.7,0.3c-0.2,0.2-0.4,0.5-0.6,0.8s-0.4,0.7-0.6,1.1c-0.2,0.4-0.3,0.9-0.5,1.3c-0.1,0.5-0.2,0.9-0.3,1.4
		c-0.1,0.5-0.1,0.9-0.1,1.3c0,0.4,0,0.7,0.1,0.9s0.2,0.4,0.3,0.5c0.1,0.1,0.3,0.2,0.5,0.3s0.4,0.1,0.7,0.1c0.4,0,0.8-0.1,1.1-0.2
		c0.3-0.1,0.7-0.3,1-0.5s0.6-0.4,0.8-0.7c0.3-0.3,0.5-0.5,0.8-0.8L109.9,144.1L109.9,144.1z"/>
	<path id="XMLID_60_" class="st3" d="M126.1,144.1c-0.3,0.9-0.6,1.6-1,2.1c-0.3,0.5-0.7,0.9-1,1.2s-0.7,0.5-1,0.5
		c-0.3,0.1-0.6,0.1-0.9,0.1c-0.5,0-0.9-0.1-1.2-0.2c-0.3-0.1-0.6-0.3-0.8-0.5c-0.2-0.2-0.3-0.5-0.4-0.8s-0.1-0.6-0.1-0.9
		c0-0.4,0.1-0.8,0.2-1.3s0.2-1,0.3-1.5c0.1-0.5,0.2-1,0.3-1.5s0.2-0.9,0.2-1.2c0-0.7-0.3-1.1-0.8-1.1c-0.2,0-0.4,0.1-0.5,0.2
		c-0.2,0.1-0.3,0.2-0.5,0.4c-0.1,0.2-0.3,0.4-0.4,0.6c-0.1,0.2-0.2,0.5-0.3,0.8l-1.4,6.8h-3.1l1.6-7.3c0-0.2,0.1-0.3,0.1-0.5
		c0-0.1,0-0.2,0-0.4c0-0.1-0.1-0.2-0.1-0.3c-0.1-0.1-0.1-0.2-0.2-0.2c-0.1-0.1-0.2-0.1-0.3-0.1c-0.2,0-0.4,0.1-0.6,0.2
		c-0.2,0.1-0.3,0.2-0.5,0.4c-0.1,0.2-0.3,0.4-0.4,0.6c-0.1,0.2-0.2,0.5-0.3,0.8l-1.4,6.8h-3.1l2.3-10.6h3.1l-0.2,1.1
		c0.2-0.3,0.5-0.5,0.7-0.6c0.2-0.2,0.5-0.3,0.7-0.4c0.2-0.1,0.4-0.1,0.6-0.2c0.2,0,0.4,0,0.6,0c0.3,0,0.5,0,0.8,0.1
		c0.2,0.1,0.5,0.2,0.6,0.3c0.2,0.1,0.3,0.3,0.5,0.6s0.2,0.5,0.3,0.8c0.3-0.4,0.5-0.7,0.8-1c0.3-0.2,0.5-0.4,0.8-0.5s0.5-0.2,0.7-0.2
		s0.4-0.1,0.6-0.1c0.3,0,0.7,0,0.9,0.1c0.3,0.1,0.5,0.2,0.7,0.4s0.4,0.4,0.5,0.7s0.2,0.7,0.2,1.1c0,0.3,0,0.6-0.1,0.9
		s-0.1,0.7-0.2,1s-0.2,0.7-0.2,1c-0.1,0.3-0.2,0.7-0.2,1c-0.1,0.3-0.1,0.6-0.2,0.9c-0.1,0.3-0.1,0.5-0.1,0.7c0,0.3,0.1,0.5,0.2,0.6
		c0.1,0.2,0.3,0.2,0.7,0.2c0.2,0,0.4,0,0.6-0.1s0.3-0.2,0.5-0.4c0.1-0.2,0.3-0.4,0.4-0.6c0.1-0.2,0.2-0.5,0.3-0.8L126.1,144.1
		L126.1,144.1z"/>
	<path id="XMLID_163_" class="st3" d="M137,139.9c-0.4,0.4-0.9,0.8-1.5,1.1s-1.3,0.5-2.1,0.6c0,0.2,0.1,0.3,0.1,0.5s0,0.4,0,0.6
		c0,0.7-0.1,1.4-0.3,2s-0.6,1.2-1,1.7s-1,0.9-1.6,1.2s-1.3,0.4-2.1,0.4c-0.6,0-1.1-0.1-1.6-0.3c-0.4-0.2-0.8-0.5-1.1-0.8
		c-0.3-0.3-0.5-0.7-0.6-1.2s-0.2-1-0.2-1.5c0-0.4,0-0.8,0.1-1.4c0.1-0.6,0.2-1.2,0.4-1.8c0.2-0.6,0.4-1.3,0.6-2s0.5-1.4,0.8-2
		c0.3-0.7,0.6-1.3,1-1.9c0.4-0.6,0.7-1.1,1.1-1.6c0.4-0.5,0.8-0.8,1.3-1.1c0.4-0.3,0.9-0.4,1.4-0.4c0.4,0,0.7,0.1,1,0.2
		c0.3,0.1,0.5,0.3,0.7,0.5s0.4,0.5,0.5,0.9s0.2,0.8,0.2,1.3s-0.1,0.9-0.2,1.4c-0.1,0.5-0.3,0.9-0.4,1.4c-0.2,0.4-0.4,0.9-0.6,1.3
		c-0.2,0.4-0.4,0.8-0.6,1.1c0.2,0.1,0.3,0.2,0.4,0.3c0.1,0.1,0.3,0.2,0.4,0.4c0.3,0,0.7,0,1-0.1s0.7-0.2,1.1-0.3s0.7-0.3,1-0.4
		s0.6-0.3,0.8-0.5L137,139.9z M131.3,142c-0.1,0-0.2,0.1-0.3,0.1s-0.2,0-0.4,0c-0.3,0-0.6-0.1-0.8-0.3s-0.3-0.4-0.3-0.8
		c0-0.2,0-0.4,0.1-0.6c0.1-0.2,0.2-0.3,0.3-0.4c0.1-0.1,0.3-0.2,0.5-0.2s0.4-0.1,0.6-0.1c0.2-0.3,0.4-0.7,0.5-1.1s0.3-0.8,0.5-1.3
		c0.1-0.4,0.3-0.9,0.3-1.3c0.1-0.4,0.1-0.9,0.1-1.3c0-0.4-0.1-0.7-0.2-0.9c-0.1-0.2-0.3-0.3-0.5-0.3s-0.5,0.1-0.7,0.4
		c-0.2,0.2-0.4,0.6-0.7,1c-0.2,0.4-0.4,0.9-0.6,1.4c-0.2,0.5-0.4,1.1-0.6,1.7c-0.2,0.6-0.3,1.2-0.5,1.8c-0.1,0.6-0.3,1.2-0.4,1.7
		c-0.1,0.5-0.2,1.1-0.2,1.5c-0.1,0.5-0.1,0.8-0.1,1.1s0,0.5,0.1,0.8c0,0.2,0.1,0.4,0.2,0.6c0.1,0.2,0.2,0.3,0.4,0.4s0.4,0.1,0.6,0.1
		c0.3,0,0.7-0.1,0.9-0.3c0.3-0.2,0.5-0.4,0.7-0.7s0.3-0.6,0.4-1c0.1-0.4,0.1-0.7,0.1-1C131.5,142.6,131.5,142.2,131.3,142z"/>
	<path id="XMLID_160_" class="st3" d="M143.4,144.5c0,0.1-0.1,0.2-0.1,0.3s0,0.2,0,0.3c0,0.3,0.1,0.5,0.2,0.6
		c0.1,0.1,0.4,0.2,0.7,0.2c0.1,0,0.2,0,0.3,0s0.1,0,0.2-0.1c-0.1,0.4-0.3,0.7-0.4,1s-0.3,0.5-0.4,0.7c-0.2,0.2-0.3,0.3-0.5,0.4
		c-0.2,0.1-0.4,0.1-0.7,0.1c-0.6,0-1.1-0.2-1.4-0.5c-0.4-0.3-0.6-0.8-0.7-1.5c-0.2,0.2-0.3,0.5-0.6,0.7c-0.2,0.2-0.4,0.4-0.7,0.6
		c-0.3,0.2-0.5,0.3-0.9,0.5c-0.3,0.1-0.7,0.2-1,0.2c-0.4,0-0.7-0.1-1.1-0.2c-0.3-0.1-0.6-0.3-0.9-0.6c-0.3-0.3-0.5-0.6-0.6-1.1
		c-0.2-0.4-0.2-1-0.2-1.6c0-0.5,0-1,0.1-1.6s0.2-1.1,0.4-1.7c0.2-0.6,0.5-1.1,0.8-1.6s0.7-1,1.1-1.3c0.4-0.4,0.9-0.7,1.4-0.9
		s1.1-0.3,1.7-0.3c0.6,0,1,0.1,1.3,0.3s0.4,0.5,0.4,0.8v0.2l0.2-1.1h3.1L143.4,144.5z M141.5,139.3c0-0.1,0-0.1,0-0.2
		c0-0.1-0.1-0.2-0.1-0.3c-0.1-0.1-0.2-0.2-0.3-0.2c-0.1-0.1-0.3-0.1-0.4-0.1c-0.3,0-0.6,0.1-0.8,0.3c-0.3,0.2-0.5,0.5-0.7,0.8
		s-0.4,0.7-0.6,1.1c-0.2,0.4-0.3,0.8-0.4,1.3c-0.1,0.4-0.2,0.9-0.3,1.3c-0.1,0.4-0.1,0.8-0.1,1.1c0,0.4,0,0.7,0.1,0.9
		s0.2,0.4,0.3,0.5s0.2,0.2,0.3,0.2s0.2,0,0.3,0c0.2,0,0.3,0,0.5-0.1s0.3-0.2,0.5-0.4s0.3-0.4,0.4-0.6c0.1-0.2,0.2-0.5,0.3-0.8
		L141.5,139.3z"/>
</g>
<path id="XMLID_55_" class="st0" d="M20.4,87.7c56.5,32.6,109-25.2,165.6,7.5c-2.1,8.3-4.2,16.7-6.3,25.3
	c-48.1-16.3-95.1,22.3-142.9,12.6C30.7,116.7,26.4,105.6,20.4,87.7z"/>
<g id="XMLID_141_">
	<path id="XMLID_54_" class="st3" d="M55,122.3c-0.5,0.7-1.1,1.3-1.7,1.9c-0.6,0.6-1.2,1.1-1.9,1.5c-0.7,0.4-1.4,0.7-2.2,1
		c-0.8,0.2-1.6,0.3-2.5,0.2c-0.7-0.1-1.3-0.2-1.8-0.3c-0.5-0.2-1-0.4-1.3-0.7c-0.4-0.3-0.6-0.7-0.8-1.1s-0.2-0.9-0.2-1.5
		c0-0.5,0.2-1,0.4-1.4s0.5-0.8,0.8-1.1c0.3-0.3,0.7-0.6,1-0.8c0.4-0.2,0.8-0.5,1.2-0.7s0.8-0.4,1.2-0.6s0.7-0.4,1-0.7
		c0.3-0.2,0.6-0.5,0.8-0.8s0.3-0.6,0.3-1s0-0.8-0.2-1c-0.2-0.3-0.5-0.4-1-0.4c-0.6-0.1-1.2,0.1-1.7,0.6s-1.1,1.1-1.6,2.2l-1.4-0.1
		c0.4-0.8,0.7-1.5,1.2-2.2c0.4-0.6,0.9-1.2,1.4-1.7s1.1-0.8,1.8-1s1.4-0.3,2.3-0.2c0.5,0,1,0.1,1.4,0.3c0.5,0.2,0.9,0.4,1.2,0.7
		c0.3,0.3,0.6,0.6,0.8,1.1c0.2,0.4,0.2,0.9,0.2,1.5c-0.1,0.8-0.3,1.4-0.6,2c-0.3,0.5-0.8,1-1.2,1.4c-0.5,0.4-1,0.7-1.5,1
		s-1.1,0.5-1.5,0.8c-0.5,0.3-0.9,0.5-1.2,0.9c-0.3,0.3-0.5,0.7-0.5,1.1c0,0.6,0.1,1,0.5,1.2c0.4,0.3,0.8,0.4,1.5,0.5
		c0.4,0,0.8,0,1.2,0c0.4-0.1,0.8-0.2,1.2-0.4c0.4-0.2,0.9-0.5,1.3-0.8c0.4-0.3,0.9-0.8,1.4-1.3L55,122.3z"/>
	<path id="XMLID_154_" class="st3" d="M71.8,120.4c-0.2,0.8-0.4,1.5-0.6,2.1s-0.5,1.1-0.8,1.6c-0.3,0.4-0.6,0.8-0.9,1.1
		c-0.3,0.3-0.6,0.5-1,0.7c-0.3,0.2-0.6,0.3-0.9,0.4c-0.3,0.1-0.6,0.1-0.8,0.2c-0.8,0.1-1.5,0-2-0.4s-0.9-1-1.1-1.8
		c-0.2,0.4-0.4,0.7-0.6,1c-0.2,0.3-0.5,0.7-0.8,0.9c-0.3,0.3-0.7,0.5-1.1,0.7c-0.4,0.2-0.9,0.3-1.4,0.4c-0.5,0.1-1,0-1.4-0.1
		c-0.5-0.1-0.9-0.3-1.3-0.6s-0.7-0.8-1-1.3c-0.3-0.6-0.5-1.3-0.6-2.1c-0.1-0.6-0.1-1.4-0.1-2.1c0-0.8,0.1-1.5,0.3-2.3
		s0.4-1.5,0.8-2.3c0.3-0.7,0.7-1.4,1.2-2s1-1.1,1.7-1.5c0.6-0.4,1.4-0.6,2.2-0.7s1.4,0,1.8,0.2c0.4,0.2,0.6,0.6,0.7,1v0.2l0.1-1.6
		l4.1-0.5l-0.9,9.9c0,0.2,0,0.3,0,0.5s0,0.3,0,0.5c0.1,0.8,0.5,1.2,1.3,1.1c0.3,0,0.5-0.1,0.7-0.3c0.2-0.2,0.4-0.4,0.6-0.7
		c0.2-0.3,0.3-0.6,0.4-0.9s0.2-0.7,0.3-1.1L71.8,120.4z M63.9,114.8c0-0.1,0-0.2-0.1-0.3c-0.1-0.1-0.1-0.2-0.2-0.3
		c-0.1-0.1-0.2-0.2-0.4-0.2c-0.2-0.1-0.4-0.1-0.6,0c-0.4,0-0.8,0.2-1.1,0.5s-0.6,0.7-0.9,1.2c-0.2,0.5-0.4,1-0.6,1.6
		c-0.2,0.6-0.3,1.2-0.4,1.8c-0.1,0.6-0.1,1.2-0.2,1.8c0,0.6,0,1.1,0.1,1.5c0.1,0.5,0.2,1,0.3,1.2s0.3,0.5,0.4,0.6
		c0.2,0.1,0.3,0.2,0.5,0.2s0.3,0,0.5,0s0.4-0.1,0.7-0.2c0.2-0.1,0.4-0.3,0.6-0.6c0.2-0.2,0.4-0.5,0.5-0.9c0.1-0.3,0.2-0.7,0.3-1.1
		L63.9,114.8z"/>
	<path id="XMLID_151_" class="st3" d="M72.1,132.8l-0.9-23.1l4-1l0.1,2.2c0.3-0.4,0.7-0.9,1.2-1.2c0.5-0.4,1.1-0.6,1.8-0.8
		c0.5-0.1,0.9-0.2,1.4-0.1c0.5,0,0.9,0.2,1.3,0.5s0.7,0.7,1.1,1.2c0.3,0.5,0.6,1.2,0.8,2c0.2,0.6,0.3,1.3,0.4,2.1
		c0.1,0.8,0.1,1.5,0.1,2.3s-0.1,1.6-0.3,2.3c-0.2,0.8-0.4,1.5-0.8,2.1s-0.9,1.2-1.5,1.7s-1.4,0.8-2.3,1.1c-0.4,0.1-0.7,0.1-0.9,0.2
		c-0.3,0-0.5,0-0.7,0s-0.4-0.1-0.5-0.2c-0.2-0.1-0.3-0.2-0.4-0.3l0.3,7.1L72.1,132.8z M75.7,121.4c0.1,0.1,0.2,0.3,0.4,0.4
		c0.2,0.1,0.5,0.1,0.8,0c0.5-0.1,0.9-0.4,1.2-0.7c0.3-0.3,0.6-0.8,0.8-1.2c0.2-0.5,0.3-1,0.4-1.6s0.1-1.2,0.1-1.7
		c0-0.6-0.1-1.2-0.1-1.7s-0.2-1-0.3-1.5c-0.1-0.5-0.3-0.9-0.5-1.2c-0.2-0.3-0.4-0.5-0.5-0.6c-0.2-0.1-0.4-0.2-0.5-0.2
		c-0.2,0-0.3,0-0.4,0c-0.3,0.1-0.6,0.3-0.9,0.6c-0.3,0.3-0.5,0.7-0.7,1.3L75.7,121.4z"/>
	<path id="XMLID_148_" class="st3" d="M100.9,111.9c0,0.8-0.1,1.6-0.3,2.2c-0.1,0.6-0.3,1.2-0.5,1.7s-0.4,0.9-0.7,1.2
		c-0.3,0.3-0.5,0.6-0.8,0.8c-0.3,0.2-0.6,0.4-0.8,0.5c-0.3,0.1-0.5,0.2-0.8,0.3c-0.8,0.2-1.5,0.2-2.1-0.1c-0.6-0.3-1.1-0.8-1.4-1.6
		c-0.1,0.4-0.3,0.8-0.5,1.1s-0.4,0.7-0.7,1.1c-0.3,0.3-0.6,0.6-0.9,0.9c-0.4,0.3-0.8,0.5-1.3,0.6s-1,0.2-1.4,0.2
		c-0.5,0-0.9-0.1-1.4-0.4c-0.4-0.2-0.9-0.6-1.2-1.1c-0.4-0.5-0.7-1.2-0.9-2c-0.2-0.6-0.3-1.3-0.4-2.1c-0.1-0.8-0.1-1.5-0.1-2.3
		s0.2-1.6,0.3-2.4c0.2-0.8,0.5-1.5,0.8-2.2c0.4-0.7,0.8-1.2,1.4-1.8c0.6-0.5,1.3-0.9,2-1.1c0.8-0.2,1.4-0.3,1.8-0.1s0.7,0.4,0.8,0.8
		l0.1,0.2l-0.2-1.6l4-1.2l0.9,9.9c0,0.2,0,0.3,0,0.5s0.1,0.3,0.1,0.4c0.2,0.8,0.7,1.1,1.5,0.8c0.3-0.1,0.5-0.2,0.7-0.4
		c0.2-0.2,0.3-0.5,0.5-0.7c0.1-0.3,0.2-0.6,0.2-1s0.1-0.7,0.1-1.1L100.9,111.9z M92,107.8c0-0.1-0.1-0.2-0.1-0.3
		c-0.1-0.1-0.2-0.2-0.3-0.3s-0.3-0.1-0.4-0.2c-0.2,0-0.4,0-0.6,0.1c-0.4,0.1-0.7,0.4-1,0.7c-0.3,0.4-0.5,0.8-0.6,1.3
		c-0.2,0.5-0.3,1.1-0.3,1.6c-0.1,0.6-0.1,1.2-0.1,1.8c0,0.6,0.1,1.2,0.2,1.8s0.2,1.1,0.3,1.5c0.2,0.5,0.3,0.9,0.5,1.2
		c0.2,0.3,0.4,0.4,0.5,0.5c0.2,0.1,0.4,0.1,0.5,0.1c0.2,0,0.3-0.1,0.4-0.1c0.2-0.1,0.4-0.2,0.6-0.4s0.4-0.4,0.5-0.7
		c0.1-0.3,0.3-0.6,0.3-0.9c0.1-0.4,0.1-0.8,0.1-1.2L92,107.8z"/>
	<path id="XMLID_47_" class="st3" d="M114.7,107.7c-0.1,3.7-1.3,5.9-3.6,6.6c-0.6,0.2-1.1,0.2-1.5,0.2c-0.5,0-0.9-0.2-1.2-0.3
		s-0.6-0.4-0.9-0.8c-0.2-0.3-0.4-0.7-0.5-1c-0.1-0.4-0.2-0.9-0.3-1.6c-0.1-0.7-0.2-1.5-0.2-2.4l-3,0.9l0.6,7l-4,1.2l-1.2-14.6l4-1.2
		l0.5,5.9l3.1-0.9l-0.4-5.9l3.7-1.1l0.6,7.3c0.1,0.9,0.1,1.7,0.1,2.3c0,0.6,0.1,1,0.2,1.2c0.2,0.8,0.7,1,1.4,0.8
		c0.3-0.1,0.5-0.2,0.7-0.4s0.3-0.4,0.4-0.6s0.2-0.6,0.3-0.9c0.1-0.4,0.1-0.8,0.2-1.2L114.7,107.7z"/>
	<path id="XMLID_46_" class="st3" d="M135.8,103.1c-0.2,1.2-0.4,2.2-0.7,3s-0.7,1.4-1,1.9c-0.4,0.5-0.8,0.8-1.2,1s-0.8,0.3-1.2,0.4
		c-0.6,0.1-1.2,0.1-1.6,0.1c-0.5-0.1-0.8-0.3-1.2-0.5c-0.3-0.2-0.6-0.5-0.8-0.9s-0.3-0.7-0.4-1.1c-0.1-0.5-0.1-1-0.1-1.7s0-1.3,0-2
		s0-1.4,0-2s0-1.2-0.1-1.6c-0.2-1-0.6-1.4-1.3-1.2c-0.3,0.1-0.5,0.2-0.7,0.4c-0.2,0.2-0.4,0.4-0.5,0.7c-0.1,0.3-0.2,0.6-0.3,0.9
		c-0.1,0.3-0.1,0.7-0.2,1.1v9.4l-4,0.8l0.1-10.1c0-0.2,0-0.5-0.1-0.7c0-0.2-0.1-0.3-0.1-0.5c-0.1-0.1-0.1-0.3-0.2-0.4
		s-0.2-0.2-0.3-0.2c-0.1,0-0.3-0.1-0.4,0c-0.3,0.1-0.5,0.2-0.7,0.4c-0.2,0.2-0.4,0.4-0.5,0.7c-0.1,0.3-0.2,0.6-0.3,0.9
		c-0.1,0.4-0.1,0.7-0.2,1.1v9.4l-4,0.8l0.1-14.7l4-0.8v1.5c0.2-0.4,0.5-0.7,0.7-1c0.3-0.3,0.5-0.5,0.8-0.7s0.5-0.3,0.8-0.4
		s0.5-0.2,0.8-0.2c0.4-0.1,0.7-0.1,1.1-0.1c0.3,0,0.7,0.1,0.9,0.2c0.3,0.1,0.5,0.3,0.8,0.6c0.2,0.3,0.4,0.6,0.6,1
		c0.2-0.6,0.5-1.1,0.8-1.5s0.6-0.7,0.9-0.9c0.3-0.2,0.6-0.4,0.9-0.5s0.6-0.2,0.8-0.3c0.4-0.1,0.9-0.1,1.3-0.1s0.8,0.2,1.1,0.4
		c0.3,0.2,0.6,0.5,0.9,0.9c0.2,0.4,0.4,0.8,0.5,1.4c0.1,0.4,0.1,0.8,0.1,1.2c0,0.4,0,0.9,0,1.4s0,0.9,0,1.4s0,0.9-0.1,1.4
		c0,0.4,0,0.8,0,1.2c0,0.4,0,0.7,0.1,0.9c0.1,0.3,0.2,0.6,0.4,0.8c0.2,0.2,0.5,0.2,1,0.1c0.3-0.1,0.6-0.2,0.8-0.3
		c0.2-0.2,0.4-0.4,0.5-0.6c0.1-0.3,0.3-0.6,0.3-0.9c0.1-0.3,0.2-0.7,0.2-1.1L135.8,103.1z"/>
	<path id="XMLID_45_" class="st3" d="M150.4,103.1c-0.3,0.8-0.5,1.5-0.8,2c-0.3,0.6-0.6,1.1-0.9,1.5c-0.3,0.4-0.7,0.7-1,1
		s-0.7,0.4-1,0.6c-0.3,0.1-0.7,0.2-1,0.3c-0.3,0.1-0.6,0.1-0.8,0.1c-0.8,0-1.5-0.2-2-0.6s-0.8-1.1-0.9-2c-0.3,0.6-0.7,1.1-1.1,1.4
		c-0.4,0.4-0.7,0.7-1.1,0.9c-0.4,0.2-0.7,0.3-1.1,0.4c-0.3,0.1-0.7,0.1-1,0.1c-0.4,0-0.8,0-1.2-0.2c-0.4-0.1-0.7-0.3-1-0.6
		c-0.3-0.3-0.5-0.6-0.7-1s-0.3-0.9-0.3-1.5c0-0.3,0-0.5,0-0.9c0-0.3,0.1-0.7,0.1-1l1.7-9.3l4.1-0.1l-1.8,9.8c0,0.3-0.1,0.6-0.1,0.8
		c0,0.3,0.1,0.6,0.2,0.8c0.1,0.2,0.4,0.3,0.7,0.3s0.5-0.1,0.8-0.2c0.2-0.1,0.4-0.3,0.6-0.5c0.2-0.2,0.3-0.5,0.5-0.8
		c0.1-0.3,0.3-0.7,0.4-1l1.7-9.3l4.1-0.1l-1.8,9.8c0,0.2-0.1,0.3-0.1,0.5s0,0.3,0,0.5c0,0.4,0.1,0.7,0.3,0.8
		c0.2,0.1,0.5,0.2,0.9,0.2c0.3,0,0.5-0.1,0.8-0.2c0.2-0.1,0.4-0.3,0.6-0.5c0.2-0.2,0.4-0.5,0.5-0.8s0.3-0.7,0.4-1L150.4,103.1z"/>
	<path id="XMLID_142_" class="st3" d="M161.7,103.1c-0.4,0.9-0.7,1.6-0.9,2.1s-0.3,0.9-0.4,1.2c-0.1,0.8,0.2,1.3,0.9,1.4
		c0.2,0,0.4,0,0.5,0c0.2,0,0.3-0.1,0.5-0.1c-0.5,1.8-1.6,2.6-3.2,2.5c-0.6-0.1-1.1-0.3-1.4-0.5c-0.4-0.2-0.7-0.5-0.9-0.8
		s-0.4-0.7-0.4-1.1c-0.1-0.4-0.1-0.8,0-1.2c0-0.1,0-0.2,0.1-0.4c0-0.1,0.1-0.3,0.2-0.6c0.1-0.2,0.2-0.5,0.3-0.9
		c0.1-0.3,0.3-0.8,0.5-1.3c-0.5,0-1.1,0-1.6-0.1c-0.4,0.9-0.8,1.7-1.1,2.4c-0.4,0.7-0.7,1.3-1.1,1.7c-0.4,0.5-0.9,0.8-1.3,1
		c-0.5,0.2-1.1,0.2-1.7,0.1c-0.5-0.1-1-0.3-1.4-0.5s-0.7-0.5-0.9-0.9c-0.2-0.3-0.4-0.7-0.4-1.1c-0.1-0.4-0.1-0.8,0-1.2
		c0.1-0.7,0.4-1.2,0.7-1.6c0.4-0.4,0.8-0.5,1.4-0.4c0.4,0.1,0.8,0.3,1,0.6c0.2,0.3,0.3,0.7,0.2,1.1c-0.1,0.5-0.3,0.8-0.5,1
		c-0.3,0.2-0.5,0.2-0.8,0.1c0,0.1,0,0.2,0,0.3c0,0.1,0.1,0.2,0.1,0.3c0.1,0.1,0.2,0.2,0.3,0.3c0.1,0.1,0.3,0.1,0.5,0.2
		c0.3,0.1,0.6,0,0.9-0.2c0.3-0.2,0.5-0.4,0.8-0.8c0.2-0.3,0.5-0.8,0.7-1.3s0.5-1.1,0.8-1.7c-0.4-0.2-0.7-0.3-1-0.6
		c-0.3-0.2-0.5-0.5-0.7-0.8s-0.3-0.7-0.4-1c-0.1-0.4-0.1-0.8,0-1.3c0.1-0.7,0.3-1.3,0.7-1.8c0.4-0.6,0.9-1,1.5-1.3
		c0.7-0.3,1.5-0.6,2.5-0.7s2.2,0,3.6,0.2l4.3,0.7L161.7,103.1z M160,97.2l-0.7-0.1c-0.6-0.1-1.1-0.1-1.5,0s-0.8,0.3-1.2,0.5
		c-0.3,0.2-0.6,0.6-0.8,0.9c-0.2,0.4-0.4,0.8-0.4,1.3c-0.1,0.4-0.1,0.8,0,1.1c0.1,0.3,0.2,0.5,0.3,0.8c0.2,0.2,0.4,0.4,0.6,0.5
		c0.2,0.1,0.5,0.2,0.8,0.2c0.2,0,0.3,0.1,0.4,0.1c0.1,0,0.3,0,0.4,0L160,97.2z"/>
</g>
<path id="XMLID_42_" class="st5" d="M154.9,137.3c-7.6,2.8-15.3,6.9-22.9,11.6c4.8-9.4,9.6-18.5,14.4-27.2
	C149.2,126.7,152,131.9,154.9,137.3z"/>
<path id="XMLID_41_" class="st6" d="M27,95.4c5.3,20.8,9.7,37.7,9.7,37.7s9.2,14.5,49.3,20.2c-2.9-5.4,63.2-26.6,60.3-31.7
	C103.8,108.3,69.5,138,27,95.4z"/>
<polygon id="XMLID_40_" class="st6" points="180.4,167.5 64,130.7 64.3,95.4 "/>
<path id="XMLID_39_" class="st6" d="M185.8,96.5C150.3,64.6,75.2,50.9,7.6,60.5c10.5,3,20.1,10.3,20.1,10.3s-2,4.3-6.3,12.7
	c47.4-9.6,126,10.4,156.7,36.7C180.7,110.8,183.2,105.7,185.8,96.5z"/>
<path id="XMLID_38_" class="st7" d="M122.8,164c26.5-9.2,45.5-34.4,45.5-64.1c0-37.5-30.4-67.9-67.9-67.9C63,32,32.6,62.4,32.6,99.9
	s30.4,67.9,67.9,67.9c0.7,0,1.3,0,2,0"/>
<g id="XMLID_122_">
	<path id="XMLID_37_" class="st8" d="M52,85.5l5.9-27.9h-4.2l0.5-2.1c0.6,0,1.3,0,2.1-0.1s1.6-0.2,2.5-0.4s2-0.6,3.1-1
		c1.1-0.5,2.4-1.1,3.7-1.9l-7.1,33.5L52,85.5L52,85.5z"/>
	<path id="XMLID_132_" class="st8" d="M75.4,86c-1.7,0-3.2-0.3-4.4-0.9c-1.2-0.6-2.1-1.4-2.8-2.4c-0.7-1-1.2-2.2-1.5-3.6
		s-0.4-2.8-0.4-4.4c0-2.1,0.2-4.1,0.5-6s0.8-3.8,1.4-5.5s1.4-3.3,2.3-4.7s1.9-2.6,3-3.7c1.1-1,2.4-1.8,3.7-2.4
		c1.3-0.6,2.8-0.9,4.3-0.9s2.8,0.3,3.8,0.8c1.1,0.5,2,1.2,2.7,2.2c0.7,0.9,1.2,2.1,1.6,3.4c0.3,1.3,0.5,2.8,0.5,4.4
		c0,1.1-0.1,2.3-0.2,3.5s-0.3,2.5-0.6,3.8c-0.3,1.3-0.6,2.6-1,3.9s-0.9,2.6-1.5,3.8c-0.6,1.2-1.3,2.3-2,3.3c-0.8,1-1.6,1.9-2.6,2.7
		c-1,0.8-2,1.4-3.2,1.8C78.1,85.7,76.8,86,75.4,86z M81.6,54.4c-0.7,0-1.4,0.3-2.1,0.9c-0.7,0.6-1.4,1.4-2,2.5
		c-0.6,1-1.2,2.3-1.7,3.7c-0.5,1.4-1,2.9-1.4,4.5s-0.7,3.2-0.9,5c-0.2,1.7-0.3,3.4-0.3,5c0,0.8,0,1.7,0.1,2.5s0.2,1.5,0.4,2.1
		c0.2,0.6,0.5,1.1,0.9,1.5s0.9,0.6,1.5,0.6c0.7,0,1.4-0.3,2.1-0.9s1.3-1.4,1.9-2.4s1.2-2.2,1.7-3.6s0.9-2.9,1.3-4.5s0.6-3.3,0.8-5
		c0.2-1.7,0.3-3.5,0.3-5.2c0-0.9-0.1-1.7-0.2-2.5s-0.3-1.5-0.5-2.1s-0.5-1.1-0.8-1.4C82.4,54.5,82,54.4,81.6,54.4z"/>
	<path id="XMLID_129_" class="st8" d="M100.3,86c-1.7,0-3.2-0.3-4.4-0.9c-1.2-0.6-2.1-1.4-2.8-2.4s-1.2-2.2-1.5-3.6
		s-0.4-2.8-0.4-4.4c0-2.1,0.2-4.1,0.5-6s0.8-3.8,1.4-5.5s1.4-3.3,2.3-4.7s1.9-2.6,3-3.7c1.1-1,2.4-1.8,3.7-2.4
		c1.3-0.6,2.8-0.9,4.3-0.9s2.8,0.3,3.8,0.8c1.1,0.5,2,1.2,2.7,2.2c0.7,0.9,1.2,2.1,1.6,3.4c0.3,1.3,0.5,2.8,0.5,4.4
		c0,1.1-0.1,2.3-0.2,3.5s-0.3,2.5-0.6,3.8c-0.3,1.3-0.6,2.6-1,3.9s-0.9,2.6-1.5,3.8c-0.6,1.2-1.3,2.3-2,3.3c-0.8,1-1.6,1.9-2.6,2.7
		c-1,0.8-2,1.4-3.2,1.8C103,85.7,101.7,86,100.3,86z M106.5,54.4c-0.7,0-1.4,0.3-2.1,0.9c-0.7,0.6-1.4,1.4-2,2.5
		c-0.6,1-1.2,2.3-1.7,3.7c-0.5,1.4-1,2.9-1.4,4.5s-0.7,3.2-0.9,5c-0.2,1.7-0.3,3.4-0.3,5c0,0.8,0,1.7,0.1,2.5s0.2,1.5,0.4,2.1
		c0.2,0.6,0.5,1.1,0.9,1.5s0.9,0.6,1.5,0.6c0.7,0,1.4-0.3,2.1-0.9s1.3-1.4,1.9-2.4s1.2-2.2,1.7-3.6s0.9-2.9,1.3-4.5s0.6-3.3,0.8-5
		c0.2-1.7,0.3-3.5,0.3-5.2c0-0.9-0.1-1.7-0.2-2.5s-0.3-1.5-0.5-2.1s-0.5-1.1-0.8-1.4C107.3,54.5,106.9,54.4,106.5,54.4z"/>
	<path id="XMLID_123_" class="st8" d="M124.8,51.3c1.7,0,3,0.6,3.9,1.7c0.9,1.1,1.3,2.8,1.3,5c0,1.7-0.2,3.3-0.7,4.8s-1.1,2.8-2,3.9
		c-0.8,1.1-1.8,2-2.9,2.6s-2.3,1-3.6,1c-3.4,0-5.1-2.2-5.1-6.7c0-1.7,0.2-3.3,0.7-4.8s1.1-2.8,1.9-3.9c0.8-1.1,1.8-2,2.9-2.6
		C122.3,51.7,123.5,51.3,124.8,51.3z M119.8,64.7c0,1.3,0.1,2.2,0.4,2.8c0.3,0.6,0.7,0.9,1.2,0.9c0.6,0,1.1-0.3,1.7-1
		c0.5-0.6,1-1.5,1.4-2.6s0.7-2.4,1-3.8c0.2-1.4,0.4-3,0.4-4.5c0-1.2-0.1-2-0.3-2.6c-0.2-0.5-0.6-0.8-1.1-0.8c-0.6,0-1.2,0.3-1.7,1
		c-0.6,0.7-1.1,1.5-1.5,2.6s-0.8,2.3-1.1,3.7C119.9,61.9,119.8,63.3,119.8,64.7z M123.4,85.5h-3.2l18.6-33.7h3.2L123.4,85.5z
		 M141.5,66.8c1.7,0,3,0.6,3.9,1.7s1.3,2.8,1.3,5c0,1.7-0.2,3.3-0.7,4.8s-1.1,2.8-2,3.9c-0.8,1.1-1.8,2-2.9,2.6
		c-1.1,0.6-2.3,1-3.6,1c-3.4,0-5.1-2.2-5.1-6.7c0-1.7,0.2-3.3,0.7-4.8s1.1-2.8,1.9-3.9c0.8-1.1,1.8-2,2.9-2.6
		C139,67.2,140.2,66.8,141.5,66.8z M136.5,80.2c0,1.3,0.1,2.2,0.4,2.8c0.3,0.6,0.7,0.9,1.2,0.9c0.6,0,1.1-0.3,1.7-1
		c0.5-0.6,1-1.5,1.4-2.6s0.7-2.4,1-3.8c0.2-1.4,0.4-2.9,0.4-4.5c0-1.2-0.1-2-0.3-2.6c-0.2-0.5-0.6-0.8-1.1-0.8
		c-0.4,0-0.8,0.2-1.2,0.5s-0.7,0.7-1.1,1.3c-0.4,0.5-0.7,1.2-1,1.9c-0.3,0.7-0.6,1.5-0.8,2.4s-0.4,1.7-0.5,2.7
		C136.6,78.3,136.5,79.3,136.5,80.2z"/>
</g>
<path id="XMLID_27_" class="st9" d="M168.3,89.6c0-0.8,0-1.6-0.1-2.4c-34.5-5-74.1,6.3-95.9,6.9c-23,0.7-38.9-8.7-38.9-8.7l-0.6,0.8
	c-0.1,1.1-0.2,2.2-0.2,3.3c0,4.9,1.1,9.7,3.2,14.1l62.4,20.8c10-2.9,22.8-5.9,37.9-7.5c8.6-0.9,13.8-5.4,18.7-4.6
	C163.4,104.8,168.3,100,168.3,89.6z"/>
<g id="XMLID_104_">
	<path id="XMLID_26_" class="st8" d="M72.6,144.1c-0.9,2.6-2.2,3.9-3.9,3.9c-0.9,0-1.5-0.2-1.9-0.6c-0.4-0.4-0.6-1-0.6-1.7
		c0-0.2,0-0.4,0-0.5c0-0.2,0.1-0.4,0.1-0.6c0-0.2,0.1-0.3,0.1-0.5s0-0.3,0-0.4c0-0.7-0.3-1-0.8-1c-0.1,0-0.2,0-0.3,0
		c-0.1,0-0.2,0.1-0.3,0.1c-0.1,0.1-0.2,0.1-0.3,0.2c-0.1,0.1-0.3,0.2-0.4,0.3l-0.9,4.5h-3.1l2.3-10.6h3.1l-0.9,4.2
		c0.5-0.5,0.9-1,1.3-1.4s0.7-0.8,1-1.1s0.6-0.6,0.8-0.9c0.2-0.2,0.5-0.4,0.7-0.6s0.5-0.3,0.7-0.4c0.2-0.1,0.5-0.1,0.8-0.1
		c0.5,0,0.9,0.1,1.1,0.4c0.2,0.3,0.4,0.6,0.4,1s-0.1,0.8-0.3,1c-0.2,0.2-0.6,0.4-1,0.4c-0.2,0-0.4,0-0.5-0.1
		c-0.2-0.1-0.3-0.2-0.4-0.3s-0.2-0.2-0.2-0.4c0-0.1-0.1-0.3-0.1-0.4c-0.2,0.1-0.5,0.3-0.7,0.5s-0.4,0.4-0.6,0.6
		c-0.2,0.2-0.4,0.4-0.6,0.7c-0.2,0.2-0.4,0.5-0.6,0.7c0.2,0,0.3-0.1,0.5-0.1s0.3,0,0.4,0c0.4,0,0.7,0,1,0.1s0.5,0.2,0.6,0.4
		c0.2,0.2,0.3,0.4,0.3,0.6c0.1,0.2,0.1,0.5,0.1,0.8c0,0.2,0,0.3,0,0.5s-0.1,0.3-0.1,0.5s-0.1,0.3-0.1,0.5s0,0.4,0,0.5
		c0,0.5,0.3,0.8,0.9,0.8c0.2,0,0.4,0,0.6-0.1s0.3-0.2,0.4-0.3c0.1-0.2,0.3-0.4,0.4-0.6c0.1-0.2,0.3-0.5,0.4-0.8L72.6,144.1
		L72.6,144.1z"/>
	<path id="XMLID_116_" class="st8" d="M80.4,144.5c0,0.1-0.1,0.2-0.1,0.3s0,0.2,0,0.3c0,0.3,0.1,0.5,0.2,0.6s0.4,0.2,0.7,0.2
		c0.1,0,0.2,0,0.3,0c0.1,0,0.1,0,0.2-0.1c-0.1,0.4-0.3,0.7-0.4,1s-0.3,0.5-0.4,0.7c-0.2,0.2-0.3,0.3-0.5,0.4S80,148,79.7,148
		c-0.6,0-1.1-0.2-1.4-0.5c-0.4-0.3-0.6-0.8-0.7-1.5c-0.2,0.2-0.3,0.5-0.6,0.7c-0.2,0.2-0.4,0.4-0.7,0.6c-0.3,0.2-0.5,0.3-0.9,0.5
		c-0.3,0.1-0.7,0.2-1,0.2c-0.4,0-0.7-0.1-1.1-0.2s-0.6-0.3-0.9-0.6s-0.5-0.6-0.6-1.1c-0.2-0.4-0.2-1-0.2-1.6c0-0.5,0-1,0.1-1.6
		s0.2-1.1,0.4-1.7c0.2-0.6,0.5-1.1,0.8-1.6s0.7-1,1.1-1.3c0.4-0.4,0.9-0.7,1.4-0.9s1.1-0.3,1.7-0.3s1,0.1,1.3,0.3s0.4,0.5,0.4,0.8
		v0.2l0.2-1.1h3.1L80.4,144.5z M78.4,139.3c0-0.1,0-0.1,0-0.2c0-0.1-0.1-0.2-0.1-0.3c-0.1-0.1-0.2-0.2-0.3-0.2
		c-0.1-0.1-0.3-0.1-0.4-0.1c-0.3,0-0.6,0.1-0.8,0.3c-0.3,0.2-0.5,0.5-0.7,0.8s-0.4,0.7-0.6,1.1c-0.2,0.4-0.3,0.8-0.4,1.3
		c-0.1,0.4-0.2,0.9-0.3,1.3c-0.1,0.4-0.1,0.8-0.1,1.1c0,0.4,0,0.7,0.1,0.9s0.2,0.4,0.3,0.5c0.1,0.1,0.2,0.2,0.3,0.2s0.2,0,0.3,0
		c0.2,0,0.3,0,0.5-0.1s0.3-0.2,0.5-0.4s0.3-0.4,0.4-0.6c0.1-0.2,0.2-0.5,0.3-0.8L78.4,139.3z M93.7,144.1c-0.3,0.9-0.6,1.6-1,2.1
		s-0.8,0.9-1.2,1.2c-0.4,0.3-0.8,0.5-1.1,0.5c-0.4,0.1-0.7,0.1-1,0.1s-0.6,0-0.9-0.1s-0.5-0.2-0.7-0.5s-0.4-0.5-0.5-0.8
		s-0.2-0.7-0.2-1.2c0-0.2,0-0.4,0-0.6c0-0.2,0.1-0.5,0.1-0.8l0.1-0.5c-0.2,0.2-0.5,0.5-0.7,0.6c-0.2,0.2-0.5,0.3-0.7,0.4
		c-0.2,0.1-0.4,0.1-0.6,0.2s-0.4,0-0.6,0c-0.3,0-0.6,0-0.9-0.1s-0.5-0.2-0.7-0.5c-0.2-0.2-0.4-0.5-0.5-0.8s-0.2-0.7-0.2-1.2
		c0-0.2,0-0.4,0-0.6c0-0.2,0.1-0.5,0.1-0.7l0.7-3.6h3.1l-0.8,4c0,0.2-0.1,0.4-0.1,0.6c0,0.2,0,0.4,0.1,0.6c0.1,0.2,0.3,0.3,0.5,0.3
		s0.4,0,0.6-0.1s0.3-0.2,0.5-0.4s0.3-0.4,0.4-0.6c0.1-0.2,0.2-0.5,0.3-0.8l0.7-3.6h3.1l-1.5,7.2c0,0.1-0.1,0.2-0.1,0.3s0,0.2,0,0.3
		c0,0.3,0.1,0.5,0.2,0.6s0.4,0.2,0.7,0.2c0.2,0,0.4,0,0.6-0.1s0.3-0.2,0.5-0.4c0.1-0.2,0.3-0.4,0.4-0.6c0.1-0.2,0.2-0.5,0.3-0.8
		L93.7,144.1L93.7,144.1z"/>
	<path id="XMLID_113_" class="st8" d="M101.7,144.1c-0.3,0.5-0.6,1-1,1.5s-0.8,0.9-1.3,1.3c-0.5,0.4-1,0.7-1.6,0.9s-1.2,0.3-1.9,0.3
		c-0.5,0-1-0.1-1.4-0.2c-0.4-0.1-0.8-0.3-1-0.6c-0.3-0.3-0.5-0.6-0.7-1s-0.2-0.9-0.2-1.5c0-0.4,0-0.9,0.1-1.4s0.2-1.1,0.4-1.6
		c0.2-0.6,0.4-1.1,0.7-1.7c0.3-0.5,0.7-1,1.1-1.4s0.9-0.8,1.5-1c0.6-0.3,1.2-0.4,1.9-0.4c0.5,0,0.9,0.1,1.2,0.2
		c0.3,0.1,0.5,0.3,0.7,0.5s0.3,0.4,0.4,0.6c0.1,0.2,0.1,0.5,0.1,0.8c0,0.6-0.1,1.2-0.4,1.7s-0.6,1-1.1,1.4s-1,0.7-1.6,1
		c-0.6,0.2-1.2,0.4-1.8,0.4c0,0.2,0,0.3,0,0.5c0,0.1,0,0.3,0,0.4c0,0.4,0,0.7,0.1,0.9s0.2,0.4,0.3,0.5c0.1,0.1,0.3,0.2,0.5,0.3
		s0.4,0.1,0.7,0.1c0.4,0,0.8-0.1,1.1-0.2c0.3-0.1,0.7-0.3,1-0.5s0.6-0.4,0.8-0.7c0.3-0.3,0.5-0.5,0.8-0.8L101.7,144.1L101.7,144.1z
		 M95.9,142.6c0.4,0,0.8-0.1,1.2-0.3c0.4-0.2,0.7-0.5,1-0.8s0.5-0.7,0.7-1.1c0.2-0.4,0.3-0.8,0.3-1.3c0-0.3,0-0.5-0.1-0.6
		c-0.1-0.2-0.2-0.2-0.4-0.2c-0.3,0-0.5,0.1-0.8,0.4c-0.3,0.3-0.5,0.6-0.7,1s-0.4,0.9-0.6,1.4C96.2,141.6,96,142.1,95.9,142.6z"/>
	<path id="XMLID_20_" class="st8" d="M109.9,144.1c-0.3,0.5-0.6,1-1,1.5s-0.8,0.9-1.3,1.3c-0.5,0.4-1,0.7-1.6,0.9s-1.2,0.3-1.9,0.3
		c-0.5,0-1-0.1-1.4-0.2c-0.4-0.1-0.8-0.3-1-0.6c-0.3-0.3-0.5-0.6-0.7-1s-0.2-0.9-0.2-1.5c0-0.4,0-0.9,0.1-1.4s0.2-1.1,0.4-1.6
		c0.2-0.6,0.4-1.1,0.7-1.7c0.3-0.5,0.7-1,1.1-1.4s0.9-0.8,1.5-1c0.6-0.3,1.2-0.4,1.9-0.4c0.5,0,0.9,0.1,1.2,0.2
		c0.3,0.1,0.5,0.3,0.7,0.4c0.2,0.2,0.3,0.4,0.4,0.6c0.1,0.2,0.1,0.5,0.1,0.7c0,0.3,0,0.5-0.1,0.7s-0.1,0.4-0.2,0.5s-0.2,0.2-0.4,0.3
		c-0.1,0.1-0.3,0.1-0.4,0.1c-0.2,0-0.5-0.1-0.7-0.2c0.2-0.5,0.3-0.9,0.3-1.3c0-0.3,0-0.5-0.1-0.6c-0.1-0.2-0.2-0.2-0.4-0.2
		c-0.2,0-0.4,0.1-0.7,0.3c-0.2,0.2-0.4,0.5-0.6,0.8s-0.4,0.7-0.6,1.1c-0.2,0.4-0.3,0.9-0.5,1.3c-0.1,0.5-0.2,0.9-0.3,1.4
		c-0.1,0.5-0.1,0.9-0.1,1.3c0,0.4,0,0.7,0.1,0.9s0.2,0.4,0.3,0.5c0.1,0.1,0.3,0.2,0.5,0.3s0.4,0.1,0.7,0.1c0.4,0,0.8-0.1,1.1-0.2
		c0.3-0.1,0.7-0.3,1-0.5s0.6-0.4,0.8-0.7c0.3-0.3,0.5-0.5,0.8-0.8L109.9,144.1L109.9,144.1z"/>
	<path id="XMLID_19_" class="st8" d="M126.1,144.1c-0.3,0.9-0.6,1.6-1,2.1c-0.3,0.5-0.7,0.9-1,1.2s-0.7,0.5-1,0.5
		c-0.3,0.1-0.6,0.1-0.9,0.1c-0.5,0-0.9-0.1-1.2-0.2c-0.3-0.1-0.6-0.3-0.8-0.5c-0.2-0.2-0.3-0.5-0.4-0.8s-0.1-0.6-0.1-0.9
		c0-0.4,0.1-0.8,0.2-1.3s0.2-1,0.3-1.5c0.1-0.5,0.2-1,0.3-1.5s0.2-0.9,0.2-1.2c0-0.7-0.3-1.1-0.8-1.1c-0.2,0-0.4,0.1-0.5,0.2
		c-0.2,0.1-0.3,0.2-0.5,0.4c-0.1,0.2-0.3,0.4-0.4,0.6c-0.1,0.2-0.2,0.5-0.3,0.8l-1.4,6.8h-3.1l1.6-7.3c0-0.2,0.1-0.3,0.1-0.5
		c0-0.1,0-0.2,0-0.4c0-0.1-0.1-0.2-0.1-0.3c-0.1-0.1-0.1-0.2-0.2-0.2c-0.1-0.1-0.2-0.1-0.3-0.1c-0.2,0-0.4,0.1-0.6,0.2
		c-0.2,0.1-0.3,0.2-0.5,0.4c-0.1,0.2-0.3,0.4-0.4,0.6c-0.1,0.2-0.2,0.5-0.3,0.8l-1.4,6.8h-3.1l2.3-10.6h3.1l-0.2,1.1
		c0.2-0.3,0.5-0.5,0.7-0.6c0.2-0.2,0.5-0.3,0.7-0.4c0.2-0.1,0.4-0.1,0.6-0.2c0.2,0,0.4,0,0.6,0c0.3,0,0.5,0,0.8,0.1
		c0.2,0.1,0.5,0.2,0.6,0.3c0.2,0.1,0.3,0.3,0.5,0.6s0.2,0.5,0.3,0.8c0.3-0.4,0.5-0.7,0.8-1c0.3-0.2,0.5-0.4,0.8-0.5s0.5-0.2,0.7-0.2
		s0.4-0.1,0.6-0.1c0.3,0,0.7,0,0.9,0.1c0.3,0.1,0.5,0.2,0.7,0.4s0.4,0.4,0.5,0.7s0.2,0.7,0.2,1.1c0,0.3,0,0.6-0.1,0.9
		s-0.1,0.7-0.2,1s-0.2,0.7-0.2,1c-0.1,0.3-0.2,0.7-0.2,1c-0.1,0.3-0.1,0.6-0.2,0.9c-0.1,0.3-0.1,0.5-0.1,0.7c0,0.3,0.1,0.5,0.2,0.6
		c0.1,0.2,0.3,0.2,0.7,0.2c0.2,0,0.4,0,0.6-0.1s0.3-0.2,0.5-0.4c0.1-0.2,0.3-0.4,0.4-0.6c0.1-0.2,0.2-0.5,0.3-0.8L126.1,144.1
		L126.1,144.1z"/>
	<path id="XMLID_108_" class="st8" d="M137,139.9c-0.4,0.4-0.9,0.8-1.5,1.1s-1.3,0.5-2.1,0.6c0,0.2,0.1,0.3,0.1,0.5s0,0.4,0,0.6
		c0,0.7-0.1,1.4-0.3,2s-0.6,1.2-1,1.7s-1,0.9-1.6,1.2s-1.3,0.4-2.1,0.4c-0.6,0-1.1-0.1-1.6-0.3c-0.4-0.2-0.8-0.5-1.1-0.8
		c-0.3-0.3-0.5-0.7-0.6-1.2s-0.2-1-0.2-1.5c0-0.4,0-0.8,0.1-1.4c0.1-0.6,0.2-1.2,0.4-1.8c0.2-0.6,0.4-1.3,0.6-2s0.5-1.4,0.8-2
		c0.3-0.7,0.6-1.3,1-1.9c0.4-0.6,0.7-1.1,1.1-1.6c0.4-0.5,0.8-0.8,1.3-1.1c0.4-0.3,0.9-0.4,1.4-0.4c0.4,0,0.7,0.1,1,0.2
		c0.3,0.1,0.5,0.3,0.7,0.5s0.4,0.5,0.5,0.9s0.2,0.8,0.2,1.3s-0.1,0.9-0.2,1.4c-0.1,0.5-0.3,0.9-0.4,1.4c-0.2,0.4-0.4,0.9-0.6,1.3
		c-0.2,0.4-0.4,0.8-0.6,1.1c0.2,0.1,0.3,0.2,0.4,0.3c0.1,0.1,0.3,0.2,0.4,0.4c0.3,0,0.7,0,1-0.1s0.7-0.2,1.1-0.3s0.7-0.3,1-0.4
		s0.6-0.3,0.8-0.5L137,139.9z M131.3,142c-0.1,0-0.2,0.1-0.3,0.1s-0.2,0-0.4,0c-0.3,0-0.6-0.1-0.8-0.3s-0.3-0.4-0.3-0.8
		c0-0.2,0-0.4,0.1-0.6c0.1-0.2,0.2-0.3,0.3-0.4c0.1-0.1,0.3-0.2,0.5-0.2s0.4-0.1,0.6-0.1c0.2-0.3,0.4-0.7,0.5-1.1s0.3-0.8,0.5-1.3
		c0.1-0.4,0.3-0.9,0.3-1.3c0.1-0.4,0.1-0.9,0.1-1.3c0-0.4-0.1-0.7-0.2-0.9c-0.1-0.2-0.3-0.3-0.5-0.3s-0.5,0.1-0.7,0.4
		c-0.2,0.2-0.4,0.6-0.7,1c-0.2,0.4-0.4,0.9-0.6,1.4c-0.2,0.5-0.4,1.1-0.6,1.7c-0.2,0.6-0.3,1.2-0.5,1.8c-0.1,0.6-0.3,1.2-0.4,1.7
		c-0.1,0.5-0.2,1.1-0.2,1.5c-0.1,0.5-0.1,0.8-0.1,1.1s0,0.5,0.1,0.8c0,0.2,0.1,0.4,0.2,0.6c0.1,0.2,0.2,0.3,0.4,0.4s0.4,0.1,0.6,0.1
		c0.3,0,0.7-0.1,0.9-0.3c0.3-0.2,0.5-0.4,0.7-0.7s0.3-0.6,0.4-1c0.1-0.4,0.1-0.7,0.1-1C131.5,142.6,131.5,142.2,131.3,142z"/>
	<path id="XMLID_105_" class="st8" d="M143.4,144.5c0,0.1-0.1,0.2-0.1,0.3s0,0.2,0,0.3c0,0.3,0.1,0.5,0.2,0.6
		c0.1,0.1,0.4,0.2,0.7,0.2c0.1,0,0.2,0,0.3,0s0.1,0,0.2-0.1c-0.1,0.4-0.3,0.7-0.4,1s-0.3,0.5-0.4,0.7c-0.2,0.2-0.3,0.3-0.5,0.4
		c-0.2,0.1-0.4,0.1-0.7,0.1c-0.6,0-1.1-0.2-1.4-0.5c-0.4-0.3-0.6-0.8-0.7-1.5c-0.2,0.2-0.3,0.5-0.6,0.7c-0.2,0.2-0.4,0.4-0.7,0.6
		c-0.3,0.2-0.5,0.3-0.9,0.5c-0.3,0.1-0.7,0.2-1,0.2c-0.4,0-0.7-0.1-1.1-0.2c-0.3-0.1-0.6-0.3-0.9-0.6c-0.3-0.3-0.5-0.6-0.6-1.1
		c-0.2-0.4-0.2-1-0.2-1.6c0-0.5,0-1,0.1-1.6s0.2-1.1,0.4-1.7c0.2-0.6,0.5-1.1,0.8-1.6s0.7-1,1.1-1.3c0.4-0.4,0.9-0.7,1.4-0.9
		s1.1-0.3,1.7-0.3c0.6,0,1,0.1,1.3,0.3s0.4,0.5,0.4,0.8v0.2l0.2-1.1h3.1L143.4,144.5z M141.5,139.3c0-0.1,0-0.1,0-0.2
		c0-0.1-0.1-0.2-0.1-0.3c-0.1-0.1-0.2-0.2-0.3-0.2c-0.1-0.1-0.3-0.1-0.4-0.1c-0.3,0-0.6,0.1-0.8,0.3c-0.3,0.2-0.5,0.5-0.7,0.8
		s-0.4,0.7-0.6,1.1c-0.2,0.4-0.3,0.8-0.4,1.3c-0.1,0.4-0.2,0.9-0.3,1.3c-0.1,0.4-0.1,0.8-0.1,1.1c0,0.4,0,0.7,0.1,0.9
		s0.2,0.4,0.3,0.5s0.2,0.2,0.3,0.2s0.2,0,0.3,0c0.2,0,0.3,0,0.5-0.1s0.3-0.2,0.5-0.4s0.3-0.4,0.4-0.6c0.1-0.2,0.2-0.5,0.3-0.8
		L141.5,139.3z"/>
</g>
<path id="XMLID_14_" class="st5" d="M20.4,87.7c56.5,32.6,109-25.2,165.6,7.5c-2.1,8.3-4.2,16.7-6.3,25.3
	c-48.1-16.3-95.1,22.3-142.9,12.6C30.7,116.7,26.4,105.6,20.4,87.7z"/>
<radialGradient id="XMLID_2_" cx="90.3148" cy="-108.7813" r="111.287" gradientTransform="matrix(0.7952 0 0 9.680000e-002 30.4537 194.1902)" gradientUnits="userSpaceOnUse">
	<stop  offset="0" style="stop-color:#010101;stop-opacity:0.7803"/>
	<stop  offset="0.127" style="stop-color:#010101;stop-opacity:0.6809"/>
	<stop  offset="0.9973" style="stop-color:#010101;stop-opacity:0"/>
</radialGradient>
<ellipse id="XMLID_13_" class="st10" cx="102.7" cy="184.1" rx="89.3" ry="11.9"/>
<g id="XMLID_85_">
	<path id="XMLID_12_" class="st8" d="M55,122.3c-0.5,0.7-1.1,1.3-1.7,1.9c-0.6,0.6-1.2,1.1-1.9,1.5c-0.7,0.4-1.4,0.7-2.2,1
		c-0.8,0.2-1.6,0.3-2.5,0.2c-0.7-0.1-1.3-0.2-1.8-0.3c-0.5-0.2-1-0.4-1.3-0.7c-0.4-0.3-0.6-0.7-0.8-1.1s-0.2-0.9-0.2-1.5
		c0-0.5,0.2-1,0.4-1.4s0.5-0.8,0.8-1.1c0.3-0.3,0.7-0.6,1-0.8c0.4-0.2,0.8-0.5,1.2-0.7s0.8-0.4,1.2-0.6s0.7-0.4,1-0.7
		c0.3-0.2,0.6-0.5,0.8-0.8s0.3-0.6,0.3-1s0-0.8-0.2-1c-0.2-0.3-0.5-0.4-1-0.4c-0.6-0.1-1.2,0.1-1.7,0.6s-1.1,1.1-1.6,2.2l-1.4-0.1
		c0.4-0.8,0.7-1.5,1.2-2.2c0.4-0.6,0.9-1.2,1.4-1.7s1.1-0.8,1.8-1s1.4-0.3,2.3-0.2c0.5,0,1,0.1,1.4,0.3c0.5,0.2,0.9,0.4,1.2,0.7
		c0.3,0.3,0.6,0.6,0.8,1.1c0.2,0.4,0.2,0.9,0.2,1.5c-0.1,0.8-0.3,1.4-0.6,2c-0.3,0.5-0.8,1-1.2,1.4c-0.5,0.4-1,0.7-1.5,1
		s-1.1,0.5-1.5,0.8c-0.5,0.3-0.9,0.5-1.2,0.9c-0.3,0.3-0.5,0.7-0.5,1.1c0,0.6,0.1,1,0.5,1.2c0.4,0.3,0.8,0.4,1.5,0.5
		c0.4,0,0.8,0,1.2,0c0.4-0.1,0.8-0.2,1.2-0.4c0.4-0.2,0.9-0.5,1.3-0.8c0.4-0.3,0.9-0.8,1.4-1.3L55,122.3z"/>
	<path id="XMLID_98_" class="st8" d="M71.8,120.4c-0.2,0.8-0.4,1.5-0.6,2.1s-0.5,1.1-0.8,1.6c-0.3,0.4-0.6,0.8-0.9,1.1
		c-0.3,0.3-0.6,0.5-1,0.7c-0.3,0.2-0.6,0.3-0.9,0.4c-0.3,0.1-0.6,0.1-0.8,0.2c-0.8,0.1-1.5,0-2-0.4s-0.9-1-1.1-1.8
		c-0.2,0.4-0.4,0.7-0.6,1c-0.2,0.3-0.5,0.7-0.8,0.9c-0.3,0.3-0.7,0.5-1.1,0.7c-0.4,0.2-0.9,0.3-1.4,0.4c-0.5,0.1-1,0-1.4-0.1
		c-0.5-0.1-0.9-0.3-1.3-0.6s-0.7-0.8-1-1.3c-0.3-0.6-0.5-1.3-0.6-2.1c-0.1-0.6-0.1-1.4-0.1-2.1c0-0.8,0.1-1.5,0.3-2.3
		s0.4-1.5,0.8-2.3c0.3-0.7,0.7-1.4,1.2-2s1-1.1,1.7-1.5c0.6-0.4,1.4-0.6,2.2-0.7s1.4,0,1.8,0.2c0.4,0.2,0.6,0.6,0.7,1v0.2l0.1-1.6
		l4.1-0.5l-0.9,9.9c0,0.2,0,0.3,0,0.5s0,0.3,0,0.5c0.1,0.8,0.5,1.2,1.3,1.1c0.3,0,0.5-0.1,0.7-0.3c0.2-0.2,0.4-0.4,0.6-0.7
		c0.2-0.3,0.3-0.6,0.4-0.9s0.2-0.7,0.3-1.1L71.8,120.4z M63.9,114.8c0-0.1,0-0.2-0.1-0.3c-0.1-0.1-0.1-0.2-0.2-0.3
		c-0.1-0.1-0.2-0.2-0.4-0.2c-0.2-0.1-0.4-0.1-0.6,0c-0.4,0-0.8,0.2-1.1,0.5s-0.6,0.7-0.9,1.2c-0.2,0.5-0.4,1-0.6,1.6
		c-0.2,0.6-0.3,1.2-0.4,1.8c-0.1,0.6-0.1,1.2-0.2,1.8c0,0.6,0,1.1,0.1,1.5c0.1,0.5,0.2,1,0.3,1.2s0.3,0.5,0.4,0.6
		c0.2,0.1,0.3,0.2,0.5,0.2s0.3,0,0.5,0s0.4-0.1,0.7-0.2c0.2-0.1,0.4-0.3,0.6-0.6c0.2-0.2,0.4-0.5,0.5-0.9c0.1-0.3,0.2-0.7,0.3-1.1
		L63.9,114.8z"/>
	<path id="XMLID_95_" class="st8" d="M72.1,132.8l-0.9-23.1l4-1l0.1,2.2c0.3-0.4,0.7-0.9,1.2-1.2c0.5-0.4,1.1-0.6,1.8-0.8
		c0.5-0.1,0.9-0.2,1.4-0.1c0.5,0,0.9,0.2,1.3,0.5s0.7,0.7,1.1,1.2c0.3,0.5,0.6,1.2,0.8,2c0.2,0.6,0.3,1.3,0.4,2.1
		c0.1,0.8,0.1,1.5,0.1,2.3s-0.1,1.6-0.3,2.3c-0.2,0.8-0.4,1.5-0.8,2.1s-0.9,1.2-1.5,1.7s-1.4,0.8-2.3,1.1c-0.4,0.1-0.7,0.1-0.9,0.2
		c-0.3,0-0.5,0-0.7,0s-0.4-0.1-0.5-0.2c-0.2-0.1-0.3-0.2-0.4-0.3l0.3,7.1L72.1,132.8z M75.7,121.4c0.1,0.1,0.2,0.3,0.4,0.4
		c0.2,0.1,0.5,0.1,0.8,0c0.5-0.1,0.9-0.4,1.2-0.7c0.3-0.3,0.6-0.8,0.8-1.2c0.2-0.5,0.3-1,0.4-1.6s0.1-1.2,0.1-1.7
		c0-0.6-0.1-1.2-0.1-1.7s-0.2-1-0.3-1.5c-0.1-0.5-0.3-0.9-0.5-1.2c-0.2-0.3-0.4-0.5-0.5-0.6c-0.2-0.1-0.4-0.2-0.5-0.2
		c-0.2,0-0.3,0-0.4,0c-0.3,0.1-0.6,0.3-0.9,0.6c-0.3,0.3-0.5,0.7-0.7,1.3L75.7,121.4z"/>
	<path id="XMLID_92_" class="st8" d="M100.9,111.9c0,0.8-0.1,1.6-0.3,2.2c-0.1,0.6-0.3,1.2-0.5,1.7s-0.4,0.9-0.7,1.2
		c-0.3,0.3-0.5,0.6-0.8,0.8c-0.3,0.2-0.6,0.4-0.8,0.5c-0.3,0.1-0.5,0.2-0.8,0.3c-0.8,0.2-1.5,0.2-2.1-0.1c-0.6-0.3-1.1-0.8-1.4-1.6
		c-0.1,0.4-0.3,0.8-0.5,1.1s-0.4,0.7-0.7,1.1c-0.3,0.3-0.6,0.6-0.9,0.9c-0.4,0.3-0.8,0.5-1.3,0.6s-1,0.2-1.4,0.2
		c-0.5,0-0.9-0.1-1.4-0.4c-0.4-0.2-0.9-0.6-1.2-1.1c-0.4-0.5-0.7-1.2-0.9-2c-0.2-0.6-0.3-1.3-0.4-2.1c-0.1-0.8-0.1-1.5-0.1-2.3
		s0.2-1.6,0.3-2.4c0.2-0.8,0.5-1.5,0.8-2.2c0.4-0.7,0.8-1.2,1.4-1.8c0.6-0.5,1.3-0.9,2-1.1c0.8-0.2,1.4-0.3,1.8-0.1s0.7,0.4,0.8,0.8
		l0.1,0.2l-0.2-1.6l4-1.2l0.9,9.9c0,0.2,0,0.3,0,0.5s0.1,0.3,0.1,0.4c0.2,0.8,0.7,1.1,1.5,0.8c0.3-0.1,0.5-0.2,0.7-0.4
		c0.2-0.2,0.3-0.5,0.5-0.7c0.1-0.3,0.2-0.6,0.2-1s0.1-0.7,0.1-1.1L100.9,111.9z M92,107.8c0-0.1-0.1-0.2-0.1-0.3
		c-0.1-0.1-0.2-0.2-0.3-0.3s-0.3-0.1-0.4-0.2c-0.2,0-0.4,0-0.6,0.1c-0.4,0.1-0.7,0.4-1,0.7c-0.3,0.4-0.5,0.8-0.6,1.3
		c-0.2,0.5-0.3,1.1-0.3,1.6c-0.1,0.6-0.1,1.2-0.1,1.8c0,0.6,0.1,1.2,0.2,1.8s0.2,1.1,0.3,1.5c0.2,0.5,0.3,0.9,0.5,1.2
		c0.2,0.3,0.4,0.4,0.5,0.5c0.2,0.1,0.4,0.1,0.5,0.1c0.2,0,0.3-0.1,0.4-0.1c0.2-0.1,0.4-0.2,0.6-0.4s0.4-0.4,0.5-0.7
		c0.1-0.3,0.3-0.6,0.3-0.9c0.1-0.4,0.1-0.8,0.1-1.2L92,107.8z"/>
	<path id="XMLID_5_" class="st8" d="M114.7,107.7c-0.1,3.7-1.3,5.9-3.6,6.6c-0.6,0.2-1.1,0.2-1.5,0.2c-0.5,0-0.9-0.2-1.2-0.3
		s-0.6-0.4-0.9-0.8c-0.2-0.3-0.4-0.7-0.5-1c-0.1-0.4-0.2-0.9-0.3-1.6c-0.1-0.7-0.2-1.5-0.2-2.4l-3,0.9l0.6,7l-4,1.2l-1.2-14.6l4-1.2
		l0.5,5.9l3.1-0.9l-0.4-5.9l3.7-1.1l0.6,7.3c0.1,0.9,0.1,1.7,0.1,2.3c0,0.6,0.1,1,0.2,1.2c0.2,0.8,0.7,1,1.4,0.8
		c0.3-0.1,0.5-0.2,0.7-0.4s0.3-0.4,0.4-0.6s0.2-0.6,0.3-0.9c0.1-0.4,0.1-0.8,0.2-1.2L114.7,107.7z"/>
	<path id="XMLID_4_" class="st8" d="M135.8,103.1c-0.2,1.2-0.4,2.2-0.7,3s-0.7,1.4-1,1.9c-0.4,0.5-0.8,0.8-1.2,1s-0.8,0.3-1.2,0.4
		c-0.6,0.1-1.2,0.1-1.6,0.1c-0.5-0.1-0.8-0.3-1.2-0.5c-0.3-0.2-0.6-0.5-0.8-0.9s-0.3-0.7-0.4-1.1c-0.1-0.5-0.1-1-0.1-1.7s0-1.3,0-2
		s0-1.4,0-2s0-1.2-0.1-1.6c-0.2-1-0.6-1.4-1.3-1.2c-0.3,0.1-0.5,0.2-0.7,0.4c-0.2,0.2-0.4,0.4-0.5,0.7c-0.1,0.3-0.2,0.6-0.3,0.9
		c-0.1,0.3-0.1,0.7-0.2,1.1v9.4l-4,0.8l0.1-10.1c0-0.2,0-0.5-0.1-0.7c0-0.2-0.1-0.3-0.1-0.5c-0.1-0.1-0.1-0.3-0.2-0.4
		s-0.2-0.2-0.3-0.2c-0.1,0-0.3-0.1-0.4,0c-0.3,0.1-0.5,0.2-0.7,0.4c-0.2,0.2-0.4,0.4-0.5,0.7c-0.1,0.3-0.2,0.6-0.3,0.9
		c-0.1,0.4-0.1,0.7-0.2,1.1v9.4l-4,0.8l0.1-14.7l4-0.8v1.5c0.2-0.4,0.5-0.7,0.7-1c0.3-0.3,0.5-0.5,0.8-0.7s0.5-0.3,0.8-0.4
		s0.5-0.2,0.8-0.2c0.4-0.1,0.7-0.1,1.1-0.1c0.3,0,0.7,0.1,0.9,0.2c0.3,0.1,0.5,0.3,0.8,0.6c0.2,0.3,0.4,0.6,0.6,1
		c0.2-0.6,0.5-1.1,0.8-1.5s0.6-0.7,0.9-0.9c0.3-0.2,0.6-0.4,0.9-0.5s0.6-0.2,0.8-0.3c0.4-0.1,0.9-0.1,1.3-0.1s0.8,0.2,1.1,0.4
		c0.3,0.2,0.6,0.5,0.9,0.9c0.2,0.4,0.4,0.8,0.5,1.4c0.1,0.4,0.1,0.8,0.1,1.2c0,0.4,0,0.9,0,1.4s0,0.9,0,1.4s0,0.9-0.1,1.4
		c0,0.4,0,0.8,0,1.2c0,0.4,0,0.7,0.1,0.9c0.1,0.3,0.2,0.6,0.4,0.8c0.2,0.2,0.5,0.2,1,0.1c0.3-0.1,0.6-0.2,0.8-0.3
		c0.2-0.2,0.4-0.4,0.5-0.6c0.1-0.3,0.3-0.6,0.3-0.9c0.1-0.3,0.2-0.7,0.2-1.1L135.8,103.1z"/>
	<path id="XMLID_3_" class="st8" d="M150.4,103.1c-0.3,0.8-0.5,1.5-0.8,2c-0.3,0.6-0.6,1.1-0.9,1.5c-0.3,0.4-0.7,0.7-1,1
		s-0.7,0.4-1,0.6c-0.3,0.1-0.7,0.2-1,0.3c-0.3,0.1-0.6,0.1-0.8,0.1c-0.8,0-1.5-0.2-2-0.6s-0.8-1.1-0.9-2c-0.3,0.6-0.7,1.1-1.1,1.4
		c-0.4,0.4-0.7,0.7-1.1,0.9c-0.4,0.2-0.7,0.3-1.1,0.4c-0.3,0.1-0.7,0.1-1,0.1c-0.4,0-0.8,0-1.2-0.2c-0.4-0.1-0.7-0.3-1-0.6
		c-0.3-0.3-0.5-0.6-0.7-1s-0.3-0.9-0.3-1.5c0-0.3,0-0.5,0-0.9c0-0.3,0.1-0.7,0.1-1l1.7-9.3l4.1-0.1l-1.8,9.8c0,0.3-0.1,0.6-0.1,0.8
		c0,0.3,0.1,0.6,0.2,0.8c0.1,0.2,0.4,0.3,0.7,0.3s0.5-0.1,0.8-0.2c0.2-0.1,0.4-0.3,0.6-0.5c0.2-0.2,0.3-0.5,0.5-0.8
		c0.1-0.3,0.3-0.7,0.4-1l1.7-9.3l4.1-0.1l-1.8,9.8c0,0.2-0.1,0.3-0.1,0.5s0,0.3,0,0.5c0,0.4,0.1,0.7,0.3,0.8
		c0.2,0.1,0.5,0.2,0.9,0.2c0.3,0,0.5-0.1,0.8-0.2c0.2-0.1,0.4-0.3,0.6-0.5c0.2-0.2,0.4-0.5,0.5-0.8s0.3-0.7,0.4-1L150.4,103.1z"/>
	<path id="XMLID_86_" class="st8" d="M161.7,103.1c-0.4,0.9-0.7,1.6-0.9,2.1s-0.3,0.9-0.4,1.2c-0.1,0.8,0.2,1.3,0.9,1.4
		c0.2,0,0.4,0,0.5,0c0.2,0,0.3-0.1,0.5-0.1c-0.5,1.8-1.6,2.6-3.2,2.5c-0.6-0.1-1.1-0.3-1.4-0.5c-0.4-0.2-0.7-0.5-0.9-0.8
		s-0.4-0.7-0.4-1.1c-0.1-0.4-0.1-0.8,0-1.2c0-0.1,0-0.2,0.1-0.4c0-0.1,0.1-0.3,0.2-0.6c0.1-0.2,0.2-0.5,0.3-0.9
		c0.1-0.3,0.3-0.8,0.5-1.3c-0.5,0-1.1,0-1.6-0.1c-0.4,0.9-0.8,1.7-1.1,2.4c-0.4,0.7-0.7,1.3-1.1,1.7c-0.4,0.5-0.9,0.8-1.3,1
		c-0.5,0.2-1.1,0.2-1.7,0.1c-0.5-0.1-1-0.3-1.4-0.5s-0.7-0.5-0.9-0.9c-0.2-0.3-0.4-0.7-0.4-1.1c-0.1-0.4-0.1-0.8,0-1.2
		c0.1-0.7,0.4-1.2,0.7-1.6c0.4-0.4,0.8-0.5,1.4-0.4c0.4,0.1,0.8,0.3,1,0.6c0.2,0.3,0.3,0.7,0.2,1.1c-0.1,0.5-0.3,0.8-0.5,1
		c-0.3,0.2-0.5,0.2-0.8,0.1c0,0.1,0,0.2,0,0.3c0,0.1,0.1,0.2,0.1,0.3c0.1,0.1,0.2,0.2,0.3,0.3c0.1,0.1,0.3,0.1,0.5,0.2
		c0.3,0.1,0.6,0,0.9-0.2c0.3-0.2,0.5-0.4,0.8-0.8c0.2-0.3,0.5-0.8,0.7-1.3s0.5-1.1,0.8-1.7c-0.4-0.2-0.7-0.3-1-0.6
		c-0.3-0.2-0.5-0.5-0.7-0.8s-0.3-0.7-0.4-1c-0.1-0.4-0.1-0.8,0-1.3c0.1-0.7,0.3-1.3,0.7-1.8c0.4-0.6,0.9-1,1.5-1.3
		c0.7-0.3,1.5-0.6,2.5-0.7s2.2,0,3.6,0.2l4.3,0.7L161.7,103.1z M160,97.2l-0.7-0.1c-0.6-0.1-1.1-0.1-1.5,0s-0.8,0.3-1.2,0.5
		c-0.3,0.2-0.6,0.6-0.8,0.9c-0.2,0.4-0.4,0.8-0.4,1.3c-0.1,0.4-0.1,0.8,0,1.1c0.1,0.3,0.2,0.5,0.3,0.8c0.2,0.2,0.4,0.4,0.6,0.5
		c0.2,0.1,0.5,0.2,0.8,0.2c0.2,0,0.3,0.1,0.4,0.1c0.1,0,0.3,0,0.4,0L160,97.2z"/>
</g>
</svg>
