<?xml version="1.0" encoding="utf-8"?>
<!-- Generator: Adobe Illustrator 19.0.0, SVG Export Plug-In . SVG Version: 6.00 Build 0)  -->
<svg version="1.1" id="Layer_1" xmlns="http://www.w3.org/2000/svg" xmlns:xlink="http://www.w3.org/1999/xlink" x="0px" y="0px"
	 viewBox="0 0 200 200" style="enable-background:new 0 0 200 200;" xml:space="preserve">
<style type="text/css">
	.st0{fill:#F78D38;stroke:#FFFFFF;stroke-width:3;stroke-miterlimit:10;}
	.st1{fill:#343433;stroke:#FFFFFF;stroke-width:3;stroke-miterlimit:10;}
	.st2{fill:#F17523;stroke:#FFFFFF;stroke-width:3;stroke-miterlimit:10;}
	.st3{fill:#FFFFFF;stroke:#FFFFFF;stroke-width:3;stroke-miterlimit:10;}
	.st4{opacity:0.14;fill:#010101;stroke:#FFFFFF;stroke-width:3;stroke-miterlimit:10;enable-background:new    ;}
	.st5{opacity:0.48;fill:url(#XMLID_2_);enable-background:new    ;}
	.st6{fill:#F78D38;}
	.st7{fill:#343433;}
	.st8{fill:#F17523;}
	.st9{fill:#FFFFFF;}
	.st10{opacity:0.14;fill:#010101;enable-background:new    ;}
</style>
<path id="XMLID_59_" class="st0" d="M180.1,145.3c-7.8,2.9-15.6,7-23.4,11.9c4.9-9.6,9.8-18.9,14.7-27.8
	C174.2,134.5,177.1,139.8,180.1,145.3z"/>
<path id="XMLID_58_" class="st1" d="M40.9,92c5.4,21.3,10.8,41.6,16.2,61.1c41,16,82-13.6,123-7.8c-2.9-5.5-5.8-10.8-8.7-16
	C127.8,115.7,84.4,135.6,40.9,92z"/>
<path id="XMLID_57_" class="st1" d="M186.7,100.4C150.7,65.4,74.5,50.2,6,60.8c11,5.2,19.4,11,20.4,25.4
	c48.1-10.5,121.5,16,152.6,45C181.5,120.7,184.1,110.4,186.7,100.4z"/>
<polyline id="XMLID_56_" class="st2" points="70.4,156.4 38.3,156.4 28.4,51.1 174.2,40.2 143.3,156.4 97.2,156.4 "/>
<g id="XMLID_136_">
	<path id="XMLID_55_" class="st3" d="M45.4,112.1l10.7-50.7h-7.7l1-3.7c1.1,0,2.4-0.1,3.7-0.2c1.4-0.1,2.9-0.4,4.6-0.8
		c1.7-0.4,3.6-1.1,5.6-1.9c2-0.8,4.3-2,6.7-3.5l-12.9,60.8H45.4z"/>
	<path id="XMLID_54_" class="st3" d="M89.8,94.6c-1.7-0.5-3.4-1-5.2-1.5c-1.7-0.5-3.6-0.7-5.5-0.7c-1.4,0-2.8,0.1-4.3,0.3
		c-1.5,0.2-3,0.7-4.5,1.4H70l-1.7-3.2v-0.4c2.3-2.7,4.5-5.5,6.6-8.3s4-5.6,5.7-8.4s3-5.6,4-8.4s1.5-5.5,1.5-8.2
		c0-0.8-0.1-1.7-0.2-2.5s-0.3-1.7-0.5-2.5c0.6-0.2,1.3-0.3,2-0.4s1.4-0.1,2-0.1c1.3,0,2.4,0.2,3.3,0.5c1,0.4,1.8,0.9,2.4,1.5
		c0.7,0.6,1.2,1.4,1.5,2.2c0.3,0.9,0.5,1.8,0.5,2.8c0,1.3-0.3,2.8-0.9,4.3s-1.5,3.1-2.5,4.8c-1.1,1.6-2.3,3.3-3.7,5
		c-1.4,1.7-2.8,3.3-4.3,4.9s-3,3-4.5,4.4s-3,2.6-4.3,3.7L77,86c0.9-0.4,2-0.7,3.3-1s2.6-0.5,3.9-0.5s2.6,0.1,4.1,0.4
		s2.9,0.5,4.3,0.8l6.6-19h5.2l-4,18.9c0.9-0.3,1.7-0.8,2.6-1.5c0.9-0.6,1.7-1.4,2.6-2.4l0.2,0.2c0.5,0.8,0.8,1.5,1,2.3
		c0.2,0.7,0.3,1.5,0.3,2.2c0,1.1-0.2,2.1-0.7,3.1c-0.4,1-1,1.8-1.8,2.6c-0.8,0.8-1.7,1.4-2.8,2s-2.2,0.9-3.5,1.2L95,112.1H83.7
		L89.8,94.6z"/>
</g>
<path id="XMLID_53_" class="st4" d="M164.9,91.1c-32.7-7.8-71.9,9.2-94.2,10.1c-16.9,0.7-32.1-6.5-39.2-10.5l5.6,18.9l59.6,37.8h0.2
	l0.1-0.3h0.3c10.3-4.3,23.3-9,38.7-11.3c10.8-1.6,17.4,0.2,23.8,1.9L164.9,91.1z"/>
<path id="XMLID_52_" class="st0" d="M15.9,99.1c56.9,36.7,113.9-35.4,170.8,1.3c-2.6,10.1-5.2,20.3-7.7,30.8
	c-48.9-17.4-97.9,38.3-146.8,28.9C26.7,140.6,21.3,120.3,15.9,99.1z"/>
<polygon id="XMLID_51_" class="st1" points="131.4,35.4 169.4,35.4 157.7,27.2 "/>
<g id="XMLID_115_">
	<path id="XMLID_130_" class="st3" d="M61.2,130.8c-0.6,0.7-1.4,1.3-2.4,1.9s-2.1,1-3.3,1.2c0.1,0.3,0.2,0.5,0.2,0.8
		s0.1,0.6,0.1,0.9c0.1,1.1-0.1,2.2-0.4,3.3c-0.3,1.1-0.8,2-1.5,2.9c-0.7,0.8-1.5,1.5-2.5,2.1c-1,0.5-2.1,0.8-3.4,0.9
		c-1,0.1-1.8-0.1-2.6-0.3c-0.7-0.3-1.4-0.7-1.9-1.2s-0.9-1.2-1.1-1.9c-0.3-0.7-0.4-1.6-0.5-2.5c0-0.6,0-1.4,0.1-2.3
		c0.1-0.9,0.2-1.9,0.4-2.9c0.2-1.1,0.5-2.2,0.8-3.3s0.7-2.3,1.1-3.4c0.4-1.1,0.9-2.2,1.4-3.2s1.1-1.9,1.7-2.7
		c0.6-0.8,1.3-1.4,1.9-1.9c0.7-0.5,1.4-0.7,2.2-0.8c0.6,0,1.1,0,1.6,0.2c0.5,0.1,0.9,0.4,1.2,0.8c0.3,0.4,0.6,0.8,0.8,1.4
		c0.2,0.6,0.3,1.3,0.4,2.2c0,0.7,0,1.5-0.1,2.2c-0.1,0.8-0.3,1.5-0.6,2.2c-0.2,0.7-0.5,1.4-0.8,2.1c-0.3,0.7-0.6,1.3-0.8,1.8
		c0.3,0.1,0.5,0.2,0.7,0.4s0.4,0.3,0.6,0.6c0.5,0,1.1-0.1,1.7-0.3c0.6-0.2,1.1-0.4,1.7-0.6c0.5-0.2,1.1-0.5,1.6-0.8s0.9-0.6,1.3-0.8
		L61.2,130.8z M52.3,134.7c-0.2,0.1-0.4,0.1-0.5,0.2c-0.2,0-0.4,0.1-0.7,0.1c-0.5,0-1-0.1-1.3-0.4c-0.3-0.3-0.5-0.7-0.6-1.2
		c0-0.4,0-0.7,0.1-0.9c0.1-0.3,0.3-0.5,0.5-0.6c0.2-0.2,0.5-0.3,0.7-0.4c0.3-0.1,0.6-0.2,1-0.2c0.3-0.6,0.5-1.2,0.8-1.9
		c0.2-0.7,0.5-1.4,0.7-2.1c0.2-0.7,0.3-1.4,0.4-2.2c0.1-0.7,0.1-1.4,0.1-2c0-0.7-0.2-1.2-0.3-1.5c-0.2-0.3-0.5-0.4-0.9-0.4
		s-0.7,0.2-1.1,0.6c-0.3,0.4-0.7,1-1,1.6c-0.3,0.7-0.6,1.5-0.9,2.4c-0.3,0.9-0.5,1.8-0.8,2.8c-0.2,1-0.4,2-0.6,3
		c-0.2,1-0.3,2-0.4,2.9c-0.1,0.9-0.2,1.7-0.3,2.5c-0.1,0.7-0.1,1.3,0,1.8c0,0.4,0.1,0.9,0.2,1.2c0.1,0.4,0.2,0.7,0.4,0.9
		c0.2,0.3,0.4,0.4,0.7,0.6c0.3,0.1,0.6,0.2,1,0.2c0.6,0,1.1-0.2,1.5-0.5s0.8-0.7,1.1-1.2s0.5-1,0.6-1.6s0.2-1.2,0.1-1.7
		C52.7,135.7,52.6,135.1,52.3,134.7z"/>
	<path id="XMLID_126_" class="st3" d="M89.3,129.6c0,1.2-0.1,2.3-0.4,3.2s-0.6,1.6-1,2.3c-0.4,0.6-0.9,1.2-1.4,1.6
		c-0.5,0.4-1,0.8-1.5,1c0.3,1.3,0.5,2.4,0.5,3.5s-0.2,2-0.6,2.9c-0.4,0.8-0.9,1.5-1.5,2.1c-0.7,0.6-1.4,1-2.4,1.3
		c-0.5,0.1-1,0.2-1.5,0.2s-0.9-0.1-1.4-0.3c-0.4-0.2-0.8-0.4-1.1-0.8c-0.3-0.3-0.5-0.8-0.7-1.3c-0.2-0.7-0.2-1.3-0.1-1.9
		c0.2-0.6,0.4-1.2,0.8-1.7s0.8-1,1.4-1.5c0.5-0.5,1.1-0.9,1.7-1.2c-0.7-2.3-1.9-3.3-3.4-2.8l-1,0.3l-0.2-2.1l1-0.3
		c0.6-0.2,1.1-0.5,1.5-0.9s0.7-1,0.9-1.6c0.2-0.6,0.3-1.3,0.3-2.1c0-0.7-0.1-1.5-0.3-2.3c-0.1-0.3-0.2-0.6-0.4-1s-0.3-0.6-0.6-0.8
		c-0.2-0.2-0.5-0.4-0.8-0.5s-0.6-0.1-1,0c-0.5,0.1-0.9,0.4-1.3,0.8c-0.4,0.4-0.7,0.8-1.1,1.3s-0.7,1.1-1,1.7
		c-0.3,0.6-0.7,1.2-1.1,1.8l0,0c0.3,1.6,0.4,3,0.3,4.4s-0.4,2.6-0.8,3.6c-0.5,1.1-1.1,2-1.8,2.7c-0.8,0.7-1.7,1.2-2.7,1.5
		c-0.8,0.2-1.5,0.3-2.2,0.3c-0.7,0-1.4-0.1-1.9-0.4c-0.6-0.3-1.1-0.7-1.6-1.3s-0.8-1.4-1.1-2.3c-0.2-0.6-0.3-1.4-0.4-2.3
		c-0.1-0.9-0.1-1.8-0.1-2.7c0-1,0.2-1.9,0.4-2.9s0.6-1.9,1.1-2.7c0.5-0.9,1.1-1.6,1.9-2.3c0.8-0.7,1.7-1.2,2.9-1.5
		c2.8-0.8,4.7,0.5,5.7,3.9c0.4-0.8,0.8-1.6,1.1-2.4c0.4-0.8,0.8-1.5,1.2-2.1c0.5-0.6,1-1.2,1.6-1.7s1.3-0.9,2.2-1.1
		c0.7-0.2,1.4-0.3,2-0.2c0.7,0.1,1.3,0.3,1.8,0.6c0.6,0.3,1.1,0.8,1.5,1.4c0.4,0.6,0.8,1.3,1,2.1c0.2,0.7,0.3,1.4,0.3,2.1
		c0,0.7-0.1,1.3-0.3,2c-0.2,0.6-0.4,1.2-0.6,1.7c-0.3,0.5-0.5,1-0.8,1.4s-0.6,0.8-0.9,1c-0.3,0.3-0.5,0.5-0.7,0.6
		c0.3,0,0.6,0.1,0.9,0.2c0.3,0.1,0.7,0.3,1,0.5s0.6,0.5,1,0.8s0.6,0.7,0.8,1.1c0.5-0.3,1-0.7,1.4-1.1c0.4-0.4,0.8-0.8,1-1.3
		c0.3-0.5,0.5-1.1,0.6-1.7c0.2-0.6,0.2-1.4,0.3-2.3L89.3,129.6z M69.1,131.2c-0.4,0-0.7-0.1-0.9-0.3s-0.3-0.5-0.4-0.8
		c-0.1-0.5-0.1-0.9,0-1.2s0.3-0.6,0.6-0.9c-0.1-0.4-0.2-0.6-0.4-0.9c-0.1-0.2-0.3-0.4-0.4-0.5s-0.3-0.2-0.5-0.2s-0.4,0-0.6,0.1
		c-0.4,0.1-0.7,0.4-1,0.8c-0.3,0.4-0.5,0.9-0.7,1.5s-0.3,1.3-0.4,2s-0.1,1.5-0.1,2.2s0,1.5,0.1,2.2s0.2,1.3,0.4,1.9
		c0.2,0.5,0.3,1,0.5,1.3s0.3,0.6,0.5,0.7c0.2,0.2,0.4,0.2,0.6,0.3c0.2,0,0.5,0,0.8-0.1c0.4-0.1,0.7-0.4,1.1-0.9
		c0.3-0.5,0.5-1.1,0.7-1.8s0.3-1.5,0.3-2.4C69.3,133.2,69.2,132.3,69.1,131.2z M80.6,140.4c-0.4,0.3-0.8,0.6-1.1,0.9
		c-0.3,0.3-0.6,0.6-0.9,0.9c-0.2,0.3-0.4,0.6-0.5,1c-0.1,0.3-0.1,0.7,0,1s0.3,0.5,0.5,0.7s0.6,0.2,0.9,0.1c0.2-0.1,0.4-0.2,0.6-0.5
		s0.3-0.6,0.4-1s0.1-0.9,0.1-1.4S80.7,141,80.6,140.4z"/>
	<path id="XMLID_123_" class="st3" d="M103.8,116.4c-0.4,0.8-0.9,1.7-1.7,2.5c-0.8,0.8-1.7,1.5-2.8,2.1c0.2,0.2,0.3,0.5,0.4,0.7
		c0.1,0.3,0.2,0.5,0.3,0.8c0.4,1.1,0.6,2.2,0.6,3.3s-0.2,2.2-0.6,3.2s-1,1.9-1.8,2.7s-1.8,1.4-3,1.9c-0.9,0.3-1.8,0.5-2.6,0.4
		c-0.8,0-1.5-0.2-2.1-0.6c-0.6-0.4-1.2-0.9-1.6-1.5c-0.5-0.6-0.9-1.4-1.2-2.2c-0.2-0.6-0.4-1.3-0.6-2.2s-0.3-1.9-0.4-3
		s-0.2-2.2-0.2-3.4s0-2.4,0.1-3.6c0.1-1.2,0.2-2.3,0.4-3.4c0.2-1.1,0.5-2.1,0.8-3c0.4-0.9,0.8-1.7,1.3-2.3c0.5-0.6,1.1-1.1,1.9-1.4
		c0.5-0.2,1.1-0.3,1.6-0.3s1,0.1,1.4,0.4c0.4,0.2,0.8,0.6,1.2,1.1c0.4,0.5,0.7,1.2,1,2c0.2,0.7,0.4,1.4,0.5,2.2s0.1,1.5,0.1,2.3
		s-0.1,1.5-0.2,2.2s-0.2,1.4-0.3,2c0.3,0,0.6,0.1,0.8,0.2c0.3,0.1,0.5,0.2,0.8,0.4c0.5-0.2,1-0.4,1.5-0.8c0.5-0.3,1-0.7,1.4-1.1
		c0.5-0.4,0.9-0.8,1.3-1.2s0.7-0.8,1-1.2L103.8,116.4z M96.4,122.7c-0.2,0.1-0.3,0.2-0.4,0.3s-0.4,0.2-0.7,0.3c-0.5,0.2-1,0.2-1.4,0
		s-0.7-0.5-0.9-1c-0.1-0.3-0.2-0.7-0.1-0.9c0-0.3,0.1-0.5,0.3-0.7c0.1-0.2,0.3-0.4,0.6-0.6c0.2-0.2,0.5-0.3,0.9-0.5
		c0.1-0.6,0.2-1.3,0.2-2s0-1.5,0-2.2s-0.1-1.5-0.2-2.2s-0.3-1.4-0.5-2c-0.2-0.7-0.5-1.1-0.8-1.3c-0.3-0.2-0.6-0.2-0.9-0.1
		s-0.6,0.4-0.8,0.9c-0.2,0.5-0.4,1.1-0.5,1.9c-0.1,0.7-0.2,1.6-0.2,2.5s0,1.9,0.1,2.9s0.1,2,0.3,3c0.1,1,0.3,2,0.4,2.9
		s0.3,1.7,0.5,2.4s0.3,1.3,0.5,1.7s0.3,0.8,0.5,1.1s0.4,0.6,0.7,0.8c0.2,0.2,0.5,0.3,0.8,0.4c0.3,0,0.6,0,1-0.1
		c0.5-0.2,1-0.5,1.3-0.9s0.5-0.9,0.7-1.5c0.1-0.5,0.2-1.1,0.1-1.7c0-0.6-0.2-1.2-0.4-1.7C97.1,123.6,96.7,123,96.4,122.7z"/>
	<path id="XMLID_120_" class="st3" d="M104.6,139.1l-3.4-27.5l4.7-1.6l0.3,2.6c0.3-0.6,0.8-1.1,1.3-1.6s1.2-0.9,2-1.1
		c0.6-0.2,1.1-0.3,1.7-0.3c0.5,0,1.1,0.1,1.6,0.4s1,0.7,1.4,1.3s0.8,1.4,1.2,2.3c0.3,0.7,0.5,1.5,0.7,2.4s0.3,1.8,0.4,2.7
		s0,1.9-0.1,2.8c-0.1,0.9-0.4,1.8-0.8,2.6s-0.9,1.5-1.6,2.2c-0.7,0.6-1.6,1.2-2.6,1.5c-0.4,0.1-0.8,0.2-1.1,0.3c-0.3,0-0.6,0-0.9,0
		s-0.5-0.1-0.7-0.2c-0.2-0.1-0.4-0.2-0.5-0.3l1.1,8.5L104.6,139.1z M107.8,125.1c0.1,0.2,0.3,0.3,0.6,0.4c0.3,0.1,0.6,0.1,0.9-0.1
		c0.6-0.2,1-0.5,1.4-1c0.3-0.4,0.6-1,0.8-1.6c0.2-0.6,0.3-1.2,0.3-1.9s0-1.4-0.1-2.1c-0.1-0.7-0.2-1.4-0.3-2
		c-0.1-0.7-0.3-1.2-0.5-1.7c-0.2-0.6-0.4-1.1-0.7-1.4c-0.2-0.3-0.5-0.5-0.7-0.7c-0.2-0.1-0.4-0.2-0.7-0.2c-0.2,0-0.4,0.1-0.5,0.1
		c-0.4,0.1-0.7,0.4-1,0.8c-0.3,0.4-0.5,0.9-0.7,1.6L107.8,125.1z"/>
	<path id="XMLID_117_" class="st3" d="M137.4,113.5c-0.1,1-0.2,1.9-0.4,2.6c-0.2,0.8-0.4,1.4-0.7,2s-0.6,1-0.9,1.4s-0.7,0.7-1,1
		s-0.7,0.5-1,0.6s-0.7,0.3-1,0.3c-0.9,0.3-1.8,0.2-2.5-0.2s-1.2-1-1.6-2c-0.2,0.5-0.4,0.9-0.6,1.4s-0.5,0.9-0.8,1.3
		c-0.3,0.4-0.7,0.7-1.2,1.1c-0.4,0.3-1,0.5-1.6,0.7s-1.2,0.2-1.7,0.2c-0.6,0-1.1-0.2-1.7-0.5c-0.5-0.3-1-0.8-1.4-1.4
		c-0.4-0.6-0.8-1.4-1-2.4c-0.2-0.8-0.3-1.6-0.4-2.5s-0.1-1.8,0-2.8s0.3-1.9,0.5-2.8c0.3-0.9,0.6-1.8,1.1-2.6c0.5-0.8,1.1-1.5,1.8-2
		c0.7-0.6,1.5-1,2.5-1.3c0.9-0.3,1.7-0.3,2.2-0.1c0.5,0.2,0.8,0.6,1,1l0.1,0.2l-0.1-1.9l4.8-1.3l0.6,12c0,0.2,0,0.4,0,0.6
		c0,0.2,0.1,0.4,0.1,0.5c0.3,1,0.8,1.3,1.7,1.1c0.3-0.1,0.6-0.3,0.8-0.5s0.4-0.5,0.6-0.9c0.2-0.3,0.3-0.7,0.3-1.2
		c0.1-0.4,0.1-0.9,0.1-1.3L137.4,113.5z M127,108.2c0-0.1-0.1-0.2-0.2-0.3c-0.1-0.1-0.2-0.3-0.3-0.4c-0.1-0.1-0.3-0.2-0.5-0.2
		s-0.4,0-0.7,0c-0.5,0.1-0.9,0.4-1.2,0.8c-0.3,0.4-0.6,0.9-0.8,1.5c-0.2,0.6-0.4,1.3-0.5,2c-0.1,0.7-0.2,1.4-0.2,2.2
		c0,0.7,0,1.4,0.1,2.1c0.1,0.7,0.2,1.3,0.3,1.8c0.2,0.6,0.4,1.1,0.6,1.4c0.2,0.3,0.4,0.5,0.6,0.7c0.2,0.1,0.4,0.2,0.6,0.2
		s0.4,0,0.5-0.1c0.2-0.1,0.5-0.2,0.7-0.4s0.5-0.5,0.6-0.8c0.2-0.3,0.3-0.7,0.5-1.1c0.1-0.4,0.2-0.9,0.1-1.4L127,108.2z"/>
	<path id="XMLID_39_" class="st3" d="M143.7,118.9l1.5-12.1c0-0.3,0.1-0.6,0-0.9c0-0.2-0.1-0.4-0.1-0.6s-0.1-0.3-0.2-0.5
		c-0.1-0.1-0.2-0.2-0.3-0.3c-0.1-0.1-0.3-0.1-0.5-0.1c-0.3,0-0.6,0.1-0.9,0.3c-0.3,0.2-0.5,0.4-0.7,0.8c-0.2,0.3-0.4,0.7-0.5,1.1
		s-0.3,0.8-0.4,1.3l-1.4,11.2l-4.9,0.4l2.2-17.5l4.9-0.4l-0.2,1.8c0.3-0.4,0.7-0.8,1-1.1c0.3-0.3,0.7-0.5,1-0.7s0.7-0.3,1-0.4
		s0.6-0.1,1-0.2c0.4,0,0.9,0,1.3,0.1s0.8,0.2,1.1,0.4s0.6,0.5,0.8,0.8c0.2,0.4,0.4,0.8,0.6,1.3c0.4-0.7,0.7-1.2,1.1-1.6
		c0.4-0.4,0.8-0.8,1.2-1s0.8-0.4,1.2-0.5s0.7-0.2,1-0.2c0.5,0,1.1,0,1.5,0.1c0.5,0.1,0.9,0.3,1.3,0.6c0.4,0.3,0.7,0.7,0.9,1.1
		c0.2,0.5,0.4,1.1,0.4,1.7c0,0.5,0,1,0,1.5s-0.1,1.1-0.2,1.7c-0.1,0.6-0.2,1.1-0.3,1.7s-0.2,1.1-0.3,1.6s-0.1,1-0.2,1.4
		c0,0.4-0.1,0.8,0,1.1c0,0.4,0.2,0.8,0.4,1c0.2,0.3,0.6,0.4,1.1,0.3c0.5,0,0.9-0.2,1.1-0.3c0,0.6-0.1,1.2-0.3,1.6
		c-0.2,0.5-0.5,0.9-0.8,1.2s-0.7,0.6-1.1,0.7c-0.4,0.2-0.8,0.3-1.3,0.3c-0.7,0.1-1.2,0-1.7-0.2s-0.8-0.4-1.1-0.8
		c-0.3-0.3-0.5-0.7-0.7-1.2s-0.2-0.9-0.3-1.4c0-0.6,0-1.3,0.1-2.1s0.2-1.6,0.3-2.4s0.2-1.6,0.3-2.4s0.1-1.4,0.1-2
		c-0.1-1.2-0.6-1.7-1.4-1.7c-0.3,0-0.6,0.1-0.9,0.3c-0.3,0.2-0.5,0.4-0.7,0.7c-0.2,0.3-0.4,0.7-0.5,1.1s-0.3,0.8-0.4,1.3l-1.4,11.2
		L143.7,118.9z"/>
</g>
<g id="XMLID_103_">
	<path id="XMLID_111_" class="st3" d="M124.3,70.8c-0.2,0.9-0.5,1.7-0.8,2.3c-0.3,0.6-0.7,1-1.2,1.3c-0.4,0.3-0.9,0.5-1.3,0.6
		c-0.5,0.1-0.9,0.2-1.3,0.2s-0.8-0.1-1.1-0.2c-0.4-0.1-0.7-0.3-0.9-0.5s-0.5-0.5-0.6-0.8c-0.2-0.3-0.2-0.7-0.2-1.1
		c0-0.5,0.1-1,0.4-1.4s0.6-0.8,1-1.1c0.4-0.3,0.9-0.6,1.4-0.8c0.5-0.2,1-0.4,1.5-0.6l0.3-1.4c-0.4,0.4-0.8,0.7-1.3,1
		s-1.1,0.4-1.8,0.4c-0.4,0-0.9-0.1-1.3-0.2s-0.8-0.4-1.1-0.7c-0.3-0.3-0.6-0.8-0.8-1.3c-0.2-0.5-0.3-1.2-0.3-1.9
		c0-0.6,0.1-1.2,0.2-1.9c0.1-0.7,0.3-1.4,0.5-2c0.2-0.7,0.5-1.3,0.9-1.9s0.8-1.2,1.3-1.6c0.5-0.5,1.1-0.9,1.7-1.1
		c0.6-0.3,1.3-0.4,2.1-0.4c0.7,0,1.3,0.1,1.6,0.4c0.3,0.3,0.5,0.6,0.5,0.9v0.2l0.3-1.3h3.7l-2.6,12c0.4-0.1,0.8-0.3,1.1-0.5
		c0.3-0.2,0.6-0.4,0.9-0.7c0.3-0.3,0.5-0.6,0.7-1s0.4-0.9,0.6-1.5h1.1c-0.3,0.9-0.6,1.6-0.9,2.2c-0.4,0.6-0.7,1-1.1,1.4
		s-0.8,0.6-1.3,0.8c-0.4,0.2-0.8,0.3-1.3,0.4L124.3,70.8z M120.7,70.1c-0.3,0.1-0.7,0.3-1,0.4s-0.6,0.3-0.8,0.5
		c-0.2,0.2-0.4,0.4-0.6,0.6c-0.1,0.2-0.2,0.5-0.2,0.7c0,0.1,0,0.2,0.1,0.3c0,0.1,0.1,0.2,0.2,0.3c0.1,0.1,0.2,0.2,0.3,0.2
		c0.1,0.1,0.2,0.1,0.4,0.1c0.3,0,0.5-0.2,0.8-0.6s0.5-1,0.7-1.7L120.7,70.1z M123.2,58.2c0-0.1,0-0.2-0.1-0.3c0-0.1-0.1-0.2-0.2-0.3
		c-0.1-0.1-0.2-0.2-0.3-0.3s-0.3-0.1-0.5-0.1c-0.4,0-0.7,0.1-1,0.4c-0.3,0.2-0.6,0.5-0.9,0.9s-0.5,0.8-0.7,1.3s-0.4,1-0.5,1.5
		s-0.3,1-0.3,1.6c-0.1,0.5-0.1,1-0.1,1.4c0,0.5,0,0.9,0.1,1.2c0.1,0.3,0.2,0.5,0.3,0.6c0.1,0.1,0.3,0.2,0.4,0.2c0.2,0,0.3,0,0.4,0
		c0.2,0,0.4,0,0.6-0.1s0.4-0.2,0.6-0.4c0.2-0.2,0.4-0.4,0.5-0.6c0.2-0.3,0.3-0.5,0.4-0.9L123.2,58.2z"/>
	<path id="XMLID_35_" class="st3" d="M142.4,64.1c-1.1,3.2-2.7,4.8-4.8,4.8c-0.5,0-1-0.1-1.4-0.2c-0.4-0.2-0.7-0.4-1-0.6
		c-0.2-0.3-0.4-0.5-0.6-0.9c-0.1-0.3-0.2-0.7-0.2-1s0.1-0.8,0.2-1.5c0.1-0.6,0.3-1.3,0.4-2.2h-2.9l-1.3,6.2h-3.7l2.7-13h3.7
		l-1.1,5.2h2.9l1.2-5.2h3.5l-1.4,6.4c-0.2,0.8-0.3,1.5-0.5,2c-0.1,0.5-0.2,0.9-0.2,1.1c0,0.7,0.3,1.1,1,1.1c0.3,0,0.5,0,0.7-0.1
		s0.4-0.2,0.5-0.4c0.2-0.2,0.3-0.4,0.5-0.7c0.1-0.3,0.3-0.6,0.5-1L142.4,64.1L142.4,64.1z"/>
	<path id="XMLID_107_" class="st3" d="M152.2,64.1c-0.4,0.6-0.8,1.2-1.2,1.8c-0.5,0.6-1,1.1-1.6,1.5s-1.2,0.8-1.9,1.1
		c-0.7,0.3-1.5,0.4-2.3,0.4c-0.6,0-1.2-0.1-1.7-0.2c-0.5-0.2-0.9-0.4-1.3-0.7c-0.4-0.3-0.6-0.8-0.8-1.3s-0.3-1.1-0.3-1.9
		c0-0.5,0.1-1.1,0.2-1.7c0.1-0.7,0.3-1.3,0.5-2s0.5-1.4,0.9-2c0.4-0.7,0.8-1.2,1.3-1.8c0.5-0.5,1.1-0.9,1.8-1.3
		c0.7-0.3,1.5-0.5,2.4-0.5c0.6,0,1.1,0.1,1.4,0.2c0.4,0.1,0.7,0.3,0.9,0.6c0.2,0.2,0.4,0.5,0.4,0.8c0.1,0.3,0.1,0.6,0.1,0.9
		c0,0.8-0.2,1.5-0.5,2.1s-0.8,1.2-1.3,1.7c-0.6,0.5-1.2,0.9-1.9,1.2c-0.7,0.3-1.5,0.5-2.2,0.5c0,0.2,0,0.4,0,0.6s0,0.3,0,0.5
		c0,0.4,0,0.8,0.1,1.1c0.1,0.3,0.2,0.5,0.4,0.7s0.3,0.3,0.6,0.3c0.2,0.1,0.5,0.1,0.8,0.1c0.5,0,1-0.1,1.4-0.2s0.8-0.3,1.2-0.6
		c0.4-0.2,0.7-0.5,1-0.8s0.7-0.7,1-1L152.2,64.1L152.2,64.1z M145.1,62.3c0.5,0,1-0.2,1.4-0.4c0.5-0.2,0.9-0.6,1.2-1
		s0.6-0.8,0.8-1.3s0.3-1,0.3-1.6c0-0.3,0-0.6-0.1-0.8c-0.1-0.2-0.3-0.3-0.5-0.3c-0.3,0-0.7,0.2-1,0.5s-0.6,0.7-0.9,1.2
		c-0.3,0.5-0.5,1.1-0.7,1.7C145.4,61,145.2,61.6,145.1,62.3z"/>
	<path id="XMLID_104_" class="st3" d="M159.5,55.8h3.7l-1.9,8.8c0,0.1-0.1,0.3-0.1,0.4s0,0.3,0,0.4c0,0.4,0.1,0.6,0.3,0.8
		c0.2,0.1,0.4,0.2,0.8,0.2c0.1,0,0.2,0,0.3,0s0.2,0,0.2,0c0.1,0,0.1,0,0.2-0.1c0.1,0,0.1,0,0.2-0.1c0,0.5-0.1,0.9-0.3,1.2
		c-0.2,0.3-0.4,0.6-0.6,0.8c-0.3,0.2-0.6,0.4-0.9,0.5c-0.3,0.1-0.7,0.2-1,0.2c-0.7,0-1.3-0.2-1.8-0.6c-0.4-0.4-0.7-1-0.8-1.8
		c-0.3,0.5-0.7,1-1,1.3s-0.7,0.6-1,0.7c-0.3,0.2-0.7,0.3-1,0.3c-0.3,0.1-0.6,0.1-0.9,0.1c-0.4,0-0.7-0.1-1.1-0.2
		c-0.3-0.1-0.6-0.3-0.9-0.6c-0.2-0.3-0.4-0.6-0.6-1c-0.1-0.4-0.2-0.9-0.2-1.4c0-0.2,0-0.5,0.1-0.8c0-0.3,0.1-0.6,0.2-0.9l1.8-8.3
		h3.7l-1.9,8.8c-0.1,0.2-0.1,0.4-0.1,0.7c0,0.2,0,0.3,0,0.4s0.1,0.3,0.1,0.4c0.1,0.1,0.1,0.2,0.2,0.3c0.1,0.1,0.2,0.1,0.4,0.1
		c0.3,0,0.5-0.1,0.7-0.2s0.4-0.3,0.6-0.5c0.2-0.2,0.3-0.4,0.5-0.7c0.1-0.3,0.2-0.6,0.3-0.9L159.5,55.8z M163.5,50.1
		c-0.3,0.9-0.6,1.6-1,2.1c-0.4,0.6-0.8,1-1.3,1.4c-0.5,0.3-1,0.6-1.5,0.7s-1.1,0.2-1.7,0.2c-1.1,0-1.9-0.2-2.5-0.6s-0.9-0.9-0.9-1.6
		c0-0.6,0.2-1,0.5-1.4s0.7-0.5,1.3-0.5c0.5,0,0.9,0.1,1.2,0.4c0.3,0.2,0.4,0.6,0.4,1c0,0.1,0,0.1,0,0.2s0,0.2-0.1,0.3
		c0,0.1-0.1,0.2-0.2,0.4c-0.1,0.1-0.2,0.2-0.3,0.3c0.1,0,0.3,0.1,0.5,0.1s0.4,0,0.6,0c0.4,0,0.7,0,1.1-0.1c0.4-0.1,0.7-0.3,1.1-0.5
		c0.4-0.2,0.7-0.5,1-0.9s0.6-0.9,0.8-1.5H163.5L163.5,50.1z"/>
</g>
<g id="XMLID_101_">
	
		<radialGradient id="XMLID_2_" cx="97.9193" cy="73.8782" r="113.7095" gradientTransform="matrix(0.7952 0 0 9.680000e-002 30.4537 175.242)" gradientUnits="userSpaceOnUse">
		<stop  offset="0" style="stop-color:#010101;stop-opacity:0.7803"/>
		<stop  offset="0.127" style="stop-color:#010101;stop-opacity:0.6809"/>
		<stop  offset="0.9973" style="stop-color:#010101;stop-opacity:0"/>
	</radialGradient>
	<ellipse id="XMLID_30_" class="st5" cx="108.8" cy="182.8" rx="91.2" ry="12.2"/>
</g>
<path id="XMLID_29_" class="st6" d="M180.1,145.3c-7.8,2.9-15.6,7-23.4,11.9c4.9-9.6,9.8-18.9,14.7-27.8
	C174.2,134.5,177.1,139.8,180.1,145.3z"/>
<path id="XMLID_28_" class="st7" d="M40.9,92c5.4,21.3,10.8,41.6,16.2,61.1c41,16,82-13.6,123-7.8c-2.9-5.5-5.8-10.8-8.7-16
	C127.8,115.7,84.4,135.6,40.9,92z"/>
<path id="XMLID_27_" class="st7" d="M186.7,100.4C150.7,65.4,74.5,50.2,6,60.8c11,5.2,19.4,11,20.4,25.4
	c48.1-10.5,121.5,16,152.6,45C181.5,120.7,184.1,110.4,186.7,100.4z"/>
<polyline id="XMLID_26_" class="st8" points="70.4,156.4 38.3,156.4 28.4,51.1 174.2,40.2 143.3,156.4 97.2,156.4 "/>
<g id="XMLID_94_">
	<path id="XMLID_25_" class="st9" d="M45.4,112.1l10.7-50.7h-7.7l1-3.7c1.1,0,2.4-0.1,3.7-0.2c1.4-0.1,2.9-0.4,4.6-0.8
		c1.7-0.4,3.6-1.1,5.6-1.9c2-0.8,4.3-2,6.7-3.5l-12.9,60.8H45.4z"/>
	<path id="XMLID_24_" class="st9" d="M89.8,94.6c-1.7-0.5-3.4-1-5.2-1.5c-1.7-0.5-3.6-0.7-5.5-0.7c-1.4,0-2.8,0.1-4.3,0.3
		c-1.5,0.2-3,0.7-4.5,1.4H70l-1.7-3.2v-0.4c2.3-2.7,4.5-5.5,6.6-8.3s4-5.6,5.7-8.4s3-5.6,4-8.4s1.5-5.5,1.5-8.2
		c0-0.8-0.1-1.7-0.2-2.5s-0.3-1.7-0.5-2.5c0.6-0.2,1.3-0.3,2-0.4s1.4-0.1,2-0.1c1.3,0,2.4,0.2,3.3,0.5c1,0.4,1.8,0.9,2.4,1.5
		c0.7,0.6,1.2,1.4,1.5,2.2c0.3,0.9,0.5,1.8,0.5,2.8c0,1.3-0.3,2.8-0.9,4.3s-1.5,3.1-2.5,4.8c-1.1,1.6-2.3,3.3-3.7,5
		c-1.4,1.7-2.8,3.3-4.3,4.9s-3,3-4.5,4.4s-3,2.6-4.3,3.7L77,86c0.9-0.4,2-0.7,3.3-1s2.6-0.5,3.9-0.5s2.6,0.1,4.1,0.4
		s2.9,0.5,4.3,0.8l6.6-19h5.2l-4,18.9c0.9-0.3,1.7-0.8,2.6-1.5c0.9-0.6,1.7-1.4,2.6-2.4l0.2,0.2c0.5,0.8,0.8,1.5,1,2.3
		c0.2,0.7,0.3,1.5,0.3,2.2c0,1.1-0.2,2.1-0.7,3.1c-0.4,1-1,1.8-1.8,2.6c-0.8,0.8-1.7,1.4-2.8,2s-2.2,0.9-3.5,1.2L95,112.1H83.7
		L89.8,94.6z"/>
</g>
<path id="XMLID_23_" class="st10" d="M164.9,91.1c-32.7-7.8-71.9,9.2-94.2,10.1c-16.9,0.7-32.1-6.5-39.2-10.5l5.6,18.2L96.8,146H97
	l0.1,0.4l0.3,0.3c10.3-4.3,23.3-8.8,38.7-11.1c10.8-1.6,17.4,0.3,23.8,2L164.9,91.1z"/>
<path id="XMLID_22_" class="st6" d="M15.9,99.1c56.9,36.7,113.9-35.4,170.8,1.3c-2.6,10.1-5.2,20.3-7.7,30.8
	c-48.9-17.4-97.9,38.3-146.8,28.9C26.7,140.6,21.3,120.3,15.9,99.1z"/>
<polygon id="XMLID_21_" class="st7" points="131.4,34.9 169.4,34.9 157.7,26.7 "/>
<g id="XMLID_73_">
	<path id="XMLID_88_" class="st9" d="M61.2,130.8c-0.6,0.7-1.4,1.3-2.4,1.9s-2.1,1-3.3,1.2c0.1,0.3,0.2,0.5,0.2,0.8s0.1,0.6,0.1,0.9
		c0.1,1.1-0.1,2.2-0.4,3.3c-0.3,1.1-0.8,2-1.5,2.9c-0.7,0.8-1.5,1.5-2.5,2.1c-1,0.5-2.1,0.8-3.4,0.9c-1,0.1-1.8-0.1-2.6-0.3
		c-0.7-0.3-1.4-0.7-1.9-1.2s-0.9-1.2-1.1-1.9c-0.3-0.7-0.4-1.6-0.5-2.5c0-0.6,0-1.4,0.1-2.3c0.1-0.9,0.2-1.9,0.4-2.9
		c0.2-1.1,0.5-2.2,0.8-3.3s0.7-2.3,1.1-3.4c0.4-1.1,0.9-2.2,1.4-3.2s1.1-1.9,1.7-2.7c0.6-0.8,1.3-1.4,1.9-1.9
		c0.7-0.5,1.4-0.7,2.2-0.8c0.6,0,1.1,0,1.6,0.2c0.5,0.1,0.9,0.4,1.2,0.8c0.3,0.4,0.6,0.8,0.8,1.4c0.2,0.6,0.3,1.3,0.4,2.2
		c0,0.7,0,1.5-0.1,2.2c-0.1,0.8-0.3,1.5-0.6,2.2c-0.2,0.7-0.5,1.4-0.8,2.1c-0.3,0.7-0.6,1.3-0.8,1.8c0.3,0.1,0.5,0.2,0.7,0.4
		s0.4,0.3,0.6,0.6c0.5,0,1.1-0.1,1.7-0.3c0.6-0.2,1.1-0.4,1.7-0.6c0.5-0.2,1.1-0.5,1.6-0.8s0.9-0.6,1.3-0.8L61.2,130.8z M52.3,134.7
		c-0.2,0.1-0.4,0.1-0.5,0.2c-0.2,0-0.4,0.1-0.7,0.1c-0.5,0-1-0.1-1.3-0.4c-0.3-0.3-0.5-0.7-0.6-1.2c0-0.4,0-0.7,0.1-0.9
		c0.1-0.3,0.3-0.5,0.5-0.6c0.2-0.2,0.5-0.3,0.7-0.4c0.3-0.1,0.6-0.2,1-0.2c0.3-0.6,0.5-1.2,0.8-1.9c0.2-0.7,0.5-1.4,0.7-2.1
		c0.2-0.7,0.3-1.4,0.4-2.2c0.1-0.7,0.1-1.4,0.1-2c0-0.7-0.2-1.2-0.3-1.5c-0.2-0.3-0.5-0.4-0.9-0.4s-0.7,0.2-1.1,0.6
		c-0.3,0.4-0.7,1-1,1.6c-0.3,0.7-0.6,1.5-0.9,2.4c-0.3,0.9-0.5,1.8-0.8,2.8c-0.2,1-0.4,2-0.6,3c-0.2,1-0.3,2-0.4,2.9
		c-0.1,0.9-0.2,1.7-0.3,2.5c-0.1,0.7-0.1,1.3,0,1.8c0,0.4,0.1,0.9,0.2,1.2c0.1,0.4,0.2,0.7,0.4,0.9c0.2,0.3,0.4,0.4,0.7,0.6
		c0.3,0.1,0.6,0.2,1,0.2c0.6,0,1.1-0.2,1.5-0.5s0.8-0.7,1.1-1.2s0.5-1,0.6-1.6s0.2-1.2,0.1-1.7C52.7,135.7,52.6,135.1,52.3,134.7z"
		/>
	<path id="XMLID_84_" class="st9" d="M89.3,129.6c0,1.2-0.1,2.3-0.4,3.2s-0.6,1.6-1,2.3c-0.4,0.6-0.9,1.2-1.4,1.6
		c-0.5,0.4-1,0.8-1.5,1c0.3,1.3,0.5,2.4,0.5,3.5s-0.2,2-0.6,2.9c-0.4,0.8-0.9,1.5-1.5,2.1c-0.7,0.6-1.4,1-2.4,1.3
		c-0.5,0.1-1,0.2-1.5,0.2s-0.9-0.1-1.4-0.3c-0.4-0.2-0.8-0.4-1.1-0.8c-0.3-0.3-0.5-0.8-0.7-1.3c-0.2-0.7-0.2-1.3-0.1-1.9
		c0.2-0.6,0.4-1.2,0.8-1.7s0.8-1,1.4-1.5c0.5-0.5,1.1-0.9,1.7-1.2c-0.7-2.3-1.9-3.3-3.4-2.8l-1,0.3l-0.2-2.1l1-0.3
		c0.6-0.2,1.1-0.5,1.5-0.9s0.7-1,0.9-1.6c0.2-0.6,0.3-1.3,0.3-2.1c0-0.7-0.1-1.5-0.3-2.3c-0.1-0.3-0.2-0.6-0.4-1s-0.3-0.6-0.6-0.8
		c-0.2-0.2-0.5-0.4-0.8-0.5s-0.6-0.1-1,0c-0.5,0.1-0.9,0.4-1.3,0.8c-0.4,0.4-0.7,0.8-1.1,1.3s-0.7,1.1-1,1.7
		c-0.3,0.6-0.7,1.2-1.1,1.8l0,0c0.3,1.6,0.4,3,0.3,4.4s-0.4,2.6-0.8,3.6c-0.5,1.1-1.1,2-1.8,2.7c-0.8,0.7-1.7,1.2-2.7,1.5
		c-0.8,0.2-1.5,0.3-2.2,0.3c-0.7,0-1.4-0.1-1.9-0.4c-0.6-0.3-1.1-0.7-1.6-1.3s-0.8-1.4-1.1-2.3c-0.2-0.6-0.3-1.4-0.4-2.3
		c-0.1-0.9-0.1-1.8-0.1-2.7c0-1,0.2-1.9,0.4-2.9s0.6-1.9,1.1-2.7c0.5-0.9,1.1-1.6,1.9-2.3c0.8-0.7,1.7-1.2,2.9-1.5
		c2.8-0.8,4.7,0.5,5.7,3.9c0.4-0.8,0.8-1.6,1.1-2.4c0.4-0.8,0.8-1.5,1.2-2.1c0.5-0.6,1-1.2,1.6-1.7s1.3-0.9,2.2-1.1
		c0.7-0.2,1.4-0.3,2-0.2c0.7,0.1,1.3,0.3,1.8,0.6c0.6,0.3,1.1,0.8,1.5,1.4c0.4,0.6,0.8,1.3,1,2.1c0.2,0.7,0.3,1.4,0.3,2.1
		c0,0.7-0.1,1.3-0.3,2c-0.2,0.6-0.4,1.2-0.6,1.7c-0.3,0.5-0.5,1-0.8,1.4s-0.6,0.8-0.9,1c-0.3,0.3-0.5,0.5-0.7,0.6
		c0.3,0,0.6,0.1,0.9,0.2c0.3,0.1,0.7,0.3,1,0.5s0.6,0.5,1,0.8s0.6,0.7,0.8,1.1c0.5-0.3,1-0.7,1.4-1.1c0.4-0.4,0.8-0.8,1-1.3
		c0.3-0.5,0.5-1.1,0.6-1.7c0.2-0.6,0.2-1.4,0.3-2.3L89.3,129.6z M69.1,131.2c-0.4,0-0.7-0.1-0.9-0.3s-0.3-0.5-0.4-0.8
		c-0.1-0.5-0.1-0.9,0-1.2s0.3-0.6,0.6-0.9c-0.1-0.4-0.2-0.6-0.4-0.9c-0.1-0.2-0.3-0.4-0.4-0.5s-0.3-0.2-0.5-0.2s-0.4,0-0.6,0.1
		c-0.4,0.1-0.7,0.4-1,0.8c-0.3,0.4-0.5,0.9-0.7,1.5s-0.3,1.3-0.4,2s-0.1,1.5-0.1,2.2s0,1.5,0.1,2.2s0.2,1.3,0.4,1.9
		c0.2,0.5,0.3,1,0.5,1.3s0.3,0.6,0.5,0.7c0.2,0.2,0.4,0.2,0.6,0.3c0.2,0,0.5,0,0.8-0.1c0.4-0.1,0.7-0.4,1.1-0.9
		c0.3-0.5,0.5-1.1,0.7-1.8s0.3-1.5,0.3-2.4C69.3,133.2,69.2,132.3,69.1,131.2z M80.6,140.4c-0.4,0.3-0.8,0.6-1.1,0.9
		c-0.3,0.3-0.6,0.6-0.9,0.9c-0.2,0.3-0.4,0.6-0.5,1c-0.1,0.3-0.1,0.7,0,1s0.3,0.5,0.5,0.7s0.6,0.2,0.9,0.1c0.2-0.1,0.4-0.2,0.6-0.5
		s0.3-0.6,0.4-1s0.1-0.9,0.1-1.4S80.7,141,80.6,140.4z"/>
	<path id="XMLID_81_" class="st9" d="M103.8,116.4c-0.4,0.8-0.9,1.7-1.7,2.5c-0.8,0.8-1.7,1.5-2.8,2.1c0.2,0.2,0.3,0.5,0.4,0.7
		c0.1,0.3,0.2,0.5,0.3,0.8c0.4,1.1,0.6,2.2,0.6,3.3s-0.2,2.2-0.6,3.2s-1,1.9-1.8,2.7s-1.8,1.4-3,1.9c-0.9,0.3-1.8,0.5-2.6,0.4
		c-0.8,0-1.5-0.2-2.1-0.6c-0.6-0.4-1.2-0.9-1.6-1.5c-0.5-0.6-0.9-1.4-1.2-2.2c-0.2-0.6-0.4-1.3-0.6-2.2s-0.3-1.9-0.4-3
		s-0.2-2.2-0.2-3.4s0-2.4,0.1-3.6c0.1-1.2,0.2-2.3,0.4-3.4c0.2-1.1,0.5-2.1,0.8-3c0.4-0.9,0.8-1.7,1.3-2.3c0.5-0.6,1.1-1.1,1.9-1.4
		c0.5-0.2,1.1-0.3,1.6-0.3s1,0.1,1.4,0.4c0.4,0.2,0.8,0.6,1.2,1.1c0.4,0.5,0.7,1.2,1,2c0.2,0.7,0.4,1.4,0.5,2.2s0.1,1.5,0.1,2.3
		s-0.1,1.5-0.2,2.2s-0.2,1.4-0.3,2c0.3,0,0.6,0.1,0.8,0.2c0.3,0.1,0.5,0.2,0.8,0.4c0.5-0.2,1-0.4,1.5-0.8c0.5-0.3,1-0.7,1.4-1.1
		c0.5-0.4,0.9-0.8,1.3-1.2s0.7-0.8,1-1.2L103.8,116.4z M96.4,122.7c-0.2,0.1-0.3,0.2-0.4,0.3s-0.4,0.2-0.7,0.3c-0.5,0.2-1,0.2-1.4,0
		s-0.7-0.5-0.9-1c-0.1-0.3-0.2-0.7-0.1-0.9c0-0.3,0.1-0.5,0.3-0.7c0.1-0.2,0.3-0.4,0.6-0.6c0.2-0.2,0.5-0.3,0.9-0.5
		c0.1-0.6,0.2-1.3,0.2-2s0-1.5,0-2.2s-0.1-1.5-0.2-2.2s-0.3-1.4-0.5-2c-0.2-0.7-0.5-1.1-0.8-1.3c-0.3-0.2-0.6-0.2-0.9-0.1
		s-0.6,0.4-0.8,0.9c-0.2,0.5-0.4,1.1-0.5,1.9c-0.1,0.7-0.2,1.6-0.2,2.5s0,1.9,0.1,2.9s0.1,2,0.3,3c0.1,1,0.3,2,0.4,2.9
		s0.3,1.7,0.5,2.4s0.3,1.3,0.5,1.7s0.3,0.8,0.5,1.1s0.4,0.6,0.7,0.8c0.2,0.2,0.5,0.3,0.8,0.4c0.3,0,0.6,0,1-0.1
		c0.5-0.2,1-0.5,1.3-0.9s0.5-0.9,0.7-1.5c0.1-0.5,0.2-1.1,0.1-1.7c0-0.6-0.2-1.2-0.4-1.7C97.1,123.6,96.7,123,96.4,122.7z"/>
	<path id="XMLID_78_" class="st9" d="M104.6,139.1l-3.4-27.5l4.7-1.6l0.3,2.6c0.3-0.6,0.8-1.1,1.3-1.6s1.2-0.9,2-1.1
		c0.6-0.2,1.1-0.3,1.7-0.3c0.5,0,1.1,0.1,1.6,0.4s1,0.7,1.4,1.3s0.8,1.4,1.2,2.3c0.3,0.7,0.5,1.5,0.7,2.4s0.3,1.8,0.4,2.7
		s0,1.9-0.1,2.8c-0.1,0.9-0.4,1.8-0.8,2.6s-0.9,1.5-1.6,2.2c-0.7,0.6-1.6,1.2-2.6,1.5c-0.4,0.1-0.8,0.2-1.1,0.3c-0.3,0-0.6,0-0.9,0
		s-0.5-0.1-0.7-0.2c-0.2-0.1-0.4-0.2-0.5-0.3l1.1,8.5L104.6,139.1z M107.8,125.1c0.1,0.2,0.3,0.3,0.6,0.4c0.3,0.1,0.6,0.1,0.9-0.1
		c0.6-0.2,1-0.5,1.4-1c0.3-0.4,0.6-1,0.8-1.6c0.2-0.6,0.3-1.2,0.3-1.9s0-1.4-0.1-2.1c-0.1-0.7-0.2-1.4-0.3-2
		c-0.1-0.7-0.3-1.2-0.5-1.7c-0.2-0.6-0.4-1.1-0.7-1.4c-0.2-0.3-0.5-0.5-0.7-0.7c-0.2-0.1-0.4-0.2-0.7-0.2c-0.2,0-0.4,0.1-0.5,0.1
		c-0.4,0.1-0.7,0.4-1,0.8c-0.3,0.4-0.5,0.9-0.7,1.6L107.8,125.1z"/>
	<path id="XMLID_75_" class="st9" d="M137.4,113.5c-0.1,1-0.2,1.9-0.4,2.6c-0.2,0.8-0.4,1.4-0.7,2s-0.6,1-0.9,1.4s-0.7,0.7-1,1
		s-0.7,0.5-1,0.6s-0.7,0.3-1,0.3c-0.9,0.3-1.8,0.2-2.5-0.2s-1.2-1-1.6-2c-0.2,0.5-0.4,0.9-0.6,1.4s-0.5,0.9-0.8,1.3
		c-0.3,0.4-0.7,0.7-1.2,1.1c-0.4,0.3-1,0.5-1.6,0.7s-1.2,0.2-1.7,0.2c-0.6,0-1.1-0.2-1.7-0.5c-0.5-0.3-1-0.8-1.4-1.4
		c-0.4-0.6-0.8-1.4-1-2.4c-0.2-0.8-0.3-1.6-0.4-2.5s-0.1-1.8,0-2.8s0.3-1.9,0.5-2.8c0.3-0.9,0.6-1.8,1.1-2.6c0.5-0.8,1.1-1.5,1.8-2
		c0.7-0.6,1.5-1,2.5-1.3c0.9-0.3,1.7-0.3,2.2-0.1c0.5,0.2,0.8,0.6,1,1l0.1,0.2l-0.1-1.9l4.8-1.3l0.6,12c0,0.2,0,0.4,0,0.6
		c0,0.2,0.1,0.4,0.1,0.5c0.3,1,0.8,1.3,1.7,1.1c0.3-0.1,0.6-0.3,0.8-0.5s0.4-0.5,0.6-0.9c0.2-0.3,0.3-0.7,0.3-1.2
		c0.1-0.4,0.1-0.9,0.1-1.3L137.4,113.5z M127,108.2c0-0.1-0.1-0.2-0.2-0.3c-0.1-0.1-0.2-0.3-0.3-0.4c-0.1-0.1-0.3-0.2-0.5-0.2
		s-0.4,0-0.7,0c-0.5,0.1-0.9,0.4-1.2,0.8c-0.3,0.4-0.6,0.9-0.8,1.5c-0.2,0.6-0.4,1.3-0.5,2c-0.1,0.7-0.2,1.4-0.2,2.2
		c0,0.7,0,1.4,0.1,2.1c0.1,0.7,0.2,1.3,0.3,1.8c0.2,0.6,0.4,1.1,0.6,1.4c0.2,0.3,0.4,0.5,0.6,0.7c0.2,0.1,0.4,0.2,0.6,0.2
		s0.4,0,0.5-0.1c0.2-0.1,0.5-0.2,0.7-0.4s0.5-0.5,0.6-0.8c0.2-0.3,0.3-0.7,0.5-1.1c0.1-0.4,0.2-0.9,0.1-1.4L127,108.2z"/>
	<path id="XMLID_9_" class="st9" d="M143.7,118.9l1.5-12.1c0-0.3,0.1-0.6,0-0.9c0-0.2-0.1-0.4-0.1-0.6s-0.1-0.3-0.2-0.5
		c-0.1-0.1-0.2-0.2-0.3-0.3c-0.1-0.1-0.3-0.1-0.5-0.1c-0.3,0-0.6,0.1-0.9,0.3c-0.3,0.2-0.5,0.4-0.7,0.8c-0.2,0.3-0.4,0.7-0.5,1.1
		s-0.3,0.8-0.4,1.3l-1.4,11.2l-4.9,0.4l2.2-17.5l4.9-0.4l-0.2,1.8c0.3-0.4,0.7-0.8,1-1.1c0.3-0.3,0.7-0.5,1-0.7s0.7-0.3,1-0.4
		s0.6-0.1,1-0.2c0.4,0,0.9,0,1.3,0.1s0.8,0.2,1.1,0.4s0.6,0.5,0.8,0.8c0.2,0.4,0.4,0.8,0.6,1.3c0.4-0.7,0.7-1.2,1.1-1.6
		c0.4-0.4,0.8-0.8,1.2-1s0.8-0.4,1.2-0.5s0.7-0.2,1-0.2c0.5,0,1.1,0,1.5,0.1c0.5,0.1,0.9,0.3,1.3,0.6c0.4,0.3,0.7,0.7,0.9,1.1
		c0.2,0.5,0.4,1.1,0.4,1.7c0,0.5,0,1,0,1.5s-0.1,1.1-0.2,1.7c-0.1,0.6-0.2,1.1-0.3,1.7s-0.2,1.1-0.3,1.6s-0.1,1-0.2,1.4
		c0,0.4-0.1,0.8,0,1.1c0,0.4,0.2,0.8,0.4,1c0.2,0.3,0.6,0.4,1.1,0.3c0.5,0,0.9-0.2,1.1-0.3c0,0.6-0.1,1.2-0.3,1.6
		c-0.2,0.5-0.5,0.9-0.8,1.2s-0.7,0.6-1.1,0.7c-0.4,0.2-0.8,0.3-1.3,0.3c-0.7,0.1-1.2,0-1.7-0.2s-0.8-0.4-1.1-0.8
		c-0.3-0.3-0.5-0.7-0.7-1.2s-0.2-0.9-0.3-1.4c0-0.6,0-1.3,0.1-2.1s0.2-1.6,0.3-2.4s0.2-1.6,0.3-2.4s0.1-1.4,0.1-2
		c-0.1-1.2-0.6-1.7-1.4-1.7c-0.3,0-0.6,0.1-0.9,0.3c-0.3,0.2-0.5,0.4-0.7,0.7c-0.2,0.3-0.4,0.7-0.5,1.1s-0.3,0.8-0.4,1.3l-1.4,11.2
		L143.7,118.9z"/>
</g>
<g id="XMLID_61_">
	<path id="XMLID_69_" class="st9" d="M124.3,70.8c-0.2,0.9-0.5,1.7-0.8,2.3c-0.3,0.6-0.7,1-1.2,1.3c-0.4,0.3-0.9,0.5-1.3,0.6
		c-0.5,0.1-0.9,0.2-1.3,0.2s-0.8-0.1-1.1-0.2c-0.4-0.1-0.7-0.3-0.9-0.5s-0.5-0.5-0.6-0.8c-0.2-0.3-0.2-0.7-0.2-1.1
		c0-0.5,0.1-1,0.4-1.4s0.6-0.8,1-1.1c0.4-0.3,0.9-0.6,1.4-0.8c0.5-0.2,1-0.4,1.5-0.6l0.3-1.4c-0.4,0.4-0.8,0.7-1.3,1
		s-1.1,0.4-1.8,0.4c-0.4,0-0.9-0.1-1.3-0.2s-0.8-0.4-1.1-0.7c-0.3-0.3-0.6-0.8-0.8-1.3c-0.2-0.5-0.3-1.2-0.3-1.9
		c0-0.6,0.1-1.2,0.2-1.9c0.1-0.7,0.3-1.4,0.5-2c0.2-0.7,0.5-1.3,0.9-1.9s0.8-1.2,1.3-1.6c0.5-0.5,1.1-0.9,1.7-1.1
		c0.6-0.3,1.3-0.4,2.1-0.4c0.7,0,1.3,0.1,1.6,0.4c0.3,0.3,0.5,0.6,0.5,0.9v0.2l0.3-1.3h3.7l-2.6,12c0.4-0.1,0.8-0.3,1.1-0.5
		c0.3-0.2,0.6-0.4,0.9-0.7c0.3-0.3,0.5-0.6,0.7-1s0.4-0.9,0.6-1.5h1.1c-0.3,0.9-0.6,1.6-0.9,2.2c-0.4,0.6-0.7,1-1.1,1.4
		s-0.8,0.6-1.3,0.8c-0.4,0.2-0.8,0.3-1.3,0.4L124.3,70.8z M120.7,70.1c-0.3,0.1-0.7,0.3-1,0.4s-0.6,0.3-0.8,0.5
		c-0.2,0.2-0.4,0.4-0.6,0.6c-0.1,0.2-0.2,0.5-0.2,0.7c0,0.1,0,0.2,0.1,0.3c0,0.1,0.1,0.2,0.2,0.3c0.1,0.1,0.2,0.2,0.3,0.2
		c0.1,0.1,0.2,0.1,0.4,0.1c0.3,0,0.5-0.2,0.8-0.6s0.5-1,0.7-1.7L120.7,70.1z M123.2,58.2c0-0.1,0-0.2-0.1-0.3c0-0.1-0.1-0.2-0.2-0.3
		c-0.1-0.1-0.2-0.2-0.3-0.3s-0.3-0.1-0.5-0.1c-0.4,0-0.7,0.1-1,0.4c-0.3,0.2-0.6,0.5-0.9,0.9s-0.5,0.8-0.7,1.3s-0.4,1-0.5,1.5
		s-0.3,1-0.3,1.6c-0.1,0.5-0.1,1-0.1,1.4c0,0.5,0,0.9,0.1,1.2c0.1,0.3,0.2,0.5,0.3,0.6c0.1,0.1,0.3,0.2,0.4,0.2c0.2,0,0.3,0,0.4,0
		c0.2,0,0.4,0,0.6-0.1s0.4-0.2,0.6-0.4c0.2-0.2,0.4-0.4,0.5-0.6c0.2-0.3,0.3-0.5,0.4-0.9L123.2,58.2z"/>
	<path id="XMLID_5_" class="st9" d="M142.4,64.1c-1.1,3.2-2.7,4.8-4.8,4.8c-0.5,0-1-0.1-1.4-0.2c-0.4-0.2-0.7-0.4-1-0.6
		c-0.2-0.3-0.4-0.5-0.6-0.9c-0.1-0.3-0.2-0.7-0.2-1s0.1-0.8,0.2-1.5c0.1-0.6,0.3-1.3,0.4-2.2h-2.9l-1.3,6.2h-3.7l2.7-13h3.7
		l-1.1,5.2h2.9l1.2-5.2h3.5l-1.4,6.4c-0.2,0.8-0.3,1.5-0.5,2c-0.1,0.5-0.2,0.9-0.2,1.1c0,0.7,0.3,1.1,1,1.1c0.3,0,0.5,0,0.7-0.1
		s0.4-0.2,0.5-0.4c0.2-0.2,0.3-0.4,0.5-0.7c0.1-0.3,0.3-0.6,0.5-1L142.4,64.1L142.4,64.1z"/>
	<path id="XMLID_65_" class="st9" d="M152.2,64.1c-0.4,0.6-0.8,1.2-1.2,1.8c-0.5,0.6-1,1.1-1.6,1.5s-1.2,0.8-1.9,1.1
		c-0.7,0.3-1.5,0.4-2.3,0.4c-0.6,0-1.2-0.1-1.7-0.2c-0.5-0.2-0.9-0.4-1.3-0.7c-0.4-0.3-0.6-0.8-0.8-1.3s-0.3-1.1-0.3-1.9
		c0-0.5,0.1-1.1,0.2-1.7c0.1-0.7,0.3-1.3,0.5-2s0.5-1.4,0.9-2c0.4-0.7,0.8-1.2,1.3-1.8c0.5-0.5,1.1-0.9,1.8-1.3
		c0.7-0.3,1.5-0.5,2.4-0.5c0.6,0,1.1,0.1,1.4,0.2c0.4,0.1,0.7,0.3,0.9,0.6c0.2,0.2,0.4,0.5,0.4,0.8c0.1,0.3,0.1,0.6,0.1,0.9
		c0,0.8-0.2,1.5-0.5,2.1s-0.8,1.2-1.3,1.7c-0.6,0.5-1.2,0.9-1.9,1.2c-0.7,0.3-1.5,0.5-2.2,0.5c0,0.2,0,0.4,0,0.6s0,0.3,0,0.5
		c0,0.4,0,0.8,0.1,1.1c0.1,0.3,0.2,0.5,0.4,0.7s0.3,0.3,0.6,0.3c0.2,0.1,0.5,0.1,0.8,0.1c0.5,0,1-0.1,1.4-0.2s0.8-0.3,1.2-0.6
		c0.4-0.2,0.7-0.5,1-0.8s0.7-0.7,1-1L152.2,64.1L152.2,64.1z M145.1,62.3c0.5,0,1-0.2,1.4-0.4c0.5-0.2,0.9-0.6,1.2-1
		s0.6-0.8,0.8-1.3s0.3-1,0.3-1.6c0-0.3,0-0.6-0.1-0.8c-0.1-0.2-0.3-0.3-0.5-0.3c-0.3,0-0.7,0.2-1,0.5s-0.6,0.7-0.9,1.2
		c-0.3,0.5-0.5,1.1-0.7,1.7C145.4,61,145.2,61.6,145.1,62.3z"/>
	<path id="XMLID_62_" class="st9" d="M159.5,55.8h3.7l-1.9,8.8c0,0.1-0.1,0.3-0.1,0.4s0,0.3,0,0.4c0,0.4,0.1,0.6,0.3,0.8
		c0.2,0.1,0.4,0.2,0.8,0.2c0.1,0,0.2,0,0.3,0s0.2,0,0.2,0c0.1,0,0.1,0,0.2-0.1c0.1,0,0.1,0,0.2-0.1c0,0.5-0.1,0.9-0.3,1.2
		c-0.2,0.3-0.4,0.6-0.6,0.8c-0.3,0.2-0.6,0.4-0.9,0.5c-0.3,0.1-0.7,0.2-1,0.2c-0.7,0-1.3-0.2-1.8-0.6c-0.4-0.4-0.7-1-0.8-1.8
		c-0.3,0.5-0.7,1-1,1.3s-0.7,0.6-1,0.7c-0.3,0.2-0.7,0.3-1,0.3c-0.3,0.1-0.6,0.1-0.9,0.1c-0.4,0-0.7-0.1-1.1-0.2
		c-0.3-0.1-0.6-0.3-0.9-0.6c-0.2-0.3-0.4-0.6-0.6-1c-0.1-0.4-0.2-0.9-0.2-1.4c0-0.2,0-0.5,0.1-0.8c0-0.3,0.1-0.6,0.2-0.9l1.8-8.3
		h3.7l-1.9,8.8c-0.1,0.2-0.1,0.4-0.1,0.7c0,0.2,0,0.3,0,0.4s0.1,0.3,0.1,0.4c0.1,0.1,0.1,0.2,0.2,0.3c0.1,0.1,0.2,0.1,0.4,0.1
		c0.3,0,0.5-0.1,0.7-0.2s0.4-0.3,0.6-0.5c0.2-0.2,0.3-0.4,0.5-0.7c0.1-0.3,0.2-0.6,0.3-0.9L159.5,55.8z M163.5,50.1
		c-0.3,0.9-0.6,1.6-1,2.1c-0.4,0.6-0.8,1-1.3,1.4c-0.5,0.3-1,0.6-1.5,0.7s-1.1,0.2-1.7,0.2c-1.1,0-1.9-0.2-2.5-0.6s-0.9-0.9-0.9-1.6
		c0-0.6,0.2-1,0.5-1.4s0.7-0.5,1.3-0.5c0.5,0,0.9,0.1,1.2,0.4c0.3,0.2,0.4,0.6,0.4,1c0,0.1,0,0.1,0,0.2s0,0.2-0.1,0.3
		c0,0.1-0.1,0.2-0.2,0.4c-0.1,0.1-0.2,0.2-0.3,0.3c0.1,0,0.3,0.1,0.5,0.1s0.4,0,0.6,0c0.4,0,0.7,0,1.1-0.1c0.4-0.1,0.7-0.3,1.1-0.5
		c0.4-0.2,0.7-0.5,1-0.9s0.6-0.9,0.8-1.5H163.5L163.5,50.1z"/>
</g>
</svg>
