<?xml version="1.0" encoding="utf-8"?>
<!-- Generator: Adobe Illustrator 19.0.0, SVG Export Plug-In . SVG Version: 6.00 Build 0)  -->
<svg version="1.1" id="Layer_1" xmlns="http://www.w3.org/2000/svg" xmlns:xlink="http://www.w3.org/1999/xlink" x="0px" y="0px"
	 viewBox="0 0 200 200" style="enable-background:new 0 0 200 200;" xml:space="preserve">
<style type="text/css">
	.st0{fill:url(#XMLID_3_);stroke:#FFFFFF;stroke-width:3;stroke-miterlimit:10;}
	.st1{fill:url(#XMLID_6_);stroke:#FFFFFF;stroke-width:3;stroke-miterlimit:10;}
	.st2{fill:url(#XMLID_7_);stroke:#FFFFFF;stroke-width:3;stroke-miterlimit:10;}
	.st3{fill:url(#XMLID_8_);stroke:#FFFFFF;stroke-width:3;stroke-miterlimit:10;}
	.st4{fill:url(#XMLID_9_);stroke:#FFFFFF;stroke-width:3;stroke-miterlimit:10;}
	.st5{fill:#FFFFFF;stroke:#FFFFFF;stroke-width:3;stroke-miterlimit:10;}
	.st6{opacity:0.14;fill:#010101;stroke:#FFFFFF;stroke-width:3;stroke-miterlimit:10;enable-background:new    ;}
	.st7{fill:url(#XMLID_11_);stroke:#FFFFFF;stroke-width:3;stroke-miterlimit:10;}
	.st8{fill:url(#XMLID_12_);stroke:#FFFFFF;stroke-width:3;stroke-miterlimit:10;}
	.st9{fill:url(#XMLID_13_);stroke:#FFFFFF;stroke-width:3;stroke-miterlimit:10;}
	.st10{fill:#F78D38;stroke:#FFFFFF;stroke-width:3;stroke-miterlimit:10;}
	.st11{fill:#343433;stroke:#FFFFFF;stroke-width:3;stroke-miterlimit:10;}
	.st12{display:none;}
	.st13{display:inline;fill:url(#XMLID_14_);}
	.st14{display:inline;fill:url(#XMLID_15_);}
	.st15{display:inline;fill:url(#XMLID_16_);}
	.st16{display:inline;fill:url(#XMLID_17_);}
	.st17{display:inline;fill:url(#XMLID_18_);}
	.st18{display:inline;}
	.st19{fill:#FFFFFF;}
	.st20{display:inline;opacity:0.14;fill:#010101;enable-background:new    ;}
	.st21{display:inline;fill:url(#XMLID_35_);}
	.st22{display:inline;fill:url(#XMLID_36_);}
	.st23{display:inline;fill:url(#XMLID_50_);}
	.st24{opacity:0.48;fill:url(#XMLID_51_);enable-background:new    ;}
	.st25{fill:#F78D38;}
	.st26{fill:#343433;}
	.st27{fill:url(#XMLID_55_);}
	.st28{fill:#F17523;}
	.st29{opacity:0.14;fill:#010101;enable-background:new    ;}
</style>
<g id="XMLID_298_">
	<g id="XMLID_343_">
		<g id="XMLID_344_">
			
				<linearGradient id="XMLID_3_" gradientUnits="userSpaceOnUse" x1="135.985" y1="141.2799" x2="154.9882" y2="146.1165" gradientTransform="matrix(1 0 0 1 0 2)">
				<stop  offset="3.400000e-003" style="stop-color:#F6B31A"/>
				<stop  offset="0.3377" style="stop-color:#F6AD1D"/>
				<stop  offset="0.8197" style="stop-color:#F69B24"/>
				<stop  offset="1" style="stop-color:#F79227"/>
			</linearGradient>
			<path id="XMLID_177_" class="st0" d="M155.5,146.2c-7.7,2.8-15.5,6.9-23.2,11.8c4.9-9.5,9.7-18.8,14.6-27.6
				C149.7,135.5,152.6,140.7,155.5,146.2z"/>
			
				<linearGradient id="XMLID_6_" gradientUnits="userSpaceOnUse" x1="-55.7381" y1="-1.2988" x2="91.0477" y2="-1.2988" gradientTransform="matrix(0.9691 0.2466 -0.2466 0.9691 64.38 135.0877)">
				<stop  offset="3.400000e-003" style="stop-color:#C0902C"/>
				<stop  offset="0.3512" style="stop-color:#C1892C"/>
				<stop  offset="0.8526" style="stop-color:#BF772A"/>
				<stop  offset="1" style="stop-color:#BF6F2A"/>
			</linearGradient>
			<path id="XMLID_176_" class="st1" d="M17.5,93.3c5.4,21.1,10.7,41.2,16.1,60.6c40.6,15.9,81.3-13.5,121.9-7.7
				c-2.9-5.4-5.8-10.7-8.7-15.8C103.7,116.9,60.6,136.5,17.5,93.3z"/>
			
				<linearGradient id="XMLID_7_" gradientUnits="userSpaceOnUse" x1="7.3726" y1="54.7863" x2="185.1235" y2="100.0264" gradientTransform="matrix(1 0 0 1 0 2)">
				<stop  offset="3.400000e-003" style="stop-color:#F6B31A"/>
				<stop  offset="0.3377" style="stop-color:#F6AD1D"/>
				<stop  offset="0.8197" style="stop-color:#F69B24"/>
				<stop  offset="1" style="stop-color:#F79227"/>
			</linearGradient>
			<path id="XMLID_175_" class="st2" d="M186.8,94.7C151.1,60,75.6,45,7.7,55.5c10.9,5.2,19.2,10.9,20.2,25.2
				c47.7-10.4,120.4,15.8,151.3,44.6C181.7,114.8,184.2,104.6,186.8,94.7z"/>
			
				<linearGradient id="XMLID_8_" gradientUnits="userSpaceOnUse" x1="79.1425" y1="65.8832" x2="100.8139" y2="71.3989" gradientTransform="matrix(1 0 0 1 0 2)">
				<stop  offset="3.400000e-003" style="stop-color:#EC2379"/>
				<stop  offset="1" style="stop-color:#AE2067"/>
			</linearGradient>
			<path id="XMLID_174_" class="st3" d="M79.8,65.3c8.8-3.7,17.5-8.2,26.3-12.5c-6.5,13-13,26.1-19.6,38.9
				C84.3,82.9,82,74.1,79.8,65.3z"/>
			
				<linearGradient id="XMLID_9_" gradientUnits="userSpaceOnUse" x1="17.5" y1="100.45" x2="169.6" y2="100.45" gradientTransform="matrix(1 0 0 1 0 2)">
				<stop  offset="3.400000e-003" style="stop-color:#D11873"/>
				<stop  offset="1" style="stop-color:#952169"/>
			</linearGradient>
			<polygon id="XMLID_173_" class="st4" points="17.5,34.4 49.8,141.3 97.8,141.3 109.4,170.5 125.8,141.3 159.2,141.3 169.6,46 			
				"/>
			<g id="XMLID_387_">
				<path id="XMLID_397_" class="st5" d="M59.7,77.2c-5.6-2.5-7.9-6.7-7.9-10.9c0-7.7,6.6-12.9,15.4-12.9c9.6,0,14.5,5.8,14.5,11.9
					c0,4.1-2.1,8.5-8.3,11.3V77c6.2,2.4,10,6.7,10,12.5c0,8.5-7.4,14-16.9,14c-10.4,0-16.7-5.9-16.7-13c0-6.1,3.7-10.5,9.9-13
					L59.7,77.2z M76.7,90.1c0-5.8-4.2-8.7-10.9-10.6c-5.8,1.6-8.9,5.4-8.9,10c-0.2,4.8,3.6,9.1,9.9,9.1
					C72.8,98.7,76.7,95.1,76.7,90.1z M58.2,66c-0.1,4.8,3.7,7.4,9.5,8.9c4.3-1.4,7.6-4.4,7.6-8.8c0-3.9-2.4-7.9-8.4-7.9
					C61.3,58.2,58.2,61.8,58.2,66z"/>
				<path id="XMLID_394_" class="st5" d="M122.9,78c0,16.4-6.3,25.5-17.3,25.5c-9.7,0-16.4-8.8-16.5-24.8c0-16.3,7.3-25.1,17.3-25.1
					C116.8,53.5,122.9,62.6,122.9,78z M95.9,78.7c0,12.6,4,19.7,10.1,19.7c6.8,0,10.1-7.8,10.1-20.1c0-11.9-3.1-19.7-10.1-19.7
					C100.2,58.6,95.9,65.6,95.9,78.7z"/>
				<path id="XMLID_388_" class="st5" d="M140.5,57.6c0,5.9-3.2,8.9-6.9,8.9s-6.7-2.8-6.8-8.4c0-5.6,3.1-8.8,7-8.8
					C137.9,49.3,140.5,52.3,140.5,57.6z M129.9,57.9c-0.1,3.6,1.3,6.3,3.8,6.3c2.6,0,3.7-2.7,3.7-6.4c0-3.5-1-6.3-3.8-6.3
					C131.3,51.6,129.9,54.4,129.9,57.9z M133.3,78.4l17.1-29.2h2.5l-17.1,29.2H133.3z M159.4,69.3c0,5.9-3.2,8.9-6.9,8.9
					s-6.7-2.8-6.8-8.5c0-5.6,3.1-8.8,7-8.8C156.8,60.9,159.4,64,159.4,69.3z M148.8,69.6c-0.1,3.6,1.3,6.3,3.8,6.3
					c2.6,0,3.7-2.7,3.7-6.4c0-3.4-1-6.3-3.8-6.3C150.2,63.2,148.8,66,148.8,69.6z"/>
			</g>
			<path id="XMLID_162_" class="st6" d="M165.2,85.5c-32.4-7.8-71.2,9.1-93.4,10C55,96.2,40,89.1,32.9,85.1l5.5,18.8l59.1,37.5h0.2
				l0.1-0.3h0.3c10.2-4.2,23.1-8.9,38.4-11.2c10.7-1.6,17.2,0.2,23.6,1.9L165.2,85.5z"/>
			<g id="XMLID_371_">
				<path id="XMLID_383_" class="st5" d="M49.2,114.2c0,3.8-2.4,5.9-5.3,5.9c-3.1,0-5.2-2.3-5.2-5.7c0-3.5,2.3-5.9,5.3-5.9
					C47.2,108.5,49.2,110.9,49.2,114.2z M40.3,114.4c0,2.4,1.3,4.5,3.7,4.5s3.7-2.1,3.7-4.6c0-2.2-1.2-4.6-3.7-4.6
					S40.3,111.9,40.3,114.4z"/>
				<path id="XMLID_159_" class="st5" d="M51.1,119.9v-11.2h1.6l3.7,5.6c0.8,1.3,1.5,2.5,2,3.6h0.1c-0.1-1.5-0.2-2.9-0.2-4.6v-4.7
					h1.4v11.2h-1.5l-3.7-5.7c-0.8-1.2-1.6-2.5-2.1-3.7h-0.1c0.1,1.4,0.1,2.7,0.1,4.6v4.8L51.1,119.9L51.1,119.9z"/>
				<path id="XMLID_158_" class="st5" d="M62.4,108.7h1.5v10h4.9v1.2h-6.4V108.7z"/>
				<path id="XMLID_157_" class="st5" d="M71.6,119.9v-4.7l-3.7-6.4h1.7l1.6,3.1c0.4,0.8,0.8,1.5,1.1,2.3l0,0
					c0.3-0.7,0.7-1.5,1.2-2.3l1.7-3.1h1.7l-3.8,6.4v4.8h-1.5V119.9z"/>
				<path id="XMLID_156_" class="st5" d="M83.4,110h-3.5v-1.2h8.5v1.2h-3.5v9.9h-1.5V110z"/>
				<path id="XMLID_155_" class="st5" d="M91.1,108.7v4.7h5.6v-4.7h1.5v11.2h-1.5v-5.2h-5.6v5.2h-1.5v-11.2H91.1z"/>
				<path id="XMLID_154_" class="st5" d="M102.3,108.7v11.2h-1.5v-11.2H102.3z"/>
				<path id="XMLID_153_" class="st5" d="M104.7,118.1c0.7,0.4,1.6,0.7,2.6,0.7c1.5,0,2.4-0.8,2.4-1.9c0-1-0.6-1.6-2.2-2.2
					c-1.9-0.7-3-1.6-3-3.2c0-1.7,1.5-3,3.7-3c1.2,0,2,0.3,2.5,0.5l-0.4,1.2c-0.4-0.2-1.1-0.5-2.2-0.5c-1.6,0-2.2,0.9-2.2,1.7
					c0,1,0.7,1.6,2.3,2.2c1.9,0.7,2.9,1.6,2.9,3.3c0,1.7-1.3,3.2-4,3.2c-1.1,0-2.3-0.3-2.9-0.7L104.7,118.1z"/>
				<path id="XMLID_152_" class="st5" d="M118.2,119.9l-2.9-11.2h1.6l1.4,5.6c0.3,1.4,0.6,2.8,0.9,3.9l0,0c0.2-1.1,0.5-2.4,0.9-3.9
					l1.5-5.6h1.6l1.4,5.7c0.3,1.3,0.6,2.7,0.8,3.8l0,0c0.2-1.2,0.6-2.5,0.9-3.9l1.5-5.6h1.5l-3.3,11.2h-1.6l-1.5-5.8
					c-0.4-1.4-0.6-2.5-0.8-3.6l0,0c-0.2,1.1-0.5,2.2-0.9,3.6l-1.6,5.8H118.2L118.2,119.9z"/>
				<path id="XMLID_151_" class="st5" d="M136.7,114.7h-4.5v4h5v1.2h-6.5v-11.2h6.2v1.2h-4.7v3.5h4.5V114.7z"/>
				<path id="XMLID_150_" class="st5" d="M145.1,114.7h-4.5v4h5v1.2h-6.5v-11.2h6.2v1.2h-4.7v3.5h4.5V114.7L145.1,114.7z"/>
				<path id="XMLID_149_" class="st5" d="M147.6,108.7h1.5v5.4h0.1c0.3-0.4,0.6-0.8,0.9-1.2l3.5-4.2h1.8l-4.2,4.7l4.5,6.4h-1.8
					l-3.8-5.5l-1.1,1.2v4.3h-1.5L147.6,108.7L147.6,108.7z"/>
			</g>
			
				<linearGradient id="XMLID_11_" gradientUnits="userSpaceOnUse" x1="106.7557" y1="-57.5033" x2="-27.0066" y2="-5.1919" gradientTransform="matrix(0.9691 0.2466 -0.2466 0.9691 64.38 135.0877)">
				<stop  offset="3.400000e-003" style="stop-color:#FAD14C"/>
				<stop  offset="0.2776" style="stop-color:#F9CE46"/>
				<stop  offset="0.6729" style="stop-color:#FAC332"/>
				<stop  offset="1" style="stop-color:#FCB81C"/>
			</linearGradient>
			<path id="XMLID_148_" class="st7" d="M17.5,93.4c56.4,36.3,112.9-35.1,169.3,1.2c-2.6,10-5.1,20.2-7.7,30.6
				c-48.5-17.2-97,38-145.5,28.6C28.2,134.6,22.9,114.5,17.5,93.4z"/>
			<g id="XMLID_360_">
				<path id="XMLID_147_" class="st5" d="M137.6,101.8c0.4,0.2,1,0.4,1.6,0.4c0.9,0,1.4-0.5,1.4-1.1s-0.4-1-1.3-1.3
					c-1.1-0.4-1.8-1-1.8-1.9c0-1,0.9-1.8,2.2-1.8c0.7,0,1.2,0.2,1.5,0.3l-0.2,0.7c-0.2-0.1-0.7-0.3-1.3-0.3c-0.9,0-1.3,0.5-1.3,1
					c0,0.6,0.4,0.9,1.4,1.3c1.2,0.4,1.7,1,1.7,1.9c0,1-0.8,1.9-2.4,1.9c-0.7,0-1.4-0.2-1.7-0.4L137.6,101.8z"/>
				<path id="XMLID_146_" class="st5" d="M143.6,96.2v3.9c0,1.5,0.7,2.1,1.6,2.1c1,0,1.7-0.7,1.7-2.1v-3.9h0.9v3.9
					c0,2-1.1,2.9-2.6,2.9c-1.4,0-2.4-0.8-2.4-2.8v-3.9L143.6,96.2L143.6,96.2z"/>
				<path id="XMLID_365_" class="st5" d="M149.2,96.3c0.4-0.1,1-0.1,1.7-0.1c0.9,0,1.5,0.2,1.9,0.6c0.4,0.3,0.6,0.8,0.6,1.4
					s-0.2,1.1-0.5,1.4c-0.5,0.5-1.2,0.7-2.1,0.7c-0.3,0-0.5,0-0.7-0.1v2.7h-0.9V96.3z M150.1,99.5c0.2,0,0.4,0.1,0.7,0.1
					c1.1,0,1.7-0.5,1.7-1.4s-0.6-1.3-1.6-1.3c-0.4,0-0.7,0-0.8,0.1L150.1,99.5L150.1,99.5z"/>
				<path id="XMLID_143_" class="st5" d="M158.1,99.8h-2.6v2.4h3v0.7h-3.8v-6.6h3.7V97h-2.8v2.1h2.6L158.1,99.8L158.1,99.8z"/>
				<path id="XMLID_361_" class="st5" d="M159.6,96.3c0.4-0.1,1.1-0.1,1.7-0.1c0.9,0,1.6,0.2,2,0.5c0.3,0.3,0.5,0.7,0.5,1.3
					c0,0.9-0.6,1.4-1.3,1.7l0,0c0.5,0.2,0.8,0.6,1,1.3c0.2,0.9,0.4,1.6,0.5,1.8h-0.9c-0.1-0.2-0.3-0.8-0.4-1.6
					c-0.2-0.9-0.6-1.3-1.4-1.3h-0.8v2.9h-0.9L159.6,96.3L159.6,96.3z M160.5,99.3h0.9c0.9,0,1.5-0.5,1.5-1.3c0-0.9-0.6-1.2-1.6-1.2
					c-0.4,0-0.7,0-0.9,0.1v2.4H160.5z"/>
			</g>
			<g id="XMLID_347_">
				<path id="XMLID_357_" class="st5" d="M89.4,105.2c0.9-0.2,2-0.3,3.2-0.3c2.1,0,3.7,0.5,4.7,1.4s1.7,2.2,1.7,4s-0.6,3.3-1.7,4.4
					s-2.9,1.6-5.1,1.6c-1.1,0-2-0.1-2.7-0.1L89.4,105.2L89.4,105.2z M90.9,115.2c0.4,0.1,0.9,0.1,1.5,0.1c3.2,0,4.9-1.7,4.9-4.8
					c0-2.7-1.5-4.3-4.7-4.3c-0.8,0-1.4,0.1-1.8,0.2L90.9,115.2L90.9,115.2z"/>
				<path id="XMLID_138_" class="st5" d="M102.3,105.1v11.3h-1.5v-11.3C100.8,105.1,102.3,105.1,102.3,105.1z"/>
				<path id="XMLID_137_" class="st5" d="M104.7,114.6c0.7,0.4,1.6,0.7,2.7,0.7c1.5,0,2.4-0.8,2.4-1.9c0-1-0.6-1.7-2.2-2.2
					c-1.9-0.7-3.1-1.6-3.1-3.2c0-1.8,1.5-3.1,3.7-3.1c1.2,0,2,0.3,2.5,0.6l-0.4,1.2c-0.4-0.2-1.1-0.5-2.2-0.5
					c-1.6,0-2.2,0.9-2.2,1.7c0,1.1,0.7,1.6,2.3,2.2c2,0.7,2.9,1.7,2.9,3.3c0,1.7-1.3,3.3-4,3.3c-1.1,0-2.3-0.3-3-0.7L104.7,114.6z"
					/>
				<path id="XMLID_136_" class="st5" d="M121.5,116c-0.5,0.3-1.7,0.5-3.1,0.5c-3.3,0-5.7-2-5.7-5.7c0-3.5,2.5-5.9,6.1-5.9
					c1.4,0,2.4,0.3,2.7,0.5l-0.4,1.2c-0.5-0.3-1.4-0.5-2.3-0.5c-2.7,0-4.5,1.7-4.5,4.6c0,2.8,1.6,4.5,4.4,4.5c0.9,0,1.9-0.2,2.5-0.5
					L121.5,116z"/>
				<path id="XMLID_351_" class="st5" d="M132.9,110.6c0,3.9-2.4,5.9-5.4,5.9c-3.1,0-5.2-2.3-5.2-5.7c0-3.6,2.3-5.9,5.4-5.9
					C130.9,104.9,132.9,107.2,132.9,110.6z M123.9,110.8c0,2.4,1.3,4.6,3.7,4.6c2.4,0,3.7-2.1,3.7-4.7c0-2.3-1.2-4.6-3.7-4.6
					C125.1,106.1,123.9,108.3,123.9,110.8z"/>
				<path id="XMLID_133_" class="st5" d="M136.3,105.1v6.7c0,2.5,1.2,3.6,2.7,3.6c1.7,0,2.8-1.1,2.8-3.6v-6.7h1.5v6.6
					c0,3.5-1.9,4.9-4.4,4.9c-2.4,0-4.2-1.3-4.2-4.8v-6.6L136.3,105.1L136.3,105.1z"/>
				<path id="XMLID_132_" class="st5" d="M146,116.3V105h1.6l3.7,5.7c0.8,1.3,1.5,2.5,2.1,3.7h0.1c-0.1-1.5-0.2-2.9-0.2-4.6v-4.7
					h1.4v11.3h-1.5l-3.7-5.7c-0.8-1.3-1.6-2.5-2.1-3.8h-0.1c0.1,1.4,0.1,2.8,0.1,4.6v4.8L146,116.3L146,116.3z"/>
				<path id="XMLID_131_" class="st5" d="M159.5,106.3H156v-1.2h8.6v1.2H161v10h-1.5V106.3L159.5,106.3z"/>
			</g>
			
				<linearGradient id="XMLID_12_" gradientUnits="userSpaceOnUse" x1="132" y1="31.8" x2="169.6453" y2="31.8" gradientTransform="matrix(1 0 0 1 0 2)">
				<stop  offset="3.400000e-003" style="stop-color:#D11873"/>
				<stop  offset="1" style="stop-color:#952169"/>
			</linearGradient>
			<polygon id="XMLID_130_" class="st8" points="132,37.8 169.6,37.8 158.1,29.8 			"/>
			
				<linearGradient id="XMLID_13_" gradientUnits="userSpaceOnUse" x1="92.931" y1="161.3" x2="103.746" y2="161.3" gradientTransform="matrix(1 0 0 1 0 2)">
				<stop  offset="3.100000e-007" style="stop-color:#58A3D9"/>
				<stop  offset="0.3816" style="stop-color:#4697D2"/>
				<stop  offset="1" style="stop-color:#247FC2"/>
			</linearGradient>
			<polygon id="XMLID_129_" class="st9" points="103.7,167 98.8,159.6 92.9,162.1 			"/>
		</g>
	</g>
	<path id="XMLID_128_" class="st10" d="M155.5,146.2c-7.7,2.8-15.5,6.9-23.2,11.8c4.9-9.5,9.7-18.8,14.6-27.6
		C149.7,135.5,152.6,140.7,155.5,146.2z"/>
	<path id="XMLID_127_" class="st11" d="M17.5,93.3c5.4,21.1,10.7,41.2,16.1,60.6c40.6,15.9,81.3-13.5,121.9-7.7
		c-2.9-5.4-5.8-10.7-8.7-15.8C103.7,116.9,60.6,136.5,17.5,93.3z"/>
	<path id="XMLID_126_" class="st6" d="M165.2,85.5c-32.4-7.8-71.2,9.1-93.4,10C55,96.2,40,89.1,32.9,85.1l5.5,18.8l59.1,37.5h0.2
		l0.1-0.3h0.3c10.2-4.2,23.1-8.9,38.4-11.2c10.7-1.6,17.2,0.2,23.6,1.9L165.2,85.5z"/>
	<g id="XMLID_325_">
		<path id="XMLID_337_" class="st5" d="M49.2,114.2c0,3.8-2.4,5.9-5.3,5.9c-3.1,0-5.2-2.3-5.2-5.7c0-3.5,2.3-5.9,5.3-5.9
			C47.2,108.5,49.2,110.9,49.2,114.2z M40.3,114.4c0,2.4,1.3,4.5,3.7,4.5s3.7-2.1,3.7-4.6c0-2.2-1.2-4.6-3.7-4.6
			S40.3,111.9,40.3,114.4z"/>
		<path id="XMLID_123_" class="st5" d="M51.1,119.9v-11.2h1.6l3.7,5.6c0.8,1.3,1.5,2.5,2,3.6h0.1c-0.1-1.5-0.2-2.9-0.2-4.6v-4.7h1.4
			v11.2h-1.5l-3.7-5.7c-0.8-1.2-1.6-2.5-2.1-3.7h-0.1c0.1,1.4,0.1,2.7,0.1,4.6v4.8L51.1,119.9L51.1,119.9z"/>
		<path id="XMLID_122_" class="st5" d="M62.4,108.7h1.5v10h4.9v1.2h-6.4V108.7z"/>
		<path id="XMLID_121_" class="st5" d="M71.6,119.9v-4.7l-3.7-6.4h1.7l1.6,3.1c0.4,0.8,0.8,1.5,1.1,2.3l0,0c0.3-0.7,0.7-1.5,1.2-2.3
			l1.7-3.1h1.7l-3.8,6.4v4.8h-1.5V119.9z"/>
		<path id="XMLID_120_" class="st5" d="M83.4,110h-3.5v-1.2h8.5v1.2h-3.5v9.9h-1.5V110z"/>
		<path id="XMLID_119_" class="st5" d="M91.1,108.7v4.7h5.6v-4.7h1.5v11.2h-1.5v-5.2h-5.6v5.2h-1.5v-11.2H91.1z"/>
		<path id="XMLID_118_" class="st5" d="M102.3,108.7v11.2h-1.5v-11.2H102.3z"/>
		<path id="XMLID_117_" class="st5" d="M104.7,118.1c0.7,0.4,1.6,0.7,2.6,0.7c1.5,0,2.4-0.8,2.4-1.9c0-1-0.6-1.6-2.2-2.2
			c-1.9-0.7-3-1.6-3-3.2c0-1.7,1.5-3,3.7-3c1.2,0,2,0.3,2.5,0.5l-0.4,1.2c-0.4-0.2-1.1-0.5-2.2-0.5c-1.6,0-2.2,0.9-2.2,1.7
			c0,1,0.7,1.6,2.3,2.2c1.9,0.7,2.9,1.6,2.9,3.3c0,1.7-1.3,3.2-4,3.2c-1.1,0-2.3-0.3-2.9-0.7L104.7,118.1z"/>
		<path id="XMLID_116_" class="st5" d="M118.2,119.9l-2.9-11.2h1.6l1.4,5.6c0.3,1.4,0.6,2.8,0.9,3.9l0,0c0.2-1.1,0.5-2.4,0.9-3.9
			l1.5-5.6h1.6l1.4,5.7c0.3,1.3,0.6,2.7,0.8,3.8l0,0c0.2-1.2,0.6-2.5,0.9-3.9l1.5-5.6h1.5l-3.3,11.2h-1.6l-1.5-5.8
			c-0.4-1.4-0.6-2.5-0.8-3.6l0,0c-0.2,1.1-0.5,2.2-0.9,3.6l-1.6,5.8H118.2L118.2,119.9z"/>
		<path id="XMLID_115_" class="st5" d="M136.7,114.7h-4.5v4h5v1.2h-6.5v-11.2h6.2v1.2h-4.7v3.5h4.5V114.7z"/>
		<path id="XMLID_114_" class="st5" d="M145.1,114.7h-4.5v4h5v1.2h-6.5v-11.2h6.2v1.2h-4.7v3.5h4.5V114.7L145.1,114.7z"/>
		<path id="XMLID_113_" class="st5" d="M147.6,108.7h1.5v5.4h0.1c0.3-0.4,0.6-0.8,0.9-1.2l3.5-4.2h1.8l-4.2,4.7l4.5,6.4h-1.8
			l-3.8-5.5l-1.1,1.2v4.3h-1.5L147.6,108.7L147.6,108.7z"/>
	</g>
	<path id="XMLID_112_" class="st10" d="M17.5,93.4c56.4,36.3,112.9-35.1,169.3,1.2c-2.6,10-5.1,20.2-7.7,30.6
		c-48.5-17.2-97,38-145.5,28.6C28.2,134.6,22.9,114.5,17.5,93.4z"/>
	<polygon id="XMLID_111_" class="st11" points="132,37.8 169.6,37.8 158.1,29.8 	"/>
	<polygon id="XMLID_110_" class="st11" points="103.7,167 98.8,159.6 92.9,162.1 	"/>
	<g id="XMLID_299_">
		<path id="XMLID_109_" class="st5" d="M54.9,129.2c-1.4,2.8-3,4-5,3.7c-0.5-0.1-0.9-0.2-1.2-0.4s-0.6-0.4-0.8-0.7s-0.3-0.5-0.4-0.9
			c-0.1-0.3-0.1-0.6,0-1c0.1-0.6,0.4-1.7,0.9-3l0.6-1.6l-4.5,6.7l-3.3-0.5l0.6-7.2l-0.5,1.4c-0.3,0.9-0.6,1.7-0.9,2.4
			s-0.6,1.3-0.9,1.7c-0.3,0.5-0.7,0.8-1.1,1c-0.4,0.2-0.9,0.3-1.6,0.2c-0.4-0.1-0.8-0.2-1.1-0.4s-0.5-0.5-0.7-0.7
			c-0.2-0.3-0.3-0.6-0.4-0.9c-0.1-0.3-0.1-0.7,0-1c0.1-0.5,0.3-1,0.6-1.2c0.3-0.3,0.7-0.4,1.1-0.3c0.4,0.1,0.6,0.2,0.8,0.5
			s0.3,0.6,0.2,0.9c-0.1,0.4-0.2,0.7-0.4,0.8c-0.2,0.2-0.4,0.2-0.7,0.1c0,0.1,0,0.2,0,0.3s0,0.2,0.1,0.3s0.1,0.2,0.3,0.3
			c0.1,0.1,0.3,0.1,0.5,0.2c0.4,0.1,0.8,0,1.1-0.3c0.3-0.2,0.6-0.6,0.8-1s0.4-0.9,0.6-1.5c0.2-0.6,0.4-1.1,0.6-1.7l2-5.6l3.3,0.5
			l-0.7,9.1l5.6-8.4l3.5,0.5l-2,5.6c-0.3,0.7-0.5,1.3-0.7,1.8c-0.2,0.4-0.3,0.8-0.3,1c-0.1,0.7,0.2,1,0.8,1.1c0.2,0,0.4,0,0.6,0
			c0.2-0.1,0.4-0.2,0.5-0.3c0.2-0.2,0.3-0.3,0.5-0.6c0.2-0.2,0.4-0.5,0.6-0.9L54.9,129.2z"/>
		<path id="XMLID_108_" class="st5" d="M65.5,122.8c-0.4,0.3-0.8,0.6-1.2,0.9c-0.4,0.3-0.8,0.6-1.3,0.9c0.4,0.5,0.7,1.3,0.8,2.3
			c0,0.3,0,0.7,0,1.1c0,0.4-0.1,0.8-0.3,1.2c-0.1,0.4-0.3,0.8-0.6,1.2c-0.2,0.4-0.5,0.8-0.9,1.1s-0.8,0.6-1.3,0.8s-1,0.4-1.6,0.4
			c-1.1,0.1-1.9-0.1-2.6-0.5c-0.6-0.5-1-1.2-1.1-2.1c0-0.2,0-0.4,0-0.6c0-0.2,0-0.5,0-0.7l0.8-7.7l3.3-0.3l-0.9,8.5
			c0,0.1,0,0.2,0,0.3s0,0.2,0,0.3c0.1,0.6,0.5,0.9,1.2,0.9c0.3,0,0.6-0.2,0.9-0.4s0.5-0.5,0.7-0.9s0.3-0.8,0.4-1.3s0.1-1,0.1-1.6
			c0-0.2-0.1-0.4-0.1-0.5c-0.1-0.1-0.2-0.3-0.3-0.4c-0.1,0.1-0.2,0.1-0.3,0.2c-0.1,0.1-0.2,0.1-0.4,0.1c-0.1,0-0.2,0-0.4,0
			c-0.1,0-0.2-0.1-0.4-0.1c-0.1-0.1-0.2-0.2-0.3-0.3s-0.1-0.3-0.1-0.5s0-0.3,0.1-0.5c0.1-0.1,0.2-0.3,0.3-0.4
			c0.1-0.1,0.3-0.2,0.4-0.2c0.2-0.1,0.3-0.1,0.5-0.1c0.4,0,0.7,0,1,0c0.6-0.3,1.1-0.6,1.5-1c0.5-0.3,0.9-0.7,1.4-1
			c0.4-0.3,0.9-0.7,1.3-1s0.9-0.7,1.5-1l1.5-0.2l-0.9,8.2c0,0.3,0,0.5,0,0.8s0.1,0.5,0.3,0.7s0.4,0.1,0.7,0.1c0.2,0,0.4-0.1,0.5-0.1
			s0.2-0.1,0.3-0.1c0,0.4,0,0.8-0.2,1.1c-0.1,0.3-0.3,0.6-0.5,0.8s-0.5,0.4-0.8,0.5s-0.6,0.2-0.9,0.2s-0.6,0-0.9-0.1
			s-0.6-0.2-0.8-0.4c-0.2-0.2-0.4-0.5-0.6-0.8s-0.3-0.8-0.3-1.3c0-0.2,0-0.5,0-0.7c0-0.3,0-0.5,0-0.8L65.5,122.8z"/>
		<path id="XMLID_317_" class="st5" d="M76.1,136.2l-0.8-19l3.3-0.9l0.1,1.8c0.3-0.4,0.6-0.7,1-1s0.9-0.5,1.4-0.7
			c0.4-0.1,0.8-0.1,1.1-0.1c0.4,0,0.7,0.2,1,0.4s0.6,0.5,0.9,1c0.3,0.4,0.5,1,0.7,1.7c0.1,0.5,0.2,1.1,0.3,1.7
			c0.1,0.6,0.1,1.3,0.1,1.9c0,0.6-0.1,1.3-0.2,1.9c-0.1,0.6-0.4,1.2-0.7,1.7c-0.3,0.5-0.7,1-1.2,1.4s-1.1,0.7-1.9,0.9
			c-0.3,0.1-0.6,0.1-0.8,0.1c-0.2,0-0.4,0-0.6,0s-0.3-0.1-0.4-0.2c-0.1-0.1-0.2-0.2-0.3-0.2l0.3,5.9L76.1,136.2z M79,126.8
			c0.1,0.1,0.2,0.2,0.4,0.3c0.2,0.1,0.4,0.1,0.6,0c0.4-0.1,0.7-0.3,1-0.6s0.5-0.6,0.6-1c0.2-0.4,0.3-0.8,0.3-1.3
			c0.1-0.5,0.1-1,0.1-1.4c0-0.5-0.1-1-0.1-1.4c-0.1-0.5-0.1-0.9-0.2-1.2c-0.1-0.4-0.2-0.8-0.4-1c-0.1-0.2-0.3-0.4-0.4-0.5
			s-0.3-0.1-0.4-0.1s-0.3,0-0.4,0c-0.3,0.1-0.5,0.2-0.7,0.5s-0.4,0.6-0.5,1L79,126.8z"/>
		<path id="XMLID_314_" class="st5" d="M99.7,119.1c0,0.7-0.1,1.3-0.2,1.8s-0.3,1-0.4,1.4c-0.2,0.4-0.4,0.7-0.6,1s-0.5,0.5-0.7,0.7
			s-0.5,0.3-0.7,0.4c-0.2,0.1-0.4,0.2-0.6,0.3c-0.6,0.2-1.2,0.2-1.7-0.1c-0.5-0.2-0.9-0.7-1.2-1.3c-0.1,0.3-0.2,0.6-0.4,0.9
			s-0.3,0.6-0.5,0.9c-0.2,0.3-0.5,0.5-0.8,0.8c-0.3,0.2-0.7,0.4-1.1,0.5s-0.8,0.2-1.2,0.2c-0.4,0-0.8-0.1-1.1-0.3
			c-0.4-0.2-0.7-0.5-1-0.9s-0.6-1-0.8-1.6c-0.2-0.5-0.3-1.1-0.3-1.7c-0.1-0.6-0.1-1.3-0.1-1.9c0-0.7,0.1-1.3,0.3-1.9
			c0.2-0.6,0.4-1.2,0.7-1.8c0.3-0.5,0.7-1,1.2-1.4s1-0.7,1.7-0.9c0.6-0.2,1.1-0.2,1.5-0.1s0.6,0.4,0.7,0.7l0.1,0.2l-0.1-1.3l3.3-1
			l0.7,8.2c0,0.1,0,0.3,0,0.4c0,0.1,0.1,0.2,0.1,0.4c0.2,0.6,0.6,0.9,1.2,0.7c0.2-0.1,0.4-0.2,0.6-0.4s0.3-0.4,0.4-0.6
			c0.1-0.2,0.2-0.5,0.2-0.8s0.1-0.6,0-0.9L99.7,119.1z M92.4,115.7c0-0.1-0.1-0.1-0.1-0.2c-0.1-0.1-0.1-0.2-0.2-0.2
			c-0.1-0.1-0.2-0.1-0.4-0.1c-0.1,0-0.3,0-0.5,0c-0.3,0.1-0.6,0.3-0.8,0.6c-0.2,0.3-0.4,0.6-0.5,1.1c-0.1,0.4-0.2,0.9-0.3,1.4
			c-0.1,0.5-0.1,1-0.1,1.5s0,1,0.1,1.4c0.1,0.5,0.2,0.9,0.3,1.2c0.1,0.4,0.3,0.8,0.4,1c0.2,0.2,0.3,0.4,0.5,0.4
			c0.1,0.1,0.3,0.1,0.4,0.1s0.3,0,0.4-0.1c0.2-0.1,0.3-0.1,0.5-0.3c0.2-0.1,0.3-0.3,0.4-0.5s0.2-0.5,0.3-0.8c0.1-0.3,0.1-0.6,0.1-1
			L92.4,115.7z"/>
		<path id="XMLID_311_" class="st5" d="M102.5,108.2c-0.1,0-0.1,0.1-0.2,0.1c0,0-0.1,0.1,0,0.3c0,0.1,0.1,0.1,0.3,0.3
			c0.2,0.1,0.4,0.3,0.6,0.4c0.2,0.2,0.5,0.4,0.8,0.6s0.6,0.5,0.9,0.9c0.3,0.3,0.6,0.7,0.8,1.1c0.3,0.4,0.5,0.9,0.6,1.5
			c0.2,0.6,0.3,1.1,0.4,1.8c0.1,0.6,0.1,1.2,0,1.8c0,0.6-0.1,1.2-0.3,1.8c-0.2,0.6-0.4,1.1-0.7,1.6c-0.3,0.5-0.6,0.9-1.1,1.3
			c-0.4,0.4-0.9,0.6-1.5,0.8s-1.1,0.3-1.6,0.2c-0.5,0-0.9-0.1-1.4-0.3c-0.4-0.2-0.8-0.5-1.1-1c-0.3-0.4-0.6-1-0.8-1.6
			c-0.3-0.9-0.4-1.7-0.4-2.7c0-0.9,0.2-1.8,0.5-2.6c0.3-0.8,0.8-1.6,1.4-2.2s1.5-1.1,2.5-1.4c0.1,0,0.2,0,0.2-0.1c0.1,0,0.1,0,0.2,0
			c-0.4-0.3-0.8-0.5-1.2-0.7c-0.4-0.2-0.8-0.4-1.2-0.6c-0.4-0.2-0.7-0.4-1-0.7c-0.3-0.3-0.5-0.6-0.6-0.9c-0.2-0.6-0.1-1.1,0.2-1.4
			c0.3-0.4,0.9-0.7,1.7-1l3.4-1.1c0.4-0.1,0.7-0.2,1-0.3c0.3-0.1,0.5-0.2,0.6-0.3c0.1-0.1,0.2-0.3,0.3-0.4c0-0.2,0.1-0.4,0-0.8
			l1-0.3c0.1,0.9,0.1,1.7,0.1,2.3c0,0.6-0.1,1.1-0.3,1.5c-0.2,0.4-0.5,0.7-0.8,0.9c-0.4,0.2-0.8,0.4-1.4,0.6L102.5,108.2z
			 M103.5,120.2c0.3-0.1,0.6-0.3,0.8-0.6c0.2-0.3,0.3-0.7,0.4-1.1c0.1-0.4,0.1-0.9,0.1-1.4s0-1-0.1-1.4c-0.1-0.5-0.1-0.9-0.2-1.3
			s-0.1-0.7-0.2-0.8c-0.1-0.3-0.2-0.5-0.3-0.7c-0.1-0.2-0.2-0.3-0.3-0.4c-0.1-0.1-0.2-0.1-0.3-0.1c-0.1,0-0.3,0-0.4,0
			c-0.4,0.1-0.7,0.3-0.9,0.6c-0.2,0.3-0.4,0.7-0.5,1.1s-0.2,0.9-0.2,1.4s0,1,0,1.4c0,0.5,0.1,0.9,0.1,1.2c0.1,0.4,0.1,0.7,0.2,0.9
			c0.1,0.3,0.2,0.6,0.3,0.8c0.1,0.2,0.2,0.4,0.4,0.5c0.1,0.1,0.3,0.2,0.4,0.2C103.1,120.3,103.3,120.2,103.5,120.2z"/>
		<path id="XMLID_308_" class="st5" d="M119.8,108c-0.3,0.6-0.8,1.2-1.4,1.7s-1.3,1-2.1,1.4c0.2,1.1,0.3,2.1,0.2,3
			c-0.1,0.9-0.3,1.8-0.6,2.5c-0.3,0.7-0.7,1.3-1.3,1.8s-1.1,0.9-1.8,1.1c-0.5,0.2-1,0.2-1.5,0.2s-0.9-0.1-1.3-0.3s-0.8-0.5-1.1-0.9
			c-0.3-0.4-0.6-0.9-0.8-1.6c-0.1-0.4-0.2-1-0.3-1.6c-0.1-0.6-0.1-1.2-0.1-1.9c0-0.7,0.1-1.3,0.3-2c0.2-0.7,0.4-1.3,0.7-1.9
			c0.3-0.6,0.8-1.1,1.3-1.6s1.2-0.8,2-1c1.9-0.6,3.3,0.4,4,2.8l0,0h0.1h0.1c0.3-0.1,0.5-0.2,0.8-0.4c0.3-0.2,0.6-0.4,0.8-0.6
			c0.3-0.2,0.5-0.5,0.8-0.7c0.2-0.3,0.5-0.5,0.7-0.7L119.8,108z M114.5,111.7c-0.3,0-0.4-0.1-0.6-0.2c-0.1-0.1-0.2-0.3-0.3-0.6
			c-0.1-0.3-0.1-0.6,0-0.8c0.1-0.2,0.2-0.4,0.4-0.6c-0.1-0.2-0.2-0.4-0.3-0.6c-0.1-0.2-0.2-0.3-0.3-0.4c-0.1-0.1-0.2-0.1-0.3-0.2
			c-0.1,0-0.2,0-0.4,0c-0.3,0.1-0.5,0.3-0.7,0.5c-0.2,0.3-0.3,0.6-0.5,1s-0.2,0.9-0.3,1.4c-0.1,0.5-0.1,1-0.1,1.5s0,1,0.1,1.5
			s0.1,0.9,0.3,1.3c0.1,0.4,0.2,0.7,0.3,0.9c0.1,0.2,0.2,0.4,0.4,0.5c0.1,0.1,0.3,0.2,0.4,0.2c0.2,0,0.4,0,0.6-0.1
			c0.3-0.1,0.5-0.3,0.7-0.6s0.4-0.7,0.5-1.2s0.2-1.1,0.2-1.7S114.6,112.4,114.5,111.7z"/>
		<path id="XMLID_99_" class="st5" d="M136.7,109.1c-0.1,1-0.3,1.9-0.5,2.5s-0.5,1.2-0.8,1.5c-0.3,0.4-0.6,0.7-1,0.8
			c-0.3,0.2-0.7,0.3-1,0.4c-0.5,0.1-1,0.1-1.3,0.1c-0.4-0.1-0.7-0.2-1-0.4c-0.3-0.2-0.5-0.4-0.6-0.7c-0.2-0.3-0.3-0.6-0.4-0.9
			c-0.1-0.4-0.1-0.9-0.1-1.4s0-1.1,0-1.7s0-1.1,0-1.7c0-0.5,0-1-0.1-1.4c-0.2-0.8-0.5-1.1-1.1-1c-0.2,0-0.4,0.1-0.5,0.3
			c-0.2,0.2-0.3,0.3-0.4,0.6c-0.1,0.2-0.2,0.5-0.3,0.8c-0.1,0.3-0.1,0.6-0.1,0.9l0.1,7.8l-3.3,0.7l-0.1-8.4c0-0.2,0-0.4-0.1-0.6
			c0-0.1-0.1-0.3-0.1-0.4c-0.1-0.1-0.1-0.2-0.2-0.3c-0.1-0.1-0.2-0.1-0.3-0.2c-0.1,0-0.2,0-0.4,0c-0.2,0.1-0.4,0.2-0.6,0.3
			s-0.3,0.3-0.4,0.6c-0.1,0.2-0.2,0.5-0.3,0.8c-0.1,0.3-0.1,0.6-0.1,0.9l0.1,7.8l-3.3,0.7l-0.1-12.1l3.3-0.7v1.2
			c0.2-0.3,0.4-0.6,0.6-0.8c0.2-0.2,0.4-0.4,0.6-0.6c0.2-0.1,0.4-0.3,0.7-0.3c0.2-0.1,0.4-0.1,0.6-0.2c0.3-0.1,0.6-0.1,0.9-0.1
			s0.5,0.1,0.8,0.2c0.2,0.1,0.5,0.3,0.7,0.5s0.4,0.5,0.5,0.9c0.2-0.5,0.4-0.9,0.6-1.2c0.2-0.3,0.5-0.6,0.7-0.8
			c0.2-0.2,0.5-0.3,0.7-0.4s0.5-0.2,0.7-0.2c0.4-0.1,0.7-0.1,1.1-0.1c0.3,0,0.6,0.1,0.9,0.3c0.3,0.2,0.5,0.4,0.7,0.7
			c0.2,0.3,0.4,0.7,0.5,1.1c0.1,0.3,0.1,0.6,0.1,1s0,0.7,0,1.1s0,0.8,0,1.2c0,0.4,0,0.8,0,1.1c0,0.4,0,0.7,0,1s0,0.6,0.1,0.8
			c0.1,0.3,0.2,0.5,0.4,0.7s0.4,0.2,0.8,0.1c0.2-0.1,0.5-0.2,0.6-0.3c0.2-0.1,0.3-0.3,0.4-0.5c0.1-0.2,0.2-0.5,0.3-0.7
			c0.1-0.3,0.1-0.6,0.2-0.9L136.7,109.1z"/>
		<path id="XMLID_304_" class="st5" d="M149.2,108.2c-0.2,0.7-0.3,1.2-0.6,1.7c-0.2,0.5-0.4,0.9-0.7,1.3c-0.2,0.3-0.5,0.6-0.8,0.9
			c-0.3,0.2-0.5,0.4-0.8,0.5s-0.5,0.2-0.8,0.3c-0.3,0.1-0.5,0.1-0.7,0.1c-0.7,0.1-1.2-0.1-1.6-0.4c-0.4-0.3-0.7-0.8-0.9-1.5
			c-0.2,0.3-0.4,0.6-0.6,0.8c-0.2,0.3-0.4,0.5-0.7,0.8c-0.3,0.2-0.6,0.4-0.9,0.6c-0.3,0.2-0.7,0.3-1.1,0.3c-0.4,0-0.8,0-1.2-0.1
			s-0.7-0.3-1.1-0.5c-0.3-0.3-0.6-0.6-0.8-1.1s-0.4-1-0.4-1.7c-0.1-0.5-0.1-1.1,0-1.7c0-0.6,0.2-1.3,0.3-1.9
			c0.2-0.6,0.4-1.3,0.7-1.8s0.6-1.1,1-1.6s0.9-0.9,1.4-1.2c0.5-0.3,1.2-0.5,1.8-0.6c0.7-0.1,1.2,0,1.5,0.2s0.5,0.5,0.5,0.8v0.2
			l0.1-1.3l3.4-0.3l-0.9,8.2c0,0.1,0,0.3,0,0.4s0,0.3,0,0.4c0.1,0.7,0.4,1,1.1,0.9c0.2,0,0.4-0.1,0.6-0.2c0.2-0.1,0.3-0.3,0.5-0.5
			c0.1-0.2,0.3-0.5,0.4-0.7c0.1-0.3,0.2-0.6,0.2-0.9L149.2,108.2z M142.7,103.4c0-0.1,0-0.2-0.1-0.3s-0.1-0.2-0.2-0.3
			c-0.1-0.1-0.2-0.2-0.3-0.2c-0.1-0.1-0.3-0.1-0.5-0.1c-0.3,0-0.6,0.2-0.9,0.4c-0.3,0.2-0.5,0.6-0.7,0.9c-0.2,0.4-0.4,0.8-0.5,1.3
			s-0.3,1-0.4,1.4c-0.1,0.5-0.1,1-0.2,1.4c0,0.5,0,0.9,0,1.3c0,0.5,0.1,0.8,0.2,1c0.1,0.2,0.2,0.4,0.4,0.5c0.1,0.1,0.3,0.2,0.4,0.2
			c0.1,0,0.3,0,0.4,0c0.2,0,0.4-0.1,0.5-0.2c0.2-0.1,0.4-0.3,0.5-0.4c0.2-0.2,0.3-0.4,0.4-0.7c0.1-0.3,0.2-0.6,0.3-0.9L142.7,103.4z
			"/>
		<path id="XMLID_301_" class="st5" d="M158.1,108.6c-0.3,0.5-0.7,1.1-1.2,1.6c-0.4,0.5-0.9,1-1.5,1.4c-0.5,0.4-1.1,0.7-1.8,0.9
			c-0.7,0.2-1.4,0.3-2.2,0.3c-0.6,0-1.1-0.1-1.5-0.3c-0.5-0.2-0.8-0.4-1.1-0.7c-0.3-0.3-0.6-0.7-0.7-1.2c-0.2-0.5-0.2-1.1-0.2-1.7
			c0-0.5,0.1-1,0.2-1.6c0.1-0.6,0.3-1.2,0.5-1.8c0.2-0.6,0.5-1.2,0.8-1.8c0.3-0.6,0.8-1.1,1.2-1.6c0.5-0.5,1-0.8,1.7-1.1
			c0.6-0.3,1.4-0.4,2.2-0.4c0.5,0,1,0.1,1.3,0.2s0.6,0.3,0.8,0.5s0.3,0.5,0.4,0.7c0.1,0.3,0.1,0.6,0.1,0.9c0,0.7-0.2,1.3-0.5,1.9
			s-0.7,1.1-1.2,1.5s-1.1,0.8-1.8,1c-0.7,0.3-1.3,0.4-2.1,0.4c0,0.2,0,0.3-0.1,0.5c0,0.2,0,0.3,0,0.4c0,0.4,0,0.7,0.1,1
			s0.2,0.5,0.3,0.6s0.3,0.3,0.5,0.3c0.2,0.1,0.5,0.1,0.7,0.1c0.5,0,0.9,0,1.3-0.2c0.4-0.1,0.7-0.3,1.1-0.5c0.3-0.2,0.7-0.5,1-0.7
			c0.3-0.3,0.6-0.6,0.9-0.9L158.1,108.6z M151.7,106.7c0.4,0,0.9-0.1,1.3-0.3c0.4-0.2,0.8-0.5,1.1-0.8c0.3-0.4,0.6-0.8,0.8-1.2
			c0.2-0.5,0.3-0.9,0.3-1.4c0-0.3,0-0.5-0.1-0.7s-0.2-0.3-0.5-0.3s-0.6,0.1-0.9,0.4c-0.3,0.3-0.6,0.6-0.8,1.1
			c-0.3,0.5-0.5,1-0.7,1.5C152,105.6,151.8,106.2,151.7,106.7z"/>
		<path id="XMLID_94_" class="st5" d="M162.6,113.6l1.1-7.2l-0.6,1.4c-0.4,0.9-0.7,1.7-1.1,2.3c-0.3,0.7-0.7,1.2-1,1.7
			c-0.4,0.4-0.8,0.7-1.2,0.9c-0.4,0.2-1,0.2-1.6,0.1c-0.4-0.1-0.8-0.3-1.1-0.5s-0.5-0.5-0.7-0.8s-0.2-0.6-0.3-1c0-0.3,0-0.7,0-1
			c0.1-0.5,0.3-0.9,0.7-1.2c0.3-0.3,0.7-0.3,1.2-0.2c0.4,0.1,0.6,0.3,0.8,0.5c0.2,0.3,0.2,0.6,0.1,0.9c-0.1,0.4-0.2,0.6-0.5,0.8
			c-0.2,0.1-0.5,0.2-0.7,0.1c0,0.1,0,0.2,0,0.3s0,0.2,0.1,0.3c0,0.1,0.1,0.2,0.2,0.3c0.1,0.1,0.3,0.1,0.4,0.2c0.4,0.1,0.8,0,1.1-0.2
			s0.6-0.5,0.9-0.9c0.3-0.4,0.5-0.9,0.7-1.4s0.5-1.1,0.7-1.7l2.4-5.5l3.2,0.7l-1.4,9l6.2-8l3.4,0.7l-3.4,7.5
			c-0.1,0.1-0.1,0.2-0.2,0.4c0,0.1-0.1,0.2-0.1,0.4c-0.1,0.3,0,0.6,0.1,0.7c0.1,0.2,0.4,0.3,0.7,0.3c0.2,0,0.4,0.1,0.5,0.1
			s0.2,0,0.3,0c-0.1,0.4-0.3,0.7-0.5,1s-0.5,0.5-0.7,0.6c-0.3,0.1-0.6,0.2-0.9,0.3c-0.3,0-0.6,0-0.9-0.1c-0.3-0.1-0.6-0.2-0.9-0.4
			c-0.3-0.2-0.5-0.4-0.6-0.7c-0.2-0.3-0.3-0.6-0.3-1s0-0.8,0.1-1.3c0-0.1,0-0.2,0.1-0.2c0-0.1,0.1-0.2,0.1-0.3
			c0-0.1,0.1-0.3,0.2-0.5c0.1-0.2,0.2-0.4,0.3-0.7c0.1-0.3,0.3-0.6,0.5-1s0.4-0.9,0.6-1.4l-4.9,6.3L162.6,113.6z"/>
	</g>
</g>
<g id="XMLID_234_">
	<g id="XMLID_236_" class="st12">
		
			<linearGradient id="XMLID_14_" gradientUnits="userSpaceOnUse" x1="135.9968" y1="150.1829" x2="155" y2="155.0195" gradientTransform="matrix(1 0 0 1 0 2)">
			<stop  offset="3.400000e-003" style="stop-color:#F6B31A"/>
			<stop  offset="0.3377" style="stop-color:#F6AD1D"/>
			<stop  offset="0.8197" style="stop-color:#F69B24"/>
			<stop  offset="1" style="stop-color:#F79227"/>
		</linearGradient>
		<path id="XMLID_93_" class="st13" d="M155.5,155.1c-7.7,2.8-15.5,6.9-23.2,11.8c4.9-9.5,9.7-18.8,14.6-27.6
			C149.7,144.4,152.6,149.7,155.5,155.1z"/>
		
			<linearGradient id="XMLID_15_" gradientUnits="userSpaceOnUse" x1="-53.5187" y1="7.4234" x2="93.2672" y2="7.4234" gradientTransform="matrix(0.9691 0.2466 -0.2466 0.9691 64.38 135.0877)">
			<stop  offset="3.400000e-003" style="stop-color:#C0902C"/>
			<stop  offset="0.3512" style="stop-color:#C1892C"/>
			<stop  offset="0.8526" style="stop-color:#BF772A"/>
			<stop  offset="1" style="stop-color:#BF6F2A"/>
		</linearGradient>
		<path id="XMLID_92_" class="st14" d="M17.5,102.3c5.4,21.1,10.7,41.2,16.1,60.6c40.6,15.9,81.3-13.5,121.9-7.7
			c-2.9-5.4-5.8-10.7-8.7-15.8C103.7,125.8,60.6,145.5,17.5,102.3z"/>
		
			<linearGradient id="XMLID_16_" gradientUnits="userSpaceOnUse" x1="7.3726" y1="63.6863" x2="185.1235" y2="108.9265" gradientTransform="matrix(1 0 0 1 0 2)">
			<stop  offset="3.400000e-003" style="stop-color:#F6B31A"/>
			<stop  offset="0.3377" style="stop-color:#F6AD1D"/>
			<stop  offset="0.8197" style="stop-color:#F69B24"/>
			<stop  offset="1" style="stop-color:#F79227"/>
		</linearGradient>
		<path id="XMLID_91_" class="st15" d="M186.8,103.6C151.1,68.9,75.6,53.9,7.7,64.4c10.9,5.2,19.2,10.9,20.2,25.2
			c47.7-10.4,120.4,15.8,151.3,44.6C181.7,123.8,184.2,113.6,186.8,103.6z"/>
		
			<linearGradient id="XMLID_17_" gradientUnits="userSpaceOnUse" x1="79.1425" y1="74.7832" x2="100.8139" y2="80.2989" gradientTransform="matrix(1 0 0 1 0 2)">
			<stop  offset="3.400000e-003" style="stop-color:#EC2379"/>
			<stop  offset="1" style="stop-color:#AE2067"/>
		</linearGradient>
		<path id="XMLID_90_" class="st16" d="M79.8,74.2c8.8-3.7,17.5-8.2,26.3-12.5c-6.5,13-13,26.1-19.6,38.9
			C84.3,91.9,82,83.1,79.8,74.2z"/>
		
			<linearGradient id="XMLID_18_" gradientUnits="userSpaceOnUse" x1="17.5" y1="108.35" x2="169.6" y2="108.35" gradientTransform="matrix(1 0 0 1 0 2)">
			<stop  offset="3.400000e-003" style="stop-color:#D11873"/>
			<stop  offset="1" style="stop-color:#952169"/>
		</linearGradient>
		<polygon id="XMLID_89_" class="st17" points="17.5,42.6 49.8,148.9 97.8,148.9 109.4,178.1 125.8,148.9 159.2,148.9 169.6,53.9 		
			"/>
		<g id="XMLID_279_" class="st18">
			<path id="XMLID_289_" class="st19" d="M59.7,86.2c-5.6-2.5-7.9-6.7-7.9-10.9c0-7.7,6.6-12.9,15.4-12.9c9.6,0,14.5,5.8,14.5,11.9
				c0,4.1-2.1,8.5-8.3,11.3v0.2c6.2,2.4,10,6.7,10,12.5c0,8.5-7.4,14-16.9,14c-10.4,0-16.7-5.9-16.7-13
				C49.8,93.2,53.5,88.8,59.7,86.2L59.7,86.2z M76.7,99.1c0-5.8-4.2-8.7-10.9-10.6c-5.8,1.6-8.9,5.4-8.9,10
				c-0.2,4.8,3.6,9.1,9.9,9.1C72.8,107.7,76.7,104,76.7,99.1z M58.2,74.9c-0.1,4.8,3.7,7.4,9.5,8.9c4.3-1.4,7.6-4.4,7.6-8.8
				c0-3.9-2.4-7.9-8.4-7.9C61.3,67.2,58.2,70.7,58.2,74.9z"/>
			<path id="XMLID_286_" class="st19" d="M122.9,86.9c0,16.4-6.3,25.5-17.3,25.5c-9.7,0-16.4-8.8-16.5-24.8
				c0-16.3,7.3-25.1,17.3-25.1C116.8,62.5,122.9,71.6,122.9,86.9z M95.9,87.7c0,12.6,4,19.7,10.1,19.7c6.8,0,10.1-7.8,10.1-20.1
				c0-11.9-3.1-19.7-10.1-19.7C100.2,67.5,95.9,74.5,95.9,87.7z"/>
			<path id="XMLID_280_" class="st19" d="M140.5,66.6c0,5.9-3.2,8.9-6.9,8.9s-6.7-2.8-6.8-8.4c0-5.6,3.1-8.8,7-8.8
				C137.9,58.2,140.5,61.3,140.5,66.6z M129.9,66.8c-0.1,3.6,1.3,6.3,3.8,6.3c2.6,0,3.7-2.7,3.7-6.4c0-3.5-1-6.3-3.8-6.3
				C131.3,60.5,129.9,63.3,129.9,66.8z M133.3,87.4l17.1-29.2h2.5l-17.1,29.2H133.3z M159.4,78.3c0,5.9-3.2,8.9-6.9,8.9
				s-6.7-2.8-6.8-8.5c0-5.6,3.1-8.8,7-8.8C156.8,69.9,159.4,72.9,159.4,78.3z M148.8,78.5c-0.1,3.6,1.3,6.3,3.8,6.3
				c2.6,0,3.7-2.7,3.7-6.4c0-3.4-1-6.3-3.8-6.3C150.2,72.2,148.8,75,148.8,78.5z"/>
		</g>
		<path id="XMLID_78_" class="st20" d="M165.2,94.4c-32.4-7.8-71.2,9.1-93.4,10C55.1,105.2,40.1,98.1,33,94l5.5,18l59.1,36.8h0.2
			l0.1,0.4l0.3,0.3c10.2-4.2,23.1-8.7,38.4-11c10.7-1.6,17.2,0.3,23.6,2L165.2,94.4z"/>
		<g id="XMLID_263_" class="st18">
			<path id="XMLID_275_" class="st19" d="M49.2,123.2c0,3.8-2.4,5.9-5.3,5.9c-3.1,0-5.2-2.3-5.2-5.7c0-3.5,2.3-5.9,5.3-5.9
				C47.2,117.5,49.2,119.8,49.2,123.2z M40.3,123.3c0,2.4,1.3,4.5,3.7,4.5s3.7-2.1,3.7-4.6c0-2.2-1.2-4.6-3.7-4.6
				C41.5,118.7,40.3,120.9,40.3,123.3z"/>
			<path id="XMLID_75_" class="st19" d="M51.1,128.8v-11.2h1.6l3.7,5.6c0.8,1.3,1.5,2.5,2,3.6h0.1c-0.1-1.5-0.2-2.9-0.2-4.6v-4.7
				h1.4v11.2h-1.5l-3.7-5.7c-0.8-1.2-1.6-2.5-2.1-3.7h-0.1c0.1,1.4,0.1,2.7,0.1,4.6v4.8L51.1,128.8L51.1,128.8z"/>
			<path id="XMLID_74_" class="st19" d="M62.4,117.7h1.5v10h4.9v1.2h-6.4V117.7z"/>
			<path id="XMLID_73_" class="st19" d="M71.6,128.8v-4.7l-3.7-6.4h1.7l1.6,3.1c0.4,0.8,0.8,1.5,1.1,2.3l0,0
				c0.3-0.7,0.7-1.5,1.2-2.3l1.7-3.1h1.7l-3.8,6.4v4.8h-1.5V128.8z"/>
			<path id="XMLID_72_" class="st19" d="M83.4,118.9h-3.5v-1.2h8.5v1.2h-3.5v9.9h-1.5V118.9z"/>
			<path id="XMLID_71_" class="st19" d="M91.1,117.7v4.7h5.6v-4.7h1.5v11.2h-1.5v-5.2h-5.6v5.2h-1.5v-11.2H91.1z"/>
			<path id="XMLID_70_" class="st19" d="M102.3,117.7v11.2h-1.5v-11.2H102.3z"/>
			<path id="XMLID_69_" class="st19" d="M104.7,127.1c0.7,0.4,1.6,0.7,2.6,0.7c1.5,0,2.4-0.8,2.4-1.9c0-1-0.6-1.6-2.2-2.2
				c-1.9-0.7-3-1.6-3-3.2c0-1.7,1.5-3,3.7-3c1.2,0,2,0.3,2.5,0.5l-0.4,1.2c-0.4-0.2-1.1-0.5-2.2-0.5c-1.6,0-2.2,0.9-2.2,1.7
				c0,1,0.7,1.6,2.3,2.2c1.9,0.7,2.9,1.6,2.9,3.3s-1.3,3.2-4,3.2c-1.1,0-2.3-0.3-2.9-0.7L104.7,127.1z"/>
			<path id="XMLID_68_" class="st19" d="M118.2,128.8l-2.9-11.2h1.6l1.4,5.6c0.3,1.4,0.6,2.8,0.9,3.9l0,0c0.2-1.1,0.5-2.4,0.9-3.9
				l1.5-5.6h1.6l1.4,5.7c0.3,1.3,0.6,2.7,0.8,3.8l0,0c0.2-1.2,0.6-2.5,0.9-3.9l1.5-5.6h1.5l-3.3,11.2h-1.6l-1.5-5.8
				c-0.4-1.4-0.6-2.5-0.8-3.6l0,0c-0.2,1.1-0.5,2.2-0.9,3.6l-1.6,5.8H118.2L118.2,128.8z"/>
			<path id="XMLID_67_" class="st19" d="M136.7,123.6h-4.5v4h5v1.2h-6.5v-11.2h6.2v1.2h-4.7v3.5h4.5V123.6z"/>
			<path id="XMLID_66_" class="st19" d="M145.1,123.6h-4.5v4h5v1.2h-6.5v-11.2h6.2v1.2h-4.7v3.5h4.5V123.6L145.1,123.6z"/>
			<path id="XMLID_65_" class="st19" d="M147.6,117.7h1.5v5.4h0.1c0.3-0.4,0.6-0.8,0.9-1.2l3.5-4.2h1.8l-4.2,4.7l4.5,6.4h-1.8
				l-3.8-5.5l-1.1,1.2v4.3h-1.5L147.6,117.7L147.6,117.7z"/>
		</g>
		
			<linearGradient id="XMLID_35_" gradientUnits="userSpaceOnUse" x1="108.9807" y1="-48.7832" x2="-24.7824" y2="3.5284" gradientTransform="matrix(0.9691 0.2466 -0.2466 0.9691 64.38 135.0877)">
			<stop  offset="3.400000e-003" style="stop-color:#FAD14C"/>
			<stop  offset="0.2776" style="stop-color:#F9CE46"/>
			<stop  offset="0.6729" style="stop-color:#FAC332"/>
			<stop  offset="1" style="stop-color:#FCB81C"/>
		</linearGradient>
		<path id="XMLID_64_" class="st21" d="M17.5,102.4c56.4,36.3,112.9-35.1,169.3,1.2c-2.6,10-5.1,20.2-7.7,30.6
			c-48.5-17.2-97,38-145.5,28.6C28.2,143.5,22.9,123.4,17.5,102.4z"/>
		<g id="XMLID_252_" class="st18">
			<path id="XMLID_63_" class="st19" d="M137.6,110.8c0.4,0.2,1,0.4,1.6,0.4c0.9,0,1.4-0.5,1.4-1.1s-0.4-1-1.3-1.3
				c-1.1-0.4-1.8-1-1.8-1.9c0-1,0.9-1.8,2.2-1.8c0.7,0,1.2,0.2,1.5,0.3l-0.2,0.7c-0.2-0.1-0.7-0.3-1.3-0.3c-0.9,0-1.3,0.5-1.3,1
				c0,0.6,0.4,0.9,1.4,1.3c1.2,0.4,1.7,1,1.7,1.9c0,1-0.8,1.9-2.4,1.9c-0.7,0-1.4-0.2-1.7-0.4L137.6,110.8z"/>
			<path id="XMLID_62_" class="st19" d="M143.6,105.2v3.9c0,1.5,0.7,2.1,1.6,2.1c1,0,1.7-0.7,1.7-2.1v-3.9h0.9v3.9
				c0,2-1.1,2.9-2.6,2.9c-1.4,0-2.4-0.8-2.4-2.8v-3.9L143.6,105.2L143.6,105.2z"/>
			<path id="XMLID_257_" class="st19" d="M149.2,105.3c0.4-0.1,1-0.1,1.7-0.1c0.9,0,1.5,0.2,1.9,0.6c0.4,0.3,0.6,0.8,0.6,1.4
				s-0.2,1.1-0.5,1.4c-0.5,0.5-1.2,0.7-2.1,0.7c-0.3,0-0.5,0-0.7-0.1v2.7h-0.9V105.3z M150.1,108.5c0.2,0,0.4,0.1,0.7,0.1
				c1.1,0,1.7-0.5,1.7-1.4s-0.6-1.3-1.6-1.3c-0.4,0-0.7,0-0.8,0.1L150.1,108.5L150.1,108.5z"/>
			<path id="XMLID_59_" class="st19" d="M158.1,108.7h-2.6v2.4h3v0.7h-3.8v-6.6h3.7v0.7h-2.8v2.1h2.6L158.1,108.7L158.1,108.7z"/>
			<path id="XMLID_253_" class="st19" d="M159.6,105.3c0.4-0.1,1.1-0.1,1.7-0.1c0.9,0,1.6,0.2,2,0.5c0.3,0.3,0.5,0.7,0.5,1.3
				c0,0.9-0.6,1.4-1.3,1.7l0,0c0.5,0.2,0.8,0.6,1,1.3c0.2,0.9,0.4,1.6,0.5,1.8h-0.9c-0.1-0.2-0.3-0.8-0.4-1.6
				c-0.2-0.9-0.6-1.3-1.4-1.3h-0.8v2.9h-0.9L159.6,105.3L159.6,105.3z M160.5,108.3h0.9c0.9,0,1.5-0.5,1.5-1.3
				c0-0.9-0.6-1.2-1.6-1.2c-0.4,0-0.7,0-0.9,0.1v2.4H160.5z"/>
		</g>
		<g id="XMLID_239_" class="st18">
			<path id="XMLID_249_" class="st19" d="M89.4,114.2c0.9-0.2,2-0.3,3.2-0.3c2.1,0,3.7,0.5,4.7,1.4s1.7,2.2,1.7,4s-0.6,3.3-1.7,4.4
				c-1.1,1.1-2.9,1.6-5.1,1.6c-1.1,0-2-0.1-2.7-0.1L89.4,114.2L89.4,114.2z M90.9,124.2c0.4,0.1,0.9,0.1,1.5,0.1
				c3.2,0,4.9-1.7,4.9-4.8c0-2.7-1.5-4.3-4.7-4.3c-0.8,0-1.4,0.1-1.8,0.2L90.9,124.2L90.9,124.2z"/>
			<path id="XMLID_54_" class="st19" d="M102.3,114v11.3h-1.5V114H102.3z"/>
			<path id="XMLID_53_" class="st19" d="M104.7,123.5c0.7,0.4,1.6,0.7,2.7,0.7c1.5,0,2.4-0.8,2.4-1.9c0-1-0.6-1.7-2.2-2.2
				c-1.9-0.7-3.1-1.6-3.1-3.2c0-1.8,1.5-3.1,3.7-3.1c1.2,0,2,0.3,2.5,0.6l-0.4,1.2c-0.4-0.2-1.1-0.5-2.2-0.5c-1.6,0-2.2,0.9-2.2,1.7
				c0,1.1,0.7,1.6,2.3,2.2c2,0.7,2.9,1.7,2.9,3.3c0,1.7-1.3,3.3-4,3.3c-1.1,0-2.3-0.3-3-0.7L104.7,123.5z"/>
			<path id="XMLID_52_" class="st19" d="M121.5,124.9c-0.5,0.3-1.7,0.5-3.1,0.5c-3.3,0-5.7-2-5.7-5.7c0-3.5,2.5-5.9,6.1-5.9
				c1.4,0,2.4,0.3,2.7,0.5l-0.4,1.2c-0.5-0.3-1.4-0.5-2.3-0.5c-2.7,0-4.5,1.7-4.5,4.6c0,2.8,1.6,4.5,4.4,4.5c0.9,0,1.9-0.2,2.5-0.5
				L121.5,124.9z"/>
			<path id="XMLID_243_" class="st19" d="M132.9,119.5c0,3.9-2.4,5.9-5.4,5.9c-3.1,0-5.2-2.3-5.2-5.7c0-3.6,2.3-5.9,5.4-5.9
				C130.9,113.8,132.9,116.2,132.9,119.5z M123.9,119.7c0,2.4,1.3,4.6,3.7,4.6c2.4,0,3.7-2.1,3.7-4.7c0-2.3-1.2-4.6-3.7-4.6
				C125.1,115,123.9,117.3,123.9,119.7z"/>
			<path id="XMLID_49_" class="st19" d="M136.3,114v6.7c0,2.5,1.2,3.6,2.7,3.6c1.7,0,2.8-1.1,2.8-3.6V114h1.5v6.6
				c0,3.5-1.9,4.9-4.4,4.9c-2.4,0-4.2-1.3-4.2-4.8V114H136.3L136.3,114z"/>
			<path id="XMLID_48_" class="st19" d="M146,125.3V114h1.6l3.7,5.7c0.8,1.3,1.5,2.5,2.1,3.7h0.1c-0.1-1.5-0.2-2.9-0.2-4.6V114h1.4
				v11.3h-1.5l-3.7-5.7c-0.8-1.3-1.6-2.5-2.1-3.8h-0.1c0.1,1.4,0.1,2.8,0.1,4.6v4.8L146,125.3L146,125.3z"/>
			<path id="XMLID_47_" class="st19" d="M159.5,115.3H156V114h8.6v1.2H161v10h-1.5V115.3L159.5,115.3z"/>
		</g>
		
			<linearGradient id="XMLID_36_" gradientUnits="userSpaceOnUse" x1="132" y1="39.35" x2="169.6453" y2="39.35" gradientTransform="matrix(1 0 0 1 0 2)">
			<stop  offset="3.400000e-003" style="stop-color:#D11873"/>
			<stop  offset="1" style="stop-color:#952169"/>
		</linearGradient>
		<polygon id="XMLID_46_" class="st22" points="132,45.4 169.6,45.4 158.1,37.3 		"/>
		
			<linearGradient id="XMLID_50_" gradientUnits="userSpaceOnUse" x1="92.931" y1="170.25" x2="103.746" y2="170.25" gradientTransform="matrix(1 0 0 1 0 2)">
			<stop  offset="3.100000e-007" style="stop-color:#58A3D9"/>
			<stop  offset="0.3816" style="stop-color:#4697D2"/>
			<stop  offset="1" style="stop-color:#247FC2"/>
		</linearGradient>
		<polygon id="XMLID_45_" class="st23" points="103.7,176 98.8,168.5 92.9,171 		"/>
	</g>
	
		<radialGradient id="XMLID_51_" cx="227.6887" cy="-8.5275" r="112.7268" gradientTransform="matrix(0.7952 0 0 9.680000e-002 -71.9463 183.3278)" gradientUnits="userSpaceOnUse">
		<stop  offset="0" style="stop-color:#010101;stop-opacity:0.7803"/>
		<stop  offset="0.127" style="stop-color:#010101;stop-opacity:0.6809"/>
		<stop  offset="0.9973" style="stop-color:#010101;stop-opacity:0"/>
	</radialGradient>
	<ellipse id="XMLID_44_" class="st24" cx="109.6" cy="182.9" rx="90.4" ry="12.1"/>
</g>
<path id="XMLID_43_" class="st25" d="M155.5,147.1c-7.7,2.8-15.5,6.9-23.2,11.8c4.9-9.5,9.7-18.8,14.6-27.6
	C149.7,136.4,152.6,141.7,155.5,147.1z"/>
<path id="XMLID_42_" class="st26" d="M17.5,94.3c5.4,21.1,10.7,41.2,16.1,60.6c40.6,15.9,81.3-13.5,121.9-7.7
	c-2.9-5.4-5.8-10.7-8.7-15.8C103.7,117.8,60.6,137.5,17.5,94.3z"/>
<path id="XMLID_41_" class="st25" d="M186.8,95.6C151.1,60.9,75.6,45.9,7.7,56.4c10.9,5.2,19.2,10.9,20.2,25.2
	c47.7-10.4,120.4,15.8,151.3,44.6C181.7,115.8,184.2,105.6,186.8,95.6z"/>
<linearGradient id="XMLID_55_" gradientUnits="userSpaceOnUse" x1="79.1425" y1="66.7832" x2="100.8139" y2="72.2989" gradientTransform="matrix(1 0 0 1 0 2)">
	<stop  offset="3.400000e-003" style="stop-color:#EC2379"/>
	<stop  offset="1" style="stop-color:#AE2067"/>
</linearGradient>
<path id="XMLID_40_" class="st27" d="M79.8,66.2c8.8-3.7,17.5-8.2,26.3-12.5c-6.5,13-13,26.1-19.6,38.9C84.3,83.9,82,75.1,79.8,66.2
	z"/>
<polygon id="XMLID_39_" class="st28" points="17.5,34.8 49.8,141.1 97.8,141.1 109.4,170.3 125.8,141.1 159.2,141.1 169.6,46.1 "/>
<g id="XMLID_227_">
	<path id="XMLID_38_" class="st19" d="M68.5,105.1c-4.5,0-7.9-1-10.3-2.9c-2.4-1.9-3.5-4.6-3.5-8.1c0-1.6,0.2-3,0.7-4.3
		s1.2-2.4,2-3.4c0.9-0.9,1.9-1.7,3.1-2.2c1.2-0.5,2.5-0.8,4-0.8c3.1,0,4.9,1.3,5.4,3.8c-2.1,0.2-3.7,1-5,2.2
		c-1.2,1.2-1.8,2.8-1.8,4.8c0,1.8,0.5,3.2,1.6,4.2c1,1,2.5,1.5,4.2,1.5c1.5,0,2.8-0.3,4.1-1c1.2-0.7,2.3-1.7,3.2-2.9
		c0.9-1.2,1.6-2.7,2-4.4c0.5-1.7,0.7-3.6,0.7-5.6c0-3.5-0.7-6.3-2.2-8.1c-1.5-1.9-3.5-2.8-6.1-2.8c-1.4,0-2.9,0.3-4.5,0.8
		c-1.6,0.6-3.4,1.4-5.4,2.6l-1-0.7l5.9-28.6c2.2,0.3,4.4,0.5,6.5,0.7s4.2,0.3,6.2,0.3c2.2,0,4.3-0.2,6.5-0.5
		c2.1-0.3,4.4-0.9,6.7-1.7c0,0.4,0.1,0.8,0.1,1.3c0,0.4,0,0.8,0,1.3c0,1.2-0.2,2.3-0.5,3.4s-0.8,2-1.5,2.8s-1.6,1.4-2.7,1.9
		s-2.5,0.7-4.1,0.7c-1,0-2.1-0.1-3.3-0.2c-1.2-0.2-2.3-0.3-3.5-0.6c-1.1-0.2-2.2-0.4-3.3-0.6c-1-0.2-1.9-0.4-2.7-0.5l-3,13.7
		c3.2-1.6,6.4-2.4,9.4-2.4c2,0,3.9,0.4,5.5,1.1c1.7,0.7,3.1,1.8,4.2,3.1c1.2,1.3,2.1,3,2.7,4.9s0.9,4.1,0.9,6.5
		c0,3.1-0.5,5.9-1.6,8.5c-1,2.5-2.5,4.7-4.4,6.5s-4.1,3.2-6.8,4.2C74.6,104.6,71.7,105.1,68.5,105.1z"/>
</g>
<path id="XMLID_37_" class="st29" d="M165.2,86.4c-32.4-7.8-71.2,9.1-93.4,10C55.1,97.2,40.1,90.1,33,86l5.5,18l59.1,36.8h0.2
	l0.1,0.4l0.3,0.3c10.2-4.2,23.1-8.7,38.4-11c10.7-1.6,17.2,0.3,23.6,2L165.2,86.4z"/>
<g id="XMLID_211_">
	<path id="XMLID_223_" class="st19" d="M49.2,115.2c0,3.8-2.4,5.9-5.3,5.9c-3.1,0-5.2-2.3-5.2-5.7c0-3.5,2.3-5.9,5.3-5.9
		C47.2,109.5,49.2,111.8,49.2,115.2z M40.3,115.3c0,2.4,1.3,4.5,3.7,4.5s3.7-2.1,3.7-4.6c0-2.2-1.2-4.6-3.7-4.6
		C41.5,110.7,40.3,112.9,40.3,115.3z"/>
	<path id="XMLID_34_" class="st19" d="M51.1,120.8v-11.2h1.6l3.7,5.6c0.8,1.3,1.5,2.5,2,3.6h0.1c-0.1-1.5-0.2-2.9-0.2-4.6v-4.7h1.4
		v11.2h-1.5l-3.7-5.7c-0.8-1.2-1.6-2.5-2.1-3.7h-0.1c0.1,1.4,0.1,2.7,0.1,4.6v4.8L51.1,120.8L51.1,120.8z"/>
	<path id="XMLID_33_" class="st19" d="M62.4,109.7h1.5v10h4.9v1.2h-6.4V109.7z"/>
	<path id="XMLID_32_" class="st19" d="M71.6,120.8v-4.7l-3.7-6.4h1.7l1.6,3.1c0.4,0.8,0.8,1.5,1.1,2.3l0,0c0.3-0.7,0.7-1.5,1.2-2.3
		l1.7-3.1h1.7l-3.8,6.4v4.8h-1.5V120.8z"/>
	<path id="XMLID_31_" class="st19" d="M83.4,110.9h-3.5v-1.2h8.5v1.2h-3.5v9.9h-1.5V110.9z"/>
	<path id="XMLID_30_" class="st19" d="M91.1,109.7v4.7h5.6v-4.7h1.5v11.2h-1.5v-5.2h-5.6v5.2h-1.5v-11.2H91.1z"/>
	<path id="XMLID_29_" class="st19" d="M102.3,109.7v11.2h-1.5v-11.2H102.3z"/>
	<path id="XMLID_28_" class="st19" d="M104.7,119.1c0.7,0.4,1.6,0.7,2.6,0.7c1.5,0,2.4-0.8,2.4-1.9c0-1-0.6-1.6-2.2-2.2
		c-1.9-0.7-3-1.6-3-3.2c0-1.7,1.5-3,3.7-3c1.2,0,2,0.3,2.5,0.5l-0.4,1.2c-0.4-0.2-1.1-0.5-2.2-0.5c-1.6,0-2.2,0.9-2.2,1.7
		c0,1,0.7,1.6,2.3,2.2c1.9,0.7,2.9,1.6,2.9,3.3s-1.3,3.2-4,3.2c-1.1,0-2.3-0.3-2.9-0.7L104.7,119.1z"/>
	<path id="XMLID_27_" class="st19" d="M118.2,120.8l-2.9-11.2h1.6l1.4,5.6c0.3,1.4,0.6,2.8,0.9,3.9l0,0c0.2-1.1,0.5-2.4,0.9-3.9
		l1.5-5.6h1.6l1.4,5.7c0.3,1.3,0.6,2.7,0.8,3.8l0,0c0.2-1.2,0.6-2.5,0.9-3.9l1.5-5.6h1.5l-3.3,11.2h-1.6l-1.5-5.8
		c-0.4-1.4-0.6-2.5-0.8-3.6l0,0c-0.2,1.1-0.5,2.2-0.9,3.6l-1.6,5.8H118.2L118.2,120.8z"/>
	<path id="XMLID_26_" class="st19" d="M136.7,115.6h-4.5v4h5v1.2h-6.5v-11.2h6.2v1.2h-4.7v3.5h4.5V115.6z"/>
	<path id="XMLID_25_" class="st19" d="M145.1,115.6h-4.5v4h5v1.2h-6.5v-11.2h6.2v1.2h-4.7v3.5h4.5V115.6L145.1,115.6z"/>
	<path id="XMLID_24_" class="st19" d="M147.6,109.7h1.5v5.4h0.1c0.3-0.4,0.6-0.8,0.9-1.2l3.5-4.2h1.8l-4.2,4.7l4.5,6.4h-1.8
		l-3.8-5.5l-1.1,1.2v4.3h-1.5L147.6,109.7L147.6,109.7z"/>
</g>
<path id="XMLID_23_" class="st25" d="M17.5,94.4c56.4,36.3,112.9-35.1,169.3,1.2c-2.6,10-5.1,20.2-7.7,30.6
	c-48.5-17.2-97,38-145.5,28.6C28.2,135.5,22.9,115.4,17.5,94.4z"/>
<polygon id="XMLID_22_" class="st26" points="132,37.4 169.6,37.4 158.1,29.3 "/>
<polygon id="XMLID_21_" class="st26" points="103.7,168 98.8,160.5 92.9,163 "/>
<g id="XMLID_185_">
	<path id="XMLID_20_" class="st19" d="M54.9,130.2c-1.4,2.8-3,4-5,3.7c-0.5-0.1-0.9-0.2-1.2-0.4s-0.6-0.4-0.8-0.7s-0.3-0.5-0.4-0.9
		c-0.1-0.3-0.1-0.6,0-1c0.1-0.6,0.4-1.7,0.9-3l0.6-1.6l-4.5,6.7l-3.3-0.5l0.6-7.2l-0.5,1.4c-0.3,0.9-0.6,1.7-0.9,2.4
		c-0.3,0.7-0.6,1.3-0.9,1.7c-0.3,0.5-0.7,0.8-1.1,1c-0.4,0.2-0.9,0.3-1.6,0.2c-0.4-0.1-0.8-0.2-1.1-0.4s-0.5-0.5-0.7-0.7
		c-0.2-0.3-0.3-0.6-0.4-0.9c-0.1-0.3-0.1-0.7,0-1c0.1-0.5,0.3-1,0.6-1.2c0.3-0.3,0.7-0.4,1.1-0.3c0.4,0.1,0.6,0.2,0.8,0.5
		s0.3,0.6,0.2,0.9c-0.1,0.4-0.2,0.7-0.4,0.8c-0.2,0.2-0.4,0.2-0.7,0.1c0,0.1,0,0.2,0,0.3s0,0.2,0.1,0.3s0.1,0.2,0.3,0.3
		c0.1,0.1,0.3,0.1,0.5,0.2c0.4,0.1,0.8,0,1.1-0.3c0.3-0.2,0.6-0.6,0.8-1s0.4-0.9,0.6-1.5c0.2-0.6,0.4-1.1,0.6-1.7l2-5.6l3.3,0.5
		l-0.7,9.1l5.6-8.4l3.5,0.5l-2,5.6c-0.3,0.7-0.5,1.3-0.7,1.8c-0.2,0.4-0.3,0.8-0.3,1c-0.1,0.7,0.2,1,0.8,1.1c0.2,0,0.4,0,0.6,0
		c0.2-0.1,0.4-0.2,0.5-0.3c0.2-0.2,0.3-0.3,0.5-0.6c0.2-0.2,0.4-0.5,0.6-0.9L54.9,130.2z"/>
	<path id="XMLID_19_" class="st19" d="M65.5,123.7c-0.4,0.3-0.8,0.6-1.2,0.9c-0.4,0.3-0.8,0.6-1.3,0.9c0.4,0.5,0.7,1.3,0.8,2.3
		c0,0.3,0,0.7,0,1.1c0,0.4-0.1,0.8-0.3,1.2c-0.1,0.4-0.3,0.8-0.6,1.2c-0.2,0.4-0.5,0.8-0.9,1.1s-0.8,0.6-1.3,0.8s-1,0.4-1.6,0.4
		c-1.1,0.1-1.9-0.1-2.6-0.5c-0.6-0.5-1-1.2-1.1-2.1c0-0.2,0-0.4,0-0.6c0-0.2,0-0.5,0-0.7l0.8-7.7l3.3-0.3l-0.9,8.5
		c0,0.1,0,0.2,0,0.3s0,0.2,0,0.3c0.1,0.6,0.5,0.9,1.2,0.9c0.3,0,0.6-0.2,0.9-0.4c0.3-0.2,0.5-0.5,0.7-0.9s0.3-0.8,0.4-1.3
		s0.1-1,0.1-1.6c0-0.2-0.1-0.4-0.1-0.5c-0.1-0.1-0.2-0.3-0.3-0.4c-0.1,0.1-0.2,0.1-0.3,0.2c-0.1,0.1-0.2,0.1-0.4,0.1
		c-0.1,0-0.2,0-0.4,0c-0.1,0-0.2-0.1-0.4-0.1c-0.1-0.1-0.2-0.2-0.3-0.3s-0.1-0.3-0.1-0.5s0-0.3,0.1-0.5c0.1-0.1,0.2-0.3,0.3-0.4
		c0.1-0.1,0.3-0.2,0.4-0.2c0.2-0.1,0.3-0.1,0.5-0.1c0.4,0,0.7,0,1,0c0.6-0.3,1.1-0.6,1.5-1c0.5-0.3,0.9-0.7,1.4-1
		c0.4-0.3,0.9-0.7,1.3-1s0.9-0.7,1.5-1l1.5-0.2l-0.9,8.2c0,0.3,0,0.5,0,0.8s0.1,0.5,0.3,0.7c0.2,0.1,0.4,0.1,0.7,0.1
		c0.2,0,0.4-0.1,0.5-0.1s0.2-0.1,0.3-0.1c0,0.4,0,0.8-0.2,1.1c-0.1,0.3-0.3,0.6-0.5,0.8s-0.5,0.4-0.8,0.5s-0.6,0.2-0.9,0.2
		s-0.6,0-0.9-0.1s-0.6-0.2-0.8-0.4c-0.2-0.2-0.4-0.5-0.6-0.8s-0.3-0.8-0.3-1.3c0-0.2,0-0.5,0-0.7c0-0.3,0-0.5,0-0.8L65.5,123.7z"/>
	<path id="XMLID_203_" class="st19" d="M76.1,137.2l-0.8-19l3.3-0.9l0.1,1.8c0.3-0.4,0.6-0.7,1-1s0.9-0.5,1.4-0.7
		c0.4-0.1,0.8-0.1,1.1-0.1c0.4,0,0.7,0.2,1,0.4s0.6,0.5,0.9,1c0.3,0.4,0.5,1,0.7,1.7c0.1,0.5,0.2,1.1,0.3,1.7
		c0.1,0.6,0.1,1.3,0.1,1.9c0,0.6-0.1,1.3-0.2,1.9c-0.1,0.6-0.4,1.2-0.7,1.7c-0.3,0.5-0.7,1-1.2,1.4s-1.1,0.7-1.9,0.9
		c-0.3,0.1-0.6,0.1-0.8,0.1s-0.4,0-0.6,0s-0.3-0.1-0.4-0.2c-0.1-0.1-0.2-0.2-0.3-0.2l0.3,5.9L76.1,137.2z M79,127.8
		c0.1,0.1,0.2,0.2,0.4,0.3c0.2,0.1,0.4,0.1,0.6,0c0.4-0.1,0.7-0.3,1-0.6s0.5-0.6,0.6-1c0.2-0.4,0.3-0.8,0.3-1.3
		c0.1-0.5,0.1-1,0.1-1.4c0-0.5-0.1-1-0.1-1.4c-0.1-0.5-0.1-0.9-0.2-1.2c-0.1-0.4-0.2-0.8-0.4-1c-0.1-0.2-0.3-0.4-0.4-0.5
		s-0.3-0.1-0.4-0.1s-0.3,0-0.4,0c-0.3,0.1-0.5,0.2-0.7,0.5s-0.4,0.6-0.5,1L79,127.8z"/>
	<path id="XMLID_200_" class="st19" d="M99.7,120c0,0.7-0.1,1.3-0.2,1.8s-0.3,1-0.4,1.4c-0.2,0.4-0.4,0.7-0.6,1s-0.5,0.5-0.7,0.7
		s-0.5,0.3-0.7,0.4c-0.2,0.1-0.4,0.2-0.6,0.3c-0.6,0.2-1.2,0.2-1.7-0.1c-0.5-0.2-0.9-0.7-1.2-1.3c-0.1,0.3-0.2,0.6-0.4,0.9
		s-0.3,0.6-0.5,0.9c-0.2,0.3-0.5,0.5-0.8,0.8c-0.3,0.2-0.7,0.4-1.1,0.5s-0.8,0.2-1.2,0.2c-0.4,0-0.8-0.1-1.1-0.3
		c-0.4-0.2-0.7-0.5-1-0.9s-0.6-1-0.8-1.6c-0.2-0.5-0.3-1.1-0.3-1.7c-0.1-0.6-0.1-1.3-0.1-1.9c0-0.7,0.1-1.3,0.3-1.9
		c0.2-0.6,0.4-1.2,0.7-1.8c0.3-0.5,0.7-1,1.2-1.4s1-0.7,1.7-0.9c0.6-0.2,1.1-0.2,1.5-0.1s0.6,0.4,0.7,0.7l0.1,0.2l-0.1-1.3l3.3-1
		l0.7,8.2c0,0.1,0,0.3,0,0.4c0,0.1,0.1,0.2,0.1,0.4c0.2,0.6,0.6,0.9,1.2,0.7c0.2-0.1,0.4-0.2,0.6-0.4s0.3-0.4,0.4-0.6
		c0.1-0.2,0.2-0.5,0.2-0.8s0.1-0.6,0-0.9L99.7,120z M92.4,116.6c0-0.1-0.1-0.1-0.1-0.2s-0.1-0.2-0.2-0.2c-0.1-0.1-0.2-0.1-0.4-0.1
		c-0.1,0-0.3,0-0.5,0c-0.3,0.1-0.6,0.3-0.8,0.6c-0.2,0.3-0.4,0.6-0.5,1.1c-0.1,0.4-0.2,0.9-0.3,1.4c-0.1,0.5-0.1,1-0.1,1.5
		s0,1,0.1,1.4c0.1,0.5,0.2,0.9,0.3,1.2c0.1,0.4,0.3,0.8,0.4,1c0.2,0.2,0.3,0.4,0.5,0.4c0.1,0.1,0.3,0.1,0.4,0.1s0.3,0,0.4-0.1
		c0.2-0.1,0.3-0.1,0.5-0.3c0.2-0.1,0.3-0.3,0.4-0.5s0.2-0.5,0.3-0.8c0.1-0.3,0.1-0.6,0.1-1L92.4,116.6z"/>
	<path id="XMLID_197_" class="st19" d="M102.5,109.1c-0.1,0-0.1,0.1-0.2,0.1c0,0-0.1,0.1,0,0.3c0,0.1,0.1,0.1,0.3,0.3
		c0.2,0.1,0.4,0.3,0.6,0.4c0.2,0.2,0.5,0.4,0.8,0.6s0.6,0.5,0.9,0.9c0.3,0.3,0.6,0.7,0.8,1.1c0.3,0.4,0.5,0.9,0.6,1.5
		c0.2,0.6,0.3,1.1,0.4,1.8c0.1,0.6,0.1,1.2,0,1.8c0,0.6-0.1,1.2-0.3,1.8c-0.2,0.6-0.4,1.1-0.7,1.6c-0.3,0.5-0.6,0.9-1.1,1.3
		c-0.4,0.4-0.9,0.6-1.5,0.8s-1.1,0.3-1.6,0.2s-0.9-0.1-1.4-0.3c-0.4-0.2-0.8-0.5-1.1-1c-0.3-0.4-0.6-1-0.8-1.6
		c-0.3-0.9-0.4-1.7-0.4-2.7c0-0.9,0.2-1.8,0.5-2.6c0.3-0.8,0.8-1.6,1.4-2.2s1.5-1.1,2.5-1.4c0.1,0,0.2,0,0.2-0.1c0.1,0,0.1,0,0.2,0
		c-0.4-0.3-0.8-0.5-1.2-0.7c-0.4-0.2-0.8-0.4-1.2-0.6c-0.4-0.2-0.7-0.4-1-0.7c-0.3-0.3-0.5-0.6-0.6-0.9c-0.2-0.6-0.1-1.1,0.2-1.4
		c0.3-0.4,0.9-0.7,1.7-1l3.4-1.1c0.4-0.1,0.7-0.2,1-0.3c0.3-0.1,0.5-0.2,0.6-0.3c0.1-0.1,0.2-0.3,0.3-0.4c0-0.2,0.1-0.4,0-0.8l1-0.3
		c0.1,0.9,0.1,1.7,0.1,2.3c0,0.6-0.1,1.1-0.3,1.5c-0.2,0.4-0.5,0.7-0.8,0.9c-0.4,0.2-0.8,0.4-1.4,0.6L102.5,109.1z M103.5,121.1
		c0.3-0.1,0.6-0.3,0.8-0.6c0.2-0.3,0.3-0.7,0.4-1.1c0.1-0.4,0.1-0.9,0.1-1.4s0-1-0.1-1.4c-0.1-0.5-0.1-0.9-0.2-1.3s-0.1-0.7-0.2-0.8
		c-0.1-0.3-0.2-0.5-0.3-0.7c-0.1-0.2-0.2-0.3-0.3-0.4c-0.1-0.1-0.2-0.1-0.3-0.1c-0.1,0-0.3,0-0.4,0c-0.4,0.1-0.7,0.3-0.9,0.6
		c-0.2,0.3-0.4,0.7-0.5,1.1s-0.2,0.9-0.2,1.4c0,0.5,0,1,0,1.4c0,0.5,0.1,0.9,0.1,1.2c0.1,0.4,0.1,0.7,0.2,0.9
		c0.1,0.3,0.2,0.6,0.3,0.8c0.1,0.2,0.2,0.4,0.4,0.5c0.1,0.1,0.3,0.2,0.4,0.2C103.1,121.2,103.3,121.2,103.5,121.1z"/>
	<path id="XMLID_194_" class="st19" d="M119.8,109c-0.3,0.6-0.8,1.2-1.4,1.7s-1.3,1-2.1,1.4c0.2,1.1,0.3,2.1,0.2,3
		c-0.1,0.9-0.3,1.8-0.6,2.5c-0.3,0.7-0.7,1.3-1.3,1.8s-1.1,0.9-1.8,1.1c-0.5,0.2-1,0.2-1.5,0.2s-0.9-0.1-1.3-0.3s-0.8-0.5-1.1-0.9
		c-0.3-0.4-0.6-0.9-0.8-1.6c-0.1-0.4-0.2-1-0.3-1.6c-0.1-0.6-0.1-1.2-0.1-1.9c0-0.7,0.1-1.3,0.3-2c0.2-0.7,0.4-1.3,0.7-1.9
		c0.3-0.6,0.8-1.1,1.3-1.6s1.2-0.8,2-1c1.9-0.6,3.3,0.4,4,2.8l0,0h0.1h0.1c0.3-0.1,0.5-0.2,0.8-0.4c0.3-0.2,0.6-0.4,0.8-0.6
		c0.3-0.2,0.5-0.5,0.8-0.7c0.2-0.3,0.5-0.5,0.7-0.7L119.8,109z M114.5,112.7c-0.3,0-0.4-0.1-0.6-0.2c-0.1-0.1-0.2-0.3-0.3-0.6
		c-0.1-0.3-0.1-0.6,0-0.8c0.1-0.2,0.2-0.4,0.4-0.6c-0.1-0.2-0.2-0.4-0.3-0.6c-0.1-0.2-0.2-0.3-0.3-0.4c-0.1-0.1-0.2-0.1-0.3-0.2
		c-0.1,0-0.2,0-0.4,0c-0.3,0.1-0.5,0.3-0.7,0.5c-0.2,0.3-0.3,0.6-0.5,1c-0.1,0.4-0.2,0.9-0.3,1.4c-0.1,0.5-0.1,1-0.1,1.5
		s0,1,0.1,1.5s0.1,0.9,0.3,1.3c0.1,0.4,0.2,0.7,0.3,0.9c0.1,0.2,0.2,0.4,0.4,0.5c0.1,0.1,0.3,0.2,0.4,0.2c0.2,0,0.4,0,0.6-0.1
		c0.3-0.1,0.5-0.3,0.7-0.6s0.4-0.7,0.5-1.2s0.2-1.1,0.2-1.7S114.6,113.4,114.5,112.7z"/>
	<path id="XMLID_10_" class="st19" d="M136.7,110.1c-0.1,1-0.3,1.9-0.5,2.5s-0.5,1.2-0.8,1.5c-0.3,0.4-0.6,0.7-1,0.8
		c-0.3,0.2-0.7,0.3-1,0.4c-0.5,0.1-1,0.1-1.3,0.1c-0.4-0.1-0.7-0.2-1-0.4c-0.3-0.2-0.5-0.4-0.6-0.7c-0.2-0.3-0.3-0.6-0.4-0.9
		c-0.1-0.4-0.1-0.9-0.1-1.4s0-1.1,0-1.7s0-1.1,0-1.7c0-0.5,0-1-0.1-1.4c-0.2-0.8-0.5-1.1-1.1-1c-0.2,0-0.4,0.1-0.5,0.3
		c-0.2,0.2-0.3,0.3-0.4,0.6c-0.1,0.2-0.2,0.5-0.3,0.8c-0.1,0.3-0.1,0.6-0.1,0.9l0.1,7.8l-3.3,0.7l-0.1-8.4c0-0.2,0-0.4-0.1-0.6
		c0-0.1-0.1-0.3-0.1-0.4c-0.1-0.1-0.1-0.2-0.2-0.3c-0.1-0.1-0.2-0.1-0.3-0.2c-0.1,0-0.2,0-0.4,0c-0.2,0.1-0.4,0.2-0.6,0.3
		s-0.3,0.3-0.4,0.6c-0.1,0.2-0.2,0.5-0.3,0.8c-0.1,0.3-0.1,0.6-0.1,0.9l0.1,7.8l-3.3,0.7l-0.1-12.1l3.3-0.7v1.2
		c0.2-0.3,0.4-0.6,0.6-0.8s0.4-0.4,0.6-0.6c0.2-0.1,0.4-0.3,0.7-0.3c0.2-0.1,0.4-0.1,0.6-0.2c0.3-0.1,0.6-0.1,0.9-0.1
		s0.5,0.1,0.8,0.2c0.2,0.1,0.5,0.3,0.7,0.5s0.4,0.5,0.5,0.9c0.2-0.5,0.4-0.9,0.6-1.2c0.2-0.3,0.5-0.6,0.7-0.8
		c0.2-0.2,0.5-0.3,0.7-0.4s0.5-0.2,0.7-0.2c0.4-0.1,0.7-0.1,1.1-0.1c0.3,0,0.6,0.1,0.9,0.3s0.5,0.4,0.7,0.7c0.2,0.3,0.4,0.7,0.5,1.1
		c0.1,0.3,0.1,0.6,0.1,1s0,0.7,0,1.1s0,0.8,0,1.2c0,0.4,0,0.8,0,1.1c0,0.4,0,0.7,0,1s0,0.6,0.1,0.8c0.1,0.3,0.2,0.5,0.4,0.7
		s0.4,0.2,0.8,0.1c0.2-0.1,0.5-0.2,0.6-0.3c0.2-0.1,0.3-0.3,0.4-0.5c0.1-0.2,0.2-0.5,0.3-0.7c0.1-0.3,0.1-0.6,0.2-0.9L136.7,110.1z"
		/>
	<path id="XMLID_190_" class="st19" d="M149.2,109.1c-0.2,0.7-0.3,1.2-0.6,1.7c-0.2,0.5-0.4,0.9-0.7,1.3c-0.2,0.3-0.5,0.6-0.8,0.9
		c-0.3,0.2-0.5,0.4-0.8,0.5s-0.5,0.2-0.8,0.3c-0.3,0.1-0.5,0.1-0.7,0.1c-0.7,0.1-1.2-0.1-1.6-0.4c-0.4-0.3-0.7-0.8-0.9-1.5
		c-0.2,0.3-0.4,0.6-0.6,0.8c-0.2,0.3-0.4,0.5-0.7,0.8c-0.3,0.2-0.6,0.4-0.9,0.6c-0.3,0.2-0.7,0.3-1.1,0.3c-0.4,0-0.8,0-1.2-0.1
		s-0.7-0.3-1.1-0.5c-0.3-0.3-0.6-0.6-0.8-1.1s-0.4-1-0.4-1.7c-0.1-0.5-0.1-1.1,0-1.7c0-0.6,0.2-1.3,0.3-1.9c0.2-0.6,0.4-1.3,0.7-1.8
		c0.3-0.6,0.6-1.1,1-1.6s0.9-0.9,1.4-1.2c0.5-0.3,1.2-0.5,1.8-0.6c0.7-0.1,1.2,0,1.5,0.2s0.5,0.5,0.5,0.8v0.2l0.1-1.3l3.4-0.3
		l-0.9,8.2c0,0.1,0,0.3,0,0.4s0,0.3,0,0.4c0.1,0.7,0.4,1,1.1,0.9c0.2,0,0.4-0.1,0.6-0.2c0.2-0.1,0.3-0.3,0.5-0.5
		c0.1-0.2,0.3-0.5,0.4-0.7c0.1-0.3,0.2-0.6,0.2-0.9L149.2,109.1z M142.7,104.4c0-0.1,0-0.2-0.1-0.3s-0.1-0.2-0.2-0.3
		c-0.1-0.1-0.2-0.2-0.3-0.2c-0.1-0.1-0.3-0.1-0.5-0.1c-0.3,0-0.6,0.2-0.9,0.4c-0.3,0.2-0.5,0.6-0.7,0.9c-0.2,0.4-0.4,0.8-0.5,1.3
		s-0.3,1-0.4,1.4c-0.1,0.5-0.1,1-0.2,1.4c0,0.5,0,0.9,0,1.3c0,0.5,0.1,0.8,0.2,1c0.1,0.2,0.2,0.4,0.4,0.5c0.1,0.1,0.3,0.2,0.4,0.2
		c0.1,0,0.3,0,0.4,0c0.2,0,0.4-0.1,0.5-0.2c0.2-0.1,0.4-0.3,0.5-0.4c0.2-0.2,0.3-0.4,0.4-0.7c0.1-0.3,0.2-0.6,0.3-0.9L142.7,104.4z"
		/>
	<path id="XMLID_187_" class="st19" d="M158.1,109.5c-0.3,0.5-0.7,1.1-1.2,1.6c-0.4,0.5-0.9,1-1.5,1.4c-0.5,0.4-1.1,0.7-1.8,0.9
		c-0.7,0.2-1.4,0.3-2.2,0.3c-0.6,0-1.1-0.1-1.5-0.3c-0.5-0.2-0.8-0.4-1.1-0.7c-0.3-0.3-0.6-0.7-0.7-1.2c-0.2-0.5-0.2-1.1-0.2-1.7
		c0-0.5,0.1-1,0.2-1.6c0.1-0.6,0.3-1.2,0.5-1.8c0.2-0.6,0.5-1.2,0.8-1.8c0.3-0.6,0.8-1.1,1.2-1.6c0.5-0.5,1-0.8,1.7-1.1
		s1.4-0.4,2.2-0.4c0.5,0,1,0.1,1.3,0.2s0.6,0.3,0.8,0.5s0.3,0.5,0.4,0.7c0.1,0.3,0.1,0.6,0.1,0.9c0,0.7-0.2,1.3-0.5,1.9
		s-0.7,1.1-1.2,1.5s-1.1,0.8-1.8,1c-0.7,0.3-1.3,0.4-2.1,0.4c0,0.2,0,0.3-0.1,0.5c0,0.2,0,0.3,0,0.4c0,0.4,0,0.7,0.1,1
		s0.2,0.5,0.3,0.6s0.3,0.3,0.5,0.3c0.2,0.1,0.5,0.1,0.7,0.1c0.5,0,0.9,0,1.3-0.2c0.4-0.1,0.7-0.3,1.1-0.5c0.3-0.2,0.7-0.5,1-0.7
		c0.3-0.3,0.6-0.6,0.9-0.9L158.1,109.5z M151.7,107.7c0.4,0,0.9-0.1,1.3-0.3c0.4-0.2,0.8-0.5,1.1-0.8c0.3-0.4,0.6-0.8,0.8-1.2
		c0.2-0.5,0.3-0.9,0.3-1.4c0-0.3,0-0.5-0.1-0.7s-0.2-0.3-0.5-0.3s-0.6,0.1-0.9,0.4c-0.3,0.3-0.6,0.6-0.8,1.1c-0.3,0.5-0.5,1-0.7,1.5
		C152,106.5,151.8,107.1,151.7,107.7z"/>
	<path id="XMLID_5_" class="st19" d="M162.6,114.6l1.1-7.2l-0.6,1.4c-0.4,0.9-0.7,1.7-1.1,2.3c-0.3,0.7-0.7,1.2-1,1.7
		c-0.4,0.4-0.8,0.7-1.2,0.9c-0.4,0.2-1,0.2-1.6,0.1c-0.4-0.1-0.8-0.3-1.1-0.5s-0.5-0.5-0.7-0.8s-0.2-0.6-0.3-1c0-0.3,0-0.7,0-1
		c0.1-0.5,0.3-0.9,0.7-1.2c0.3-0.3,0.7-0.3,1.2-0.2c0.4,0.1,0.6,0.3,0.8,0.5c0.2,0.3,0.2,0.6,0.1,0.9c-0.1,0.4-0.2,0.6-0.5,0.8
		c-0.2,0.1-0.5,0.2-0.7,0.1c0,0.1,0,0.2,0,0.3c0,0.1,0,0.2,0.1,0.3c0,0.1,0.1,0.2,0.2,0.3c0.1,0.1,0.3,0.1,0.4,0.2
		c0.4,0.1,0.8,0,1.1-0.2s0.6-0.5,0.9-0.9c0.3-0.4,0.5-0.9,0.7-1.4s0.5-1.1,0.7-1.7l2.4-5.5l3.2,0.7l-1.4,9l6.2-8l3.4,0.7l-3.4,7.5
		c-0.1,0.1-0.1,0.2-0.2,0.4c0,0.1-0.1,0.2-0.1,0.4c-0.1,0.3,0,0.6,0.1,0.7c0.1,0.2,0.4,0.3,0.7,0.3c0.2,0,0.4,0.1,0.5,0.1
		s0.2,0,0.3,0c-0.1,0.4-0.3,0.7-0.5,1s-0.5,0.5-0.7,0.6c-0.3,0.1-0.6,0.2-0.9,0.3c-0.3,0-0.6,0-0.9-0.1c-0.3-0.1-0.6-0.2-0.9-0.4
		c-0.3-0.2-0.5-0.4-0.6-0.7c-0.2-0.3-0.3-0.6-0.3-1s0-0.8,0.1-1.3c0-0.1,0-0.2,0.1-0.2c0-0.1,0.1-0.2,0.1-0.3c0-0.1,0.1-0.3,0.2-0.5
		c0.1-0.2,0.2-0.4,0.3-0.7c0.1-0.3,0.3-0.6,0.5-1s0.4-0.9,0.6-1.4l-4.9,6.3L162.6,114.6z"/>
</g>
<g id="XMLID_179_">
	<path id="XMLID_4_" class="st19" d="M120.5,64c-1.4,4-3.4,5.9-6.1,5.9c-0.7,0-1.2-0.1-1.7-0.3c-0.5-0.2-0.9-0.5-1.2-0.8
		c-0.3-0.3-0.5-0.7-0.7-1.1c-0.1-0.4-0.2-0.8-0.2-1.3s0.1-1,0.2-1.7s0.3-1.6,0.6-2.6l1.5-6.4c-0.6,0-1,0.1-1.5,0.3s-0.8,0.6-1.1,1.1
		c-0.3,0.5-0.6,1.1-0.9,1.9s-0.5,1.7-0.8,2.8c-0.3,1.3-0.6,2.4-0.8,3.4c-0.3,1-0.6,1.8-1,2.5s-0.9,1.2-1.4,1.5
		c-0.6,0.3-1.3,0.5-2.2,0.5c-0.6,0-1.2-0.1-1.6-0.3c-0.4-0.2-0.8-0.5-1.1-0.8c-0.3-0.3-0.5-0.7-0.6-1.2c-0.1-0.4-0.2-0.9-0.2-1.3
		c0-0.8,0.2-1.4,0.5-1.8c0.4-0.5,0.9-0.7,1.5-0.7c0.5,0,0.9,0.2,1.2,0.5c0.3,0.3,0.5,0.7,0.4,1.2c0,0.5-0.1,0.9-0.4,1.2
		c-0.3,0.3-0.6,0.4-0.9,0.3c0,0.1,0,0.2,0.1,0.4c0,0.1,0.1,0.2,0.2,0.3c0.1,0.1,0.2,0.2,0.4,0.2c0.2,0.1,0.4,0.1,0.6,0.1
		c0.5,0,1-0.2,1.3-0.5s0.6-0.8,0.8-1.4c0.2-0.6,0.4-1.2,0.6-2s0.3-1.5,0.5-2.4c0.4-1.7,0.8-3,1.2-4.1c0.4-1,0.9-1.8,1.4-2.4
		s1.1-1,1.7-1.2s1.3-0.3,2-0.3l4.8,0.1l-1.8,8c-0.3,1-0.5,1.9-0.6,2.5s-0.2,1.1-0.2,1.3c0,0.9,0.4,1.4,1.3,1.4c0.3,0,0.6,0,0.8-0.2
		c0.2-0.1,0.5-0.3,0.7-0.5s0.4-0.5,0.6-0.9s0.4-0.8,0.6-1.3L120.5,64z"/>
	<path id="XMLID_181_" class="st19" d="M132.6,64.1c-0.5,0.7-1,1.5-1.6,2.2s-1.3,1.3-2,1.9c-0.7,0.5-1.5,1-2.4,1.3s-1.9,0.5-2.9,0.5
		c-0.8,0-1.5-0.1-2.1-0.3c-0.6-0.2-1.1-0.5-1.6-0.9s-0.8-0.9-1-1.6c-0.2-0.6-0.3-1.4-0.3-2.3c0-0.6,0.1-1.3,0.2-2.1
		c0.1-0.8,0.3-1.6,0.6-2.5c0.3-0.8,0.7-1.7,1.1-2.5c0.5-0.8,1-1.5,1.7-2.2c0.6-0.6,1.4-1.1,2.3-1.5s1.8-0.6,2.9-0.6
		c0.7,0,1.3,0.1,1.8,0.3c0.5,0.2,0.8,0.4,1.1,0.7c0.3,0.3,0.4,0.6,0.5,1s0.1,0.8,0.1,1.2c0,0.9-0.2,1.8-0.6,2.6
		c-0.4,0.8-1,1.5-1.7,2.1s-1.5,1.1-2.4,1.4c-0.9,0.4-1.8,0.6-2.8,0.6c0,0.2,0,0.5-0.1,0.7c0,0.2,0,0.4,0,0.6c0,0.5,0,1,0.1,1.3
		c0.1,0.4,0.2,0.6,0.4,0.8c0.2,0.2,0.4,0.3,0.7,0.4c0.3,0.1,0.6,0.1,1,0.1c0.6,0,1.2-0.1,1.7-0.2c0.5-0.2,1-0.4,1.5-0.7
		c0.5-0.3,0.9-0.6,1.3-1c0.4-0.4,0.8-0.8,1.2-1.3H132.6z M123.8,61.7c0.6,0,1.2-0.2,1.8-0.5c0.6-0.3,1.1-0.7,1.5-1.2s0.8-1,1.1-1.7
		s0.4-1.3,0.4-1.9c0-0.4,0-0.7-0.2-1c-0.1-0.2-0.3-0.4-0.6-0.4c-0.4,0-0.8,0.2-1.2,0.6s-0.8,0.9-1.1,1.5c-0.4,0.6-0.7,1.3-0.9,2.1
		C124.2,60.2,124,61,123.8,61.7z"/>
	<path id="XMLID_1_" class="st19" d="M138.2,70l2.5-11.1c0.1-0.3,0.1-0.5,0.1-0.8c0-0.2,0-0.4,0-0.5c0-0.2-0.1-0.3-0.2-0.5
		c-0.1-0.1-0.2-0.2-0.3-0.3c-0.1-0.1-0.3-0.1-0.5-0.1c-0.3,0-0.6,0.1-0.9,0.2c-0.3,0.2-0.5,0.4-0.7,0.6c-0.2,0.3-0.4,0.6-0.6,1
		c-0.2,0.4-0.3,0.8-0.5,1.2L134.8,70l-4.6-0.1l3.6-16.1l4.6,0.1l-0.4,1.7c0.4-0.4,0.7-0.7,1-0.9c0.3-0.2,0.7-0.4,1-0.5
		s0.7-0.2,1-0.3c0.3,0,0.6-0.1,0.9-0.1c0.4,0,0.8,0.1,1.2,0.2s0.7,0.3,1,0.5s0.5,0.5,0.7,0.9s0.3,0.8,0.4,1.3
		c0.4-0.6,0.8-1.1,1.2-1.4c0.4-0.4,0.8-0.6,1.2-0.8s0.8-0.3,1.1-0.4c0.4-0.1,0.7-0.1,1-0.1c0.5,0,1,0.1,1.4,0.2s0.8,0.4,1.1,0.7
		c0.3,0.3,0.6,0.7,0.7,1.1c0.2,0.5,0.3,1,0.2,1.7c0,0.4-0.1,0.9-0.1,1.4c-0.1,0.5-0.2,1-0.3,1.5s-0.2,1-0.4,1.5
		c-0.1,0.5-0.3,1-0.4,1.5c-0.1,0.5-0.2,0.9-0.3,1.3s-0.1,0.8-0.1,1.1c0,0.4,0.1,0.7,0.3,1s0.5,0.4,1,0.4s0.9-0.1,1.1-0.2
		c-0.1,0.6-0.2,1.1-0.5,1.5c-0.2,0.4-0.5,0.8-0.8,1c-0.3,0.3-0.7,0.5-1.1,0.6c-0.4,0.1-0.8,0.2-1.2,0.2c-0.6,0-1.1-0.1-1.5-0.3
		c-0.4-0.2-0.7-0.5-1-0.8c-0.2-0.3-0.4-0.7-0.5-1.2c-0.1-0.4-0.1-0.9-0.1-1.3c0-0.5,0.1-1.2,0.3-1.9c0.2-0.7,0.3-1.5,0.5-2.2
		c0.2-0.8,0.4-1.5,0.5-2.2c0.2-0.7,0.2-1.3,0.3-1.8c0-1.1-0.4-1.7-1.1-1.7c-0.3,0-0.6,0.1-0.8,0.2c-0.3,0.2-0.5,0.4-0.7,0.6
		c-0.2,0.3-0.4,0.6-0.6,0.9c-0.2,0.4-0.3,0.7-0.5,1.2l-2.3,10H138.2z"/>
</g>
</svg>
