<?xml version="1.0" encoding="utf-8"?>
<!-- Generator: Adobe Illustrator 19.0.0, SVG Export Plug-In . SVG Version: 6.00 Build 0)  -->
<svg version="1.1" id="Layer_1" xmlns="http://www.w3.org/2000/svg" xmlns:xlink="http://www.w3.org/1999/xlink" x="0px" y="0px"
	 viewBox="0 0 200 200" style="enable-background:new 0 0 200 200;" xml:space="preserve">
<style type="text/css">
	.st0{fill:#343433;stroke:#FFFFFF;stroke-width:3;stroke-miterlimit:10;}
	.st1{fill:#F17523;stroke:#FFFFFF;stroke-width:3;stroke-miterlimit:10;}
	.st2{fill:#F78D38;stroke:#FFFFFF;stroke-width:3;stroke-miterlimit:10;}
	.st3{opacity:0.26;fill:#010101;stroke:#FFFFFF;stroke-width:3;stroke-miterlimit:10;enable-background:new    ;}
	.st4{fill:#FFFFFF;stroke:#FFFFFF;stroke-width:3;stroke-miterlimit:10;}
	.st5{fill:#343433;}
	.st6{fill:#F17523;}
	.st7{fill:#F78D38;}
	.st8{opacity:0.26;fill:#010101;enable-background:new    ;}
	.st9{opacity:0.48;fill:url(#XMLID_85_);enable-background:new    ;}
	.st10{fill:#FFFFFF;}
</style>
<g id="XMLID_137_">
	<polygon id="XMLID_81_" class="st0" points="162.4,193.4 40.3,154.8 40.6,117.8 	"/>
	<polygon id="XMLID_80_" class="st0" points="32.2,113 49,115.9 168.4,88.4 32.5,75.9 	"/>
	<polygon id="XMLID_79_" class="st1" points="147.8,164.8 48.9,145.3 59.5,49.4 128.5,23.8 	"/>
	<polygon id="XMLID_78_" class="st2" points="153.6,84.3 32.2,113 32.5,75.9 156.3,46.6 	"/>
	<polygon id="XMLID_77_" class="st2" points="168,125.5 40.3,155.1 40.6,117.9 168.4,88.4 	"/>
	<polygon id="XMLID_76_" class="st2" points="139,46.6 144.9,28.8 162.4,27 	"/>
	<polygon id="XMLID_75_" class="st2" points="65.4,164.8 27,157.8 36.3,168.7 	"/>
	<polygon id="XMLID_74_" class="st2" points="150.7,133.6 176.7,130.6 172.5,136.8 	"/>
	<polygon id="XMLID_73_" class="st3" points="53,108.1 138.3,95.3 137.3,88.1 	"/>
	<polygon id="XMLID_72_" class="st3" points="66.9,148.9 144.2,138.3 143.2,131.2 	"/>
	<path id="XMLID_71_" class="st0" d="M23,43.9c2.1-9.6,15.4-15.4,29.7-13.1c14.3,2.3,24.1,12,22,21.5c-0.9,3.9-3.5,7.1-7.3,9.5
		L75,73.7l-20.1-7.9c-3.1,0.3-6.5,0.2-9.9-0.3C30.8,63.1,20.9,53.4,23,43.9z"/>
	<g id="XMLID_174_">
		<path id="XMLID_176_" class="st4" d="M46.6,48.3c-0.3,0.3-0.5,0.6-0.8,0.9c-0.8,0.8-1.9,1.1-3,1.1c-0.9,0-1.8,0-2.8,0
			c0,0.2,0,0.3,0,0.5c0,1.2,0,2.4,0,3.5c0,0.4-0.1,0.6-0.6,0.6c-0.7,0-1.4,0-2.1,0c-0.4,0-0.6-0.2-0.6-0.6c0-0.3,0-0.5,0-0.8
			c-2.2,1.9-4.7,2.1-7.3,1.1c-1.7-0.7-2.6-2-2.7-3.9c0-0.5,0.1-0.6,0.6-0.6c0.7,0,1.4,0,2.1,0c0.3,0,0.5,0.1,0.5,0.5
			c0.1,1.1,0.6,1.6,1.7,1.8c0.6,0.1,1.3,0,1.9-0.1c0.5-0.1,0.8-0.4,0.9-1c0-0.6-0.3-0.9-0.8-1.1c-0.9-0.3-1.8-0.6-2.7-0.8
			c-0.5-0.2-1-0.3-1.4-0.5c-1.3-0.6-2.3-1.5-2.4-3c-0.2-1.7,0.5-3,2-3.8c2-1.1,4.1-1,6.2,0.1c0.5,0.3,1,0.8,1.4,1.3
			c0-0.4,0-0.8,0-1.2c0-0.5,0.1-0.6,0.6-0.6c2.9,0,5.8,0,8.6,0c0.4,0,0.6,0.1,0.7,0.5c0.8,1.5,1.7,2.9,2.5,4.5
			c0.1-0.2,0.2-0.3,0.2-0.4c0.7-1.3,1.4-2.7,2.1-4c0.2-0.3,0.4-0.4,0.7-0.4c0.8,0,1.6,0,2.3,0c0.5,0,0.7,0.3,0.4,0.7
			c-2.2,4.1-4.3,8.1-6.5,12.2c-0.2,0.3-0.3,0.4-0.7,0.4c-0.8,0-1.5,0-2.3,0c-0.5,0-0.7-0.3-0.4-0.7c0.7-1.3,1.4-2.7,2.1-4
			c0.1-0.2,0.2-0.4,0-0.7C47.1,49.1,46.8,48.7,46.6,48.3z M36.7,46c-0.7,0-1.4,0-2.1,0c-0.4,0-0.6-0.1-0.6-0.6
			c-0.1-0.7-0.5-1.1-1.1-1.3c-0.4-0.1-0.9-0.1-1.3-0.1c-0.4,0.1-0.8,0.2-1,0.4c-0.5,0.4-0.3,1.2,0.3,1.4c0.4,0.2,0.8,0.3,1.2,0.4
			c1.6,0.5,3.3,0.6,4.6,2C36.7,47.5,36.7,46.8,36.7,46z M40,47.5c0.9,0,1.8,0.1,2.7,0c0.9-0.1,1.3-0.6,1.2-1.6
			c0-0.9-0.4-1.4-1.3-1.5c-0.8-0.1-1.5,0-2.3,0c-0.1,0-0.3,0.2-0.3,0.2C40,45.6,40,46.6,40,47.5z"/>
		<path id="XMLID_67_" class="st4" d="M58.2,51.5c-1,0-1.9,0-2.7,0c-0.5,0-0.6-0.1-0.6-0.6c0-1.7,0-3.4,0-5.1c0-0.5,0.1-0.6,0.6-0.6
			c0.7,0,1.5,0,2.2,0c0.2,0,0.3,0,0.5,0c0-0.7,0-1.3,0-2c0-0.3,0-0.7,0-1c0-0.5,0.1-0.6,0.6-0.6c1.9,0,3.8,0,5.8,0c0,0,0.1,0,0.1,0
			c0.4,0,0.5,0.2,0.5,0.5c0,0.9,0,1.7,0,2.6c0,0.4,0.1,0.5,0.5,0.5c0.8,0,1.5,0,2.3,0c0.5,0,0.7,0.1,0.7,0.6c0,1.7,0,3.4,0,5.1
			c0,0.5-0.1,0.6-0.6,0.6c-0.8,0-1.6,0-2.3,0c-0.3,0-0.4,0.1-0.4,0.4c0,0.8,0,1.7,0,2.5c0,0.4-0.2,0.5-0.5,0.5c-2,0-3.9,0-5.9,0
			c-0.4,0-0.5-0.1-0.5-0.6c0-0.8,0-1.6,0-2.4C58.2,51.8,58.2,51.7,58.2,51.5z"/>
	</g>
	<g id="XMLID_161_">
		<path id="XMLID_171_" class="st4" d="M68,78.4c-0.1,0-0.2,0.1-0.2,0.1c-0.1,0.1-0.1,0.2,0,0.3c0,0.1,0.1,0.2,0.3,0.3
			c0.2,0.2,0.4,0.3,0.7,0.6c0.3,0.2,0.6,0.5,1,0.8c0.4,0.3,0.7,0.7,1,1.1c0.3,0.4,0.6,0.9,0.9,1.5c0.3,0.6,0.5,1.2,0.7,1.9
			c0.2,0.7,0.3,1.4,0.3,2.2c0,0.8,0,1.5-0.1,2.3c-0.1,0.8-0.3,1.5-0.5,2.2c-0.2,0.7-0.6,1.4-1,1.9c-0.4,0.6-0.9,1.1-1.4,1.5
			c-0.6,0.4-1.2,0.7-1.9,0.9c-0.7,0.2-1.4,0.2-2,0.2c-0.6-0.1-1.2-0.2-1.6-0.5c-0.5-0.3-0.9-0.7-1.2-1.3c-0.3-0.6-0.6-1.2-0.8-2.1
			c-0.3-1.1-0.3-2.2-0.2-3.3s0.4-2.2,0.8-3.2c0.5-1,1.1-1.8,2-2.6c0.8-0.7,1.9-1.2,3.1-1.5c0.1,0,0.2,0,0.3,0c0.1,0,0.2,0,0.2,0
			c-0.5-0.4-1-0.7-1.5-1c-0.5-0.3-1-0.6-1.4-0.9c-0.4-0.3-0.8-0.6-1.1-0.9c-0.3-0.3-0.5-0.7-0.6-1.2c-0.2-0.7-0.1-1.3,0.4-1.8
			c0.4-0.5,1.1-0.8,2.2-1.1l4.3-1c0.5-0.1,0.9-0.2,1.3-0.3c0.3-0.1,0.6-0.2,0.8-0.3c0.2-0.1,0.3-0.3,0.4-0.5
			c0.1-0.2,0.1-0.5,0.1-0.9l1.2-0.3c0,1.1,0,2.1-0.1,2.8c-0.1,0.7-0.3,1.3-0.5,1.8c-0.3,0.5-0.6,0.8-1.1,1.1
			c-0.5,0.2-1.1,0.5-1.8,0.6L68,78.4z M68.2,93.3c0.4-0.1,0.8-0.3,1-0.7c0.3-0.4,0.5-0.8,0.6-1.4c0.1-0.5,0.2-1.1,0.3-1.7
			s0-1.2,0-1.8c0-0.6-0.1-1.1-0.1-1.6c-0.1-0.5-0.1-0.8-0.2-1.1c-0.1-0.4-0.2-0.7-0.3-0.9c-0.1-0.2-0.2-0.4-0.3-0.5
			c-0.1-0.1-0.3-0.2-0.4-0.2c-0.1,0-0.3,0-0.5,0c-0.5,0.1-0.8,0.3-1.1,0.7c-0.3,0.4-0.5,0.8-0.7,1.3c-0.2,0.5-0.3,1.1-0.4,1.7
			c-0.1,0.6-0.1,1.2-0.1,1.7c0,0.6,0,1.1,0.1,1.5c0,0.5,0.1,0.8,0.2,1.1c0.1,0.4,0.2,0.8,0.3,1c0.1,0.3,0.3,0.5,0.4,0.6
			c0.2,0.1,0.3,0.2,0.5,0.2C67.7,93.3,67.9,93.3,68.2,93.3z"/>
		<path id="XMLID_168_" class="st4" d="M103.9,82c-0.4,3.8-1.7,5.9-4,6.5c-0.6,0.1-1.1,0.2-1.5,0.1c-0.5-0.1-0.9-0.2-1.2-0.4
			c-0.3-0.2-0.6-0.5-0.8-0.8c-0.2-0.3-0.4-0.7-0.5-1.1c-0.1-0.4-0.2-0.9-0.2-1.6c0-0.7-0.1-1.5-0.1-2.4l-0.1-5.9
			c-0.5,0.1-0.9,0.3-1.2,0.6c-0.3,0.3-0.5,0.7-0.7,1.2c-0.2,0.5-0.3,1.1-0.3,1.9c0,0.7-0.1,1.6,0,2.6c0,1.2,0,2.2,0,3.2
			c0,0.9-0.1,1.7-0.3,2.4c-0.2,0.7-0.5,1.2-0.9,1.6c-0.4,0.4-1,0.7-1.8,0.9c-0.4,0.1-0.8,0.1-1.2,0.1c-0.4,0-0.7-0.1-1-0.3
			c-0.3-0.1-0.5-0.3-0.8-0.6c-0.2-0.2-0.4-0.5-0.6-0.8c-0.4,0.4-0.9,0.8-1.4,1.2c-0.5,0.4-1.1,0.8-1.7,1.1c-0.6,0.3-1.2,0.7-1.8,0.9
			c-0.6,0.3-1.2,0.5-1.8,0.6c-0.7,0.2-1.3,0.2-1.9,0.2c-0.6,0-1.1-0.2-1.6-0.4c-0.5-0.3-0.9-0.6-1.3-1.2c-0.4-0.5-0.6-1.2-0.8-2
			c-0.1-0.6-0.2-1.2-0.3-1.9c-0.1-0.7,0-1.5,0-2.3c0.1-0.8,0.2-1.6,0.5-2.4c0.2-0.8,0.6-1.6,1-2.3c0.4-0.7,1-1.3,1.7-1.8
			c0.7-0.5,1.5-0.9,2.5-1.1c2.4-0.6,4,0.6,4.7,3.7c0.4,1.7,0.5,3.3,0.4,4.7c-0.1,1.4-0.5,2.7-1,3.7c0.4-0.3,0.9-0.6,1.3-0.9
			c0.4-0.3,0.8-0.6,1.1-0.9c-0.1-0.6-0.1-1.2,0.2-1.6c0.2-0.4,0.6-0.7,1.1-0.9c0.4-0.1,0.8-0.1,1.2,0.2c0.3,0.2,0.6,0.5,0.7,1
			c0.1,0.5,0.1,0.8-0.1,1.1c-0.2,0.3-0.4,0.4-0.7,0.5c0,0.1,0.1,0.2,0.1,0.3c0.1,0.1,0.1,0.2,0.2,0.3c0.1,0.1,0.2,0.1,0.4,0.1
			s0.3,0,0.6,0c0.5-0.1,0.8-0.3,1-0.7c0.2-0.4,0.4-0.8,0.4-1.4c0.1-0.6,0.1-1.2,0.1-1.9c0-0.7,0-1.4-0.1-2.2c0-1.5,0-2.8,0.2-3.8
			c0.1-1,0.4-1.8,0.7-2.4c0.3-0.6,0.7-1.1,1.2-1.4c0.5-0.3,1.1-0.5,1.7-0.7l4.2-1l0.2,7.4c0,1,0,1.7,0,2.3c0,0.6,0,1,0.1,1.2
			c0.2,0.8,0.7,1.1,1.4,0.9c0.3-0.1,0.5-0.2,0.7-0.3c0.2-0.1,0.3-0.3,0.5-0.6c0.1-0.2,0.2-0.6,0.3-0.9c0.1-0.4,0.2-0.8,0.3-1.2
			L103.9,82z M80.4,90.4c0.4-0.1,0.8-0.4,1.1-0.9c0.3-0.5,0.5-1.2,0.7-2c0.2-0.8,0.2-1.7,0.2-2.7c0-1-0.2-2.1-0.4-3.1
			c-0.2-0.8-0.4-1.3-0.6-1.7c-0.2-0.3-0.6-0.5-1-0.4c-0.3,0.1-0.6,0.3-0.9,0.6c-0.3,0.3-0.5,0.8-0.6,1.3c-0.2,0.5-0.3,1.1-0.4,1.7
			c-0.1,0.6-0.2,1.2-0.2,1.9c0,0.6,0,1.2,0,1.8c0,0.6,0.1,1.1,0.2,1.6c0.1,0.5,0.2,0.8,0.3,1.1c0.1,0.3,0.3,0.5,0.4,0.6
			c0.2,0.1,0.3,0.2,0.5,0.2C79.9,90.4,80.2,90.4,80.4,90.4z"/>
		<path id="XMLID_165_" class="st4" d="M114.5,79.5c-0.2,0.8-0.5,1.5-0.9,2.3c-0.4,0.8-0.8,1.4-1.3,2.1c-0.5,0.6-1.1,1.2-1.9,1.7
			c-0.7,0.5-1.5,0.8-2.5,1.1c-0.7,0.2-1.3,0.2-1.9,0.2c-0.6,0-1.1-0.2-1.6-0.5c-0.5-0.3-0.9-0.7-1.2-1.2c-0.3-0.5-0.6-1.2-0.8-2
			c-0.1-0.5-0.2-1.2-0.3-1.9c-0.1-0.7-0.1-1.5,0-2.3c0.1-0.8,0.2-1.6,0.4-2.4c0.2-0.8,0.6-1.6,1-2.3c0.4-0.7,1-1.3,1.7-1.8
			c0.7-0.5,1.5-0.9,2.5-1.1c0.6-0.2,1.2-0.2,1.6-0.1c0.4,0.1,0.8,0.2,1.1,0.4s0.5,0.4,0.7,0.8c0.2,0.3,0.3,0.6,0.4,1
			c0.2,0.8,0.2,1.6,0,2.4s-0.5,1.5-1,2.2c-0.5,0.7-1.1,1.3-1.8,1.8c-0.7,0.5-1.5,0.9-2.3,1.1c0,0.2,0.1,0.4,0.1,0.6
			c0,0.2,0.1,0.4,0.1,0.5c0.1,0.5,0.3,0.9,0.4,1.2c0.2,0.3,0.3,0.5,0.6,0.6s0.5,0.2,0.7,0.2s0.6,0,0.9-0.1c0.6-0.1,1.1-0.3,1.5-0.6
			c0.4-0.3,0.8-0.6,1.1-0.9c0.3-0.4,0.6-0.7,0.9-1.2c0.3-0.4,0.5-0.9,0.8-1.4L114.5,79.5z M106.3,79.3c0.5-0.2,1-0.4,1.4-0.8
			c0.4-0.4,0.8-0.8,1.1-1.4c0.3-0.5,0.5-1.1,0.6-1.7c0.1-0.6,0.1-1.2-0.1-1.8c-0.1-0.3-0.2-0.6-0.4-0.8c-0.2-0.2-0.4-0.2-0.6-0.2
			c-0.4,0.1-0.7,0.3-0.9,0.8c-0.3,0.4-0.5,1-0.7,1.6c-0.2,0.6-0.3,1.3-0.4,2.1C106.3,77.8,106.3,78.6,106.3,79.3z"/>
		<path id="XMLID_162_" class="st4" d="M122.7,78.7c0,0.9,0,1.6-0.2,2.2c-0.2,0.6-0.5,1.1-0.8,1.6c-0.4,0.4-0.8,0.8-1.3,1
			s-1,0.4-1.6,0.6c-0.7,0.2-1.3,0.2-1.9,0.2c-0.6,0-1.1-0.2-1.6-0.5c-0.5-0.3-0.9-0.7-1.2-1.2c-0.3-0.5-0.6-1.2-0.8-2
			c-0.1-0.5-0.2-1.2-0.3-1.9c-0.1-0.7-0.1-1.5,0-2.3c0.1-0.8,0.2-1.6,0.4-2.4c0.2-0.8,0.6-1.6,1-2.3c0.4-0.7,1-1.3,1.7-1.8
			c0.7-0.5,1.5-0.9,2.5-1.1c0.6-0.2,1.2-0.2,1.6-0.1c0.4,0.1,0.8,0.2,1.1,0.4c0.3,0.2,0.5,0.4,0.7,0.8c0.2,0.3,0.3,0.6,0.4,1
			c0.2,0.8,0.2,1.6,0,2.4s-0.5,1.5-1,2.2c-0.5,0.7-1.1,1.3-1.8,1.8s-1.5,0.9-2.3,1.1c0,0.2,0,0.3,0.1,0.5s0,0.3,0.1,0.4
			c0.1,0.5,0.2,0.8,0.4,1.1c0.2,0.3,0.3,0.5,0.5,0.6c0.2,0.1,0.4,0.2,0.6,0.2c0.2,0,0.5,0,0.7-0.1c0.3-0.1,0.6-0.2,0.8-0.3
			c0.3-0.2,0.5-0.3,0.8-0.5c0.3-0.2,0.5-0.4,0.7-0.7C122.3,79.2,122.5,78.9,122.7,78.7z M117.1,76.8c0.5-0.1,1-0.4,1.5-0.8
			c0.4-0.4,0.8-0.8,1.1-1.4c0.3-0.5,0.5-1.1,0.6-1.7c0.1-0.6,0.1-1.2-0.1-1.8c-0.1-0.3-0.2-0.6-0.4-0.8s-0.4-0.2-0.6-0.2
			c-0.4,0.1-0.7,0.3-0.9,0.8c-0.3,0.4-0.5,1-0.6,1.6c-0.2,0.6-0.3,1.3-0.4,2.1S117.1,76.1,117.1,76.8z"/>
	</g>
	<g id="XMLID_138_">
		<path id="XMLID_58_" class="st4" d="M53,132.7c0.4,0,0.8,0.1,1.2,0.3c0.3,0.1,0.6,0.3,0.9,0.5c0.3,0.2,0.5,0.5,0.6,0.8
			c0.2,0.3,0.3,0.6,0.4,0.9c0.1,0.4,0.1,0.8,0.1,1.2c0,0.4-0.1,0.8-0.2,1.2c-0.1,0.4-0.3,0.8-0.5,1.2c-0.2,0.4-0.5,0.7-0.8,1
			c-0.3,0.3-0.7,0.6-1.1,0.8c-0.4,0.2-0.9,0.4-1.4,0.5c-0.2,0-0.4,0.1-0.6,0.1c-0.3,0-0.5,0-0.8,0c-0.3,0-0.6-0.1-0.9-0.1
			c-0.3-0.1-0.6-0.2-0.8-0.4s-0.5-0.4-0.7-0.7c-0.2-0.3-0.4-0.7-0.5-1.2c-0.1-0.4-0.1-0.7-0.1-1.1c0-0.3,0.1-0.7,0.2-0.9
			c0.1-0.3,0.3-0.5,0.6-0.7c0.2-0.2,0.6-0.3,0.9-0.4c0.2,0,0.3-0.1,0.5-0.1c0.2,0,0.3,0,0.5,0.1c0.1,0,0.3,0.1,0.4,0.2
			c0.1,0.1,0.2,0.2,0.3,0.4c-0.3,0.1-0.6,0.3-0.8,0.4c-0.2,0.2-0.3,0.4-0.4,0.6c-0.1,0.2-0.1,0.4-0.1,0.7c0,0.2,0,0.4,0.1,0.6
			c0.1,0.3,0.2,0.5,0.3,0.7c0.1,0.2,0.3,0.3,0.5,0.4c0.2,0.1,0.4,0.2,0.6,0.2c0.2,0,0.4,0,0.6,0c0.3-0.1,0.5-0.2,0.8-0.4
			c0.2-0.2,0.5-0.4,0.6-0.8c0.2-0.3,0.3-0.7,0.3-1.1c0.1-0.4,0-0.9-0.1-1.4c-0.1-0.3-0.2-0.7-0.4-1s-0.4-0.6-0.7-0.9
			c-0.3-0.3-0.6-0.5-1-0.7c-0.4-0.2-0.8-0.3-1.2-0.3c0.5-0.3,0.9-0.6,1.2-0.9c0.3-0.4,0.6-0.7,0.8-1.1c0.2-0.4,0.3-0.8,0.4-1.2
			c0.1-0.4,0-0.7,0-1.1c-0.1-0.2-0.1-0.4-0.2-0.6c-0.1-0.2-0.2-0.3-0.4-0.4c-0.1-0.1-0.3-0.2-0.5-0.2c-0.2,0-0.4,0-0.6,0
			c-0.2,0.1-0.4,0.1-0.6,0.2c-0.2,0.1-0.3,0.2-0.4,0.4c-0.1,0.2-0.2,0.3-0.2,0.5c0,0.2,0,0.4,0,0.6c0,0.1,0.1,0.3,0.1,0.4
			c0.1,0.1,0.1,0.3,0.2,0.4c0.1,0.1,0.2,0.2,0.3,0.3c0.1,0.1,0.2,0.1,0.4,0.1c-0.2,0.3-0.4,0.5-0.6,0.6c-0.2,0.2-0.4,0.3-0.7,0.3
			c-0.2,0-0.4,0-0.5,0c-0.2,0-0.3-0.1-0.5-0.2c-0.2-0.1-0.3-0.2-0.4-0.4c-0.1-0.2-0.2-0.4-0.3-0.6c-0.1-0.4-0.1-0.8,0-1.2
			c0.1-0.4,0.3-0.7,0.6-1.1c0.3-0.3,0.6-0.6,1.1-0.9c0.4-0.2,0.9-0.4,1.4-0.6c0.6-0.1,1.1-0.2,1.5-0.1c0.5,0,0.9,0.2,1.2,0.3
			c0.3,0.2,0.6,0.4,0.8,0.7s0.4,0.6,0.5,1c0.1,0.3,0.1,0.6,0.1,1c0,0.3-0.1,0.7-0.3,1c-0.1,0.3-0.3,0.7-0.6,1
			C53.7,132,53.3,132.3,53,132.7z"/>
		<path id="XMLID_57_" class="st4" d="M61.6,134.5c-0.4,0-0.8,0-1.2-0.1c-0.4,0-0.8,0-1.3,0.1c-0.3,0.1-0.6,0.2-1,0.3
			c-0.3,0.1-0.6,0.3-0.9,0.6l-0.1,0l-0.6-0.6l0-0.1c0.4-0.7,0.7-1.5,1.1-2.2c0.3-0.7,0.6-1.5,0.8-2.2c0.2-0.7,0.4-1.4,0.5-2.1
			c0.1-0.7,0-1.3-0.1-1.9c0-0.2-0.1-0.4-0.2-0.6c-0.1-0.2-0.1-0.4-0.2-0.5c0.1-0.1,0.3-0.1,0.4-0.2c0.2-0.1,0.3-0.1,0.5-0.1
			c0.3-0.1,0.5-0.1,0.8-0.1c0.2,0,0.4,0.1,0.6,0.2c0.2,0.1,0.3,0.3,0.5,0.4c0.1,0.2,0.2,0.4,0.3,0.6c0.1,0.3,0.1,0.6,0,1
			c-0.1,0.4-0.2,0.8-0.3,1.2c-0.2,0.4-0.3,0.9-0.6,1.3s-0.5,0.9-0.7,1.3c-0.3,0.4-0.5,0.8-0.8,1.2c-0.3,0.4-0.5,0.8-0.8,1.1l0,0.1
			c0.2-0.1,0.4-0.3,0.7-0.4c0.3-0.1,0.6-0.2,0.9-0.3c0.3-0.1,0.6-0.1,0.9-0.1c0.3,0,0.7,0,1-0.1l0.5-4.6l1.2-0.3l0.1,4.5
			c0.2-0.1,0.3-0.3,0.5-0.5s0.3-0.4,0.5-0.7l0.1,0c0.1,0.1,0.3,0.3,0.3,0.5c0.1,0.2,0.2,0.3,0.2,0.5c0.1,0.2,0.1,0.5,0,0.7
			c0,0.2-0.1,0.5-0.3,0.7c-0.1,0.2-0.3,0.4-0.5,0.6c-0.2,0.2-0.5,0.3-0.7,0.5l0.1,4l-2.6,0.6L61.6,134.5z"/>
		<path id="XMLID_156_" class="st4" d="M70.9,136.7c-0.7,0.2-1.3,0.2-1.9,0.1c-0.5-0.1-1-0.4-1.4-0.7c-0.4-0.3-0.7-0.8-0.9-1.3
			c-0.2-0.5-0.4-1.1-0.6-1.8c-0.2-0.8-0.3-1.7-0.4-2.5c-0.1-0.8,0-1.6,0.1-2.4c0.1-0.8,0.2-1.5,0.5-2.1c0.2-0.7,0.5-1.3,0.9-1.8
			c0.4-0.5,0.8-1,1.3-1.3c0.5-0.4,1.1-0.6,1.7-0.8c0.6-0.1,1.2-0.2,1.6-0.1s0.9,0.3,1.3,0.6c0.4,0.3,0.7,0.7,1,1.2
			c0.3,0.5,0.5,1.1,0.6,1.8c0.1,0.4,0.2,0.9,0.3,1.5c0.1,0.5,0.1,1.1,0.1,1.6c0,0.6,0,1.1,0,1.7c0,0.6-0.1,1.1-0.2,1.7
			c-0.1,0.5-0.3,1.1-0.5,1.6c-0.2,0.5-0.5,0.9-0.8,1.4c-0.3,0.4-0.7,0.8-1.1,1S71.5,136.6,70.9,136.7z M70.4,123.1
			c-0.3,0.1-0.6,0.3-0.8,0.6c-0.2,0.3-0.4,0.7-0.6,1.2c-0.2,0.5-0.3,1-0.4,1.7c-0.1,0.6-0.1,1.3-0.1,2c0,0.7,0,1.4,0.1,2.1
			c0.1,0.7,0.2,1.4,0.4,2.1c0.1,0.3,0.2,0.7,0.3,1c0.1,0.3,0.2,0.6,0.4,0.8c0.1,0.2,0.3,0.4,0.5,0.5c0.2,0.1,0.4,0.1,0.7,0.1
			c0.3-0.1,0.6-0.3,0.8-0.6c0.2-0.3,0.4-0.7,0.6-1.2c0.1-0.5,0.3-1,0.3-1.6c0.1-0.6,0.1-1.3,0.1-2c0-0.7-0.1-1.4-0.1-2.1
			c-0.1-0.7-0.2-1.5-0.4-2.2c-0.1-0.4-0.2-0.7-0.3-1s-0.2-0.6-0.4-0.8c-0.1-0.2-0.3-0.4-0.5-0.5C70.7,123.1,70.5,123.1,70.4,123.1z"
			/>
		<path id="XMLID_153_" class="st4" d="M81.1,134.3c-0.7,0.2-1.3,0.2-1.9,0.1c-0.5-0.1-1-0.4-1.4-0.7c-0.4-0.3-0.7-0.8-0.9-1.3
			c-0.2-0.5-0.4-1.1-0.6-1.8c-0.2-0.8-0.3-1.7-0.4-2.5c-0.1-0.8,0-1.6,0.1-2.4c0.1-0.8,0.2-1.5,0.5-2.1c0.2-0.7,0.5-1.3,0.9-1.8
			c0.4-0.5,0.8-1,1.3-1.3c0.5-0.4,1.1-0.6,1.7-0.8c0.6-0.1,1.2-0.2,1.6-0.1c0.5,0.1,0.9,0.3,1.3,0.6c0.4,0.3,0.7,0.7,1,1.2
			s0.5,1.1,0.6,1.8c0.1,0.4,0.2,0.9,0.3,1.5c0.1,0.5,0.1,1.1,0.1,1.6c0,0.6,0,1.1,0,1.7c0,0.6-0.1,1.1-0.2,1.7
			c-0.1,0.5-0.3,1.1-0.5,1.6c-0.2,0.5-0.5,0.9-0.8,1.4c-0.3,0.4-0.7,0.8-1.1,1C82.2,133.9,81.7,134.1,81.1,134.3z M80.6,120.7
			c-0.3,0.1-0.6,0.3-0.8,0.6c-0.2,0.3-0.4,0.7-0.6,1.2c-0.2,0.5-0.3,1-0.4,1.7c-0.1,0.6-0.1,1.3-0.1,2c0,0.7,0,1.4,0.1,2.1
			c0.1,0.7,0.2,1.4,0.3,2.1c0.1,0.3,0.2,0.7,0.3,1c0.1,0.3,0.2,0.6,0.4,0.8c0.1,0.2,0.3,0.4,0.5,0.5c0.2,0.1,0.4,0.1,0.7,0.1
			c0.3-0.1,0.6-0.3,0.8-0.6c0.2-0.3,0.4-0.7,0.6-1.2c0.1-0.5,0.3-1,0.3-1.6c0.1-0.6,0.1-1.3,0.1-2c0-0.7-0.1-1.4-0.1-2.1
			c-0.1-0.7-0.2-1.5-0.4-2.2c-0.1-0.4-0.2-0.7-0.3-1c-0.1-0.3-0.2-0.6-0.4-0.8c-0.1-0.2-0.3-0.4-0.5-0.5
			C80.9,120.7,80.7,120.7,80.6,120.7z"/>
		<path id="XMLID_52_" class="st4" d="M100.2,126.1c-0.2,2.4-1.1,3.8-2.5,4.2c-0.7,0.2-1.3,0.1-1.8-0.2c-0.5-0.3-0.8-0.7-0.9-1.4
			c0-0.1-0.1-0.3-0.1-0.5c0-0.2,0-0.3,0-0.5c0-0.2,0-0.3,0-0.5c0-0.1,0-0.3-0.1-0.4c-0.1-0.6-0.4-0.8-0.9-0.7
			c-0.1,0-0.2,0.1-0.2,0.1c-0.1,0-0.1,0.1-0.2,0.2c-0.1,0.1-0.2,0.2-0.2,0.3c-0.1,0.1-0.2,0.2-0.3,0.4l0.1,4.1l-2.6,0.6l-0.2-9.6
			l2.6-0.6l0.1,3.8c0.3-0.5,0.6-1,0.9-1.5c0.2-0.4,0.5-0.8,0.7-1.2c0.2-0.3,0.4-0.6,0.5-0.9c0.2-0.3,0.3-0.5,0.5-0.7
			c0.2-0.2,0.3-0.3,0.5-0.4c0.2-0.1,0.4-0.2,0.6-0.3c0.4-0.1,0.8-0.1,1,0.1c0.3,0.2,0.4,0.4,0.5,0.8c0.1,0.4,0.1,0.7-0.1,0.9
			c-0.1,0.3-0.4,0.4-0.8,0.5c-0.2,0-0.3,0.1-0.5,0c-0.1,0-0.3-0.1-0.4-0.1c-0.1-0.1-0.2-0.2-0.2-0.3c-0.1-0.1-0.1-0.2-0.1-0.3
			c-0.2,0.2-0.3,0.4-0.5,0.6c-0.1,0.2-0.3,0.4-0.4,0.6c-0.1,0.2-0.3,0.5-0.4,0.7c-0.1,0.2-0.3,0.5-0.4,0.7c0.1-0.1,0.3-0.1,0.4-0.2
			c0.1,0,0.3-0.1,0.4-0.1c0.3-0.1,0.6-0.1,0.9-0.1c0.2,0,0.4,0.1,0.6,0.2c0.2,0.1,0.3,0.3,0.4,0.5s0.2,0.4,0.3,0.7
			c0,0.1,0.1,0.3,0.1,0.4c0,0.2,0,0.3,0,0.5c0,0.2,0,0.3,0,0.5c0,0.2,0,0.3,0.1,0.5c0.1,0.5,0.4,0.6,0.9,0.5c0.2,0,0.3-0.1,0.5-0.2
			c0.1-0.1,0.2-0.2,0.3-0.4c0.1-0.2,0.2-0.4,0.2-0.6c0.1-0.2,0.1-0.5,0.2-0.8L100.2,126.1z"/>
		<path id="XMLID_51_" class="st4" d="M110.4,123.7c-0.2,2.4-1.1,3.8-2.6,4.2c-0.4,0.1-0.7,0.1-1,0.1c-0.3,0-0.6-0.1-0.8-0.3
			c-0.2-0.1-0.4-0.3-0.5-0.5c-0.1-0.2-0.2-0.4-0.3-0.7c-0.1-0.3-0.1-0.6-0.1-1c0-0.4,0-0.9-0.1-1.6l-0.1-3.8
			c-0.3,0.1-0.6,0.2-0.8,0.4c-0.2,0.2-0.3,0.4-0.5,0.8c-0.1,0.3-0.2,0.7-0.2,1.2c0,0.5,0,1,0,1.7c0,0.8,0,1.4,0,2
			c0,0.6-0.1,1.1-0.2,1.6c-0.1,0.4-0.3,0.8-0.6,1.1s-0.7,0.5-1.2,0.6c-0.4,0.1-0.7,0.1-1,0c-0.3-0.1-0.5-0.2-0.7-0.3
			c-0.2-0.2-0.4-0.3-0.5-0.6c-0.1-0.2-0.2-0.5-0.3-0.7c-0.1-0.4-0.1-0.8,0.1-1.1c0.1-0.3,0.4-0.5,0.7-0.6c0.3-0.1,0.5,0,0.8,0.1
			c0.2,0.1,0.4,0.3,0.4,0.6c0.1,0.3,0,0.5-0.1,0.7c-0.1,0.2-0.3,0.3-0.5,0.3c0,0.1,0.1,0.1,0.1,0.2c0,0.1,0.1,0.1,0.2,0.2
			s0.2,0.1,0.2,0.1c0.1,0,0.2,0,0.4,0c0.3-0.1,0.5-0.2,0.7-0.5c0.1-0.2,0.2-0.5,0.3-0.9s0.1-0.8,0-1.2c0-0.5,0-0.9,0-1.4
			c0-1,0-1.8,0.1-2.5c0.1-0.6,0.2-1.2,0.5-1.6c0.2-0.4,0.5-0.7,0.8-0.9c0.3-0.2,0.7-0.3,1.1-0.4l2.7-0.6l0.1,4.8c0,0.6,0,1.1,0,1.5
			c0,0.4,0,0.6,0.1,0.8c0.1,0.5,0.4,0.7,0.9,0.6c0.2,0,0.3-0.1,0.5-0.2c0.1-0.1,0.2-0.2,0.3-0.4c0.1-0.2,0.2-0.4,0.2-0.6
			c0.1-0.2,0.1-0.5,0.2-0.8L110.4,123.7z"/>
		<path id="XMLID_50_" class="st4" d="M119.7,121.5c-0.1,0.5-0.1,1-0.3,1.4c-0.1,0.4-0.3,0.8-0.4,1.1c-0.2,0.3-0.3,0.6-0.5,0.8
			c-0.2,0.2-0.4,0.4-0.6,0.5c-0.2,0.1-0.4,0.2-0.6,0.3c-0.2,0.1-0.4,0.1-0.5,0.2c-0.5,0.1-1,0.1-1.4-0.1c-0.4-0.2-0.7-0.6-0.9-1.2
			c-0.1,0.4-0.3,0.8-0.5,1.1s-0.4,0.5-0.6,0.7c-0.2,0.2-0.4,0.3-0.6,0.4c-0.2,0.1-0.4,0.2-0.6,0.2c-0.3,0.1-0.5,0.1-0.8,0.1
			c-0.3,0-0.5-0.1-0.7-0.2c-0.2-0.1-0.4-0.3-0.6-0.6c-0.2-0.2-0.3-0.6-0.4-1c0-0.2-0.1-0.4-0.1-0.6c0-0.2,0-0.4,0-0.7l-0.1-6.2
			l2.6-0.6l0.2,6.5c0,0.2,0,0.4,0.1,0.5c0.1,0.2,0.1,0.4,0.2,0.5c0.1,0.1,0.3,0.2,0.5,0.1c0.2,0,0.3-0.1,0.5-0.2s0.2-0.3,0.3-0.4
			c0.1-0.2,0.2-0.4,0.2-0.6c0-0.2,0.1-0.5,0.1-0.7l-0.1-6.2l2.6-0.6l0.2,6.5c0,0.1,0,0.2,0,0.3c0,0.1,0,0.2,0.1,0.3
			c0.1,0.3,0.2,0.4,0.3,0.5c0.1,0.1,0.3,0.1,0.6,0c0.2,0,0.3-0.1,0.5-0.2c0.1-0.1,0.2-0.3,0.3-0.4c0.1-0.2,0.2-0.4,0.2-0.6
			s0.1-0.5,0.1-0.7L119.7,121.5z"/>
		<path id="XMLID_147_" class="st4" d="M126.6,119.9c-0.2,0.5-0.3,1-0.6,1.5c-0.2,0.5-0.5,0.9-0.9,1.3s-0.7,0.8-1.2,1.1
			c-0.5,0.3-1,0.5-1.6,0.7c-0.4,0.1-0.8,0.1-1.2,0.1c-0.4,0-0.7-0.1-1-0.3c-0.3-0.2-0.6-0.4-0.8-0.8c-0.2-0.3-0.4-0.8-0.5-1.3
			c-0.1-0.4-0.1-0.8-0.2-1.2c0-0.5,0-1,0-1.5c0-0.5,0.1-1,0.3-1.6c0.1-0.5,0.4-1,0.6-1.5s0.6-0.9,1.1-1.2s1-0.6,1.6-0.7
			c0.4-0.1,0.8-0.1,1-0.1c0.3,0,0.5,0.1,0.7,0.2c0.2,0.1,0.3,0.3,0.4,0.5c0.1,0.2,0.2,0.4,0.2,0.6c0.1,0.5,0.1,1.1,0,1.6
			c-0.1,0.5-0.3,1-0.7,1.4c-0.3,0.4-0.7,0.8-1.2,1.1c-0.5,0.3-1,0.6-1.5,0.7c0,0.1,0,0.3,0.1,0.4c0,0.1,0,0.2,0.1,0.3
			c0.1,0.3,0.2,0.6,0.3,0.7c0.1,0.2,0.2,0.3,0.4,0.4c0.1,0.1,0.3,0.1,0.5,0.1c0.2,0,0.4,0,0.6-0.1c0.4-0.1,0.7-0.2,1-0.4
			c0.3-0.2,0.5-0.4,0.7-0.6c0.2-0.2,0.4-0.5,0.6-0.8c0.2-0.3,0.3-0.6,0.5-0.9L126.6,119.9z M121.3,119.7c0.3-0.1,0.7-0.3,0.9-0.5
			c0.3-0.2,0.5-0.5,0.7-0.9c0.2-0.3,0.3-0.7,0.4-1.1c0.1-0.4,0-0.8,0-1.2c-0.1-0.2-0.1-0.4-0.2-0.5c-0.1-0.1-0.2-0.2-0.4-0.1
			c-0.2,0.1-0.4,0.2-0.6,0.5s-0.3,0.6-0.4,1c-0.1,0.4-0.2,0.9-0.2,1.3C121.3,118.8,121.2,119.3,121.3,119.7z"/>
		<path id="XMLID_47_" class="st4" d="M136,117.6c-0.2,2.4-1.1,3.8-2.6,4.2c-0.4,0.1-0.7,0.1-1,0.1c-0.3,0-0.6-0.1-0.8-0.3
			c-0.2-0.1-0.4-0.3-0.5-0.5c-0.1-0.2-0.2-0.4-0.3-0.7c-0.1-0.3-0.1-0.6-0.1-1.1c0-0.5,0-1-0.1-1.6l-2,0.5l0.1,4.6l-2.6,0.6
			l-0.2-9.6l2.6-0.6l0.1,3.9l2.1-0.5l0-3.9l2.5-0.6l0.1,4.8c0,0.6,0,1.1,0,1.5s0,0.6,0.1,0.8c0.1,0.5,0.4,0.7,0.9,0.6
			c0.2,0,0.3-0.1,0.5-0.2c0.1-0.1,0.2-0.2,0.3-0.4c0.1-0.2,0.2-0.4,0.2-0.6s0.1-0.5,0.2-0.8L136,117.6z"/>
		<path id="XMLID_46_" class="st4" d="M149.8,114.4c-0.1,0.8-0.2,1.5-0.4,2c-0.2,0.5-0.4,0.9-0.7,1.2c-0.2,0.3-0.5,0.5-0.8,0.7
			c-0.3,0.1-0.5,0.2-0.8,0.3c-0.4,0.1-0.8,0.1-1.1,0.1c-0.3-0.1-0.6-0.2-0.8-0.3c-0.2-0.2-0.4-0.3-0.5-0.6c-0.1-0.2-0.2-0.5-0.3-0.7
			c-0.1-0.3-0.1-0.7-0.1-1.1c0-0.4,0-0.9,0-1.3c0-0.5,0-0.9,0-1.3c0-0.4-0.1-0.8-0.1-1.1c-0.1-0.6-0.4-0.9-0.9-0.8
			c-0.2,0-0.3,0.1-0.4,0.2c-0.1,0.1-0.2,0.3-0.3,0.5c-0.1,0.2-0.1,0.4-0.2,0.6c0,0.2-0.1,0.5-0.1,0.7l0.1,6.2l-2.6,0.6l-0.2-6.7
			c0-0.2,0-0.3-0.1-0.5c0-0.1-0.1-0.2-0.1-0.3c0-0.1-0.1-0.2-0.2-0.2c-0.1-0.1-0.1-0.1-0.2-0.1s-0.2,0-0.3,0c-0.2,0-0.3,0.1-0.5,0.3
			c-0.1,0.1-0.2,0.3-0.3,0.5c-0.1,0.2-0.2,0.4-0.2,0.6c0,0.2-0.1,0.5-0.1,0.7l0.1,6.2l-2.6,0.6l-0.2-9.6l2.6-0.6l0,1
			c0.1-0.3,0.3-0.5,0.5-0.7c0.2-0.2,0.3-0.3,0.5-0.5c0.2-0.1,0.3-0.2,0.5-0.3c0.2-0.1,0.3-0.1,0.5-0.2c0.2-0.1,0.5-0.1,0.7-0.1
			c0.2,0,0.4,0.1,0.6,0.1c0.2,0.1,0.4,0.2,0.5,0.4c0.2,0.2,0.3,0.4,0.4,0.7c0.1-0.4,0.3-0.7,0.5-1c0.2-0.3,0.4-0.5,0.6-0.6
			c0.2-0.2,0.4-0.3,0.6-0.4c0.2-0.1,0.4-0.1,0.5-0.2c0.3-0.1,0.6-0.1,0.8-0.1c0.3,0,0.5,0.1,0.7,0.2c0.2,0.1,0.4,0.3,0.6,0.5
			c0.2,0.2,0.3,0.5,0.4,0.9c0.1,0.2,0.1,0.5,0.1,0.8c0,0.3,0,0.6,0,0.9c0,0.3,0,0.6,0,0.9c0,0.3,0,0.6,0,0.9c0,0.3,0,0.5,0,0.8
			c0,0.2,0,0.4,0.1,0.6c0.1,0.2,0.2,0.4,0.3,0.5c0.1,0.1,0.3,0.1,0.6,0.1c0.2,0,0.4-0.1,0.5-0.2c0.1-0.1,0.2-0.3,0.3-0.4
			c0.1-0.2,0.2-0.4,0.2-0.6c0.1-0.2,0.1-0.5,0.1-0.7L149.8,114.4z"/>
		<path id="XMLID_142_" class="st4" d="M158.5,108.4c-0.3,0.5-0.7,0.9-1.2,1.3c-0.5,0.4-1.1,0.7-1.7,1c0.1,0.9,0.1,1.7,0.1,2.4
			c-0.1,0.7-0.3,1.4-0.6,2c-0.3,0.6-0.6,1-1.1,1.4c-0.4,0.4-0.9,0.6-1.5,0.8c-0.4,0.1-0.8,0.1-1.2,0.1c-0.4,0-0.7-0.1-1.1-0.3
			c-0.3-0.2-0.6-0.4-0.8-0.8c-0.2-0.3-0.4-0.8-0.5-1.3c-0.1-0.4-0.1-0.8-0.2-1.2c0-0.5,0-1,0-1.5c0-0.5,0.2-1,0.3-1.6
			c0.2-0.5,0.4-1,0.7-1.5c0.3-0.5,0.6-0.8,1.1-1.2c0.4-0.3,1-0.6,1.6-0.7c1.6-0.4,2.6,0.4,3,2.4l0,0c0,0,0.1,0,0.1,0
			c0,0,0.1,0,0.1,0c0.2-0.1,0.4-0.1,0.7-0.3c0.2-0.1,0.5-0.3,0.7-0.4c0.2-0.2,0.4-0.3,0.7-0.5c0.2-0.2,0.4-0.4,0.6-0.6L158.5,108.4z
			 M154.1,111.1c-0.2,0-0.4-0.1-0.5-0.2s-0.2-0.3-0.2-0.5c-0.1-0.3-0.1-0.5,0-0.7c0.1-0.2,0.2-0.3,0.3-0.5c-0.1-0.2-0.1-0.4-0.2-0.5
			c-0.1-0.1-0.1-0.2-0.2-0.3s-0.2-0.1-0.2-0.1c-0.1,0-0.2,0-0.3,0c-0.2,0.1-0.4,0.2-0.6,0.4c-0.2,0.2-0.3,0.5-0.4,0.8
			c-0.1,0.3-0.2,0.7-0.3,1.1c-0.1,0.4-0.1,0.8-0.1,1.2c0,0.4,0,0.8,0,1.2c0,0.4,0.1,0.7,0.2,1c0.1,0.3,0.1,0.5,0.2,0.7
			c0.1,0.2,0.2,0.3,0.3,0.4c0.1,0.1,0.2,0.1,0.3,0.2c0.1,0,0.3,0,0.5,0c0.2-0.1,0.4-0.2,0.6-0.5c0.2-0.2,0.3-0.6,0.4-1
			c0.1-0.4,0.2-0.8,0.2-1.3S154.1,111.7,154.1,111.1z"/>
		<path id="XMLID_139_" class="st4" d="M162.2,107.6c0.5,0.1,0.9,0.4,1.2,0.7c0.3,0.3,0.5,0.8,0.6,1.3c0.1,0.6,0.2,1.2,0.1,1.8
			c-0.1,0.6-0.2,1.2-0.5,1.7c-0.3,0.5-0.7,1-1.1,1.4c-0.5,0.4-1.1,0.7-1.8,0.8c-0.5,0.1-1,0.2-1.4,0.1c-0.4-0.1-0.8-0.2-1.1-0.5
			c-0.3-0.2-0.6-0.5-0.8-0.9c-0.2-0.4-0.4-0.8-0.5-1.3c-0.1-0.3-0.1-0.7-0.2-1.2c0-0.5-0.1-1,0-1.6c0-0.6,0-1.2,0.1-1.9
			c0.1-0.6,0.1-1.3,0.3-1.9c0.1-0.6,0.3-1.2,0.4-1.8c0.2-0.6,0.4-1.1,0.6-1.6c0.3-0.5,0.5-0.9,0.9-1.2c0.3-0.3,0.7-0.5,1.1-0.6
			c0.3-0.1,0.6-0.1,0.9-0.1c0.3,0,0.5,0.1,0.7,0.3c0.2,0.2,0.4,0.4,0.6,0.7c0.2,0.3,0.3,0.7,0.4,1.1c0.1,0.4,0.1,0.8,0.1,1.2
			c0,0.4,0,0.8-0.1,1.3c-0.1,0.4-0.1,0.8-0.2,1.2C162.4,107,162.3,107.3,162.2,107.6z M162,109.5c-0.1,0.1-0.2,0.1-0.3,0.1
			c-0.1,0-0.2,0.1-0.4,0.1c-0.3,0.1-0.5,0-0.7-0.1c-0.2-0.1-0.3-0.3-0.4-0.6c0-0.2-0.1-0.4,0-0.5c0-0.2,0.1-0.3,0.2-0.4
			c0.1-0.1,0.2-0.2,0.4-0.3c0.1-0.1,0.3-0.1,0.5-0.2c0.1-0.3,0.2-0.7,0.2-1.1s0.1-0.8,0.2-1.2c0-0.4,0-0.8,0-1.2
			c0-0.4-0.1-0.8-0.1-1.1c-0.1-0.4-0.2-0.6-0.3-0.8c-0.1-0.1-0.3-0.2-0.5-0.1c-0.2,0-0.4,0.2-0.5,0.5c-0.1,0.3-0.3,0.6-0.4,1
			c-0.1,0.4-0.2,0.9-0.2,1.4c-0.1,0.5-0.1,1-0.1,1.6c0,0.5,0,1.1,0,1.7c0,0.6,0,1.1,0,1.6c0,0.5,0.1,0.9,0.1,1.3
			c0,0.4,0.1,0.7,0.2,1c0.1,0.2,0.1,0.5,0.2,0.6c0.1,0.2,0.2,0.3,0.3,0.5c0.1,0.1,0.3,0.2,0.4,0.2c0.2,0,0.3,0,0.5,0
			c0.3-0.1,0.5-0.2,0.7-0.4c0.2-0.2,0.3-0.5,0.5-0.7c0.1-0.3,0.2-0.6,0.2-0.9c0-0.3,0-0.6-0.1-0.9C162.3,110,162.1,109.7,162,109.5z
			"/>
	</g>
</g>
<polygon id="XMLID_41_" class="st5" points="162.4,193.4 40.3,154.8 40.6,117.8 "/>
<polygon id="XMLID_40_" class="st5" points="32.2,113 49,115.9 168.4,88.4 32.5,75.9 "/>
<polygon id="XMLID_39_" class="st6" points="147.8,164.8 48.9,145.3 59.5,49.4 128.5,23.8 "/>
<polygon id="XMLID_38_" class="st7" points="153.6,84.3 32.2,113 32.5,75.9 156.3,46.6 "/>
<polygon id="XMLID_37_" class="st7" points="168,125.5 40.3,155.1 40.6,117.9 168.4,88.4 "/>
<polygon id="XMLID_36_" class="st7" points="139,46.6 144.9,28.8 162.4,27 "/>
<polygon id="XMLID_35_" class="st7" points="65.4,164.8 27,157.8 36.3,168.7 "/>
<polygon id="XMLID_34_" class="st7" points="150.7,133.6 176.7,130.6 172.5,136.8 "/>
<polygon id="XMLID_33_" class="st8" points="53,108.1 138.3,95.3 137.3,88.1 "/>
<polygon id="XMLID_32_" class="st8" points="66.9,148.9 144.2,138.3 143.2,131.2 "/>
<path id="XMLID_31_" class="st5" d="M23,43.9c2.1-9.6,15.4-15.4,29.7-13.1c14.3,2.3,24.1,12,22,21.6c-0.9,3.9-3.5,7.1-7.3,9.5
	L75,73.7l-20.1-7.9c-3.1,0.3-6.5,0.2-9.9-0.3C30.8,63.1,20.9,53.4,23,43.9z"/>
<radialGradient id="XMLID_85_" cx="88.5792" cy="314.3883" r="113.8365" gradientTransform="matrix(0.7952 0 0 -9.680000e-002 30.4537 213.8119)" gradientUnits="userSpaceOnUse">
	<stop  offset="0" style="stop-color:#010101;stop-opacity:0.7803"/>
	<stop  offset="0.127" style="stop-color:#010101;stop-opacity:0.6809"/>
	<stop  offset="0.9973" style="stop-color:#010101;stop-opacity:0"/>
</radialGradient>
<ellipse id="XMLID_30_" class="st9" cx="101.3" cy="183.8" rx="91.3" ry="12.2"/>
<g id="XMLID_119_">
	<path id="XMLID_121_" class="st10" d="M46.6,48.3c-0.3,0.3-0.5,0.6-0.8,0.9c-0.8,0.8-1.9,1.1-3,1.1c-0.9,0-1.8,0-2.8,0
		c0,0.2,0,0.3,0,0.5c0,1.2,0,2.4,0,3.5c0,0.4-0.1,0.6-0.6,0.6c-0.7,0-1.4,0-2.1,0c-0.4,0-0.6-0.2-0.6-0.6c0-0.3,0-0.5,0-0.8
		c-2.2,1.9-4.7,2.1-7.3,1.1c-1.7-0.7-2.6-2-2.7-3.9c0-0.5,0.1-0.6,0.6-0.6c0.7,0,1.4,0,2.1,0c0.3,0,0.5,0.1,0.5,0.5
		c0.1,1.1,0.6,1.6,1.7,1.8c0.6,0.1,1.3,0,1.9-0.1c0.5-0.1,0.8-0.4,0.9-1c0-0.6-0.3-0.9-0.8-1.1c-0.9-0.3-1.8-0.6-2.7-0.8
		c-0.5-0.2-1-0.3-1.4-0.5c-1.3-0.6-2.3-1.5-2.4-3c-0.2-1.7,0.5-3,2-3.8c2-1.1,4.1-1,6.2,0.1c0.5,0.3,1,0.8,1.4,1.3
		c0-0.4,0-0.8,0-1.2c0-0.5,0.1-0.6,0.6-0.6c2.9,0,5.8,0,8.6,0c0.4,0,0.6,0.1,0.7,0.5c0.8,1.5,1.7,2.9,2.5,4.5
		c0.1-0.2,0.2-0.3,0.2-0.4c0.7-1.3,1.4-2.7,2.1-4c0.2-0.3,0.4-0.4,0.7-0.4c0.8,0,1.6,0,2.3,0c0.5,0,0.7,0.3,0.4,0.7
		c-2.2,4.1-4.3,8.1-6.5,12.2c-0.2,0.3-0.3,0.4-0.7,0.4c-0.8,0-1.5,0-2.3,0c-0.5,0-0.7-0.3-0.4-0.7c0.7-1.3,1.4-2.7,2.1-4
		c0.1-0.2,0.2-0.4,0-0.7C47.1,49.1,46.8,48.7,46.6,48.3z M36.7,46c-0.7,0-1.4,0-2.1,0c-0.4,0-0.6-0.1-0.6-0.6
		c-0.1-0.7-0.5-1.1-1.1-1.3c-0.4-0.1-0.9-0.1-1.3-0.1c-0.4,0.1-0.8,0.2-1,0.4c-0.5,0.4-0.3,1.2,0.3,1.4c0.4,0.2,0.8,0.3,1.2,0.4
		c1.6,0.5,3.3,0.6,4.6,2C36.7,47.5,36.7,46.8,36.7,46z M40,47.5c0.9,0,1.8,0.1,2.7,0c0.9-0.1,1.3-0.6,1.2-1.6c0-0.9-0.4-1.4-1.3-1.5
		c-0.8-0.1-1.5,0-2.3,0c-0.1,0-0.3,0.2-0.3,0.2C40,45.6,40,46.6,40,47.5z"/>
	<path id="XMLID_26_" class="st10" d="M58.2,51.5c-1,0-1.9,0-2.7,0c-0.5,0-0.6-0.1-0.6-0.6c0-1.7,0-3.4,0-5.1c0-0.5,0.1-0.6,0.6-0.6
		c0.7,0,1.5,0,2.2,0c0.2,0,0.3,0,0.5,0c0-0.7,0-1.3,0-2c0-0.3,0-0.7,0-1c0-0.5,0.1-0.6,0.6-0.6c1.9,0,3.8,0,5.8,0c0,0,0.1,0,0.1,0
		c0.4,0,0.5,0.2,0.5,0.5c0,0.9,0,1.7,0,2.6c0,0.4,0.1,0.5,0.5,0.5c0.8,0,1.5,0,2.3,0c0.5,0,0.7,0.1,0.7,0.6c0,1.7,0,3.4,0,5.1
		c0,0.5-0.1,0.6-0.6,0.6c-0.8,0-1.6,0-2.3,0c-0.3,0-0.4,0.1-0.4,0.4c0,0.8,0,1.7,0,2.5c0,0.4-0.2,0.5-0.5,0.5c-2,0-3.9,0-5.9,0
		c-0.4,0-0.5-0.1-0.5-0.6c0-0.8,0-1.6,0-2.4C58.2,51.8,58.2,51.7,58.2,51.5z"/>
</g>
<g id="XMLID_106_">
	<path id="XMLID_116_" class="st10" d="M68,78.4c-0.1,0-0.2,0.1-0.2,0.1c-0.1,0.1-0.1,0.2,0,0.3c0,0.1,0.1,0.2,0.3,0.3
		c0.2,0.1,0.4,0.3,0.7,0.6c0.3,0.2,0.6,0.5,1,0.8c0.4,0.3,0.7,0.7,1,1.1c0.3,0.4,0.6,0.9,0.9,1.5c0.3,0.6,0.5,1.2,0.7,1.9
		c0.2,0.7,0.3,1.4,0.3,2.2c0,0.8,0,1.5-0.1,2.3c-0.1,0.8-0.3,1.5-0.5,2.2c-0.2,0.7-0.6,1.4-1,1.9c-0.4,0.6-0.9,1.1-1.4,1.5
		c-0.6,0.4-1.2,0.7-1.9,0.9c-0.7,0.2-1.4,0.2-2,0.2c-0.6-0.1-1.2-0.2-1.6-0.5c-0.5-0.3-0.9-0.7-1.2-1.3c-0.3-0.6-0.6-1.2-0.8-2.1
		c-0.3-1.1-0.3-2.2-0.2-3.3s0.4-2.2,0.8-3.2c0.5-1,1.1-1.8,2-2.6c0.8-0.7,1.9-1.2,3.1-1.5c0.1,0,0.2,0,0.3,0c0.1,0,0.2,0,0.2,0
		c-0.5-0.4-1-0.7-1.5-1c-0.5-0.3-1-0.6-1.4-0.9c-0.4-0.3-0.8-0.6-1.1-0.9c-0.3-0.3-0.5-0.7-0.6-1.2c-0.2-0.7-0.1-1.3,0.4-1.8
		c0.4-0.5,1.1-0.8,2.2-1.1l4.3-1c0.5-0.1,0.9-0.2,1.3-0.3c0.3-0.1,0.6-0.2,0.8-0.3c0.2-0.1,0.3-0.3,0.4-0.5c0.1-0.2,0.1-0.5,0.1-0.9
		l1.2-0.3c0,1.1,0,2.1-0.1,2.8c-0.1,0.7-0.3,1.3-0.5,1.8c-0.3,0.5-0.6,0.8-1.1,1.1c-0.5,0.2-1.1,0.5-1.8,0.6L68,78.4z M68.2,93.3
		c0.4-0.1,0.8-0.3,1-0.7c0.3-0.4,0.5-0.8,0.6-1.4c0.1-0.5,0.2-1.1,0.3-1.7s0-1.2,0-1.8c0-0.6-0.1-1.1-0.1-1.6
		c-0.1-0.5-0.1-0.8-0.2-1c-0.1-0.4-0.2-0.7-0.3-0.9c-0.1-0.2-0.2-0.4-0.3-0.5c-0.1-0.1-0.3-0.2-0.4-0.2c-0.1,0-0.3,0-0.5,0
		c-0.5,0.1-0.8,0.3-1.1,0.7c-0.3,0.4-0.5,0.8-0.7,1.3c-0.2,0.5-0.3,1.1-0.4,1.7c-0.1,0.6-0.1,1.2-0.1,1.7c0,0.6,0,1.1,0.1,1.5
		c0,0.5,0.1,0.8,0.2,1.1c0.1,0.4,0.2,0.8,0.3,1c0.1,0.3,0.3,0.5,0.4,0.6c0.2,0.1,0.3,0.2,0.5,0.2C67.7,93.3,67.9,93.3,68.2,93.3z"/>
	<path id="XMLID_113_" class="st10" d="M103.9,82c-0.4,3.8-1.7,5.9-4,6.5c-0.6,0.1-1.1,0.2-1.5,0.1c-0.5-0.1-0.9-0.2-1.2-0.4
		c-0.3-0.2-0.6-0.5-0.8-0.8c-0.2-0.3-0.4-0.7-0.5-1.1c-0.1-0.4-0.2-0.9-0.2-1.6c0-0.7-0.1-1.5-0.1-2.4l-0.1-5.9
		c-0.5,0.1-0.9,0.3-1.2,0.6c-0.3,0.3-0.5,0.7-0.7,1.2c-0.2,0.5-0.3,1.1-0.3,1.9c0,0.7-0.1,1.6,0,2.6c0,1.2,0,2.2,0,3.2
		c0,0.9-0.1,1.7-0.3,2.4c-0.2,0.7-0.5,1.2-0.9,1.6c-0.4,0.4-1,0.7-1.8,0.9c-0.4,0.1-0.8,0.1-1.2,0.1c-0.4,0-0.7-0.1-1-0.3
		c-0.3-0.1-0.5-0.3-0.8-0.6c-0.2-0.2-0.4-0.5-0.6-0.8c-0.4,0.4-0.9,0.8-1.4,1.2c-0.5,0.4-1.1,0.8-1.7,1.1c-0.6,0.3-1.2,0.7-1.8,0.9
		c-0.6,0.3-1.2,0.5-1.8,0.6c-0.7,0.2-1.3,0.2-1.9,0.2c-0.6,0-1.1-0.2-1.6-0.4c-0.5-0.3-0.9-0.6-1.3-1.2c-0.4-0.5-0.6-1.2-0.8-2
		c-0.1-0.6-0.2-1.2-0.3-1.9c-0.1-0.7,0-1.5,0-2.3c0.1-0.8,0.2-1.6,0.5-2.4c0.2-0.8,0.6-1.6,1-2.3c0.4-0.7,1-1.3,1.7-1.8
		s1.5-0.9,2.5-1.1c2.4-0.6,4,0.6,4.7,3.7c0.4,1.7,0.5,3.3,0.4,4.7c-0.1,1.4-0.5,2.7-1,3.7c0.4-0.3,0.9-0.6,1.3-0.9
		c0.4-0.3,0.8-0.6,1.1-0.9c-0.1-0.6-0.1-1.2,0.2-1.6c0.2-0.4,0.6-0.7,1.1-0.9c0.4-0.1,0.8-0.1,1.2,0.2c0.3,0.2,0.6,0.5,0.7,1
		c0.1,0.5,0.1,0.8-0.1,1.1c-0.2,0.3-0.4,0.4-0.7,0.5c0,0.1,0.1,0.2,0.1,0.3c0.1,0.1,0.1,0.2,0.2,0.3c0.1,0.1,0.2,0.1,0.4,0.1
		c0.2,0,0.3,0,0.6,0c0.5-0.1,0.8-0.3,1-0.7c0.2-0.4,0.4-0.8,0.4-1.4c0.1-0.6,0.1-1.2,0.1-1.9c0-0.7,0-1.4-0.1-2.2
		c0-1.5,0-2.8,0.2-3.8c0.1-1,0.4-1.8,0.7-2.4c0.3-0.6,0.7-1.1,1.2-1.4c0.5-0.3,1.1-0.5,1.7-0.7l4.2-1l0.2,7.4c0,1,0,1.7,0,2.3
		c0,0.6,0,1,0.1,1.2c0.2,0.8,0.7,1.1,1.4,0.9c0.3-0.1,0.5-0.2,0.7-0.3c0.2-0.1,0.3-0.3,0.5-0.6c0.1-0.2,0.2-0.6,0.3-0.9
		c0.1-0.4,0.2-0.8,0.3-1.2L103.9,82z M80.4,90.4c0.4-0.1,0.8-0.4,1.1-0.9c0.3-0.5,0.5-1.2,0.7-2c0.2-0.8,0.2-1.7,0.2-2.7
		c0-1-0.2-2.1-0.4-3.1c-0.2-0.8-0.4-1.3-0.6-1.7c-0.2-0.3-0.6-0.5-1-0.4c-0.3,0.1-0.6,0.3-0.9,0.6c-0.3,0.3-0.5,0.8-0.6,1.3
		c-0.2,0.5-0.3,1.1-0.4,1.7c-0.1,0.6-0.2,1.2-0.2,1.9c0,0.6,0,1.2,0,1.8c0,0.6,0.1,1.1,0.2,1.6c0.1,0.5,0.2,0.8,0.3,1.1
		c0.1,0.3,0.3,0.5,0.4,0.6c0.2,0.1,0.3,0.2,0.5,0.2C79.9,90.4,80.2,90.4,80.4,90.4z"/>
	<path id="XMLID_110_" class="st10" d="M114.5,79.5c-0.2,0.8-0.5,1.5-0.9,2.3c-0.4,0.7-0.8,1.4-1.3,2.1c-0.5,0.6-1.1,1.2-1.9,1.7
		c-0.7,0.5-1.5,0.8-2.5,1.1c-0.7,0.2-1.3,0.2-1.9,0.2c-0.6,0-1.1-0.2-1.6-0.5c-0.5-0.3-0.9-0.7-1.2-1.2c-0.3-0.5-0.6-1.2-0.8-2
		c-0.1-0.5-0.2-1.2-0.3-1.9c-0.1-0.7-0.1-1.5,0-2.3s0.2-1.6,0.4-2.4c0.2-0.8,0.6-1.6,1-2.3c0.4-0.7,1-1.3,1.7-1.8
		c0.7-0.5,1.5-0.9,2.5-1.1c0.6-0.2,1.2-0.2,1.6-0.1c0.4,0.1,0.8,0.2,1.1,0.4c0.3,0.2,0.5,0.4,0.7,0.8c0.2,0.3,0.3,0.6,0.4,1
		c0.2,0.8,0.2,1.6,0,2.4c-0.2,0.8-0.5,1.5-1,2.2c-0.5,0.7-1.1,1.3-1.8,1.8c-0.7,0.5-1.5,0.9-2.3,1.1c0,0.2,0.1,0.4,0.1,0.6
		s0.1,0.4,0.1,0.5c0.1,0.5,0.3,0.9,0.4,1.2c0.2,0.3,0.3,0.5,0.6,0.6c0.2,0.1,0.5,0.2,0.7,0.2c0.3,0,0.6,0,0.9-0.1
		c0.6-0.1,1.1-0.3,1.5-0.6c0.4-0.3,0.8-0.6,1.1-0.9c0.3-0.4,0.6-0.7,0.9-1.2c0.3-0.4,0.5-0.9,0.8-1.4L114.5,79.5z M106.3,79.3
		c0.5-0.2,1-0.4,1.4-0.8c0.4-0.4,0.8-0.8,1.1-1.4c0.3-0.5,0.5-1.1,0.6-1.7c0.1-0.6,0.1-1.2-0.1-1.8c-0.1-0.4-0.2-0.6-0.4-0.8
		c-0.2-0.2-0.4-0.2-0.6-0.2c-0.4,0.1-0.7,0.3-0.9,0.8c-0.3,0.4-0.5,1-0.7,1.6c-0.2,0.6-0.3,1.3-0.4,2.1
		C106.3,77.8,106.3,78.6,106.3,79.3z"/>
	<path id="XMLID_107_" class="st10" d="M122.7,78.7c0,0.9,0,1.6-0.2,2.2c-0.2,0.6-0.5,1.1-0.8,1.6c-0.4,0.4-0.8,0.8-1.3,1
		s-1,0.4-1.6,0.6c-0.7,0.2-1.3,0.2-1.9,0.2c-0.6,0-1.1-0.2-1.6-0.5c-0.5-0.3-0.9-0.7-1.2-1.2c-0.3-0.5-0.6-1.2-0.8-2
		c-0.1-0.5-0.2-1.2-0.3-1.9c-0.1-0.7-0.1-1.5,0-2.3c0.1-0.8,0.2-1.6,0.4-2.4c0.2-0.8,0.6-1.6,1-2.3c0.4-0.7,1-1.3,1.7-1.8
		c0.7-0.5,1.5-0.9,2.5-1.1c0.6-0.2,1.2-0.2,1.6-0.1c0.4,0.1,0.8,0.2,1.1,0.4c0.3,0.2,0.5,0.4,0.7,0.8c0.2,0.3,0.3,0.6,0.4,1
		c0.2,0.8,0.2,1.6,0,2.4s-0.5,1.5-1,2.2c-0.5,0.7-1.1,1.3-1.8,1.8c-0.7,0.5-1.5,0.9-2.3,1.1c0,0.2,0,0.3,0.1,0.5
		c0,0.1,0,0.3,0.1,0.4c0.1,0.5,0.2,0.8,0.4,1.1c0.2,0.3,0.3,0.5,0.5,0.6c0.2,0.1,0.4,0.2,0.6,0.2c0.2,0,0.5,0,0.7-0.1
		c0.3-0.1,0.6-0.2,0.8-0.3c0.3-0.2,0.5-0.3,0.8-0.5c0.3-0.2,0.5-0.4,0.7-0.7C122.3,79.2,122.5,78.9,122.7,78.7z M117.1,76.8
		c0.5-0.1,1-0.4,1.5-0.8c0.4-0.4,0.8-0.8,1.1-1.4c0.3-0.5,0.5-1.1,0.6-1.7c0.1-0.6,0.1-1.2-0.1-1.8c-0.1-0.4-0.2-0.6-0.4-0.8
		c-0.2-0.2-0.4-0.3-0.6-0.2c-0.4,0.1-0.7,0.3-0.9,0.8c-0.3,0.4-0.5,1-0.6,1.6c-0.2,0.6-0.3,1.3-0.4,2.1S117.1,76.1,117.1,76.8z"/>
</g>
<g id="XMLID_83_">
	<path id="XMLID_17_" class="st10" d="M53,132.7c0.4,0,0.8,0.1,1.2,0.3c0.3,0.1,0.6,0.3,0.9,0.5c0.3,0.2,0.5,0.5,0.6,0.8
		c0.2,0.3,0.3,0.6,0.4,0.9c0.1,0.4,0.1,0.8,0.1,1.2c0,0.4-0.1,0.8-0.2,1.2c-0.1,0.4-0.3,0.8-0.5,1.2c-0.2,0.4-0.5,0.7-0.8,1
		c-0.3,0.3-0.7,0.6-1.1,0.8c-0.4,0.2-0.9,0.4-1.4,0.5c-0.2,0-0.4,0.1-0.6,0.1c-0.3,0-0.5,0-0.8,0c-0.3,0-0.6-0.1-0.9-0.1
		c-0.3-0.1-0.6-0.2-0.8-0.4s-0.5-0.4-0.7-0.7c-0.2-0.3-0.4-0.7-0.5-1.2c-0.1-0.4-0.1-0.7-0.1-1.1c0-0.3,0.1-0.7,0.2-0.9
		c0.1-0.3,0.3-0.5,0.6-0.7c0.2-0.2,0.6-0.3,0.9-0.4c0.2,0,0.3-0.1,0.5-0.1c0.2,0,0.3,0,0.5,0.1c0.1,0,0.3,0.1,0.4,0.2
		c0.1,0.1,0.2,0.2,0.3,0.4c-0.3,0.1-0.6,0.3-0.8,0.4c-0.2,0.2-0.3,0.4-0.4,0.6c-0.1,0.2-0.1,0.4-0.1,0.7c0,0.2,0,0.4,0.1,0.6
		c0.1,0.3,0.2,0.5,0.3,0.7c0.1,0.2,0.3,0.3,0.5,0.4c0.2,0.1,0.4,0.2,0.6,0.2c0.2,0,0.4,0,0.6,0c0.3-0.1,0.5-0.2,0.8-0.4
		c0.2-0.2,0.5-0.4,0.6-0.8c0.2-0.3,0.3-0.7,0.3-1.1c0.1-0.4,0-0.9-0.1-1.4c-0.1-0.3-0.2-0.7-0.4-1s-0.4-0.6-0.7-0.9
		c-0.3-0.3-0.6-0.5-1-0.7c-0.4-0.2-0.8-0.3-1.2-0.3c0.5-0.3,0.9-0.6,1.2-0.9c0.3-0.4,0.6-0.7,0.8-1.1c0.2-0.4,0.3-0.8,0.4-1.2
		c0.1-0.4,0-0.7,0-1.1c-0.1-0.2-0.1-0.4-0.2-0.6c-0.1-0.2-0.2-0.3-0.4-0.4c-0.1-0.1-0.3-0.2-0.5-0.2c-0.2,0-0.4,0-0.6,0
		c-0.2,0.1-0.4,0.1-0.6,0.2c-0.2,0.1-0.3,0.2-0.4,0.4c-0.1,0.2-0.2,0.3-0.2,0.5c0,0.2,0,0.4,0,0.6c0,0.1,0.1,0.3,0.1,0.4
		c0.1,0.1,0.1,0.3,0.2,0.4c0.1,0.1,0.2,0.2,0.3,0.3c0.1,0.1,0.2,0.1,0.4,0.1c-0.2,0.3-0.4,0.5-0.6,0.6c-0.2,0.2-0.4,0.3-0.7,0.3
		c-0.2,0-0.4,0-0.5,0c-0.2,0-0.3-0.1-0.5-0.2c-0.2-0.1-0.3-0.2-0.4-0.4c-0.1-0.2-0.2-0.4-0.3-0.6c-0.1-0.4-0.1-0.8,0-1.2
		c0.1-0.4,0.3-0.7,0.6-1.1c0.3-0.3,0.6-0.6,1.1-0.9c0.4-0.2,0.9-0.4,1.4-0.6c0.6-0.1,1.1-0.2,1.5-0.1c0.5,0,0.9,0.2,1.2,0.3
		c0.3,0.2,0.6,0.4,0.8,0.7s0.4,0.6,0.5,1c0.1,0.3,0.1,0.6,0.1,1c0,0.3-0.1,0.7-0.3,1c-0.1,0.3-0.3,0.7-0.6,1
		C53.7,132,53.3,132.3,53,132.7z"/>
	<path id="XMLID_16_" class="st10" d="M61.6,134.5c-0.4,0-0.8,0-1.2-0.1c-0.4,0-0.8,0-1.3,0.1c-0.3,0.1-0.6,0.2-1,0.3
		c-0.3,0.1-0.6,0.3-0.9,0.6l-0.1,0l-0.6-0.6l0-0.1c0.4-0.7,0.7-1.5,1.1-2.2c0.3-0.7,0.6-1.5,0.8-2.2c0.2-0.7,0.4-1.4,0.5-2.1
		c0.1-0.7,0-1.3-0.1-1.9c0-0.2-0.1-0.4-0.2-0.6c-0.1-0.2-0.1-0.4-0.2-0.5c0.1-0.1,0.3-0.1,0.4-0.2c0.2-0.1,0.3-0.1,0.5-0.1
		c0.3-0.1,0.5-0.1,0.8-0.1c0.2,0,0.4,0.1,0.6,0.2c0.2,0.1,0.3,0.3,0.5,0.4c0.1,0.2,0.2,0.4,0.3,0.6c0.1,0.3,0.1,0.6,0,1
		c-0.1,0.4-0.2,0.8-0.3,1.2c-0.2,0.4-0.3,0.9-0.6,1.3s-0.5,0.9-0.7,1.3c-0.3,0.4-0.5,0.8-0.8,1.2c-0.3,0.4-0.5,0.8-0.8,1.1l0,0.1
		c0.2-0.1,0.4-0.3,0.7-0.4c0.3-0.1,0.6-0.2,0.9-0.3c0.3-0.1,0.6-0.1,0.9-0.1c0.3,0,0.7,0,1-0.1l0.5-4.6l1.2-0.3l0.1,4.5
		c0.2-0.1,0.3-0.3,0.5-0.5s0.3-0.4,0.5-0.7l0.1,0c0.1,0.1,0.3,0.3,0.3,0.5c0.1,0.2,0.2,0.3,0.2,0.5c0.1,0.2,0.1,0.5,0,0.7
		c0,0.2-0.1,0.5-0.3,0.7c-0.1,0.2-0.3,0.4-0.5,0.6c-0.2,0.2-0.5,0.3-0.7,0.5l0.1,4l-2.6,0.6L61.6,134.5z"/>
	<path id="XMLID_101_" class="st10" d="M70.9,136.7c-0.7,0.2-1.3,0.2-1.9,0.1c-0.5-0.1-1-0.4-1.4-0.7c-0.4-0.3-0.7-0.8-0.9-1.3
		c-0.2-0.5-0.4-1.1-0.6-1.8c-0.2-0.8-0.3-1.7-0.4-2.5c-0.1-0.8,0-1.6,0.1-2.4c0.1-0.8,0.2-1.5,0.5-2.1c0.2-0.7,0.5-1.3,0.9-1.8
		c0.4-0.5,0.8-1,1.3-1.3c0.5-0.4,1.1-0.6,1.7-0.8c0.6-0.1,1.2-0.2,1.6-0.1s0.9,0.3,1.3,0.6c0.4,0.3,0.7,0.7,1,1.2
		c0.3,0.5,0.5,1.1,0.6,1.8c0.1,0.4,0.2,0.9,0.3,1.5c0.1,0.5,0.1,1.1,0.1,1.6c0,0.6,0,1.1,0,1.7c0,0.6-0.1,1.1-0.2,1.7
		c-0.1,0.5-0.3,1.1-0.5,1.6c-0.2,0.5-0.5,0.9-0.8,1.4c-0.3,0.4-0.7,0.8-1.1,1S71.5,136.6,70.9,136.7z M70.4,123.1
		c-0.3,0.1-0.6,0.3-0.8,0.6c-0.2,0.3-0.4,0.7-0.6,1.2c-0.2,0.5-0.3,1-0.4,1.7c-0.1,0.6-0.1,1.3-0.1,2c0,0.7,0,1.4,0.1,2.1
		c0.1,0.7,0.2,1.4,0.4,2.1c0.1,0.3,0.2,0.7,0.3,1c0.1,0.3,0.2,0.6,0.4,0.8c0.1,0.2,0.3,0.4,0.5,0.5c0.2,0.1,0.4,0.1,0.7,0.1
		c0.3-0.1,0.6-0.3,0.8-0.6c0.2-0.3,0.4-0.7,0.6-1.2c0.1-0.5,0.3-1,0.3-1.6c0.1-0.6,0.1-1.3,0.1-2c0-0.7-0.1-1.4-0.1-2.1
		c-0.1-0.7-0.2-1.5-0.4-2.2c-0.1-0.4-0.2-0.7-0.3-1s-0.2-0.6-0.4-0.8c-0.1-0.2-0.3-0.4-0.5-0.5C70.7,123.1,70.5,123.1,70.4,123.1z"
		/>
	<path id="XMLID_98_" class="st10" d="M81.1,134.3c-0.7,0.2-1.3,0.2-1.9,0.1c-0.5-0.1-1-0.4-1.4-0.7c-0.4-0.3-0.7-0.8-0.9-1.3
		c-0.2-0.5-0.4-1.1-0.6-1.8c-0.2-0.8-0.3-1.7-0.4-2.5c-0.1-0.8,0-1.6,0.1-2.4c0.1-0.8,0.2-1.5,0.5-2.1c0.2-0.7,0.5-1.3,0.9-1.8
		c0.4-0.5,0.8-1,1.3-1.3c0.5-0.4,1.1-0.6,1.7-0.8c0.6-0.1,1.2-0.2,1.6-0.1c0.5,0.1,0.9,0.3,1.3,0.6c0.4,0.3,0.7,0.7,1,1.2
		s0.5,1.1,0.6,1.8c0.1,0.4,0.2,0.9,0.3,1.5c0.1,0.5,0.1,1.1,0.1,1.6c0,0.6,0,1.1,0,1.7c0,0.6-0.1,1.1-0.2,1.7
		c-0.1,0.5-0.3,1.1-0.5,1.6c-0.2,0.5-0.5,0.9-0.8,1.4c-0.3,0.4-0.7,0.8-1.1,1C82.2,133.9,81.7,134.1,81.1,134.3z M80.6,120.7
		c-0.3,0.1-0.6,0.3-0.8,0.6c-0.2,0.3-0.4,0.7-0.6,1.2c-0.2,0.5-0.3,1-0.4,1.7c-0.1,0.6-0.1,1.3-0.1,2c0,0.7,0,1.4,0.1,2.1
		c0.1,0.7,0.2,1.4,0.3,2.1c0.1,0.3,0.2,0.7,0.3,1c0.1,0.3,0.2,0.6,0.4,0.8c0.1,0.2,0.3,0.4,0.5,0.5c0.2,0.1,0.4,0.1,0.7,0.1
		c0.3-0.1,0.6-0.3,0.8-0.6c0.2-0.3,0.4-0.7,0.6-1.2c0.1-0.5,0.3-1,0.3-1.6c0.1-0.6,0.1-1.3,0.1-2c0-0.7-0.1-1.4-0.1-2.1
		c-0.1-0.7-0.2-1.5-0.4-2.2c-0.1-0.4-0.2-0.7-0.3-1c-0.1-0.3-0.2-0.6-0.4-0.8c-0.1-0.2-0.3-0.4-0.5-0.5
		C80.9,120.7,80.7,120.7,80.6,120.7z"/>
	<path id="XMLID_11_" class="st10" d="M100.2,126.1c-0.2,2.4-1.1,3.8-2.5,4.2c-0.7,0.2-1.3,0.1-1.8-0.2c-0.5-0.3-0.8-0.7-0.9-1.4
		c0-0.1-0.1-0.3-0.1-0.5c0-0.2,0-0.3,0-0.5c0-0.2,0-0.3,0-0.5c0-0.1,0-0.3-0.1-0.4c-0.1-0.6-0.4-0.8-0.9-0.7c-0.1,0-0.2,0.1-0.2,0.1
		c-0.1,0-0.1,0.1-0.2,0.2c-0.1,0.1-0.2,0.2-0.2,0.3c-0.1,0.1-0.2,0.2-0.3,0.4l0.1,4.1l-2.6,0.6l-0.2-9.6l2.6-0.6l0.1,3.8
		c0.3-0.5,0.6-1,0.9-1.5c0.2-0.4,0.5-0.8,0.7-1.2c0.2-0.3,0.4-0.6,0.5-0.9c0.2-0.3,0.3-0.5,0.5-0.7c0.2-0.2,0.3-0.3,0.5-0.4
		c0.2-0.1,0.4-0.2,0.6-0.3c0.4-0.1,0.8-0.1,1,0.1c0.3,0.2,0.4,0.4,0.5,0.8c0.1,0.4,0.1,0.7-0.1,0.9c-0.1,0.3-0.4,0.4-0.8,0.5
		c-0.2,0-0.3,0.1-0.5,0c-0.1,0-0.3-0.1-0.4-0.1c-0.1-0.1-0.2-0.2-0.2-0.3c-0.1-0.1-0.1-0.2-0.1-0.3c-0.2,0.2-0.3,0.4-0.5,0.6
		c-0.1,0.2-0.3,0.4-0.4,0.6c-0.1,0.2-0.3,0.5-0.4,0.7c-0.1,0.2-0.3,0.5-0.4,0.7c0.1-0.1,0.3-0.1,0.4-0.2c0.1,0,0.3-0.1,0.4-0.1
		c0.3-0.1,0.6-0.1,0.9-0.1c0.2,0,0.4,0.1,0.6,0.2c0.2,0.1,0.3,0.3,0.4,0.5s0.2,0.4,0.3,0.7c0,0.1,0.1,0.3,0.1,0.4c0,0.2,0,0.3,0,0.5
		c0,0.2,0,0.3,0,0.5c0,0.2,0,0.3,0.1,0.5c0.1,0.5,0.4,0.6,0.9,0.5c0.2,0,0.3-0.1,0.5-0.2c0.1-0.1,0.2-0.2,0.3-0.4
		c0.1-0.2,0.2-0.4,0.2-0.6c0.1-0.2,0.1-0.5,0.2-0.8L100.2,126.1z"/>
	<path id="XMLID_10_" class="st10" d="M110.4,123.7c-0.2,2.4-1.1,3.8-2.6,4.2c-0.4,0.1-0.7,0.1-1,0.1c-0.3,0-0.6-0.1-0.8-0.3
		c-0.2-0.1-0.4-0.3-0.5-0.5c-0.1-0.2-0.2-0.4-0.3-0.7c-0.1-0.3-0.1-0.6-0.1-1c0-0.4,0-0.9-0.1-1.6l-0.1-3.8
		c-0.3,0.1-0.6,0.2-0.8,0.4c-0.2,0.2-0.3,0.4-0.5,0.8c-0.1,0.3-0.2,0.7-0.2,1.2c0,0.5,0,1,0,1.7c0,0.8,0,1.4,0,2
		c0,0.6-0.1,1.1-0.2,1.6c-0.1,0.4-0.3,0.8-0.6,1.1s-0.7,0.5-1.2,0.6c-0.4,0.1-0.7,0.1-1,0c-0.3-0.1-0.5-0.2-0.7-0.3
		c-0.2-0.2-0.4-0.3-0.5-0.6c-0.1-0.2-0.2-0.5-0.3-0.7c-0.1-0.4-0.1-0.8,0.1-1.1c0.1-0.3,0.4-0.5,0.7-0.6c0.3-0.1,0.5,0,0.8,0.1
		c0.2,0.1,0.4,0.3,0.4,0.6c0.1,0.3,0,0.5-0.1,0.7c-0.1,0.2-0.3,0.3-0.5,0.3c0,0.1,0.1,0.1,0.1,0.2c0,0.1,0.1,0.1,0.2,0.2
		s0.2,0.1,0.2,0.1c0.1,0,0.2,0,0.4,0c0.3-0.1,0.5-0.2,0.7-0.5c0.1-0.2,0.2-0.5,0.3-0.9s0.1-0.8,0-1.2c0-0.5,0-0.9,0-1.4
		c0-1,0-1.8,0.1-2.5c0.1-0.6,0.2-1.2,0.5-1.6c0.2-0.4,0.5-0.7,0.8-0.9c0.3-0.2,0.7-0.3,1.1-0.4l2.7-0.6l0.1,4.8c0,0.6,0,1.1,0,1.5
		c0,0.4,0,0.6,0.1,0.8c0.1,0.5,0.4,0.7,0.9,0.6c0.2,0,0.3-0.1,0.5-0.2c0.1-0.1,0.2-0.2,0.3-0.4c0.1-0.2,0.2-0.4,0.2-0.6
		c0.1-0.2,0.1-0.5,0.2-0.8L110.4,123.7z"/>
	<path id="XMLID_9_" class="st10" d="M119.7,121.5c-0.1,0.5-0.1,1-0.3,1.4c-0.1,0.4-0.3,0.8-0.4,1.1c-0.2,0.3-0.3,0.6-0.5,0.8
		c-0.2,0.2-0.4,0.4-0.6,0.5c-0.2,0.1-0.4,0.2-0.6,0.3c-0.2,0.1-0.4,0.1-0.5,0.2c-0.5,0.1-1,0.1-1.4-0.1c-0.4-0.2-0.7-0.6-0.9-1.2
		c-0.1,0.4-0.3,0.8-0.5,1.1s-0.4,0.5-0.6,0.7c-0.2,0.2-0.4,0.3-0.6,0.4c-0.2,0.1-0.4,0.2-0.6,0.2c-0.3,0.1-0.5,0.1-0.8,0.1
		c-0.3,0-0.5-0.1-0.7-0.2c-0.2-0.1-0.4-0.3-0.6-0.6c-0.2-0.2-0.3-0.6-0.4-1c0-0.2-0.1-0.4-0.1-0.6c0-0.2,0-0.4,0-0.7l-0.1-6.2
		l2.6-0.6l0.2,6.5c0,0.2,0,0.4,0.1,0.5c0.1,0.2,0.1,0.4,0.2,0.5c0.1,0.1,0.3,0.2,0.5,0.1c0.2,0,0.3-0.1,0.5-0.2s0.2-0.3,0.3-0.4
		c0.1-0.2,0.2-0.4,0.2-0.6c0-0.2,0.1-0.5,0.1-0.7l-0.1-6.2l2.6-0.6l0.2,6.5c0,0.1,0,0.2,0,0.3c0,0.1,0,0.2,0.1,0.3
		c0.1,0.3,0.2,0.4,0.3,0.5c0.1,0.1,0.3,0.1,0.6,0c0.2,0,0.3-0.1,0.5-0.2c0.1-0.1,0.2-0.3,0.3-0.4c0.1-0.2,0.2-0.4,0.2-0.6
		s0.1-0.5,0.1-0.7L119.7,121.5z"/>
	<path id="XMLID_92_" class="st10" d="M126.6,119.9c-0.2,0.5-0.3,1-0.6,1.5c-0.2,0.5-0.5,0.9-0.9,1.3s-0.7,0.8-1.2,1.1
		c-0.5,0.3-1,0.5-1.6,0.7c-0.4,0.1-0.8,0.1-1.2,0.1c-0.4,0-0.7-0.1-1-0.3c-0.3-0.2-0.6-0.4-0.8-0.8c-0.2-0.3-0.4-0.8-0.5-1.3
		c-0.1-0.4-0.1-0.8-0.2-1.2c0-0.5,0-1,0-1.5c0-0.5,0.1-1,0.3-1.6c0.1-0.5,0.4-1,0.6-1.5c0.3-0.5,0.6-0.9,1.1-1.2
		c0.4-0.3,1-0.6,1.6-0.7c0.4-0.1,0.8-0.1,1-0.1s0.5,0.1,0.7,0.2c0.2,0.1,0.3,0.3,0.4,0.5c0.1,0.2,0.2,0.4,0.2,0.6
		c0.1,0.5,0.1,1.1,0,1.6c-0.1,0.5-0.3,1-0.7,1.4s-0.7,0.8-1.2,1.1c-0.5,0.3-1,0.6-1.5,0.7c0,0.1,0,0.3,0.1,0.4c0,0.1,0,0.2,0.1,0.3
		c0.1,0.3,0.2,0.6,0.3,0.7c0.1,0.2,0.2,0.3,0.4,0.4c0.1,0.1,0.3,0.1,0.5,0.1c0.2,0,0.4,0,0.6-0.1c0.4-0.1,0.7-0.2,1-0.4
		c0.3-0.2,0.5-0.4,0.7-0.6c0.2-0.2,0.4-0.5,0.6-0.8c0.2-0.3,0.3-0.6,0.5-0.9L126.6,119.9z M121.3,119.7c0.3-0.1,0.7-0.3,0.9-0.5
		c0.3-0.2,0.5-0.5,0.7-0.9c0.2-0.3,0.3-0.7,0.4-1.1c0.1-0.4,0-0.8,0-1.2c-0.1-0.2-0.1-0.4-0.2-0.5c-0.1-0.1-0.2-0.2-0.4-0.1
		c-0.2,0.1-0.4,0.2-0.6,0.5c-0.2,0.3-0.3,0.6-0.4,1c-0.1,0.4-0.2,0.9-0.2,1.3C121.3,118.8,121.2,119.3,121.3,119.7z"/>
	<path id="XMLID_6_" class="st10" d="M136,117.6c-0.2,2.4-1.1,3.8-2.6,4.2c-0.4,0.1-0.7,0.1-1,0.1c-0.3,0-0.6-0.1-0.8-0.3
		c-0.2-0.1-0.4-0.3-0.5-0.5c-0.1-0.2-0.2-0.4-0.3-0.7c-0.1-0.3-0.1-0.6-0.1-1.1c0-0.5,0-1-0.1-1.6l-2,0.5l0.1,4.6l-2.6,0.6l-0.2-9.6
		l2.6-0.6l0.1,3.9l2.1-0.5l0-3.9l2.5-0.6l0.1,4.8c0,0.6,0,1.1,0,1.5c0,0.4,0,0.6,0.1,0.8c0.1,0.5,0.4,0.7,0.9,0.6
		c0.2,0,0.3-0.1,0.5-0.2c0.1-0.1,0.2-0.2,0.3-0.4c0.1-0.2,0.2-0.4,0.2-0.6c0.1-0.2,0.1-0.5,0.2-0.8L136,117.6z"/>
	<path id="XMLID_5_" class="st10" d="M149.8,114.4c-0.1,0.8-0.2,1.5-0.4,2c-0.2,0.5-0.4,0.9-0.7,1.2c-0.2,0.3-0.5,0.5-0.8,0.7
		c-0.3,0.1-0.5,0.2-0.8,0.3c-0.4,0.1-0.8,0.1-1.1,0.1c-0.3-0.1-0.6-0.2-0.8-0.3c-0.2-0.2-0.4-0.3-0.5-0.6c-0.1-0.2-0.2-0.5-0.3-0.7
		c-0.1-0.3-0.1-0.7-0.1-1.1c0-0.4,0-0.9,0-1.3c0-0.5,0-0.9,0-1.3c0-0.4-0.1-0.8-0.1-1.1c-0.1-0.6-0.4-0.9-0.9-0.8
		c-0.2,0-0.3,0.1-0.4,0.2s-0.2,0.3-0.3,0.5c-0.1,0.2-0.1,0.4-0.2,0.6s-0.1,0.5-0.1,0.7l0.1,6.2l-2.6,0.6l-0.2-6.7
		c0-0.2,0-0.3-0.1-0.5c0-0.1-0.1-0.2-0.1-0.3c0-0.1-0.1-0.2-0.2-0.2c-0.1-0.1-0.1-0.1-0.2-0.1s-0.2,0-0.3,0c-0.2,0-0.3,0.1-0.5,0.3
		c-0.1,0.1-0.2,0.3-0.3,0.5c-0.1,0.2-0.2,0.4-0.2,0.6c0,0.2-0.1,0.5-0.1,0.7l0.1,6.2l-2.6,0.6l-0.2-9.6l2.6-0.6l0,1
		c0.1-0.3,0.3-0.5,0.5-0.7c0.2-0.2,0.3-0.3,0.5-0.5c0.2-0.1,0.3-0.2,0.5-0.3c0.2-0.1,0.3-0.1,0.5-0.2c0.2-0.1,0.5-0.1,0.7-0.1
		c0.2,0,0.4,0.1,0.6,0.1c0.2,0.1,0.4,0.2,0.5,0.4c0.2,0.2,0.3,0.4,0.4,0.7c0.1-0.4,0.3-0.7,0.5-1c0.2-0.3,0.4-0.5,0.6-0.6
		c0.2-0.2,0.4-0.3,0.6-0.4c0.2-0.1,0.4-0.1,0.5-0.2c0.3-0.1,0.6-0.1,0.8-0.1c0.3,0,0.5,0.1,0.7,0.2c0.2,0.1,0.4,0.3,0.6,0.5
		c0.2,0.2,0.3,0.5,0.4,0.9c0.1,0.2,0.1,0.5,0.1,0.8c0,0.3,0,0.6,0,0.9c0,0.3,0,0.6,0,0.9c0,0.3,0,0.6,0,0.9c0,0.3,0,0.5,0,0.8
		c0,0.2,0,0.4,0.1,0.6c0.1,0.2,0.2,0.4,0.3,0.5c0.1,0.1,0.3,0.1,0.6,0.1c0.2,0,0.4-0.1,0.5-0.2c0.1-0.1,0.2-0.3,0.3-0.4
		c0.1-0.2,0.2-0.4,0.2-0.6c0.1-0.2,0.1-0.5,0.1-0.7L149.8,114.4z"/>
	<path id="XMLID_87_" class="st10" d="M158.5,108.4c-0.3,0.5-0.7,0.9-1.2,1.3c-0.5,0.4-1.1,0.7-1.7,1c0.1,0.9,0.1,1.7,0.1,2.4
		c-0.1,0.7-0.3,1.4-0.6,2c-0.3,0.6-0.6,1-1.1,1.4c-0.4,0.4-0.9,0.6-1.5,0.8c-0.4,0.1-0.8,0.1-1.2,0.1c-0.4,0-0.7-0.1-1.1-0.3
		c-0.3-0.2-0.6-0.4-0.8-0.8c-0.2-0.3-0.4-0.8-0.5-1.3c-0.1-0.4-0.1-0.8-0.2-1.2c0-0.5,0-1,0-1.5c0-0.5,0.2-1,0.3-1.6
		c0.2-0.5,0.4-1,0.7-1.5c0.3-0.5,0.6-0.8,1.1-1.2c0.4-0.3,1-0.6,1.6-0.7c1.6-0.4,2.6,0.4,3,2.4l0,0c0,0,0.1,0,0.1,0c0,0,0.1,0,0.1,0
		c0.2-0.1,0.4-0.1,0.7-0.3c0.2-0.1,0.5-0.3,0.7-0.4c0.2-0.2,0.4-0.3,0.7-0.5c0.2-0.2,0.4-0.4,0.6-0.6L158.5,108.4z M154.1,111.1
		c-0.2,0-0.4-0.1-0.5-0.2s-0.2-0.3-0.2-0.5c-0.1-0.3-0.1-0.5,0-0.7c0.1-0.2,0.2-0.3,0.3-0.5c-0.1-0.2-0.1-0.4-0.2-0.5
		c-0.1-0.1-0.1-0.2-0.2-0.3c-0.1-0.1-0.2-0.1-0.2-0.1c-0.1,0-0.2,0-0.3,0c-0.2,0.1-0.4,0.2-0.6,0.4c-0.2,0.2-0.3,0.5-0.4,0.8
		c-0.1,0.3-0.2,0.7-0.3,1.1c-0.1,0.4-0.1,0.8-0.1,1.2c0,0.4,0,0.8,0,1.2c0,0.4,0.1,0.7,0.2,1c0.1,0.3,0.1,0.5,0.2,0.7
		c0.1,0.2,0.2,0.3,0.3,0.4c0.1,0.1,0.2,0.1,0.3,0.2c0.1,0,0.3,0,0.5,0c0.2-0.1,0.4-0.2,0.6-0.5c0.2-0.2,0.3-0.6,0.4-1
		c0.1-0.4,0.2-0.8,0.2-1.3C154.1,112.2,154.1,111.7,154.1,111.1z"/>
	<path id="XMLID_84_" class="st10" d="M162.2,107.6c0.5,0.1,0.9,0.4,1.2,0.7c0.3,0.3,0.5,0.8,0.6,1.3c0.1,0.6,0.2,1.2,0.1,1.8
		c-0.1,0.6-0.2,1.2-0.5,1.7c-0.3,0.5-0.7,1-1.1,1.4c-0.5,0.4-1.1,0.7-1.8,0.8c-0.5,0.1-1,0.2-1.4,0.1c-0.4-0.1-0.8-0.2-1.1-0.5
		c-0.3-0.2-0.6-0.5-0.8-0.9c-0.2-0.4-0.4-0.8-0.5-1.3c-0.1-0.3-0.1-0.7-0.2-1.2c0-0.5-0.1-1,0-1.6c0-0.6,0-1.2,0.1-1.9
		c0.1-0.6,0.1-1.3,0.3-1.9c0.1-0.6,0.3-1.2,0.4-1.8c0.2-0.6,0.4-1.1,0.6-1.6c0.3-0.5,0.5-0.9,0.9-1.2c0.3-0.3,0.7-0.5,1.1-0.6
		c0.3-0.1,0.6-0.1,0.9-0.1c0.3,0,0.5,0.1,0.7,0.3c0.2,0.2,0.4,0.4,0.6,0.7c0.2,0.3,0.3,0.7,0.4,1.1c0.1,0.4,0.1,0.8,0.1,1.2
		c0,0.4,0,0.8-0.1,1.3c-0.1,0.4-0.1,0.8-0.2,1.2C162.4,107,162.3,107.3,162.2,107.6z M162,109.5c-0.1,0.1-0.2,0.1-0.3,0.1
		c-0.1,0-0.2,0.1-0.4,0.1c-0.3,0.1-0.5,0-0.7-0.1c-0.2-0.1-0.3-0.3-0.4-0.6c0-0.2-0.1-0.4,0-0.5c0-0.1,0.1-0.3,0.2-0.4
		c0.1-0.1,0.2-0.2,0.4-0.3c0.1-0.1,0.3-0.1,0.5-0.2c0.1-0.3,0.2-0.7,0.2-1.1c0.1-0.4,0.1-0.8,0.2-1.2c0-0.4,0-0.8,0-1.2
		c0-0.4-0.1-0.8-0.1-1.1c-0.1-0.4-0.2-0.6-0.3-0.8c-0.1-0.1-0.3-0.2-0.5-0.1c-0.2,0-0.4,0.2-0.5,0.5c-0.1,0.3-0.3,0.6-0.4,1
		c-0.1,0.4-0.2,0.9-0.2,1.4c-0.1,0.5-0.1,1-0.1,1.6c0,0.5,0,1.1,0,1.7s0,1.1,0,1.6c0,0.5,0.1,0.9,0.1,1.3c0,0.4,0.1,0.7,0.2,1
		c0.1,0.2,0.1,0.5,0.2,0.6s0.2,0.3,0.3,0.5c0.1,0.1,0.3,0.2,0.4,0.2c0.2,0,0.3,0,0.5,0c0.3-0.1,0.5-0.2,0.7-0.4
		c0.2-0.2,0.3-0.5,0.5-0.7c0.1-0.3,0.2-0.6,0.2-0.9c0-0.3,0-0.6-0.1-0.9C162.3,110,162.1,109.7,162,109.5z"/>
</g>
</svg>
