<?xml version="1.0" encoding="utf-8"?>
<!-- Generator: Adobe Illustrator 19.0.0, SVG Export Plug-In . SVG Version: 6.00 Build 0)  -->
<svg version="1.1" id="Layer_1" xmlns="http://www.w3.org/2000/svg" xmlns:xlink="http://www.w3.org/1999/xlink" x="0px" y="0px"
	 viewBox="0 0 200 200" style="enable-background:new 0 0 200 200;" xml:space="preserve">
<style type="text/css">
	.st0{fill:#343433;stroke:#FFFFFF;stroke-width:3;stroke-miterlimit:10;}
	.st1{fill:#F78D38;stroke:#FFFFFF;stroke-width:3;stroke-miterlimit:10;}
	.st2{fill:#F17523;stroke:#FFFFFF;stroke-width:3;stroke-miterlimit:10;}
	.st3{opacity:0.5;}
	.st4{fill:#FFFFFF;stroke:#FFFFFF;stroke-width:3;stroke-miterlimit:10;}
	.st5{opacity:0.26;fill:#010101;stroke:#FFFFFF;stroke-width:3;stroke-miterlimit:10;enable-background:new    ;}
	.st6{fill:#343433;}
	.st7{fill:#F78D38;}
	.st8{fill:#F17523;}
	.st9{fill:#FFFFFF;}
	.st10{opacity:0.26;fill:#010101;enable-background:new    ;}
	.st11{opacity:0.48;fill:url(#XMLID_4_);enable-background:new    ;}
</style>
<polygon id="XMLID_92_" class="st0" points="72.4,35.8 166.8,64.7 166.8,93.4 72.4,64.7 "/>
<polyline id="XMLID_91_" class="st0" points="32.8,137.2 74.8,149.1 74.8,120.2 32.6,108.6 "/>
<polygon id="XMLID_90_" class="st1" points="114.2,166.9 151.5,163.6 154.4,152.8 "/>
<polygon id="XMLID_89_" class="st2" points="149.7,139.4 99.9,173 50.1,139.4 50.1,46.2 149.7,46.2 "/>
<g id="XMLID_86_" class="st3">
	<path id="XMLID_88_" class="st4" d="M77.2,141.4c-4.3,0-7.4-1.7-9.5-4.9c-2.1-3.2-3.2-8.1-3.2-14.5c0-3.2,0.3-6.8,0.9-10.6
		l6.5-40.8c-1.8,0.8-3.5,1.9-5,3.4c-1.5,1.5-2.6,3.1-3.6,5c-1,1.8-1.7,3.9-2.2,6.1c-0.5,2.1-0.8,4.4-0.8,6.7c0,1.7,0.1,3.3,0.4,4.9
		c0.3,1.7,0.7,3.2,1.3,4.8c-2.4,0-4.3-0.9-5.6-2.8c-1.4-1.8-2-4.5-2-8c0-2.2,0.3-4.4,0.9-6.6c0.6-2.1,1.5-4.2,2.5-6.1
		s2.3-3.7,3.8-5.2c1.5-1.7,3.1-3,4.9-4.2c1.7-1.2,3.7-2,5.6-2.7c2-0.7,4.1-1,6.1-1c0.7,0,1.4,0,1.9,0.1c0.6,0.1,1.1,0.2,1.7,0.4
		l-7.8,46.5c-0.4,2-0.6,4-0.8,5.9c-0.2,1.8-0.3,3.5-0.3,5c0,6.4,1.7,9.6,5,9.6c4.7,0,8-6.9,9.9-20.8L94,65.1h8.9l-6,46.4
		c-1.4,9.9-3.7,17.3-7,22.3C86.5,138.9,82.3,141.4,77.2,141.4z"/>
	<path id="XMLID_87_" class="st4" d="M116.9,140.7l-1.1-68.8c-3,1.7-5.3,4.6-7,8.4s-2.5,8.5-2.5,14.1c0,1.3,0,2.3,0.1,3.1
		c0.1,0.8,0.2,1.5,0.3,1.9c0.1,0.5,0.2,0.9,0.3,1.1c0.1,0.3,0.1,0.5,0.1,0.7c-1.1,0-2-0.2-2.9-0.5c-0.9-0.4-1.6-0.9-2.1-1.7
		c-0.6-0.8-1-1.7-1.3-3s-0.5-2.8-0.5-4.7c0-2.2,0.3-4.5,0.9-6.6c0.6-2.1,1.5-4.2,2.5-6.1c1.1-1.9,2.3-3.7,3.8-5.3s3-3,4.7-4.3
		c1.7-1.2,3.4-2.1,5.1-2.8c1.7-0.7,3.6-1,5.3-1c0.5,0,0.9,0,1.4,0.1c0.4,0,0.8,0.1,1.3,0.2l0.6,62l13.5-61.8h4.5l-17.7,75H116.9
		L116.9,140.7z"/>
</g>
<polygon id="XMLID_85_" class="st1" points="167,94.3 33.2,137.2 33.2,108.6 167,65.4 "/>
<polygon id="XMLID_84_" class="st1" points="122.6,28.7 134.2,25.1 161.9,49 "/>
<polygon id="XMLID_83_" class="st1" points="34.3,68.8 32.2,76.8 45,78.8 "/>
<polygon id="XMLID_82_" class="st5" points="62.7,127.2 148,113.8 148,100.2 "/>
<path id="XMLID_81_" class="st0" d="M19.3,42.6c2.2-10.3,16.5-16.5,31.8-14s25.8,12.8,23.6,23.1c-0.9,4.2-3.8,7.6-7.9,10.1l8.2,12.7
	L53.4,66c-3.4,0.3-6.9,0.2-10.6-0.4C27.5,63.2,17.1,52.8,19.3,42.6z"/>
<g id="XMLID_62_">
	<path id="XMLID_78_" class="st4" d="M50.5,119c0,0.7-0.1,1.3-0.2,1.7c-0.2,0.5-0.3,1-0.6,1.3c-0.2,0.4-0.5,0.7-0.8,0.9
		s-0.6,0.4-0.9,0.6c0.2,0.7,0.3,1.4,0.3,1.9s-0.1,1.2-0.3,1.7c-0.2,0.5-0.5,0.9-0.9,1.2c-0.4,0.3-0.8,0.6-1.4,0.7
		c-0.3,0.1-0.6,0.1-0.9,0.1s-0.5-0.1-0.8-0.1c-0.2-0.1-0.5-0.2-0.6-0.4c-0.2-0.2-0.3-0.5-0.4-0.8c-0.1-0.4-0.1-0.8,0-1.1
		c0.1-0.4,0.2-0.7,0.5-1c0.2-0.3,0.5-0.6,0.8-0.9s0.6-0.5,1-0.7c-0.4-1.3-1.1-1.8-1.9-1.6l-0.6,0.2l-0.1-1.2l0.6-0.2
		c0.3-0.1,0.6-0.3,0.9-0.5c0.2-0.3,0.4-0.6,0.5-0.9c0.1-0.4,0.2-0.8,0.2-1.2s-0.1-0.9-0.2-1.3c-0.1-0.2-0.1-0.4-0.2-0.6
		c-0.1-0.2-0.2-0.3-0.4-0.5c-0.2-0.2-0.3-0.2-0.5-0.3c-0.2-0.1-0.4,0-0.7,0c-0.3,0.1-0.5,0.2-0.7,0.4c-0.2,0.2-0.3,0.4-0.4,0.7
		c-0.1,0.2-0.2,0.5-0.2,0.8c-0.1,0.3-0.1,0.5-0.1,0.7l-0.9,0.3c0-0.5,0.1-1,0.2-1.5s0.2-1,0.5-1.4c0.2-0.4,0.5-0.8,0.9-1.2
		c0.4-0.3,0.9-0.6,1.5-0.8c0.5-0.1,0.9-0.2,1.3-0.2c0.4,0,0.8,0.1,1.1,0.3s0.6,0.4,0.9,0.8c0.3,0.3,0.5,0.7,0.6,1.2
		c0.1,0.4,0.2,0.8,0.2,1.2c0,0.4-0.1,0.8-0.1,1.1c-0.1,0.4-0.2,0.7-0.4,1c-0.2,0.3-0.3,0.6-0.5,0.8c-0.2,0.2-0.3,0.4-0.5,0.6
		c-0.2,0.2-0.3,0.3-0.4,0.3c0.2,0,0.3,0,0.5,0.1c0.2,0.1,0.4,0.2,0.6,0.3c0.2,0.1,0.4,0.3,0.6,0.4c0.2,0.2,0.3,0.4,0.5,0.6
		c0.3-0.2,0.6-0.4,0.8-0.6c0.2-0.2,0.4-0.5,0.6-0.8s0.3-0.6,0.4-1c0.1-0.4,0.1-0.8,0.2-1.3H50.5z M45.6,125.2
		c-0.2,0.2-0.4,0.3-0.6,0.5c-0.2,0.2-0.4,0.4-0.5,0.5c-0.1,0.2-0.2,0.4-0.3,0.6c-0.1,0.2-0.1,0.4,0,0.6c0.1,0.2,0.2,0.3,0.3,0.4
		c0.1,0.1,0.3,0.1,0.5,0c0.1,0,0.3-0.1,0.4-0.3c0.1-0.2,0.2-0.4,0.2-0.6c0.1-0.2,0.1-0.5,0.1-0.8C45.7,125.8,45.6,125.5,45.6,125.2z
		"/>
	<path id="XMLID_75_" class="st4" d="M60.4,116.1c0,0.6-0.1,1.1-0.2,1.5c-0.1,0.4-0.2,0.8-0.4,1.2c-0.2,0.3-0.3,0.6-0.5,0.8
		c-0.2,0.2-0.4,0.4-0.6,0.6c-0.2,0.2-0.4,0.3-0.6,0.4c-0.2,0.1-0.4,0.2-0.5,0.2c-0.5,0.2-1,0.1-1.4-0.1s-0.7-0.6-1-1.1
		c-0.1,0.3-0.2,0.5-0.3,0.8s-0.3,0.5-0.5,0.7c-0.2,0.2-0.4,0.4-0.7,0.6c-0.3,0.2-0.6,0.3-0.9,0.4s-0.7,0.1-1,0.1
		c-0.3,0-0.7-0.1-1-0.3c-0.3-0.2-0.6-0.4-0.9-0.8c-0.3-0.4-0.5-0.8-0.6-1.4c-0.1-0.4-0.2-0.9-0.3-1.4c-0.1-0.5-0.1-1.1,0-1.6
		c0-0.6,0.1-1.1,0.3-1.6c0.1-0.5,0.3-1,0.6-1.5s0.6-0.9,1-1.2c0.4-0.3,0.9-0.6,1.4-0.8c0.5-0.2,1-0.2,1.3-0.1
		c0.3,0.1,0.5,0.3,0.6,0.6v0.1l-0.1-1.1l2.7-0.8l0.5,6.7c0,0.1,0,0.2,0,0.3s0,0.2,0.1,0.3c0.2,0.6,0.5,0.7,1,0.6
		c0.2-0.1,0.3-0.2,0.5-0.3c0.2-0.1,0.2-0.3,0.3-0.5s0.1-0.4,0.2-0.7c0-0.3,0.1-0.5,0.1-0.8L60.4,116.1z M54.4,113.3
		c0-0.1,0-0.1-0.1-0.2c0-0.1-0.1-0.1-0.2-0.2c-0.1-0.1-0.2-0.1-0.3-0.1s-0.3,0-0.4,0c-0.3,0.1-0.5,0.2-0.7,0.5
		c-0.2,0.2-0.3,0.5-0.5,0.9c-0.1,0.3-0.2,0.7-0.2,1.1c0,0.4-0.1,0.8-0.1,1.3c0,0.4,0,0.8,0.1,1.2c0.1,0.4,0.1,0.7,0.2,1
		c0.1,0.4,0.2,0.6,0.4,0.8c0.1,0.2,0.3,0.3,0.4,0.4c0.1,0.1,0.2,0.1,0.4,0.1c0.1,0,0.2,0,0.3-0.1c0.1,0,0.3-0.1,0.4-0.2
		c0.1-0.1,0.3-0.3,0.4-0.5c0.1-0.2,0.2-0.4,0.2-0.6c0.1-0.2,0.1-0.5,0.1-0.8L54.4,113.3z"/>
	<path id="XMLID_74_" class="st4" d="M70.2,120.7c-0.3,0.1-0.6,0.2-0.8,0.2c-0.2,0.1-0.4,0.1-0.5,0.2c-0.1,0.1-0.2,0.2-0.3,0.4
		c0,0.2-0.1,0.4,0,0.6l-0.8,0.2c-0.1-0.8-0.1-1.4,0-1.8c0-0.5,0.1-0.9,0.3-1.2c0.2-0.3,0.4-0.6,0.7-0.8c0.3-0.2,0.7-0.4,1.2-0.5
		l1.5-0.4c0.3-0.1,0.5-0.2,0.7-0.2c0.2-0.1,0.4-0.2,0.5-0.4c0.1-0.2,0.2-0.4,0.3-0.6c0.1-0.3,0.1-0.6,0-1.1
		c-0.1,0.2-0.2,0.4-0.4,0.6c-0.2,0.2-0.2,0.3-0.3,0.4c-0.1,0.1-0.2,0.2-0.4,0.2c-0.1,0.1-0.3,0.1-0.4,0.1c-0.5,0.1-0.9,0.1-1.3-0.1
		c-0.4-0.2-0.7-0.6-1-1.2c-0.1,0.5-0.3,0.9-0.5,1.2c-0.2,0.3-0.4,0.6-0.6,0.8c-0.2,0.2-0.4,0.4-0.6,0.5c-0.2,0.1-0.4,0.2-0.6,0.3
		c-0.6,0.2-1,0.1-1.4-0.1c-0.4-0.2-0.7-0.6-1-1.2c-0.1,0.5-0.3,0.9-0.5,1.2c-0.2,0.3-0.4,0.6-0.6,0.8c-0.2,0.2-0.4,0.4-0.6,0.5
		c-0.2,0.1-0.4,0.2-0.6,0.3c-0.3,0.1-0.6,0.1-0.8,0.1c-0.3,0-0.5-0.1-0.8-0.2c-0.2-0.1-0.5-0.3-0.6-0.6c-0.2-0.3-0.3-0.6-0.5-1
		c-0.1-0.2-0.1-0.4-0.1-0.6s-0.1-0.5-0.1-0.7l-0.5-6.4l2.7-0.8l0.5,6.7c0,0.2,0.1,0.4,0.1,0.6c0.1,0.2,0.2,0.4,0.3,0.5
		c0.1,0.1,0.3,0.2,0.5,0.1c0.2-0.1,0.3-0.1,0.5-0.3c0.1-0.1,0.2-0.3,0.3-0.5c0.1-0.2,0.1-0.4,0.2-0.6c0.1-0.2,0.1-0.5,0.1-0.8
		l-0.5-6.3l2.7-0.8l0.5,6.7c0,0.2,0,0.4,0.1,0.6s0.2,0.4,0.3,0.5c0.1,0.1,0.3,0.2,0.5,0.1c0.2-0.1,0.3-0.1,0.5-0.3
		c0.1-0.1,0.2-0.3,0.3-0.5c0.1-0.2,0.1-0.4,0.2-0.6c0-0.2,0.1-0.5,0.1-0.8l-0.5-6.3l2.7-0.8l0.5,6.7c0,0.1,0,0.2,0,0.3
		c0,0.1,0,0.2,0.1,0.3c0.1,0.3,0.2,0.4,0.4,0.5c0.2,0.1,0.4,0.1,0.6,0l1-0.3c0.2,0.9,0.3,1.6,0.3,2.1c0,0.6,0,1.2-0.1,1.6
		c-0.1,0.4-0.2,0.8-0.4,1.1c-0.2,0.3-0.4,0.5-0.6,0.7c-0.2,0.2-0.4,0.3-0.7,0.4c-0.2,0.1-0.4,0.2-0.6,0.2L70.2,120.7z"/>
	<path id="XMLID_73_" class="st4" d="M84.4,109.1c0,0.6-0.1,1.1-0.2,1.5c-0.1,0.4-0.2,0.8-0.4,1.2c-0.2,0.3-0.3,0.6-0.5,0.8
		c-0.2,0.2-0.4,0.4-0.6,0.6c-0.2,0.2-0.4,0.3-0.6,0.4s-0.4,0.2-0.5,0.2c-0.6,0.2-1,0.1-1.4-0.1c-0.4-0.2-0.7-0.6-1-1.2
		c-0.1,0.5-0.3,0.9-0.5,1.2s-0.4,0.6-0.6,0.8c-0.2,0.2-0.4,0.4-0.6,0.5s-0.4,0.2-0.6,0.3c-0.3,0.1-0.6,0.1-0.8,0.1
		c-0.3,0-0.5-0.1-0.8-0.2c-0.2-0.1-0.5-0.3-0.6-0.6c-0.2-0.3-0.3-0.6-0.5-1c-0.1-0.2-0.1-0.4-0.1-0.6s-0.1-0.5-0.1-0.7l-0.5-6.4
		l2.7-0.8l0.5,6.7c0,0.2,0.1,0.4,0.1,0.6c0.1,0.2,0.2,0.4,0.3,0.5c0.1,0.1,0.3,0.2,0.5,0.1c0.2-0.1,0.3-0.1,0.5-0.3
		c0.1-0.1,0.2-0.3,0.3-0.5c0.1-0.2,0.1-0.4,0.2-0.6c0-0.2,0.1-0.5,0.1-0.8l-0.5-6.4l2.7-0.8l0.5,6.7c0,0.1,0,0.2,0,0.3
		s0,0.2,0.1,0.3c0.1,0.3,0.2,0.4,0.4,0.5c0.2,0.1,0.4,0.1,0.6,0c0.2-0.1,0.3-0.1,0.5-0.3c0.1-0.1,0.2-0.3,0.3-0.5
		c0.1-0.2,0.2-0.4,0.2-0.6c0-0.2,0.1-0.5,0.1-0.8L84.4,109.1z"/>
	<path id="XMLID_72_" class="st4" d="M98.5,105c0,0.9-0.1,1.6-0.3,2c-0.2,0.6-0.4,1-0.6,1.3c-0.2,0.3-0.5,0.6-0.8,0.8
		c-0.3,0.2-0.6,0.3-0.8,0.4c-0.4,0.1-0.8,0.2-1.1,0.1c-0.3,0-0.6-0.1-0.8-0.3c-0.2-0.2-0.4-0.3-0.6-0.6c-0.2-0.2-0.3-0.5-0.4-0.8
		c-0.1-0.3-0.2-0.7-0.2-1.2s-0.1-0.9-0.1-1.4s-0.1-1-0.1-1.4c0-0.5-0.1-0.8-0.2-1.1c-0.2-0.7-0.5-0.9-1-0.8
		c-0.2,0.1-0.3,0.1-0.4,0.3c-0.1,0.1-0.2,0.3-0.3,0.5c-0.1,0.2-0.1,0.4-0.2,0.7s-0.1,0.5-0.1,0.8l0.5,6.4l-2.7,0.8l-0.5-6.9
		c0-0.2,0-0.3-0.1-0.5c0-0.1-0.1-0.2-0.1-0.3c0-0.1-0.1-0.2-0.2-0.2c-0.1-0.1-0.1-0.1-0.2-0.1s-0.2,0-0.3,0
		c-0.2,0.1-0.3,0.2-0.5,0.3c-0.1,0.1-0.2,0.3-0.3,0.5c-0.1,0.2-0.1,0.4-0.2,0.7c0,0.2-0.1,0.5-0.1,0.8l0.5,6.3l-2.7,0.8L83,103
		l2.7-0.8l0.1,1.1c0.1-0.3,0.3-0.5,0.5-0.7c0.2-0.2,0.3-0.4,0.5-0.5c0.2-0.1,0.4-0.2,0.5-0.3c0.2-0.1,0.4-0.1,0.5-0.2
		c0.2-0.1,0.5-0.1,0.7-0.1c0.2,0,0.5,0,0.7,0.1s0.4,0.2,0.6,0.4c0.2,0.2,0.3,0.4,0.5,0.7c0.1-0.4,0.3-0.8,0.5-1.1
		c0.2-0.3,0.4-0.5,0.6-0.7c0.2-0.2,0.4-0.3,0.6-0.4s0.4-0.2,0.6-0.2c0.3-0.1,0.6-0.1,0.9-0.1s0.5,0.1,0.8,0.2
		c0.2,0.1,0.5,0.3,0.6,0.5c0.2,0.2,0.3,0.6,0.4,0.9c0.1,0.3,0.1,0.5,0.2,0.9c0,0.3,0.1,0.6,0.1,1c0,0.3,0,0.7,0.1,1
		c0,0.3,0,0.6,0,0.9s0,0.6,0.1,0.8c0,0.3,0.1,0.5,0.1,0.7c0.1,0.2,0.2,0.4,0.3,0.5c0.2,0.1,0.4,0.1,0.7,0c0.2-0.1,0.4-0.2,0.5-0.3
		c0.1-0.1,0.2-0.3,0.3-0.5s0.1-0.4,0.2-0.6c0-0.2,0.1-0.5,0.1-0.8L98.5,105z"/>
	<path id="XMLID_69_" class="st4" d="M105.3,103.3c0,0.1,0,0.2,0,0.3s0,0.2,0.1,0.3c0.1,0.3,0.2,0.4,0.4,0.5c0.2,0.1,0.4,0.1,0.6,0
		c0.1,0,0.2-0.1,0.2-0.1c0.1,0,0.1-0.1,0.2-0.1c0,0.4-0.1,0.7-0.1,1s-0.1,0.5-0.2,0.7c-0.1,0.2-0.2,0.4-0.4,0.5
		c-0.2,0.1-0.4,0.2-0.6,0.3c-0.5,0.2-1,0.1-1.4-0.1c-0.4-0.2-0.7-0.6-1-1.1c-0.1,0.3-0.2,0.5-0.3,0.8c-0.1,0.3-0.3,0.5-0.5,0.8
		c-0.2,0.2-0.4,0.5-0.7,0.6c-0.3,0.2-0.6,0.3-0.9,0.4c-0.3,0.1-0.7,0.1-1,0.1s-0.7-0.1-1-0.3c-0.3-0.2-0.6-0.4-0.9-0.8
		s-0.5-0.8-0.6-1.4c-0.1-0.4-0.2-0.9-0.3-1.4c-0.1-0.5-0.1-1.1,0-1.6c0-0.6,0.1-1.1,0.3-1.6s0.3-1,0.6-1.5c0.3-0.5,0.6-0.9,1-1.2
		c0.4-0.3,0.9-0.6,1.4-0.8c0.5-0.2,1-0.2,1.3-0.1c0.3,0.1,0.5,0.3,0.6,0.6v0.1l-0.1-1.1l2.7-0.8L105.3,103.3z M102.3,99.2
		c0-0.1,0-0.1-0.1-0.2c-0.1-0.1-0.1-0.1-0.2-0.2c-0.1-0.1-0.2-0.1-0.3-0.1c-0.1,0-0.3,0-0.4,0c-0.3,0.1-0.5,0.2-0.7,0.5
		c-0.2,0.2-0.3,0.5-0.5,0.9c-0.1,0.3-0.2,0.7-0.2,1.1c0,0.4-0.1,0.8-0.1,1.3c0,0.4,0,0.8,0.1,1.2c0.1,0.4,0.1,0.7,0.2,1
		c0.1,0.4,0.2,0.6,0.4,0.8c0.1,0.2,0.3,0.3,0.4,0.4c0.1,0.1,0.2,0.1,0.4,0.1c0.1,0,0.2,0,0.3-0.1c0.1,0,0.3-0.1,0.4-0.2
		c0.1-0.1,0.3-0.3,0.4-0.5s0.2-0.4,0.2-0.6c0.1-0.2,0.1-0.5,0.1-0.8L102.3,99.2z"/>
	<path id="XMLID_66_" class="st4" d="M119.8,94.7c-0.3,0.5-0.6,1-1.2,1.4c-0.5,0.4-1.1,0.8-1.7,1.2c0.2,0.9,0.2,1.7,0.2,2.5
		c-0.1,0.8-0.2,1.5-0.5,2s-0.6,1.1-1.1,1.6c-0.5,0.5-1,0.7-1.6,0.9c-0.4,0.1-0.9,0.2-1.3,0.2s-0.8-0.1-1.1-0.2
		c-0.3-0.2-0.6-0.4-0.9-0.8c-0.3-0.3-0.5-0.8-0.6-1.3c-0.1-0.4-0.2-0.8-0.3-1.3c-0.1-0.5-0.1-1-0.1-1.6s0.1-1.1,0.2-1.7
		c0.1-0.6,0.3-1.1,0.6-1.6c0.3-0.5,0.6-0.9,1.1-1.3c0.4-0.4,1-0.7,1.7-0.9c1.6-0.5,2.7,0.3,3.3,2.2l0,0h0.1h0.1
		c0.2-0.1,0.5-0.2,0.7-0.3s0.5-0.3,0.7-0.5c0.2-0.2,0.5-0.4,0.7-0.6c0.2-0.2,0.4-0.4,0.6-0.6L119.8,94.7z M115.5,97.7
		c-0.2,0-0.4-0.1-0.5-0.2c-0.1-0.1-0.2-0.3-0.3-0.5c-0.1-0.3-0.1-0.5,0-0.7c0.1-0.2,0.2-0.4,0.3-0.5c-0.1-0.2-0.1-0.4-0.2-0.5
		c-0.1-0.1-0.1-0.2-0.2-0.3c-0.1-0.1-0.2-0.1-0.3-0.1c-0.1,0-0.2,0-0.3,0c-0.2,0.1-0.4,0.2-0.6,0.5c-0.2,0.2-0.3,0.5-0.4,0.9
		c-0.1,0.4-0.2,0.7-0.2,1.2c0,0.4-0.1,0.9-0.1,1.3c0,0.4,0,0.9,0.1,1.3c0.1,0.4,0.1,0.8,0.2,1.1c0.1,0.3,0.2,0.6,0.3,0.8
		c0.1,0.2,0.2,0.3,0.3,0.4c0.1,0.1,0.2,0.1,0.4,0.2c0.2,0.1,0.3,0,0.5-0.1c0.2-0.1,0.4-0.2,0.6-0.5c0.2-0.3,0.3-0.6,0.4-1
		s0.1-0.9,0.2-1.4C115.5,98.8,115.5,98.3,115.5,97.7z"/>
	<path id="XMLID_65_" class="st4" d="M123.5,101.3l-0.5-6.9c0-0.2,0-0.3-0.1-0.5c0-0.1-0.1-0.2-0.1-0.3c0-0.1-0.1-0.2-0.2-0.2
		c-0.1-0.1-0.1-0.1-0.2-0.1s-0.2,0-0.3,0c-0.2,0.1-0.3,0.2-0.5,0.3c-0.1,0.1-0.2,0.3-0.3,0.5c-0.1,0.2-0.1,0.4-0.2,0.7
		c0,0.2-0.1,0.5-0.1,0.8l0.5,6.4l-2.7,0.8l-0.8-9.9l2.7-0.8l0.1,1.1c0.1-0.3,0.3-0.5,0.5-0.7c0.2-0.2,0.3-0.4,0.5-0.5
		s0.4-0.2,0.5-0.3c0.2-0.1,0.4-0.1,0.5-0.2c0.2-0.1,0.5-0.1,0.7-0.1s0.5,0,0.7,0.1c0.2,0.1,0.4,0.2,0.6,0.4s0.3,0.4,0.5,0.7
		c0.1-0.4,0.3-0.8,0.5-1.1c0.2-0.3,0.4-0.5,0.6-0.7c0.2-0.2,0.4-0.3,0.6-0.4c0.2-0.1,0.4-0.2,0.6-0.2c0.3-0.1,0.6-0.1,0.9-0.1
		c0.3,0,0.5,0.1,0.8,0.2c0.2,0.1,0.5,0.3,0.6,0.5c0.2,0.2,0.3,0.6,0.4,0.9c0.1,0.3,0.1,0.5,0.2,0.9c0,0.3,0.1,0.6,0.1,1
		c0,0.3,0,0.7,0.1,1c0,0.3,0,0.6,0,0.9s0,0.6,0.1,0.8c0,0.3,0.1,0.5,0.1,0.7c0.1,0.2,0.2,0.4,0.3,0.5c0.2,0.1,0.4,0.1,0.7,0
		c0.3-0.1,0.5-0.2,0.6-0.3c0.1,0.4,0.1,0.7,0,1c-0.1,0.3-0.2,0.5-0.3,0.8c-0.1,0.2-0.3,0.4-0.5,0.5c-0.2,0.1-0.4,0.3-0.7,0.3
		c-0.4,0.1-0.7,0.1-1,0.1c-0.3-0.1-0.5-0.2-0.7-0.3c-0.2-0.2-0.4-0.4-0.5-0.6c-0.1-0.2-0.2-0.5-0.3-0.8c-0.1-0.3-0.2-0.7-0.2-1.2
		c0-0.5-0.1-0.9-0.1-1.4c0-0.5-0.1-1-0.1-1.4c0-0.5-0.1-0.8-0.2-1.1c-0.2-0.7-0.5-0.9-1-0.8c-0.2,0.1-0.3,0.1-0.4,0.3
		c-0.1,0.1-0.2,0.3-0.3,0.5c-0.1,0.2-0.1,0.4-0.2,0.7c-0.1,0.3-0.1,0.5-0.1,0.8l0.5,6.4L123.5,101.3z"/>
	<path id="XMLID_64_" class="st4" d="M143.4,95.6c-1.3,0.4-2.2,0.3-3.1-0.1c-0.8-0.4-1.4-1.3-1.7-2.4c-0.2-0.6-0.3-1.3-0.3-2
		l-0.3-8.2c-0.5,0.3-1,0.7-1.3,1.1c-0.4,0.4-0.6,0.8-0.8,1.3c-0.2,0.4-0.3,0.9-0.3,1.4c0,0.5,0,0.9,0.1,1.3c0.1,0.3,0.2,0.6,0.4,0.9
		c0.2,0.3,0.4,0.6,0.6,0.8c-0.7,0.2-1.4,0.2-1.8,0c-0.5-0.2-0.9-0.7-1.1-1.3c-0.1-0.4-0.2-0.9-0.1-1.3c0.1-0.5,0.2-0.9,0.4-1.4
		c0.2-0.5,0.5-0.9,0.9-1.3c0.4-0.4,0.8-0.8,1.2-1.2c0.5-0.4,1-0.7,1.6-1s1.2-0.5,1.7-0.7c0.2-0.1,0.4-0.1,0.6-0.1s0.3-0.1,0.5-0.1
		l0.2,9.3c0,0.4,0,0.8,0.1,1.2c0,0.4,0.1,0.7,0.2,1c0.4,1.2,1,1.7,1.9,1.4c1.4-0.4,1.9-1.9,1.7-4.7l-0.7-9.1l2.6-0.8l0.7,9.1
		c0.1,1.9-0.1,3.5-0.9,4.8C146,94.3,144.9,95.2,143.4,95.6z"/>
	<path id="XMLID_63_" class="st4" d="M155.1,92.1L151,79.4c-0.8,0.6-1.4,1.3-1.6,2.1c-0.2,0.9-0.3,1.7,0,2.8
		c0.1,0.2,0.1,0.4,0.2,0.6c0.1,0.1,0.1,0.3,0.2,0.3c0.1,0.1,0.1,0.1,0.1,0.2l0.1,0.1c-0.3,0.1-0.6,0.2-0.9,0.2c-0.3,0-0.5,0-0.7-0.1
		c-0.2-0.1-0.4-0.2-0.6-0.5c-0.2-0.2-0.3-0.5-0.4-0.8c-0.1-0.4-0.2-0.9-0.1-1.3c0.1-0.5,0.2-0.9,0.4-1.4c0.2-0.5,0.5-0.9,0.8-1.4
		c0.3-0.4,0.7-0.8,1.2-1.2c0.4-0.4,0.9-0.7,1.4-1c0.5-0.3,1-0.5,1.6-0.7c0.1,0,0.3-0.1,0.4-0.1c0.1,0,0.3-0.1,0.4-0.1l3.5,11.5
		l0.6-12.6l1.3-0.4l-1.2,15.4L155.1,92.1z"/>
</g>
<g id="XMLID_48_">
	<path id="XMLID_61_" class="st4" d="M26.7,53.4l2.6-12.2h-1.8l0.2-0.9c0.3,0,0.6,0,0.9,0s0.7-0.1,1.1-0.2c0.4-0.1,0.9-0.3,1.4-0.5
		c0.5-0.2,1.1-0.5,1.7-0.9l-3.1,14.7L26.7,53.4L26.7,53.4z"/>
	<path id="XMLID_58_" class="st4" d="M37,53.6c-0.8,0-1.4-0.1-1.9-0.4c-0.5-0.3-0.9-0.6-1.3-1.1c-0.3-0.5-0.5-1-0.7-1.6
		c-0.1-0.6-0.2-1.3-0.2-1.9c0-0.9,0.1-1.7,0.2-2.6c0.1-0.9,0.4-1.7,0.6-2.4c0.3-0.8,0.6-1.5,1-2c0.4-0.6,0.9-1.2,1.4-1.7
		c0.5-0.5,1.1-0.8,1.7-1.1c0.6-0.3,1.2-0.4,1.8-0.4s1.2,0.1,1.7,0.4c0.5,0.3,0.9,0.6,1.2,1c0.3,0.4,0.6,0.9,0.7,1.5
		c0.2,0.6,0.2,1.3,0.2,1.9c0,0.5,0,1-0.1,1.6c-0.1,0.6-0.1,1.1-0.3,1.7c-0.1,0.6-0.3,1.2-0.5,1.7c-0.2,0.6-0.4,1.2-0.7,1.7
		c-0.3,0.5-0.6,1-0.9,1.5c-0.3,0.5-0.7,0.9-1.2,1.2c-0.4,0.3-0.9,0.6-1.4,0.8C38,53.5,37.5,53.6,37,53.6z M39.6,39.8
		c-0.3,0-0.6,0.1-1,0.4c-0.3,0.3-0.6,0.6-0.9,1.1c-0.3,0.5-0.5,1-0.8,1.7s-0.5,1.3-0.6,1.9c-0.2,0.7-0.3,1.5-0.4,2.1
		c-0.1,0.8-0.2,1.5-0.2,2.2c0,0.4,0,0.8,0.1,1.1c0,0.4,0.1,0.7,0.2,1c0.1,0.3,0.2,0.5,0.4,0.7c0.2,0.2,0.4,0.3,0.7,0.3
		c0.3,0,0.6-0.1,1-0.4c0.3-0.3,0.6-0.6,0.9-1.1c0.3-0.5,0.5-1,0.7-1.6c0.2-0.6,0.4-1.3,0.6-1.9c0.2-0.7,0.3-1.5,0.4-2.2
		c0.1-0.8,0.1-1.6,0.1-2.3c0-0.4,0-0.8-0.1-1.1c0-0.4-0.1-0.7-0.2-0.9c-0.1-0.3-0.2-0.5-0.4-0.6C40,39.8,39.8,39.8,39.6,39.8z"/>
	<path id="XMLID_55_" class="st4" d="M47.8,53.6c-0.8,0-1.4-0.1-1.9-0.4c-0.5-0.3-0.9-0.6-1.3-1.1c-0.3-0.5-0.5-1-0.7-1.6
		c-0.1-0.6-0.2-1.3-0.2-1.9c0-0.9,0.1-1.7,0.2-2.6c0.1-0.9,0.4-1.7,0.6-2.4c0.3-0.8,0.6-1.5,1-2c0.4-0.6,0.9-1.2,1.4-1.7
		c0.5-0.5,1.1-0.8,1.7-1.1c0.6-0.3,1.2-0.4,1.8-0.4c0.7,0,1.2,0.1,1.7,0.4c0.5,0.2,0.9,0.6,1.2,1c0.3,0.4,0.6,0.9,0.7,1.5
		c0.2,0.6,0.2,1.3,0.2,1.9c0,0.5,0,1-0.1,1.6c-0.1,0.6-0.1,1.1-0.3,1.7c-0.1,0.6-0.3,1.2-0.5,1.7c-0.2,0.6-0.4,1.2-0.7,1.7
		c-0.3,0.5-0.6,1-0.9,1.5c-0.3,0.5-0.7,0.9-1.2,1.2c-0.4,0.3-0.9,0.6-1.4,0.8C49,53.5,48.4,53.6,47.8,53.6z M50.6,39.8
		c-0.3,0-0.6,0.1-1,0.4c-0.3,0.3-0.6,0.6-0.9,1.1c-0.3,0.5-0.5,1-0.8,1.7s-0.5,1.3-0.6,1.9c-0.2,0.7-0.3,1.5-0.4,2.1
		c-0.1,0.8-0.2,1.5-0.2,2.2c0,0.4,0,0.8,0.1,1.1c0,0.4,0.1,0.7,0.2,1s0.2,0.5,0.4,0.7c0.2,0.2,0.4,0.3,0.7,0.3c0.3,0,0.6-0.1,1-0.4
		c0.3-0.3,0.6-0.6,0.9-1.1c0.3-0.5,0.5-1,0.7-1.6c0.2-0.6,0.4-1.3,0.6-1.9c0.2-0.7,0.3-1.5,0.4-2.2c0.1-0.8,0.1-1.6,0.1-2.3
		c0-0.4,0-0.8-0.1-1.1c0-0.4-0.1-0.7-0.2-0.9c-0.1-0.3-0.2-0.5-0.4-0.6C50.9,39.8,50.8,39.8,50.6,39.8z"/>
	<path id="XMLID_49_" class="st4" d="M58.5,38.4c0.8,0,1.4,0.3,1.7,0.8c0.4,0.5,0.6,1.3,0.6,2.2c0,0.8-0.1,1.5-0.3,2
		c-0.2,0.7-0.5,1.3-0.9,1.7c-0.4,0.5-0.8,0.9-1.3,1.2c-0.5,0.3-1,0.4-1.6,0.4c-1.5,0-2.2-1-2.2-2.9c0-0.8,0.1-1.5,0.3-2.1
		c0.2-0.7,0.5-1.3,0.9-1.7c0.4-0.5,0.8-0.9,1.3-1.2C57.5,38.5,57.9,38.4,58.5,38.4z M56.4,44.3c0,0.6,0.1,1,0.2,1.3
		c0.1,0.3,0.3,0.4,0.6,0.4c0.3,0,0.5-0.1,0.8-0.4s0.5-0.7,0.6-1.2c0.2-0.5,0.3-1.1,0.4-1.7c0.1-0.7,0.2-1.3,0.2-2
		c0-0.5,0-0.9-0.1-1.2c-0.1-0.3-0.3-0.3-0.5-0.3c-0.3,0-0.5,0.2-0.8,0.5s-0.5,0.7-0.7,1.2c-0.2,0.5-0.4,1-0.5,1.7
		C56.4,43.1,56.4,43.7,56.4,44.3z M57.9,53.4h-1.5l8.2-14.8h1.5L57.9,53.4z M65.8,45.2c0.8,0,1.4,0.3,1.7,0.8
		c0.4,0.5,0.6,1.3,0.6,2.2c0,0.8-0.1,1.5-0.3,2C67.7,51,67.4,51.5,67,52c-0.4,0.5-0.8,0.9-1.3,1.2s-1,0.4-1.6,0.4
		c-1.5,0-2.2-1-2.2-2.9c0-0.8,0.1-1.5,0.3-2.1c0.2-0.7,0.5-1.3,0.9-1.7c0.4-0.5,0.8-0.9,1.3-1.2C64.7,45.3,65.3,45.2,65.8,45.2z
		 M63.7,51.1c0,0.6,0.1,1,0.2,1.3c0.1,0.3,0.3,0.4,0.6,0.4c0.3,0,0.5-0.1,0.8-0.4c0.2-0.3,0.5-0.7,0.6-1.2c0.2-0.5,0.3-1.1,0.4-1.7
		c0.1-0.6,0.2-1.3,0.2-1.9c0-0.5,0-0.9-0.1-1.2c-0.1-0.2-0.3-0.3-0.5-0.3c-0.2,0-0.4,0.1-0.5,0.2c-0.2,0.1-0.3,0.3-0.5,0.6
		c-0.2,0.2-0.3,0.5-0.4,0.9c-0.1,0.3-0.3,0.7-0.4,1.1c-0.1,0.4-0.2,0.8-0.2,1.2C63.7,50.3,63.7,50.7,63.7,51.1z"/>
</g>
<polygon id="XMLID_47_" class="st6" points="72.4,35.8 166.8,64.7 166.8,93.4 72.4,64.7 "/>
<polyline id="XMLID_46_" class="st6" points="33.5,137.2 76.2,149.1 76.2,120.2 33.7,108.6 "/>
<polygon id="XMLID_45_" class="st7" points="114.2,166.9 151.5,163.6 154.4,152.8 "/>
<polygon id="XMLID_44_" class="st8" points="149.7,139.4 99.9,173 50.1,139.4 50.1,46.2 149.7,46.2 "/>
<g id="XMLID_41_" class="st3">
	<path id="XMLID_43_" class="st9" d="M77.2,141.4c-4.3,0-7.4-1.7-9.5-4.9c-2.1-3.2-3.2-8.1-3.2-14.5c0-3.2,0.3-6.8,0.9-10.6
		l6.5-40.8c-1.8,0.8-3.5,1.9-5,3.4c-1.5,1.5-2.6,3.1-3.6,5c-1,1.8-1.7,3.9-2.2,6.1c-0.5,2.1-0.8,4.4-0.8,6.7c0,1.7,0.1,3.3,0.4,4.9
		c0.3,1.7,0.7,3.2,1.3,4.8c-2.4,0-4.3-0.9-5.6-2.8c-1.4-1.8-2-4.5-2-8c0-2.2,0.3-4.4,0.9-6.6c0.6-2.1,1.5-4.2,2.5-6.1
		s2.3-3.7,3.8-5.2c1.5-1.7,3.1-3,4.9-4.2c1.7-1.2,3.7-2,5.6-2.7c2-0.7,4.1-1,6.1-1c0.7,0,1.4,0,1.9,0.1c0.6,0.1,1.1,0.2,1.7,0.4
		l-7.8,46.5c-0.4,2-0.6,4-0.8,5.9c-0.2,1.8-0.3,3.5-0.3,5c0,6.4,1.7,9.6,5,9.6c4.7,0,8-6.9,9.9-20.8L94,65.1h8.9l-6,46.4
		c-1.4,9.9-3.7,17.3-7,22.3C86.5,138.9,82.3,141.4,77.2,141.4z"/>
	<path id="XMLID_42_" class="st9" d="M116.9,140.7l-1.1-68.8c-3,1.7-5.3,4.6-7,8.4s-2.5,8.5-2.5,14.1c0,1.3,0,2.3,0.1,3.1
		c0.1,0.8,0.2,1.5,0.3,1.9c0.1,0.5,0.2,0.9,0.3,1.1c0.1,0.3,0.1,0.5,0.1,0.7c-1.1,0-2-0.2-2.9-0.5c-0.9-0.4-1.6-0.9-2.1-1.7
		c-0.6-0.8-1-1.7-1.3-3s-0.5-2.8-0.5-4.7c0-2.2,0.3-4.5,0.9-6.6c0.6-2.1,1.5-4.2,2.5-6.1c1.1-1.9,2.3-3.7,3.8-5.3s3-3,4.7-4.3
		c1.7-1.2,3.4-2.1,5.1-2.8c1.7-0.7,3.6-1,5.3-1c0.5,0,0.9,0,1.4,0.1c0.4,0,0.8,0.1,1.3,0.2l0.6,62l13.5-61.8h4.5l-17.7,75H116.9
		L116.9,140.7z"/>
</g>
<polygon id="XMLID_40_" class="st7" points="167,94.3 33.2,137.2 33.2,108.6 167,65.4 "/>
<polygon id="XMLID_39_" class="st7" points="122.6,28.7 134.2,25.1 161.9,49 "/>
<polygon id="XMLID_38_" class="st7" points="34.3,68.8 32.2,76.8 45,78.8 "/>
<polygon id="XMLID_37_" class="st10" points="64.1,127.2 149.4,113.8 149.4,100.2 "/>
<path id="XMLID_36_" class="st6" d="M19.3,42.6c2.2-10.3,16.5-16.5,31.8-14s25.8,12.8,23.6,23.1c-0.9,4.2-3.8,7.6-7.9,10.1l8.2,12.7
	L53.4,66c-3.4,0.3-6.9,0.2-10.6-0.4C27.5,63.2,17.1,52.8,19.3,42.6z"/>
<radialGradient id="XMLID_4_" cx="87.2379" cy="10.1285" r="105.6377" gradientTransform="matrix(0.7952 0 0 9.680000e-002 30.4537 182.9954)" gradientUnits="userSpaceOnUse">
	<stop  offset="0" style="stop-color:#010101;stop-opacity:0.7803"/>
	<stop  offset="0.127" style="stop-color:#010101;stop-opacity:0.6809"/>
	<stop  offset="0.9973" style="stop-color:#010101;stop-opacity:0"/>
</radialGradient>
<ellipse id="XMLID_35_" class="st11" cx="100.2" cy="184.3" rx="84.8" ry="11.4"/>
<g id="XMLID_16_">
	<path id="XMLID_32_" class="st9" d="M50.5,119c0,0.7-0.1,1.3-0.2,1.7c-0.2,0.5-0.3,1-0.6,1.3c-0.2,0.4-0.5,0.7-0.8,0.9
		s-0.6,0.4-0.9,0.6c0.2,0.7,0.3,1.4,0.3,1.9s-0.1,1.2-0.3,1.7c-0.2,0.5-0.5,0.9-0.9,1.2c-0.4,0.3-0.8,0.6-1.4,0.7
		c-0.3,0.1-0.6,0.1-0.9,0.1s-0.5-0.1-0.8-0.1c-0.2-0.1-0.5-0.2-0.6-0.4c-0.2-0.2-0.3-0.5-0.4-0.8c-0.1-0.4-0.1-0.8,0-1.1
		c0.1-0.4,0.2-0.7,0.5-1c0.2-0.3,0.5-0.6,0.8-0.9s0.6-0.5,1-0.7c-0.4-1.3-1.1-1.8-1.9-1.6l-0.6,0.2l-0.1-1.2l0.6-0.2
		c0.3-0.1,0.6-0.3,0.9-0.5c0.2-0.3,0.4-0.6,0.5-0.9c0.1-0.4,0.2-0.8,0.2-1.2s-0.1-0.9-0.2-1.3c-0.1-0.2-0.1-0.4-0.2-0.6
		c-0.1-0.2-0.2-0.3-0.4-0.5c-0.2-0.2-0.3-0.2-0.5-0.3c-0.2-0.1-0.4,0-0.7,0c-0.3,0.1-0.5,0.2-0.7,0.4c-0.2,0.2-0.3,0.4-0.4,0.7
		c-0.1,0.2-0.2,0.5-0.2,0.8c-0.1,0.3-0.1,0.5-0.1,0.7l-0.9,0.3c0-0.5,0.1-1,0.2-1.5s0.2-1,0.5-1.4c0.2-0.4,0.5-0.8,0.9-1.2
		c0.4-0.3,0.9-0.6,1.5-0.8c0.5-0.1,0.9-0.2,1.3-0.2c0.4,0,0.8,0.1,1.1,0.3s0.6,0.4,0.9,0.8c0.3,0.3,0.5,0.7,0.6,1.2
		c0.1,0.4,0.2,0.8,0.2,1.2c0,0.4-0.1,0.8-0.1,1.1c-0.1,0.4-0.2,0.7-0.4,1c-0.2,0.3-0.3,0.6-0.5,0.8c-0.2,0.2-0.3,0.4-0.5,0.6
		c-0.2,0.2-0.3,0.3-0.4,0.3c0.2,0,0.3,0,0.5,0.1c0.2,0.1,0.4,0.2,0.6,0.3c0.2,0.1,0.4,0.3,0.6,0.4c0.2,0.2,0.3,0.4,0.5,0.6
		c0.3-0.2,0.6-0.4,0.8-0.6c0.2-0.2,0.4-0.5,0.6-0.8s0.3-0.6,0.4-1c0.1-0.4,0.1-0.8,0.2-1.3H50.5z M45.6,125.2
		c-0.2,0.2-0.4,0.3-0.6,0.5c-0.2,0.2-0.4,0.4-0.5,0.5c-0.1,0.2-0.2,0.4-0.3,0.6c-0.1,0.2-0.1,0.4,0,0.6c0.1,0.2,0.2,0.3,0.3,0.4
		c0.1,0.1,0.3,0.1,0.5,0c0.1,0,0.3-0.1,0.4-0.3c0.1-0.2,0.2-0.4,0.2-0.6c0.1-0.2,0.1-0.5,0.1-0.8C45.7,125.8,45.6,125.5,45.6,125.2z
		"/>
	<path id="XMLID_29_" class="st9" d="M60.4,116.1c0,0.6-0.1,1.1-0.2,1.5c-0.1,0.4-0.2,0.8-0.4,1.2c-0.2,0.3-0.3,0.6-0.5,0.8
		c-0.2,0.2-0.4,0.4-0.6,0.6c-0.2,0.2-0.4,0.3-0.6,0.4c-0.2,0.1-0.4,0.2-0.5,0.2c-0.5,0.2-1,0.1-1.4-0.1s-0.7-0.6-1-1.1
		c-0.1,0.3-0.2,0.5-0.3,0.8s-0.3,0.5-0.5,0.7c-0.2,0.2-0.4,0.4-0.7,0.6c-0.3,0.2-0.6,0.3-0.9,0.4s-0.7,0.1-1,0.1
		c-0.3,0-0.7-0.1-1-0.3c-0.3-0.2-0.6-0.4-0.9-0.8c-0.3-0.4-0.5-0.8-0.6-1.4c-0.1-0.4-0.2-0.9-0.3-1.4c-0.1-0.5-0.1-1.1,0-1.6
		c0-0.6,0.1-1.1,0.3-1.6c0.1-0.5,0.3-1,0.6-1.5s0.6-0.9,1-1.2c0.4-0.3,0.9-0.6,1.4-0.8c0.5-0.2,1-0.2,1.3-0.1
		c0.3,0.1,0.5,0.3,0.6,0.6v0.1l-0.1-1.1l2.7-0.8l0.5,6.7c0,0.1,0,0.2,0,0.3s0,0.2,0.1,0.3c0.2,0.6,0.5,0.7,1,0.6
		c0.2-0.1,0.3-0.2,0.5-0.3c0.2-0.1,0.2-0.3,0.3-0.5s0.1-0.4,0.2-0.7c0-0.3,0.1-0.5,0.1-0.8L60.4,116.1z M54.4,113.3
		c0-0.1,0-0.1-0.1-0.2c0-0.1-0.1-0.1-0.2-0.2c-0.1-0.1-0.2-0.1-0.3-0.1s-0.3,0-0.4,0c-0.3,0.1-0.5,0.2-0.7,0.5
		c-0.2,0.2-0.3,0.5-0.5,0.9c-0.1,0.3-0.2,0.7-0.2,1.1c0,0.4-0.1,0.8-0.1,1.3c0,0.4,0,0.8,0.1,1.2c0.1,0.4,0.1,0.7,0.2,1
		c0.1,0.4,0.2,0.6,0.4,0.8c0.1,0.2,0.3,0.3,0.4,0.4c0.1,0.1,0.2,0.1,0.4,0.1c0.1,0,0.2,0,0.3-0.1c0.1,0,0.3-0.1,0.4-0.2
		c0.1-0.1,0.3-0.3,0.4-0.5c0.1-0.2,0.2-0.4,0.2-0.6c0.1-0.2,0.1-0.5,0.1-0.8L54.4,113.3z"/>
	<path id="XMLID_28_" class="st9" d="M70.2,120.7c-0.3,0.1-0.6,0.2-0.8,0.2c-0.2,0.1-0.4,0.1-0.5,0.2c-0.1,0.1-0.2,0.2-0.3,0.4
		c0,0.2-0.1,0.4,0,0.6l-0.8,0.2c-0.1-0.8-0.1-1.4,0-1.8c0-0.5,0.1-0.9,0.3-1.2c0.2-0.3,0.4-0.6,0.7-0.8c0.3-0.2,0.7-0.4,1.2-0.5
		l1.5-0.4c0.3-0.1,0.5-0.2,0.7-0.2c0.2-0.1,0.4-0.2,0.5-0.4c0.1-0.2,0.2-0.4,0.3-0.6c0.1-0.3,0.1-0.6,0-1.1
		c-0.1,0.2-0.2,0.4-0.4,0.6c-0.2,0.2-0.2,0.3-0.3,0.4c-0.1,0.1-0.2,0.2-0.4,0.2c-0.1,0.1-0.3,0.1-0.4,0.1c-0.5,0.1-0.9,0.1-1.3-0.1
		c-0.4-0.2-0.7-0.6-1-1.2c-0.1,0.5-0.3,0.9-0.5,1.2c-0.2,0.3-0.4,0.6-0.6,0.8c-0.2,0.2-0.4,0.4-0.6,0.5c-0.2,0.1-0.4,0.2-0.6,0.3
		c-0.6,0.2-1,0.1-1.4-0.1c-0.4-0.2-0.7-0.6-1-1.2c-0.1,0.5-0.3,0.9-0.5,1.2c-0.2,0.3-0.4,0.6-0.6,0.8c-0.2,0.2-0.4,0.4-0.6,0.5
		c-0.2,0.1-0.4,0.2-0.6,0.3c-0.3,0.1-0.6,0.1-0.8,0.1c-0.3,0-0.5-0.1-0.8-0.2c-0.2-0.1-0.5-0.3-0.6-0.6c-0.2-0.3-0.3-0.6-0.5-1
		c-0.1-0.2-0.1-0.4-0.1-0.6s-0.1-0.5-0.1-0.7l-0.5-6.4l2.7-0.8l0.5,6.7c0,0.2,0.1,0.4,0.1,0.6c0.1,0.2,0.2,0.4,0.3,0.5
		c0.1,0.1,0.3,0.2,0.5,0.1c0.2-0.1,0.3-0.1,0.5-0.3c0.1-0.1,0.2-0.3,0.3-0.5c0.1-0.2,0.1-0.4,0.2-0.6c0.1-0.2,0.1-0.5,0.1-0.8
		l-0.5-6.3l2.7-0.8l0.5,6.7c0,0.2,0,0.4,0.1,0.6s0.2,0.4,0.3,0.5c0.1,0.1,0.3,0.2,0.5,0.1c0.2-0.1,0.3-0.1,0.5-0.3
		c0.1-0.1,0.2-0.3,0.3-0.5c0.1-0.2,0.1-0.4,0.2-0.6c0-0.2,0.1-0.5,0.1-0.8l-0.5-6.3l2.7-0.8l0.5,6.7c0,0.1,0,0.2,0,0.3
		c0,0.1,0,0.2,0.1,0.3c0.1,0.3,0.2,0.4,0.4,0.5c0.2,0.1,0.4,0.1,0.6,0l1-0.3c0.2,0.9,0.3,1.6,0.3,2.1c0,0.6,0,1.2-0.1,1.6
		c-0.1,0.4-0.2,0.8-0.4,1.1c-0.2,0.3-0.4,0.5-0.6,0.7c-0.2,0.2-0.4,0.3-0.7,0.4c-0.2,0.1-0.4,0.2-0.6,0.2L70.2,120.7z"/>
	<path id="XMLID_27_" class="st9" d="M84.4,109.1c0,0.6-0.1,1.1-0.2,1.5c-0.1,0.4-0.2,0.8-0.4,1.2c-0.2,0.3-0.3,0.6-0.5,0.8
		c-0.2,0.2-0.4,0.4-0.6,0.6c-0.2,0.2-0.4,0.3-0.6,0.4s-0.4,0.2-0.5,0.2c-0.6,0.2-1,0.1-1.4-0.1c-0.4-0.2-0.7-0.6-1-1.2
		c-0.1,0.5-0.3,0.9-0.5,1.2s-0.4,0.6-0.6,0.8c-0.2,0.2-0.4,0.4-0.6,0.5s-0.4,0.2-0.6,0.3c-0.3,0.1-0.6,0.1-0.8,0.1
		c-0.3,0-0.5-0.1-0.8-0.2c-0.2-0.1-0.5-0.3-0.6-0.6c-0.2-0.3-0.3-0.6-0.5-1c-0.1-0.2-0.1-0.4-0.1-0.6s-0.1-0.5-0.1-0.7l-0.5-6.4
		l2.7-0.8l0.5,6.7c0,0.2,0.1,0.4,0.1,0.6c0.1,0.2,0.2,0.4,0.3,0.5c0.1,0.1,0.3,0.2,0.5,0.1c0.2-0.1,0.3-0.1,0.5-0.3
		c0.1-0.1,0.2-0.3,0.3-0.5c0.1-0.2,0.1-0.4,0.2-0.6c0-0.2,0.1-0.5,0.1-0.8l-0.5-6.4l2.7-0.8l0.5,6.7c0,0.1,0,0.2,0,0.3
		s0,0.2,0.1,0.3c0.1,0.3,0.2,0.4,0.4,0.5c0.2,0.1,0.4,0.1,0.6,0c0.2-0.1,0.3-0.1,0.5-0.3c0.1-0.1,0.2-0.3,0.3-0.5
		c0.1-0.2,0.2-0.4,0.2-0.6c0-0.2,0.1-0.5,0.1-0.8L84.4,109.1z"/>
	<path id="XMLID_26_" class="st9" d="M98.5,105c0,0.9-0.1,1.6-0.3,2c-0.2,0.6-0.4,1-0.6,1.3c-0.2,0.3-0.5,0.6-0.8,0.8
		c-0.3,0.2-0.6,0.3-0.8,0.4c-0.4,0.1-0.8,0.2-1.1,0.1c-0.3,0-0.6-0.1-0.8-0.3c-0.2-0.2-0.4-0.3-0.6-0.6c-0.2-0.2-0.3-0.5-0.4-0.8
		c-0.1-0.3-0.2-0.7-0.2-1.2s-0.1-0.9-0.1-1.4s-0.1-1-0.1-1.4c0-0.5-0.1-0.8-0.2-1.1c-0.2-0.7-0.5-0.9-1-0.8
		c-0.2,0.1-0.3,0.1-0.4,0.3c-0.1,0.1-0.2,0.3-0.3,0.5c-0.1,0.2-0.1,0.4-0.2,0.7s-0.1,0.5-0.1,0.8l0.5,6.4l-2.7,0.8l-0.5-6.9
		c0-0.2,0-0.3-0.1-0.5c0-0.1-0.1-0.2-0.1-0.3c0-0.1-0.1-0.2-0.2-0.2c-0.1-0.1-0.1-0.1-0.2-0.1s-0.2,0-0.3,0
		c-0.2,0.1-0.3,0.2-0.5,0.3c-0.1,0.1-0.2,0.3-0.3,0.5c-0.1,0.2-0.1,0.4-0.2,0.7c0,0.2-0.1,0.5-0.1,0.8l0.5,6.3l-2.7,0.8L83,103
		l2.7-0.8l0.1,1.1c0.1-0.3,0.3-0.5,0.5-0.7c0.2-0.2,0.3-0.4,0.5-0.5c0.2-0.1,0.4-0.2,0.5-0.3c0.2-0.1,0.4-0.1,0.5-0.2
		c0.2-0.1,0.5-0.1,0.7-0.1c0.2,0,0.5,0,0.7,0.1s0.4,0.2,0.6,0.4c0.2,0.2,0.3,0.4,0.5,0.7c0.1-0.4,0.3-0.8,0.5-1.1
		c0.2-0.3,0.4-0.5,0.6-0.7c0.2-0.2,0.4-0.3,0.6-0.4s0.4-0.2,0.6-0.2c0.3-0.1,0.6-0.1,0.9-0.1s0.5,0.1,0.8,0.2
		c0.2,0.1,0.5,0.3,0.6,0.5c0.2,0.2,0.3,0.6,0.4,0.9c0.1,0.3,0.1,0.5,0.2,0.9c0,0.3,0.1,0.6,0.1,1c0,0.3,0,0.7,0.1,1
		c0,0.3,0,0.6,0,0.9s0,0.6,0.1,0.8c0,0.3,0.1,0.5,0.1,0.7c0.1,0.2,0.2,0.4,0.3,0.5c0.2,0.1,0.4,0.1,0.7,0c0.2-0.1,0.4-0.2,0.5-0.3
		c0.1-0.1,0.2-0.3,0.3-0.5s0.1-0.4,0.2-0.6c0-0.2,0.1-0.5,0.1-0.8L98.5,105z"/>
	<path id="XMLID_23_" class="st9" d="M105.3,103.3c0,0.1,0,0.2,0,0.3s0,0.2,0.1,0.3c0.1,0.3,0.2,0.4,0.4,0.5c0.2,0.1,0.4,0.1,0.6,0
		c0.1,0,0.2-0.1,0.2-0.1c0.1,0,0.1-0.1,0.2-0.1c0,0.4-0.1,0.7-0.1,1s-0.1,0.5-0.2,0.7c-0.1,0.2-0.2,0.4-0.4,0.5
		c-0.2,0.1-0.4,0.2-0.6,0.3c-0.5,0.2-1,0.1-1.4-0.1c-0.4-0.2-0.7-0.6-1-1.1c-0.1,0.3-0.2,0.5-0.3,0.8c-0.1,0.3-0.3,0.5-0.5,0.8
		c-0.2,0.2-0.4,0.5-0.7,0.6c-0.3,0.2-0.6,0.3-0.9,0.4c-0.3,0.1-0.7,0.1-1,0.1s-0.7-0.1-1-0.3c-0.3-0.2-0.6-0.4-0.9-0.8
		s-0.5-0.8-0.6-1.4c-0.1-0.4-0.2-0.9-0.3-1.4c-0.1-0.5-0.1-1.1,0-1.6c0-0.6,0.1-1.1,0.3-1.6s0.3-1,0.6-1.5c0.3-0.5,0.6-0.9,1-1.2
		c0.4-0.3,0.9-0.6,1.4-0.8c0.5-0.2,1-0.2,1.3-0.1c0.3,0.1,0.5,0.3,0.6,0.6v0.1l-0.1-1.1l2.7-0.8L105.3,103.3z M102.3,99.2
		c0-0.1,0-0.1-0.1-0.2c-0.1-0.1-0.1-0.1-0.2-0.2c-0.1-0.1-0.2-0.1-0.3-0.1c-0.1,0-0.3,0-0.4,0c-0.3,0.1-0.5,0.2-0.7,0.5
		c-0.2,0.2-0.3,0.5-0.5,0.9c-0.1,0.3-0.2,0.7-0.2,1.1c0,0.4-0.1,0.8-0.1,1.3c0,0.4,0,0.8,0.1,1.2c0.1,0.4,0.1,0.7,0.2,1
		c0.1,0.4,0.2,0.6,0.4,0.8c0.1,0.2,0.3,0.3,0.4,0.4c0.1,0.1,0.2,0.1,0.4,0.1c0.1,0,0.2,0,0.3-0.1c0.1,0,0.3-0.1,0.4-0.2
		c0.1-0.1,0.3-0.3,0.4-0.5s0.2-0.4,0.2-0.6c0.1-0.2,0.1-0.5,0.1-0.8L102.3,99.2z"/>
	<path id="XMLID_20_" class="st9" d="M119.8,94.7c-0.3,0.5-0.6,1-1.2,1.4c-0.5,0.4-1.1,0.8-1.7,1.2c0.2,0.9,0.2,1.7,0.2,2.5
		c-0.1,0.8-0.2,1.5-0.5,2s-0.6,1.1-1.1,1.6c-0.5,0.5-1,0.7-1.6,0.9c-0.4,0.1-0.9,0.2-1.3,0.2s-0.8-0.1-1.1-0.2
		c-0.3-0.2-0.6-0.4-0.9-0.8c-0.3-0.3-0.5-0.8-0.6-1.3c-0.1-0.4-0.2-0.8-0.3-1.3c-0.1-0.5-0.1-1-0.1-1.6s0.1-1.1,0.2-1.7
		c0.1-0.6,0.3-1.1,0.6-1.6c0.3-0.5,0.6-0.9,1.1-1.3c0.4-0.4,1-0.7,1.7-0.9c1.6-0.5,2.7,0.3,3.3,2.2l0,0h0.1h0.1
		c0.2-0.1,0.5-0.2,0.7-0.3s0.5-0.3,0.7-0.5c0.2-0.2,0.5-0.4,0.7-0.6c0.2-0.2,0.4-0.4,0.6-0.6L119.8,94.7z M115.5,97.7
		c-0.2,0-0.4-0.1-0.5-0.2c-0.1-0.1-0.2-0.3-0.3-0.5c-0.1-0.3-0.1-0.5,0-0.7c0.1-0.2,0.2-0.4,0.3-0.5c-0.1-0.2-0.1-0.4-0.2-0.5
		c-0.1-0.1-0.1-0.2-0.2-0.3c-0.1-0.1-0.2-0.1-0.3-0.1c-0.1,0-0.2,0-0.3,0c-0.2,0.1-0.4,0.2-0.6,0.5c-0.2,0.2-0.3,0.5-0.4,0.9
		c-0.1,0.4-0.2,0.7-0.2,1.2c0,0.4-0.1,0.9-0.1,1.3c0,0.4,0,0.9,0.1,1.3c0.1,0.4,0.1,0.8,0.2,1.1c0.1,0.3,0.2,0.6,0.3,0.8
		c0.1,0.2,0.2,0.3,0.3,0.4c0.1,0.1,0.2,0.1,0.4,0.2c0.2,0.1,0.3,0,0.5-0.1c0.2-0.1,0.4-0.2,0.6-0.5c0.2-0.3,0.3-0.6,0.4-1
		s0.1-0.9,0.2-1.4C115.5,98.8,115.5,98.3,115.5,97.7z"/>
	<path id="XMLID_19_" class="st9" d="M123.5,101.3l-0.5-6.9c0-0.2,0-0.3-0.1-0.5c0-0.1-0.1-0.2-0.1-0.3c0-0.1-0.1-0.2-0.2-0.2
		c-0.1-0.1-0.1-0.1-0.2-0.1s-0.2,0-0.3,0c-0.2,0.1-0.3,0.2-0.5,0.3c-0.1,0.1-0.2,0.3-0.3,0.5c-0.1,0.2-0.1,0.4-0.2,0.7
		c0,0.2-0.1,0.5-0.1,0.8l0.5,6.4l-2.7,0.8l-0.8-9.9l2.7-0.8l0.1,1.1c0.1-0.3,0.3-0.5,0.5-0.7c0.2-0.2,0.3-0.4,0.5-0.5
		s0.4-0.2,0.5-0.3c0.2-0.1,0.4-0.1,0.5-0.2c0.2-0.1,0.5-0.1,0.7-0.1s0.5,0,0.7,0.1c0.2,0.1,0.4,0.2,0.6,0.4s0.3,0.4,0.5,0.7
		c0.1-0.4,0.3-0.8,0.5-1.1c0.2-0.3,0.4-0.5,0.6-0.7c0.2-0.2,0.4-0.3,0.6-0.4c0.2-0.1,0.4-0.2,0.6-0.2c0.3-0.1,0.6-0.1,0.9-0.1
		c0.3,0,0.5,0.1,0.8,0.2c0.2,0.1,0.5,0.3,0.6,0.5c0.2,0.2,0.3,0.6,0.4,0.9c0.1,0.3,0.1,0.5,0.2,0.9c0,0.3,0.1,0.6,0.1,1
		c0,0.3,0,0.7,0.1,1c0,0.3,0,0.6,0,0.9s0,0.6,0.1,0.8c0,0.3,0.1,0.5,0.1,0.7c0.1,0.2,0.2,0.4,0.3,0.5c0.2,0.1,0.4,0.1,0.7,0
		c0.3-0.1,0.5-0.2,0.6-0.3c0.1,0.4,0.1,0.7,0,1c-0.1,0.3-0.2,0.5-0.3,0.8c-0.1,0.2-0.3,0.4-0.5,0.5c-0.2,0.1-0.4,0.3-0.7,0.3
		c-0.4,0.1-0.7,0.1-1,0.1c-0.3-0.1-0.5-0.2-0.7-0.3c-0.2-0.2-0.4-0.4-0.5-0.6c-0.1-0.2-0.2-0.5-0.3-0.8c-0.1-0.3-0.2-0.7-0.2-1.2
		c0-0.5-0.1-0.9-0.1-1.4c0-0.5-0.1-1-0.1-1.4c0-0.5-0.1-0.8-0.2-1.1c-0.2-0.7-0.5-0.9-1-0.8c-0.2,0.1-0.3,0.1-0.4,0.3
		c-0.1,0.1-0.2,0.3-0.3,0.5c-0.1,0.2-0.1,0.4-0.2,0.7c-0.1,0.3-0.1,0.5-0.1,0.8l0.5,6.4L123.5,101.3z"/>
	<path id="XMLID_18_" class="st9" d="M143.4,95.6c-1.3,0.4-2.2,0.3-3.1-0.1c-0.8-0.4-1.4-1.3-1.7-2.4c-0.2-0.6-0.3-1.3-0.3-2
		l-0.3-8.2c-0.5,0.3-1,0.7-1.3,1.1c-0.4,0.4-0.6,0.8-0.8,1.3c-0.2,0.4-0.3,0.9-0.3,1.4c0,0.5,0,0.9,0.1,1.3c0.1,0.3,0.2,0.6,0.4,0.9
		c0.2,0.3,0.4,0.6,0.6,0.8c-0.7,0.2-1.4,0.2-1.8,0c-0.5-0.2-0.9-0.7-1.1-1.3c-0.1-0.4-0.2-0.9-0.1-1.3c0.1-0.5,0.2-0.9,0.4-1.4
		c0.2-0.5,0.5-0.9,0.9-1.3c0.4-0.4,0.8-0.8,1.2-1.2c0.5-0.4,1-0.7,1.6-1s1.2-0.5,1.7-0.7c0.2-0.1,0.4-0.1,0.6-0.1s0.3-0.1,0.5-0.1
		l0.2,9.3c0,0.4,0,0.8,0.1,1.2c0,0.4,0.1,0.7,0.2,1c0.4,1.2,1,1.7,1.9,1.4c1.4-0.4,1.9-1.9,1.7-4.7l-0.7-9.1l2.6-0.8l0.7,9.1
		c0.1,1.9-0.1,3.5-0.9,4.8C146,94.3,144.9,95.2,143.4,95.6z"/>
	<path id="XMLID_17_" class="st9" d="M155.1,92.1L151,79.4c-0.8,0.6-1.4,1.3-1.6,2.1c-0.2,0.9-0.3,1.7,0,2.8
		c0.1,0.2,0.1,0.4,0.2,0.6c0.1,0.1,0.1,0.3,0.2,0.3c0.1,0.1,0.1,0.1,0.1,0.2l0.1,0.1c-0.3,0.1-0.6,0.2-0.9,0.2c-0.3,0-0.5,0-0.7-0.1
		c-0.2-0.1-0.4-0.2-0.6-0.5c-0.2-0.2-0.3-0.5-0.4-0.8c-0.1-0.4-0.2-0.9-0.1-1.3c0.1-0.5,0.2-0.9,0.4-1.4c0.2-0.5,0.5-0.9,0.8-1.4
		c0.3-0.4,0.7-0.8,1.2-1.2c0.4-0.4,0.9-0.7,1.4-1c0.5-0.3,1-0.5,1.6-0.7c0.1,0,0.3-0.1,0.4-0.1c0.1,0,0.3-0.1,0.4-0.1l3.5,11.5
		l0.6-12.6l1.3-0.4l-1.2,15.4L155.1,92.1z"/>
</g>
<g id="XMLID_2_">
	<path id="XMLID_15_" class="st9" d="M26.7,53.4l2.6-12.2h-1.8l0.2-0.9c0.3,0,0.6,0,0.9,0s0.7-0.1,1.1-0.2c0.4-0.1,0.9-0.3,1.4-0.5
		c0.5-0.2,1.1-0.5,1.7-0.9l-3.1,14.7L26.7,53.4L26.7,53.4z"/>
	<path id="XMLID_12_" class="st9" d="M37,53.6c-0.8,0-1.4-0.1-1.9-0.4c-0.5-0.3-0.9-0.6-1.3-1.1c-0.3-0.5-0.5-1-0.7-1.6
		c-0.1-0.6-0.2-1.3-0.2-1.9c0-0.9,0.1-1.7,0.2-2.6c0.1-0.9,0.4-1.7,0.6-2.4c0.3-0.8,0.6-1.5,1-2c0.4-0.6,0.9-1.2,1.4-1.7
		c0.5-0.5,1.1-0.8,1.7-1.1c0.6-0.3,1.2-0.4,1.8-0.4s1.2,0.1,1.7,0.4c0.5,0.3,0.9,0.6,1.2,1c0.3,0.4,0.6,0.9,0.7,1.5
		c0.2,0.6,0.2,1.3,0.2,1.9c0,0.5,0,1-0.1,1.6c-0.1,0.6-0.1,1.1-0.3,1.7c-0.1,0.6-0.3,1.2-0.5,1.7c-0.2,0.6-0.4,1.2-0.7,1.7
		c-0.3,0.5-0.6,1-0.9,1.5c-0.3,0.5-0.7,0.9-1.2,1.2c-0.4,0.3-0.9,0.6-1.4,0.8C38,53.5,37.5,53.6,37,53.6z M39.6,39.8
		c-0.3,0-0.6,0.1-1,0.4c-0.3,0.3-0.6,0.6-0.9,1.1c-0.3,0.5-0.5,1-0.8,1.7s-0.5,1.3-0.6,1.9c-0.2,0.7-0.3,1.5-0.4,2.1
		c-0.1,0.8-0.2,1.5-0.2,2.2c0,0.4,0,0.8,0.1,1.1c0,0.4,0.1,0.7,0.2,1c0.1,0.3,0.2,0.5,0.4,0.7c0.2,0.2,0.4,0.3,0.7,0.3
		c0.3,0,0.6-0.1,1-0.4c0.3-0.3,0.6-0.6,0.9-1.1c0.3-0.5,0.5-1,0.7-1.6c0.2-0.6,0.4-1.3,0.6-1.9c0.2-0.7,0.3-1.5,0.4-2.2
		c0.1-0.8,0.1-1.6,0.1-2.3c0-0.4,0-0.8-0.1-1.1c0-0.4-0.1-0.7-0.2-0.9c-0.1-0.3-0.2-0.5-0.4-0.6C40,39.8,39.8,39.8,39.6,39.8z"/>
	<path id="XMLID_9_" class="st9" d="M47.8,53.6c-0.8,0-1.4-0.1-1.9-0.4c-0.5-0.3-0.9-0.6-1.3-1.1c-0.3-0.5-0.5-1-0.7-1.6
		c-0.1-0.6-0.2-1.3-0.2-1.9c0-0.9,0.1-1.7,0.2-2.6c0.1-0.9,0.4-1.7,0.6-2.4c0.3-0.8,0.6-1.5,1-2c0.4-0.6,0.9-1.2,1.4-1.7
		c0.5-0.5,1.1-0.8,1.7-1.1c0.6-0.3,1.2-0.4,1.8-0.4c0.7,0,1.2,0.1,1.7,0.4c0.5,0.2,0.9,0.6,1.2,1c0.3,0.4,0.6,0.9,0.7,1.5
		c0.2,0.6,0.2,1.3,0.2,1.9c0,0.5,0,1-0.1,1.6c-0.1,0.6-0.1,1.1-0.3,1.7c-0.1,0.6-0.3,1.2-0.5,1.7c-0.2,0.6-0.4,1.2-0.7,1.7
		c-0.3,0.5-0.6,1-0.9,1.5c-0.3,0.5-0.7,0.9-1.2,1.2c-0.4,0.3-0.9,0.6-1.4,0.8C49,53.5,48.4,53.6,47.8,53.6z M50.6,39.8
		c-0.3,0-0.6,0.1-1,0.4c-0.3,0.3-0.6,0.6-0.9,1.1c-0.3,0.5-0.5,1-0.8,1.7s-0.5,1.3-0.6,1.9c-0.2,0.7-0.3,1.5-0.4,2.1
		c-0.1,0.8-0.2,1.5-0.2,2.2c0,0.4,0,0.8,0.1,1.1c0,0.4,0.1,0.7,0.2,1s0.2,0.5,0.4,0.7c0.2,0.2,0.4,0.3,0.7,0.3c0.3,0,0.6-0.1,1-0.4
		c0.3-0.3,0.6-0.6,0.9-1.1c0.3-0.5,0.5-1,0.7-1.6c0.2-0.6,0.4-1.3,0.6-1.9c0.2-0.7,0.3-1.5,0.4-2.2c0.1-0.8,0.1-1.6,0.1-2.3
		c0-0.4,0-0.8-0.1-1.1c0-0.4-0.1-0.7-0.2-0.9c-0.1-0.3-0.2-0.5-0.4-0.6C50.9,39.8,50.8,39.8,50.6,39.8z"/>
	<path id="XMLID_3_" class="st9" d="M58.5,38.4c0.8,0,1.4,0.3,1.7,0.8c0.4,0.5,0.6,1.3,0.6,2.2c0,0.8-0.1,1.5-0.3,2
		c-0.2,0.7-0.5,1.3-0.9,1.7c-0.4,0.5-0.8,0.9-1.3,1.2c-0.5,0.3-1,0.4-1.6,0.4c-1.5,0-2.2-1-2.2-2.9c0-0.8,0.1-1.5,0.3-2.1
		c0.2-0.7,0.5-1.3,0.9-1.7c0.4-0.5,0.8-0.9,1.3-1.2C57.5,38.5,57.9,38.4,58.5,38.4z M56.4,44.3c0,0.6,0.1,1,0.2,1.3
		c0.1,0.3,0.3,0.4,0.6,0.4c0.3,0,0.5-0.1,0.8-0.4s0.5-0.7,0.6-1.2c0.2-0.5,0.3-1.1,0.4-1.7c0.1-0.7,0.2-1.3,0.2-2
		c0-0.5,0-0.9-0.1-1.2c-0.1-0.3-0.3-0.3-0.5-0.3c-0.3,0-0.5,0.2-0.8,0.5s-0.5,0.7-0.7,1.2c-0.2,0.5-0.4,1-0.5,1.7
		C56.4,43.1,56.4,43.7,56.4,44.3z M57.9,53.4h-1.5l8.2-14.8h1.5L57.9,53.4z M65.8,45.2c0.8,0,1.4,0.3,1.7,0.8
		c0.4,0.5,0.6,1.3,0.6,2.2c0,0.8-0.1,1.5-0.3,2C67.7,51,67.4,51.5,67,52c-0.4,0.5-0.8,0.9-1.3,1.2s-1,0.4-1.6,0.4
		c-1.5,0-2.2-1-2.2-2.9c0-0.8,0.1-1.5,0.3-2.1c0.2-0.7,0.5-1.3,0.9-1.7c0.4-0.5,0.8-0.9,1.3-1.2C64.7,45.3,65.3,45.2,65.8,45.2z
		 M63.7,51.1c0,0.6,0.1,1,0.2,1.3c0.1,0.3,0.3,0.4,0.6,0.4c0.3,0,0.5-0.1,0.8-0.4c0.2-0.3,0.5-0.7,0.6-1.2c0.2-0.5,0.3-1.1,0.4-1.7
		c0.1-0.6,0.2-1.3,0.2-1.9c0-0.5,0-0.9-0.1-1.2c-0.1-0.2-0.3-0.3-0.5-0.3c-0.2,0-0.4,0.1-0.5,0.2c-0.2,0.1-0.3,0.3-0.5,0.6
		c-0.2,0.2-0.3,0.5-0.4,0.9c-0.1,0.3-0.3,0.7-0.4,1.1c-0.1,0.4-0.2,0.8-0.2,1.2C63.7,50.3,63.7,50.7,63.7,51.1z"/>
</g>
</svg>
