<?xml version="1.0" encoding="UTF-8" standalone="no"?>
<!-- Created with Inkscape (http://www.inkscape.org/) -->

<svg
   xmlns:dc="http://purl.org/dc/elements/1.1/"
   xmlns:cc="http://creativecommons.org/ns#"
   xmlns:rdf="http://www.w3.org/1999/02/22-rdf-syntax-ns#"
   xmlns:svg="http://www.w3.org/2000/svg"
   xmlns="http://www.w3.org/2000/svg"
   version="1.1"
   width="327.28125"
   height="282.44135"
   id="svg4721">
  <defs
     id="defs4723" />
  <metadata
     id="metadata4726">
    <rdf:RDF>
      <cc:Work
         rdf:about="">
        <dc:format>image/svg+xml</dc:format>
        <dc:type
           rdf:resource="http://purl.org/dc/dcmitype/StillImage" />
        <dc:title></dc:title>
      </cc:Work>
    </rdf:RDF>
  </metadata>
  <g
     transform="translate(-133.50223,-76.860761)"
     id="layer1">
    <g
       transform="translate(-87.247768,-69.203297)"
       id="g4683">
      <path
         d="m 239.71875,250.375 c -10.24124,0 -18.46875,8.25876 -18.46875,18.5 l 0,1.40625 c 0,10.24124 8.22751,18.5 18.46875,18.5 l 14.84375,0 -14.96875,0.28125 36.53125,120.8125 c 0,0 5.96528,16.5788 14.59375,17.90625 4.77583,0.73475 90.9375,-0.65625 90.9375,-0.65625 l 0,-0.4375 c 2.22808,0.036 85.50632,1.38125 90.21875,0.65625 8.62847,-1.32745 14.59375,-17.90625 14.59375,-17.90625 l 36.4375,-120.65625 6.125,0 c 10.24124,0 18.5,-8.25876 18.5,-18.5 l 0,-1.40625 c 0,-10.24124 -8.25876,-18.5 -18.5,-18.5 l -32.6875,0 c 0.10021,0.99523 0.15625,1.97871 0.15625,3 0,16.67879 -13.68276,30.21875 -30.5625,30.21875 -8.43988,0 -16.06285,-3.37868 -21.59375,-8.84375 -2.64747,-2.61595 -9.9206,-13.17868 -16.75,-24.375 l -88,0 c -6.61739,10.76219 -13.47429,20.69224 -16.03125,23.21875 -5.5309,5.46507 -13.15387,8.84375 -21.59375,8.84375 -16.87974,0 -30.5625,-13.5087 -30.5625,-30.1875 0,-0.62774 0.0243,-1.25676 0.0625,-1.875 l -31.75,0 z m 74.21875,65.28125 c 4.78017,0 8.625,4.72135 8.625,10.59375 l 0,59.78125 c 0,5.8724 -3.84483,10.59375 -8.625,10.59375 -4.78017,0 -8.625,-4.72135 -8.625,-10.59375 l 0,-59.78125 c 0,-5.8724 3.84483,-10.59375 8.625,-10.59375 z m 45.125,0 c 4.78017,0 8.625,4.72135 8.625,10.59375 l 0,59.78125 c 0,5.8724 -3.84483,10.59375 -8.625,10.59375 -4.78017,0 -8.625,-4.72135 -8.625,-10.59375 l 0,-59.78125 c 0,-5.8724 3.84483,-10.59375 8.625,-10.59375 z m 47.78125,0 c 4.78017,0 8.65625,4.72135 8.65625,10.59375 l 0,59.78125 c 0,5.8724 -3.87608,10.59375 -8.65625,10.59375 -4.78017,0 -8.625,-4.72135 -8.625,-10.59375 l 0,-59.78125 c 0,-5.8724 3.84483,-10.59375 8.625,-10.59375 z m 45.8125,0 c 4.78017,0 8.625,4.72135 8.625,10.59375 l 0,59.78125 c 0,5.8724 -3.84483,10.59375 -8.625,10.59375 -4.78017,0 -8.625,-4.72135 -8.625,-10.59375 l 0,-59.78125 c 0,-5.8724 3.84483,-10.59375 8.625,-10.59375 z"
         id="path3830"
         style="fill:#000000;fill-opacity:1;stroke:#000000;stroke-width:1px;stroke-linecap:butt;stroke-linejoin:miter;stroke-opacity:1" />
      <rect
         width="42.478611"
         height="141.37413"
         rx="20.614"
         x="368.47836"
         y="-62.865776"
         transform="matrix(0.85349276,0.5211047,-0.5211047,0.85349276,0,0)"
         id="rect3876"
         style="fill:#000000;fill-opacity:1" />
      <rect
         width="42.478611"
         height="141.37413"
         rx="20.614082"
         x="-286.94711"
         y="337.3595"
         transform="matrix(-0.85349276,0.5211047,0.5211047,0.85349276,0,0)"
         id="rect3878"
         style="fill:#000000;fill-opacity:1" />
    </g>
  </g>
</svg>
