<?xml version="1.0" encoding="UTF-8" standalone="no"?>
<!-- Created with Inkscape (http://www.inkscape.org/) -->

<svg
   xmlns:dc="http://purl.org/dc/elements/1.1/"
   xmlns:cc="http://creativecommons.org/ns#"
   xmlns:rdf="http://www.w3.org/1999/02/22-rdf-syntax-ns#"
   xmlns:svg="http://www.w3.org/2000/svg"
   xmlns="http://www.w3.org/2000/svg"
   version="1.1"
   width="370.43668"
   height="294.92834"
   id="svg2">
  <defs
     id="defs4" />
  <metadata
     id="metadata7">
    <rdf:RDF>
      <cc:Work
         rdf:about="">
        <dc:format>image/svg+xml</dc:format>
        <dc:type
           rdf:resource="http://purl.org/dc/dcmitype/StillImage" />
        <dc:title></dc:title>
      </cc:Work>
    </rdf:RDF>
  </metadata>
  <g
     transform="translate(-220.75,-146.06409)"
     id="layer1">
    <path
       d="M 18.96875,104.3125 C 8.72751,104.3125 0.5,112.57126 0.5,122.8125 l 0,1.40625 c 0,10.24124 8.22751,18.5 18.46875,18.5 l 14.84375,0 L 18.84375,143 55.375,263.8125 c 0,0 5.96528,16.5788 14.59375,17.90625 4.77583,0.73475 90.9375,-0.65625 90.9375,-0.65625 l 0,-0.4375 c 1.79439,0.029 55.59945,0.91293 79.15625,0.875 -23.38256,-15.05832 -38.875,-41.30841 -38.875,-71.1875 0,-31.03266 16.71807,-58.14559 41.625,-72.875 -7.48729,-0.57037 -14.21324,-3.80407 -19.21875,-8.75 -2.64747,-2.61595 -9.9206,-13.17868 -16.75,-24.375 l -88,0 c -6.61739,10.76219 -13.47429,20.69224 -16.03125,23.21875 -5.5309,5.46507 -13.15387,8.84375 -21.59375,8.84375 -16.87974,0 -30.5625,-13.5087 -30.5625,-30.1875 0,-0.62774 0.0243,-1.25676 0.0625,-1.875 l -31.75,0 z m 256.625,0 c 0.10021,0.99523 0.15625,1.97871 0.15625,3 0,7.80245 -2.99099,14.91745 -7.90625,20.28125 5.78841,-1.25092 11.80605,-1.90625 17.96875,-1.90625 13.58204,0 26.40652,3.21957 37.78125,8.90625 2.00671,-2.95895 3.1875,-6.51889 3.1875,-10.375 l 0,-1.40625 c 0,-10.24124 -8.25876,-18.5 -18.5,-18.5 l -32.6875,0 z M 93.1875,169.59375 c 4.78017,0 8.625,4.72135 8.625,10.59375 l 0,59.78125 c 0,5.8724 -3.84483,10.59375 -8.625,10.59375 -4.78017,0 -8.625,-4.72135 -8.625,-10.59375 l 0,-59.78125 c 0,-5.8724 3.84483,-10.59375 8.625,-10.59375 z m 45.125,0 c 4.78017,0 8.625,4.72135 8.625,10.59375 l 0,59.78125 c 0,5.8724 -3.84483,10.59375 -8.625,10.59375 -4.78017,0 -8.625,-4.72135 -8.625,-10.59375 l 0,-59.78125 c 0,-5.8724 3.84483,-10.59375 8.625,-10.59375 z m 47.78125,0 c 4.78017,0 8.65625,4.72135 8.65625,10.59375 l 0,59.78125 c 0,5.8724 -3.87608,10.59375 -8.65625,10.59375 -4.78017,0 -8.625,-4.72135 -8.625,-10.59375 l 0,-59.78125 c 0,-5.8724 3.84483,-10.59375 8.625,-10.59375 z"
       transform="translate(220.75,146.06409)"
       id="path3830"
       style="fill:#000000;fill-opacity:1;stroke:#000000;stroke-width:1px;stroke-linecap:butt;stroke-linejoin:miter;stroke-opacity:1" />
    <rect
       width="42.478611"
       height="141.37413"
       rx="20.614082"
       x="368.47836"
       y="-62.865776"
       transform="matrix(0.85349276,0.5211047,-0.5211047,0.85349276,0,0)"
       id="rect3876"
       style="fill:#000000;fill-opacity:1" />
    <rect
       width="42.478611"
       height="141.37413"
       rx="20.614082"
       x="-286.94711"
       y="337.3595"
       transform="matrix(-0.85349276,0.5211047,0.5211047,0.85349276,0,0)"
       id="rect3878"
       style="fill:#000000;fill-opacity:1" />
    <path
       d="m 538.94738,358.76611 a 37.832512,41.81488 0 1 1 -75.66502,0 37.832512,41.81488 0 1 1 75.66502,0 z"
       transform="matrix(1.7543914,0,0,1.5873019,-371.62973,-212.09863)"
       id="path3880"
       style="fill:#000000;fill-opacity:1" />
    <rect
       width="3.415309"
       height="70.66732"
       x="354.13782"
       y="-544.16357"
       transform="matrix(0,1,-1,0,0,0)"
       id="rect3771"
       style="fill:#000000;fill-opacity:1;stroke:#ffffff;stroke-width:14.86469078;stroke-miterlimit:4;stroke-opacity:1;stroke-dasharray:none" />
  </g>
</svg>
