<svg xmlns="http://www.w3.org/2000/svg" xmlns:xlink="http://www.w3.org/1999/xlink" version="1.1" x="0px" y="0px" viewBox="0 0 260.254 117.172" enable-background="new 0 0 260.254 117.172" xml:space="preserve"><style>.style0{fill:	#F58025;}.style1{fill:	#FFFFFF;}</style><rect y="0" width="260.254" height="117.172" class="style0"/><path d="M71.021 60.325c-1.336-1.687-2.844-3.109-4.506-4.246c-2.265-1.547-4.592-2.696-6.904-3.402 c-2.249-0.696-3.958-1.158-5.236-1.425c-0.027-0.006-10.097-2.711-10.097-2.711c-2.496-0.689-4.466-1.377-5.853-2.051 c-1.533-0.749-2.155-1.412-2.401-1.836c-0.375-0.63-0.563-1.513-0.563-2.624c0-1.22 0.244-2.218 0.725-2.964 c0.526-0.814 1.206-1.507 2.028-2.057c0.832-0.555 1.777-0.953 2.811-1.176c1.102-0.241 2.212-0.362 3.304-0.362 c1.721 0 3.323 0.152 4.764 0.457c1.37 0.289 2.602 0.789 3.659 1.478c1.011 0.663 1.806 1.556 2.428 2.732 c0.55 1.035 0.904 2.356 1.06 3.93l0.007-0.003c0 1.036 0.809 1.876 1.806 1.876v0.001h12.968V60.325z M109.109 50.834 c-0.617 1.16-1.404 2.03-2.412 2.655c-1.043 0.653-2.284 1.1-3.685 1.332c-1.494 0.245-3.069 0.37-4.687 0.37H88.116V37.088h10.208 c1.613 0 3.191 0.123 4.687 0.366c1.399 0.235 2.638 0.683 3.685 1.335c1.008 0.63 1.795 1.5 2.412 2.658 c0.613 1.154 0.924 2.737 0.924 4.691C110.033 48.097 109.722 49.677 109.109 50.834 M76.791 94.471h9.521 c0.993 0 1.799-0.837 1.805-1.87V69.578h14.196c4.326 0 8.076-0.666 11.14-1.979c3.085-1.325 5.641-3.108 7.596-5.301 c1.16-1.295 2.134-2.724 2.928-4.266c1.724 2.816 4.108 6.701 5.587 9.053l-12.992 24.662c-0.125 0.253-0.194 0.54-0.194 0.844 c0 1.032 0.8 1.869 1.79 1.877h14.619v-0.007c0.68 0 1.269-0.392 1.579-0.967l36.284-68.01c0.144-0.268 0.223-0.579 0.223-0.907 c0-1.019-0.774-1.84-1.746-1.875h-15.159c-0.669 0.022-1.247 0.412-1.543 0.995l-13.71 26.021 c-2.416-4.246-7.133-12.527-14.872-26.129l-0.003 0.001c-0.306-0.515-0.849-0.866-1.473-0.889l-4.341-0.003H72.771 c-0.97 0.034-1.745 0.857-1.745 1.873h-0.005v10.171c-0.139-0.317-0.285-0.627-0.442-0.934c-1.548-2.971-3.669-5.449-6.307-7.367 c-2.609-1.892-5.62-3.276-8.959-4.114c-3.291-0.825-6.764-1.243-10.323-1.243c-3.075 0-6.2 0.435-9.285 1.302 c-3.111 0.876-5.946 2.242-8.418 4.064c-2.5 1.843-4.549 4.179-6.097 6.943c-1.568 2.806-2.361 6.132-2.361 9.896 c0 3.37 0.629 6.297 1.872 8.7c1.227 2.377 2.867 4.389 4.861 5.983c1.962 1.556 4.202 2.844 6.657 3.811 c2.387 0.95 4.885 1.761 7.418 2.419L39.6 64.193c2.389 0.702 4.821 1.359 7.235 1.955c2.275 0.554 4.352 1.222 6.166 1.969 c1.701 0.712 3.087 1.593 4.117 2.634c0.907 0.914 1.35 2.103 1.35 3.622c0 1.457-0.337 2.604-1.031 3.501 c-0.759 0.983-1.684 1.738-2.83 2.305c-1.18 0.586-2.472 0.989-3.833 1.196c-1.421 0.211-2.77 0.323-4.016 0.323 c-1.809 0-3.586-0.231-5.275-0.685c-1.645-0.444-3.085-1.127-4.288-2.027c-1.171-0.877-2.129-2.051-2.84-3.474 c-0.645-1.29-0.995-2.884-1.055-4.737h-0.004c0-1.039-0.807-1.879-1.804-1.879l-0.008-0.001H18.456v0.001 c-0.976 0-1.773 0.814-1.799 1.822c0.006 4.24 0.795 7.988 2.366 11.132c1.632 3.269 3.872 6.006 6.653 8.13 c2.753 2.103 5.964 3.667 9.545 4.652c3.535 0.963 7.23 1.456 10.98 1.456c4.631 0 8.781-0.577 12.328-1.71 c3.585-1.144 6.639-2.77 9.08-4.839c1.306-1.102 2.442-2.333 3.411-3.672v6.722h0.005c0 1.036 0.807 1.877 1.805 1.877 L76.791 94.471z" class="style1"/><path d="M243.597 43.762c0-0.996-0.782-1.804-1.766-1.85h-16.612V24.306l-0.006 0.001 c0-1.009-0.802-1.826-1.806-1.855h-33.751c-1.023 0-1.853 0.828-1.858 1.853v17.606h-16.593c-0.973 0.034-1.754 0.817-1.783 1.794 v30.312c0.008 1.013 0.838 1.836 1.855 1.836h16.521v17.006h0.005c0 1.025 0.83 1.857 1.853 1.857v0.004h33.694v-0.004 c1.025 0 1.855-0.833 1.855-1.857h0.003V75.853h16.53l0.004-0.004c1.021 0 1.845-0.82 1.855-1.833V43.762z" class="style1"/></svg>