<?xml version="1.0" encoding="UTF-8" standalone="no"?>
<!-- Created with Inkscape (http://www.inkscape.org/) -->

<svg
   xmlns:dc="http://purl.org/dc/elements/1.1/"
   xmlns:cc="http://creativecommons.org/ns#"
   xmlns:rdf="http://www.w3.org/1999/02/22-rdf-syntax-ns#"
   xmlns:svg="http://www.w3.org/2000/svg"
   xmlns="http://www.w3.org/2000/svg"
   xmlns:sodipodi="http://sodipodi.sourceforge.net/DTD/sodipodi-0.dtd"
   xmlns:inkscape="http://www.inkscape.org/namespaces/inkscape"
   version="1.1"
   width="352.99347"
   height="282.43143"
   id="svg2"
   inkscape:version="0.48.4 r9939"
   sodipodi:docname="inCart.svg">
  <sodipodi:namedview
     pagecolor="#ffffff"
     bordercolor="#666666"
     borderopacity="1"
     objecttolerance="10"
     gridtolerance="10"
     guidetolerance="10"
     inkscape:pageopacity="0"
     inkscape:pageshadow="2"
     inkscape:window-width="1280"
     inkscape:window-height="753"
     id="namedview11"
     showgrid="false"
     fit-margin-left="0"
     fit-margin-top="0"
     fit-margin-right="0"
     fit-margin-bottom="0"
     inkscape:zoom="0.22425739"
     inkscape:cx="151.29724"
     inkscape:cy="-97.685643"
     inkscape:window-x="0"
     inkscape:window-y="0"
     inkscape:window-maximized="1"
     inkscape:current-layer="svg2" />
  <defs
     id="defs4" />
  <metadata
     id="metadata7">
    <rdf:RDF>
      <cc:Work
         rdf:about="">
        <dc:format>image/svg+xml</dc:format>
        <dc:type
           rdf:resource="http://purl.org/dc/dcmitype/StillImage" />
        <dc:title />
      </cc:Work>
    </rdf:RDF>
  </metadata>
  <g
     id="layer1"
     transform="translate(-220.75,-146.06406)">
    <path
       d="m 239.71875,250.375 c -10.24124,0 -18.46875,8.25876 -18.46875,18.5 l 0,1.40625 c 0,10.24124 8.22751,18.5 18.46875,18.5 l 14.84375,0 -14.96875,0.28125 36.53125,120.8125 c 0,0 5.96528,16.5788 14.59375,17.90625 4.77583,0.73475 90.9375,-0.65625 90.9375,-0.65625 l 0,-0.4375 c 1.72415,0.0279 51.63948,0.84513 76.46875,0.875 -21.95708,-15.28791 -36.34375,-40.68551 -36.34375,-69.46875 0,-32.2064 17.98839,-60.19973 44.46875,-74.5 -0.1052,10e-4 -0.20704,0 -0.3125,0 -8.43988,0 -16.06285,-3.37868 -21.59375,-8.84375 -2.64747,-2.61595 -9.9206,-13.17868 -16.75,-24.375 l -88,0 c -6.61739,10.76219 -13.47429,20.69224 -16.03125,23.21875 -5.5309,5.46507 -13.15387,8.84375 -21.59375,8.84375 -16.87974,0 -30.5625,-13.5087 -30.5625,-30.1875 0,-0.62774 0.0243,-1.25676 0.0625,-1.875 l -31.75,0 z m 256.625,0 c 0.10021,0.99523 0.15625,1.97871 0.15625,3 0,8.91615 -3.90651,16.93559 -10.125,22.46875 6.42393,-1.55977 13.12757,-2.375 20.03125,-2.375 13.25916,0 25.79705,3.06433 36.96875,8.5 2.59342,-3.18339 4.15625,-7.24726 4.15625,-11.6875 l 0,-1.40625 c 0,-10.24124 -8.25876,-18.5 -18.5,-18.5 l -32.6875,0 z M 313.9375,315.65625 c 4.78017,0 8.625,4.72135 8.625,10.59375 l 0,59.78125 c 0,5.8724 -3.84483,10.59375 -8.625,10.59375 -4.78017,0 -8.625,-4.72135 -8.625,-10.59375 l 0,-59.78125 c 0,-5.8724 3.84483,-10.59375 8.625,-10.59375 z m 45.125,0 c 4.78017,0 8.625,4.72135 8.625,10.59375 l 0,59.78125 c 0,5.8724 -3.84483,10.59375 -8.625,10.59375 -4.78017,0 -8.625,-4.72135 -8.625,-10.59375 l 0,-59.78125 c 0,-5.8724 3.84483,-10.59375 8.625,-10.59375 z m 47.78125,0 c 4.78017,0 8.65625,4.72135 8.65625,10.59375 l 0,59.78125 c 0,5.8724 -3.87608,10.59375 -8.65625,10.59375 -4.78017,0 -8.625,-4.72135 -8.625,-10.59375 l 0,-59.78125 c 0,-5.8724 3.84483,-10.59375 8.625,-10.59375 z"
       id="path3830"
       style="fill:#000000;fill-opacity:1;stroke:#000000;stroke-width:1px;stroke-linecap:butt;stroke-linejoin:miter;stroke-opacity:1"
       inkscape:connector-curvature="0" />
    <rect
       width="42.478611"
       height="141.37413"
       rx="20.614"
       x="368.47836"
       y="-62.865776"
       transform="matrix(0.85349276,0.5211047,-0.5211047,0.85349276,0,0)"
       id="rect3876"
       style="fill:#000000;fill-opacity:1" />
    <rect
       width="42.478611"
       height="141.37413"
       rx="20.614082"
       x="-286.94711"
       y="337.3595"
       transform="matrix(-0.85349276,0.5211047,0.5211047,0.85349276,0,0)"
       id="rect3878"
       style="fill:#000000;fill-opacity:1" />
    <path
       d="m 573.74348,359.09675 c 0,36.6567 -29.71622,66.37284 -66.37303,66.37284 -36.65682,0 -66.37303,-29.71614 -66.37303,-66.37284 0,-36.65671 29.71621,-66.37284 66.37303,-66.37284 36.65681,0 66.37303,29.71613 66.37303,66.37284 z"
       id="path3880"
       style="fill:#000000;fill-opacity:1"
       inkscape:connector-curvature="0" />
    <path
       d="m 464.30456,356.40594 33.00709,27.39547 46.18974,-49.19295"
       id="path3890"
       style="fill:none;stroke:#ffffff;stroke-width:22.70000076;stroke-linecap:butt;stroke-linejoin:miter;stroke-miterlimit:4;stroke-opacity:1;stroke-dasharray:none"
       inkscape:connector-curvature="0" />
  </g>
</svg>
